M48
; DRILL file {KiCad (5.1.12)-1} date 11/12/22 21:15:44
; FORMAT={-:-/ absolute / metric / decimal}
; #@! TF.CreationDate,2022-11-12T21:15:44+01:00
; #@! TF.GenerationSoftware,Kicad,Pcbnew,(5.1.12)-1
; #@! TF.FileFunction,Plated,1,2,PTH
FMAT,2
METRIC
T1C0.250
T2C0.400
T3C0.500
T4C0.600
T5C1.000
T6C2.200
%
G90
G05
T2
X48.515Y-66.675
X48.515Y-91.44
X48.998Y-65.508
X48.998Y-67.842
X48.998Y-90.273
X48.998Y-92.607
X50.165Y-65.025
X50.165Y-68.325
X50.165Y-89.79
X50.165Y-93.09
X51.332Y-65.508
X51.332Y-67.842
X51.332Y-90.273
X51.332Y-92.607
X51.815Y-66.675
X51.815Y-91.44
X56.678Y-71.944
X57.819Y-64.283
X58.798Y-89.739
X59.47Y-80.078
X59.965Y-68.517
X61.573Y-89.411
X62.64Y-83.358
X62.661Y-89.314
X64.214Y-78.83
X65.284Y-82.08
X66.398Y-68.462
X66.751Y-78.449
X67.094Y-77.441
X67.173Y-76.092
X67.773Y-68.509
X68.005Y-72.552
X69.392Y-72.589
X69.617Y-84.934
X70.611Y-76.418
X70.752Y-71.907
X70.965Y-83.759
X71.326Y-86.005
X74.347Y-84.47
X74.385Y-86.12
X76.255Y-70.2
X76.418Y-81.281
X76.48Y-84.47
X77.434Y-70.624
X78.975Y-81.85
X79.075Y-85.15
X83.25Y-84.45
X83.975Y-79.5
X91.916Y-80.913
X92.475Y-71.275
X95.55Y-86.0
X101.05Y-73.7
X103.649Y-66.018
X109.625Y-92.65
X110.08Y-69.894
X110.467Y-72.576
X111.702Y-88.465
X111.9Y-92.1
X112.775Y-84.6
X113.4Y-78.05
X113.975Y-91.45
X114.285Y-69.108
X115.4Y-82.75
X116.164Y-75.697
X116.235Y-68.796
X118.1Y-92.175
X119.25Y-68.775
X120.27Y-66.675
X120.27Y-91.44
X120.675Y-72.125
X120.753Y-65.508
X120.753Y-67.842
X120.753Y-90.273
X120.753Y-92.607
X121.05Y-80.85
X121.92Y-65.025
X121.92Y-68.325
X121.92Y-89.79
X121.92Y-93.09
X123.087Y-65.508
X123.087Y-67.842
X123.087Y-90.273
X123.087Y-92.607
X123.57Y-66.675
X123.57Y-91.44
X123.725Y-71.375
T5
X66.04Y-66.04
X66.04Y-91.44
X68.58Y-66.04
X68.58Y-91.44
X71.12Y-66.04
X71.12Y-91.44
X73.66Y-66.04
X73.66Y-91.44
X76.2Y-66.04
X76.2Y-91.44
X78.74Y-66.04
X78.74Y-91.44
X81.28Y-66.04
X81.28Y-91.44
X83.82Y-66.04
X83.82Y-91.44
X86.36Y-66.04
X86.36Y-91.44
X88.9Y-66.04
X88.9Y-91.44
X91.44Y-66.04
X91.44Y-91.44
X93.98Y-66.04
X93.98Y-91.44
X96.52Y-66.04
X96.52Y-91.44
X99.06Y-66.04
X99.06Y-91.44
X101.6Y-66.04
X101.6Y-91.44
T6
X50.165Y-66.675
X50.165Y-91.44
X121.92Y-66.675
X121.92Y-91.44
T1
G00X61.126Y-76.562
M15
G01X61.126Y-76.562
M16
G05
G00X61.126Y-78.086
M15
G01X61.126Y-78.086
M16
G05
G00X61.939Y-75.8
M15
G01X61.939Y-75.8
M16
G05
G00X61.939Y-77.324
M15
G01X61.939Y-77.324
M16
G05
G00X61.939Y-78.797
M15
G01X61.939Y-78.797
M16
G05
G00X62.599Y-78.086
M15
G01X62.599Y-78.086
M16
G05
G00X62.65Y-76.562
M15
G01X62.65Y-76.562
M16
G05
G00X63.412Y-75.8
M15
G01X63.412Y-75.8
M16
G05
G00X63.412Y-77.273
M15
G01X63.412Y-77.273
M16
G05
G00X63.412Y-78.797
M15
G01X63.412Y-78.797
M16
G05
G00X64.123Y-76.562
M15
G01X64.123Y-76.562
M16
G05
G00X64.123Y-78.035
M15
G01X64.123Y-78.035
M16
G05
T3
G00X119.575Y-73.785
M15
G01X118.375Y-73.785
M16
G05
G00X119.575Y-82.425
M15
G01X118.375Y-82.425
M16
G05
T4
G00X123.455Y-73.785
M15
G01X122.855Y-73.785
M16
G05
G00X123.455Y-82.425
M15
G01X122.855Y-82.425
M16
G05
T0
M30
