%TF.GenerationSoftware,KiCad,Pcbnew,(5.1.12)-1*%
%TF.CreationDate,2022-11-12T21:15:41+01:00*%
%TF.ProjectId,NewmorphS3,4e65776d-6f72-4706-9853-332e6b696361,rev?*%
%TF.SameCoordinates,Original*%
%TF.FileFunction,Copper,L1,Top*%
%TF.FilePolarity,Positive*%
%FSLAX46Y46*%
G04 Gerber Fmt 4.6, Leading zero omitted, Abs format (unit mm)*
G04 Created by KiCad (PCBNEW (5.1.12)-1) date 2022-11-12 21:15:41*
%MOMM*%
%LPD*%
G01*
G04 APERTURE LIST*
%TA.AperFunction,SMDPad,CuDef*%
%ADD10R,3.000000X0.350000*%
%TD*%
%TA.AperFunction,ComponentPad*%
%ADD11O,1.600000X1.000000*%
%TD*%
%TA.AperFunction,ComponentPad*%
%ADD12O,2.100000X0.900000*%
%TD*%
%TA.AperFunction,ComponentPad*%
%ADD13C,0.400000*%
%TD*%
%TA.AperFunction,SMDPad,CuDef*%
%ADD14R,3.500000X1.524000*%
%TD*%
%TA.AperFunction,SMDPad,CuDef*%
%ADD15R,2.000000X2.000000*%
%TD*%
%TA.AperFunction,ComponentPad*%
%ADD16R,1.700000X1.700000*%
%TD*%
%TA.AperFunction,ComponentPad*%
%ADD17O,1.700000X1.700000*%
%TD*%
%TA.AperFunction,ComponentPad*%
%ADD18C,0.700000*%
%TD*%
%TA.AperFunction,ComponentPad*%
%ADD19C,4.400000*%
%TD*%
%TA.AperFunction,ViaPad*%
%ADD20C,0.800000*%
%TD*%
%TA.AperFunction,Conductor*%
%ADD21C,0.250000*%
%TD*%
%TA.AperFunction,Conductor*%
%ADD22C,0.254000*%
%TD*%
%TA.AperFunction,Conductor*%
%ADD23C,0.100000*%
%TD*%
G04 APERTURE END LIST*
D10*
%TO.P,U106,12*%
%TO.N,GND*%
X73124000Y-74693800D03*
%TO.P,U106,11*%
%TO.N,/DisplRST*%
X73124000Y-75393800D03*
%TO.P,U106,10*%
%TO.N,/MOSI*%
X73124000Y-76093800D03*
%TO.P,U106,9*%
%TO.N,/SCK*%
X73124000Y-76793800D03*
%TO.P,U106,8*%
%TO.N,/Display_CS*%
X73124000Y-77493800D03*
%TO.P,U106,7*%
%TO.N,/DisplayDC*%
X73124000Y-78193800D03*
%TO.P,U106,6*%
%TO.N,GND*%
X73124000Y-78893800D03*
%TO.P,U106,5*%
X73124000Y-79593800D03*
%TO.P,U106,4*%
%TO.N,+3V3*%
X73124000Y-80293800D03*
%TO.P,U106,3*%
%TO.N,/LEDA*%
X73124000Y-80993800D03*
%TO.P,U106,2*%
%TO.N,GND*%
X73124000Y-81693800D03*
%TO.P,U106,1*%
X73124000Y-82393800D03*
%TD*%
%TO.P,D102,1*%
%TO.N,Net-(D102-Pad1)*%
%TA.AperFunction,SMDPad,CuDef*%
G36*
G01*
X107063250Y-67265000D02*
X106550750Y-67265000D01*
G75*
G02*
X106332000Y-67046250I0J218750D01*
G01*
X106332000Y-66608750D01*
G75*
G02*
X106550750Y-66390000I218750J0D01*
G01*
X107063250Y-66390000D01*
G75*
G02*
X107282000Y-66608750I0J-218750D01*
G01*
X107282000Y-67046250D01*
G75*
G02*
X107063250Y-67265000I-218750J0D01*
G01*
G37*
%TD.AperFunction*%
%TO.P,D102,2*%
%TO.N,Net-(D102-Pad2)*%
%TA.AperFunction,SMDPad,CuDef*%
G36*
G01*
X107063250Y-65690000D02*
X106550750Y-65690000D01*
G75*
G02*
X106332000Y-65471250I0J218750D01*
G01*
X106332000Y-65033750D01*
G75*
G02*
X106550750Y-64815000I218750J0D01*
G01*
X107063250Y-64815000D01*
G75*
G02*
X107282000Y-65033750I0J-218750D01*
G01*
X107282000Y-65471250D01*
G75*
G02*
X107063250Y-65690000I-218750J0D01*
G01*
G37*
%TD.AperFunction*%
%TD*%
D11*
%TO.P,J101,S1*%
%TO.N,GND*%
X123155000Y-73785000D03*
X123155000Y-82425000D03*
D12*
X118975000Y-73785000D03*
X118975000Y-82425000D03*
%TD*%
D13*
%TO.P,U103,*%
%TO.N,*%
X62599000Y-78086000D03*
X64123000Y-76562000D03*
X63411800Y-77273200D03*
X64123000Y-78035200D03*
X61125800Y-76562000D03*
X62649800Y-76562000D03*
X63411800Y-75800000D03*
X61125800Y-78086000D03*
X61938600Y-75800000D03*
X61938600Y-77324000D03*
X61938600Y-78797200D03*
X63411800Y-78797200D03*
%TD*%
D14*
%TO.P,U105,1*%
%TO.N,/JoyX*%
X104170000Y-75580000D03*
%TO.P,U105,2*%
%TO.N,GND*%
X104170000Y-77430000D03*
%TO.P,U105,3*%
%TO.N,/JoyY*%
X104170000Y-79255000D03*
%TO.P,U105,4*%
%TO.N,+3V3*%
X104170000Y-81105000D03*
D15*
%TO.P,U105,*%
%TO.N,*%
X121470000Y-78305000D03*
%TD*%
D16*
%TO.P,J103,1*%
%TO.N,/MISO*%
X66040000Y-66040000D03*
D17*
%TO.P,J103,2*%
%TO.N,/MOSI*%
X68580000Y-66040000D03*
%TO.P,J103,3*%
%TO.N,/SCK*%
X71120000Y-66040000D03*
%TO.P,J103,4*%
%TO.N,/IO15*%
X73660000Y-66040000D03*
%TO.P,J103,5*%
%TO.N,/IO16*%
X76200000Y-66040000D03*
%TO.P,J103,6*%
%TO.N,/IO17*%
X78740000Y-66040000D03*
%TO.P,J103,7*%
%TO.N,/IO18*%
X81280000Y-66040000D03*
%TO.P,J103,8*%
%TO.N,/IO8*%
X83820000Y-66040000D03*
%TO.P,J103,9*%
%TO.N,/IO9*%
X86360000Y-66040000D03*
%TO.P,J103,10*%
%TO.N,/IO10*%
X88900000Y-66040000D03*
%TO.P,J103,11*%
%TO.N,/IO11*%
X91440000Y-66040000D03*
%TO.P,J103,12*%
%TO.N,/IO12*%
X93980000Y-66040000D03*
%TO.P,J103,13*%
%TO.N,/IO13*%
X96520000Y-66040000D03*
%TO.P,J103,14*%
%TO.N,GND*%
X99060000Y-66040000D03*
%TO.P,J103,15*%
%TO.N,+3V3*%
X101600000Y-66040000D03*
%TD*%
%TO.P,J104,15*%
%TO.N,/VBAT*%
X101600000Y-91440000D03*
%TO.P,J104,14*%
%TO.N,/VUSB*%
X99060000Y-91440000D03*
%TO.P,J104,13*%
%TO.N,GND*%
X96520000Y-91440000D03*
%TO.P,J104,12*%
X93980000Y-91440000D03*
%TO.P,J104,11*%
%TO.N,+3V3*%
X91440000Y-91440000D03*
%TO.P,J104,10*%
%TO.N,/IO48*%
X88900000Y-91440000D03*
%TO.P,J104,9*%
%TO.N,/IO46*%
X86360000Y-91440000D03*
%TO.P,J104,8*%
%TO.N,/IO45*%
X83820000Y-91440000D03*
%TO.P,J104,7*%
%TO.N,/IO42*%
X81280000Y-91440000D03*
%TO.P,J104,6*%
%TO.N,/IO38*%
X78740000Y-91440000D03*
%TO.P,J104,5*%
%TO.N,/RXD*%
X76200000Y-91440000D03*
%TO.P,J104,4*%
%TO.N,/TXD*%
X73660000Y-91440000D03*
%TO.P,J104,3*%
%TO.N,/IO21*%
X71120000Y-91440000D03*
%TO.P,J104,2*%
%TO.N,/IO14*%
X68580000Y-91440000D03*
D16*
%TO.P,J104,1*%
%TO.N,/IO3*%
X66040000Y-91440000D03*
%TD*%
D15*
%TO.P,SW103,2*%
%TO.N,Net-(R108-Pad2)*%
X57150000Y-67660000D03*
%TO.P,SW103,1*%
%TO.N,+3V3*%
X57150000Y-73660000D03*
%TD*%
%TO.P,SW104,1*%
%TO.N,+3V3*%
X57150000Y-90185000D03*
%TO.P,SW104,2*%
%TO.N,Net-(R110-Pad2)*%
X57150000Y-84185000D03*
%TD*%
D18*
%TO.P,H101,1*%
%TO.N,N/C*%
X123086726Y-65508274D03*
X121920000Y-65025000D03*
X120753274Y-65508274D03*
X120270000Y-66675000D03*
X120753274Y-67841726D03*
X121920000Y-68325000D03*
X123086726Y-67841726D03*
X123570000Y-66675000D03*
D19*
X121920000Y-66675000D03*
%TD*%
%TO.P,H102,1*%
%TO.N,N/C*%
X121920000Y-91440000D03*
D18*
X123570000Y-91440000D03*
X123086726Y-92606726D03*
X121920000Y-93090000D03*
X120753274Y-92606726D03*
X120270000Y-91440000D03*
X120753274Y-90273274D03*
X121920000Y-89790000D03*
X123086726Y-90273274D03*
%TD*%
%TO.P,H103,1*%
%TO.N,N/C*%
X51331726Y-65508274D03*
X50165000Y-65025000D03*
X48998274Y-65508274D03*
X48515000Y-66675000D03*
X48998274Y-67841726D03*
X50165000Y-68325000D03*
X51331726Y-67841726D03*
X51815000Y-66675000D03*
D19*
X50165000Y-66675000D03*
%TD*%
%TO.P,H104,1*%
%TO.N,N/C*%
X50165000Y-91440000D03*
D18*
X51815000Y-91440000D03*
X51331726Y-92606726D03*
X50165000Y-93090000D03*
X48998274Y-92606726D03*
X48515000Y-91440000D03*
X48998274Y-90273274D03*
X50165000Y-89790000D03*
X51331726Y-90273274D03*
%TD*%
D20*
%TO.N,GND*%
X118100000Y-92175000D03*
X111900000Y-92100000D03*
X113975000Y-91450000D03*
X123725000Y-71375000D03*
%TO.N,/VUSB*%
X116163700Y-75697100D03*
%TO.N,GND*%
X120675000Y-72125000D03*
X119250000Y-68775000D03*
X113400000Y-78050000D03*
X121050000Y-80850000D03*
X115400000Y-82750000D03*
X112775000Y-84600000D03*
X109625000Y-92650000D03*
X78975000Y-81850000D03*
X83975000Y-79500000D03*
X64213920Y-78830018D03*
X95550000Y-86000000D03*
X101050000Y-73700000D03*
X92475000Y-71275000D03*
X79075000Y-85150000D03*
X83250000Y-84450000D03*
%TO.N,/VBAT*%
X116234900Y-68795600D03*
%TO.N,Net-(D102-Pad1)*%
X111701900Y-88464700D03*
%TO.N,Net-(D102-Pad2)*%
X103649100Y-66017900D03*
%TO.N,/IO16*%
X66398300Y-68462500D03*
%TO.N,/IO17*%
X67773100Y-68509200D03*
%TO.N,+3V3*%
X76418200Y-81280800D03*
X91916000Y-80913300D03*
X56678300Y-71944300D03*
%TO.N,/IO48*%
X76479800Y-84469600D03*
%TO.N,/IO46*%
X70965100Y-83758800D03*
%TO.N,/IO45*%
X74384700Y-86120300D03*
%TO.N,/IO42*%
X61572800Y-89410600D03*
%TO.N,/IO14*%
X71326300Y-86004600D03*
%TO.N,ChkBat*%
X59965400Y-68517000D03*
X114285100Y-69107900D03*
%TO.N,Net-(R108-Pad2)*%
X57819100Y-64283100D03*
%TO.N,Net-(R110-Pad2)*%
X58798000Y-89738700D03*
%TO.N,/BUTT2*%
X62660600Y-89314200D03*
X62640300Y-83358000D03*
%TO.N,/D-*%
X110467000Y-72576300D03*
X77433600Y-70623800D03*
%TO.N,/D+*%
X110080100Y-69894100D03*
X76254800Y-70199700D03*
%TO.N,/LEDA*%
X59470400Y-80078100D03*
%TO.N,/DisplRST*%
X67173200Y-76092200D03*
%TO.N,/Display_CS*%
X67093900Y-77441500D03*
%TO.N,/DisplayDC*%
X66750700Y-78449400D03*
%TO.N,/JoyX*%
X70752000Y-71906800D03*
%TO.N,/JoyY*%
X65284200Y-82080100D03*
%TO.N,/MISO*%
X68004900Y-72551700D03*
%TO.N,/MOSI*%
X70611000Y-76417600D03*
%TO.N,/SCK*%
X69391900Y-72589300D03*
%TO.N,/IO3*%
X69617400Y-84934400D03*
%TO.N,/IO21*%
X74347200Y-84469600D03*
%TD*%
D21*
%TO.N,/VUSB*%
X100235300Y-91440000D02*
X100235300Y-91072600D01*
X100235300Y-91072600D02*
X102117900Y-89190000D01*
X102117900Y-89190000D02*
X112002400Y-89190000D01*
X112002400Y-89190000D02*
X116163700Y-85028700D01*
X116163700Y-85028700D02*
X116163700Y-75697100D01*
X99060000Y-91440000D02*
X100235300Y-91440000D01*
%TO.N,GND*%
X110175000Y-92100000D02*
X109625000Y-92650000D01*
X111900000Y-92100000D02*
X110175000Y-92100000D01*
X73124000Y-82393800D02*
X69531200Y-82393800D01*
X69531200Y-82393800D02*
X69325000Y-82187600D01*
X69325000Y-82187600D02*
X69325000Y-81975000D01*
X69606200Y-81693800D02*
X73124000Y-81693800D01*
X69325000Y-81975000D02*
X69606200Y-81693800D01*
X76070199Y-82005801D02*
X76694199Y-82005801D01*
X75758198Y-81693800D02*
X76070199Y-82005801D01*
X73124000Y-81693800D02*
X75758198Y-81693800D01*
X78333310Y-82491690D02*
X78975000Y-81850000D01*
X77180088Y-82491690D02*
X78333310Y-82491690D01*
X76694199Y-82005801D02*
X77180088Y-82491690D01*
X83975000Y-79500000D02*
X76325000Y-79500000D01*
X76231200Y-79593800D02*
X73124000Y-79593800D01*
X76325000Y-79500000D02*
X76231200Y-79593800D01*
X76325000Y-79500000D02*
X76325000Y-79275000D01*
X76325000Y-79275000D02*
X75950000Y-78900000D01*
X73130200Y-78900000D02*
X73124000Y-78893800D01*
X75950000Y-78900000D02*
X73130200Y-78900000D01*
X67498598Y-74693800D02*
X73124000Y-74693800D01*
X66025699Y-76166699D02*
X67498598Y-74693800D01*
X75675599Y-79174401D02*
X66402699Y-79174401D01*
X66402699Y-79174401D02*
X66025699Y-78797401D01*
X75950000Y-78900000D02*
X75675599Y-79174401D01*
X64493239Y-78550699D02*
X64213920Y-78830018D01*
X66025699Y-78550699D02*
X64493239Y-78550699D01*
X66025699Y-78797401D02*
X66025699Y-78550699D01*
X66025699Y-78550699D02*
X66025699Y-76166699D01*
%TO.N,/VBAT*%
X101600000Y-91440000D02*
X110389300Y-91440000D01*
X110389300Y-91440000D02*
X116925300Y-84904000D01*
X116925300Y-84904000D02*
X116925300Y-69486000D01*
X116925300Y-69486000D02*
X116234900Y-68795600D01*
%TO.N,Net-(D102-Pad1)*%
X111701900Y-88464700D02*
X111701900Y-70461800D01*
X111701900Y-70461800D02*
X108067600Y-66827500D01*
X108067600Y-66827500D02*
X106807000Y-66827500D01*
%TO.N,Net-(D102-Pad2)*%
X103649100Y-66017900D02*
X106041600Y-66017900D01*
X106041600Y-66017900D02*
X106807000Y-65252500D01*
%TO.N,/IO16*%
X66398300Y-68462500D02*
X67195100Y-67665700D01*
X67195100Y-67665700D02*
X73766400Y-67665700D01*
X73766400Y-67665700D02*
X75024700Y-66407400D01*
X75024700Y-66407400D02*
X75024700Y-66040000D01*
X76200000Y-66040000D02*
X75024700Y-66040000D01*
%TO.N,/IO17*%
X78740000Y-66040000D02*
X77564700Y-66040000D01*
X77564700Y-66040000D02*
X77564700Y-66407300D01*
X77564700Y-66407300D02*
X75462800Y-68509200D01*
X75462800Y-68509200D02*
X67773100Y-68509200D01*
%TO.N,+3V3*%
X76418200Y-80913300D02*
X76418200Y-81280800D01*
X73124000Y-80293800D02*
X75798700Y-80293800D01*
X75798700Y-80293800D02*
X76418200Y-80913300D01*
X91916000Y-80913300D02*
X76418200Y-80913300D01*
X91916000Y-80913300D02*
X101903000Y-80913300D01*
X101903000Y-80913300D02*
X102094700Y-81105000D01*
X57150000Y-90185000D02*
X57150000Y-88859700D01*
X59375400Y-79119500D02*
X61284200Y-79119500D01*
X61284200Y-79119500D02*
X62458500Y-80293800D01*
X62458500Y-80293800D02*
X71298700Y-80293800D01*
X57150000Y-88859700D02*
X55819400Y-87529100D01*
X55819400Y-87529100D02*
X55819400Y-82675500D01*
X55819400Y-82675500D02*
X59375400Y-79119500D01*
X59375400Y-79119500D02*
X59375400Y-77210700D01*
X59375400Y-77210700D02*
X57150000Y-74985300D01*
X57150000Y-73660000D02*
X57150000Y-74985300D01*
X73124000Y-80293800D02*
X71298700Y-80293800D01*
X104170000Y-81105000D02*
X102094700Y-81105000D01*
X57150000Y-73660000D02*
X57150000Y-72334700D01*
X56678300Y-71944300D02*
X57068700Y-72334700D01*
X57068700Y-72334700D02*
X57150000Y-72334700D01*
%TO.N,/IO48*%
X88900000Y-91440000D02*
X87724700Y-91440000D01*
X87724700Y-91440000D02*
X87724700Y-91072700D01*
X87724700Y-91072700D02*
X81121600Y-84469600D01*
X81121600Y-84469600D02*
X76479800Y-84469600D01*
%TO.N,/IO46*%
X86360000Y-91440000D02*
X85184700Y-91440000D01*
X85184700Y-91440000D02*
X85184700Y-91072700D01*
X85184700Y-91072700D02*
X80753800Y-86641800D01*
X80753800Y-86641800D02*
X77617400Y-86641800D01*
X77617400Y-86641800D02*
X74719800Y-83744200D01*
X74719800Y-83744200D02*
X70979700Y-83744200D01*
X70979700Y-83744200D02*
X70965100Y-83758800D01*
%TO.N,/IO45*%
X83820000Y-91440000D02*
X82644700Y-91440000D01*
X82644700Y-91440000D02*
X82644700Y-91072600D01*
X82644700Y-91072600D02*
X81836800Y-90264700D01*
X81836800Y-90264700D02*
X78529100Y-90264700D01*
X78529100Y-90264700D02*
X74384700Y-86120300D01*
%TO.N,/IO42*%
X81280000Y-91440000D02*
X80104700Y-91440000D01*
X80104700Y-91440000D02*
X80104700Y-91807300D01*
X80104700Y-91807300D02*
X79296600Y-92615400D01*
X79296600Y-92615400D02*
X64777600Y-92615400D01*
X64777600Y-92615400D02*
X61572800Y-89410600D01*
%TO.N,/IO14*%
X68580000Y-90264700D02*
X68580000Y-88750900D01*
X68580000Y-88750900D02*
X71326300Y-86004600D01*
X68580000Y-91440000D02*
X68580000Y-90264700D01*
%TO.N,ChkBat*%
X114285100Y-69107900D02*
X109547200Y-64370000D01*
X109547200Y-64370000D02*
X64112400Y-64370000D01*
X64112400Y-64370000D02*
X59965400Y-68517000D01*
%TO.N,Net-(R108-Pad2)*%
X57150000Y-67660000D02*
X57150000Y-66334700D01*
X57150000Y-66334700D02*
X57819100Y-65665600D01*
X57819100Y-65665600D02*
X57819100Y-64283100D01*
%TO.N,Net-(R110-Pad2)*%
X57150000Y-84185000D02*
X57150000Y-85510300D01*
X57150000Y-85510300D02*
X58798000Y-87158300D01*
X58798000Y-87158300D02*
X58798000Y-89738700D01*
%TO.N,/BUTT2*%
X62640300Y-83358000D02*
X62660600Y-83378300D01*
X62660600Y-83378300D02*
X62660600Y-89314200D01*
%TO.N,/D-*%
X77433600Y-70623800D02*
X79386100Y-72576300D01*
X79386100Y-72576300D02*
X110467000Y-72576300D01*
%TO.N,/D+*%
X110080100Y-69894100D02*
X76560400Y-69894100D01*
X76560400Y-69894100D02*
X76254800Y-70199700D01*
%TO.N,/LEDA*%
X73124000Y-80993800D02*
X71298700Y-80993800D01*
X59470400Y-80078100D02*
X60386100Y-80993800D01*
X60386100Y-80993800D02*
X71298700Y-80993800D01*
%TO.N,/DisplRST*%
X67173200Y-76092200D02*
X67871600Y-75393800D01*
X67871600Y-75393800D02*
X73124000Y-75393800D01*
%TO.N,/Display_CS*%
X73124000Y-77493800D02*
X71298700Y-77493800D01*
X67093900Y-77441500D02*
X71246400Y-77441500D01*
X71246400Y-77441500D02*
X71298700Y-77493800D01*
%TO.N,/DisplayDC*%
X66750700Y-78449400D02*
X67006300Y-78193800D01*
X67006300Y-78193800D02*
X73124000Y-78193800D01*
%TO.N,/JoyX*%
X104170000Y-75580000D02*
X78941300Y-75580000D01*
X78941300Y-75580000D02*
X75268100Y-71906800D01*
X75268100Y-71906800D02*
X70752000Y-71906800D01*
%TO.N,/JoyY*%
X104170000Y-79255000D02*
X106245300Y-79255000D01*
X106245300Y-79255000D02*
X106245300Y-82011700D01*
X106245300Y-82011700D02*
X105315300Y-82941700D01*
X105315300Y-82941700D02*
X66145800Y-82941700D01*
X66145800Y-82941700D02*
X65284200Y-82080100D01*
%TO.N,/MISO*%
X68004900Y-72551700D02*
X65639500Y-70186300D01*
X65639500Y-70186300D02*
X65639500Y-67615800D01*
X65639500Y-67615800D02*
X66040000Y-67215300D01*
X66040000Y-66040000D02*
X66040000Y-67215300D01*
%TO.N,/MOSI*%
X73124000Y-76093800D02*
X74949300Y-76093800D01*
X74949300Y-76093800D02*
X74949300Y-74384000D01*
X74949300Y-74384000D02*
X74758800Y-74193500D01*
X74758800Y-74193500D02*
X68579300Y-74193500D01*
X68579300Y-74193500D02*
X64837200Y-70451400D01*
X64837200Y-70451400D02*
X64837200Y-65069800D01*
X64837200Y-65069800D02*
X65042400Y-64864600D01*
X65042400Y-64864600D02*
X67037300Y-64864600D01*
X67037300Y-64864600D02*
X67404700Y-65232000D01*
X67404700Y-65232000D02*
X67404700Y-66040000D01*
X70611000Y-76417600D02*
X70934800Y-76093800D01*
X70934800Y-76093800D02*
X73124000Y-76093800D01*
X68580000Y-66040000D02*
X67404700Y-66040000D01*
%TO.N,/SCK*%
X71120000Y-66040000D02*
X72295300Y-66040000D01*
X72295300Y-66040000D02*
X72295300Y-65672700D01*
X72295300Y-65672700D02*
X73118800Y-64849200D01*
X73118800Y-64849200D02*
X79257900Y-64849200D01*
X79257900Y-64849200D02*
X79916000Y-65507300D01*
X79916000Y-65507300D02*
X79916000Y-66633600D01*
X79916000Y-66633600D02*
X77211000Y-69338600D01*
X77211000Y-69338600D02*
X72261300Y-69338600D01*
X72261300Y-69338600D02*
X69391900Y-72208000D01*
X69391900Y-72208000D02*
X69391900Y-72589300D01*
X69391900Y-72589300D02*
X69896600Y-73094000D01*
X69896600Y-73094000D02*
X74300200Y-73094000D01*
X74300200Y-73094000D02*
X75412700Y-74206500D01*
X75412700Y-74206500D02*
X75412700Y-76330400D01*
X75412700Y-76330400D02*
X74949300Y-76793800D01*
X73124000Y-76793800D02*
X74949300Y-76793800D01*
%TO.N,/IO3*%
X66040000Y-91440000D02*
X66040000Y-88511800D01*
X66040000Y-88511800D02*
X69617400Y-84934400D01*
%TO.N,/IO21*%
X71120000Y-91440000D02*
X71120000Y-90264700D01*
X71120000Y-90264700D02*
X71120000Y-87696800D01*
X71120000Y-87696800D02*
X74347200Y-84469600D01*
%TD*%
D22*
%TO.N,GND*%
X56784100Y-64181161D02*
X56784100Y-64385039D01*
X56823874Y-64584998D01*
X56901895Y-64773356D01*
X57015163Y-64942874D01*
X57059100Y-64986811D01*
X57059100Y-65350798D01*
X56638998Y-65770901D01*
X56610000Y-65794699D01*
X56586202Y-65823697D01*
X56586201Y-65823698D01*
X56515026Y-65910424D01*
X56455425Y-66021928D01*
X56150000Y-66021928D01*
X56025518Y-66034188D01*
X55905820Y-66070498D01*
X55795506Y-66129463D01*
X55698815Y-66208815D01*
X55619463Y-66305506D01*
X55560498Y-66415820D01*
X55524188Y-66535518D01*
X55511928Y-66660000D01*
X55511928Y-68660000D01*
X55524188Y-68784482D01*
X55560498Y-68904180D01*
X55619463Y-69014494D01*
X55698815Y-69111185D01*
X55795506Y-69190537D01*
X55905820Y-69249502D01*
X56025518Y-69285812D01*
X56150000Y-69298072D01*
X58150000Y-69298072D01*
X58274482Y-69285812D01*
X58394180Y-69249502D01*
X58504494Y-69190537D01*
X58601185Y-69111185D01*
X58680537Y-69014494D01*
X58739502Y-68904180D01*
X58775812Y-68784482D01*
X58788072Y-68660000D01*
X58788072Y-66660000D01*
X58775812Y-66535518D01*
X58739502Y-66415820D01*
X58680537Y-66305506D01*
X58601185Y-66208815D01*
X58504494Y-66129463D01*
X58446866Y-66098659D01*
X58454074Y-66089876D01*
X58524646Y-65957847D01*
X58568103Y-65814586D01*
X58579100Y-65702933D01*
X58579100Y-65702924D01*
X58582776Y-65665601D01*
X58579100Y-65628278D01*
X58579100Y-64986811D01*
X58623037Y-64942874D01*
X58736305Y-64773356D01*
X58814326Y-64584998D01*
X58854100Y-64385039D01*
X58854100Y-64181161D01*
X58849891Y-64160000D01*
X63247598Y-64160000D01*
X59925599Y-67482000D01*
X59863461Y-67482000D01*
X59663502Y-67521774D01*
X59475144Y-67599795D01*
X59305626Y-67713063D01*
X59161463Y-67857226D01*
X59048195Y-68026744D01*
X58970174Y-68215102D01*
X58930400Y-68415061D01*
X58930400Y-68618939D01*
X58970174Y-68818898D01*
X59048195Y-69007256D01*
X59161463Y-69176774D01*
X59305626Y-69320937D01*
X59475144Y-69434205D01*
X59663502Y-69512226D01*
X59863461Y-69552000D01*
X60067339Y-69552000D01*
X60267298Y-69512226D01*
X60455656Y-69434205D01*
X60625174Y-69320937D01*
X60769337Y-69176774D01*
X60882605Y-69007256D01*
X60960626Y-68818898D01*
X61000400Y-68618939D01*
X61000400Y-68556801D01*
X64077201Y-65480001D01*
X64077200Y-70414077D01*
X64073524Y-70451400D01*
X64077200Y-70488722D01*
X64077200Y-70488732D01*
X64088197Y-70600385D01*
X64115368Y-70689956D01*
X64131654Y-70743646D01*
X64202226Y-70875676D01*
X64215497Y-70891846D01*
X64297199Y-70991401D01*
X64326203Y-71015204D01*
X67944798Y-74633800D01*
X67908925Y-74633800D01*
X67871600Y-74630124D01*
X67834275Y-74633800D01*
X67834267Y-74633800D01*
X67722614Y-74644797D01*
X67579353Y-74688254D01*
X67447324Y-74758826D01*
X67331599Y-74853799D01*
X67307801Y-74882798D01*
X67133398Y-75057200D01*
X67071261Y-75057200D01*
X66871302Y-75096974D01*
X66682944Y-75174995D01*
X66513426Y-75288263D01*
X66369263Y-75432426D01*
X66255995Y-75601944D01*
X66177974Y-75790302D01*
X66138200Y-75990261D01*
X66138200Y-76194139D01*
X66177974Y-76394098D01*
X66255995Y-76582456D01*
X66349417Y-76722272D01*
X66289963Y-76781726D01*
X66176695Y-76951244D01*
X66098674Y-77139602D01*
X66058900Y-77339561D01*
X66058900Y-77543439D01*
X66081140Y-77655249D01*
X65946763Y-77789626D01*
X65833495Y-77959144D01*
X65755474Y-78147502D01*
X65715700Y-78347461D01*
X65715700Y-78551339D01*
X65755474Y-78751298D01*
X65833495Y-78939656D01*
X65946763Y-79109174D01*
X66090926Y-79253337D01*
X66260444Y-79366605D01*
X66448802Y-79444626D01*
X66648761Y-79484400D01*
X66852639Y-79484400D01*
X67052598Y-79444626D01*
X67240956Y-79366605D01*
X67410474Y-79253337D01*
X67554637Y-79109174D01*
X67658454Y-78953800D01*
X70989000Y-78953800D01*
X70989000Y-79020802D01*
X71068748Y-79020802D01*
X70989000Y-79100550D01*
X70999299Y-79198743D01*
X71013398Y-79243800D01*
X70999299Y-79288857D01*
X70989000Y-79387050D01*
X71068748Y-79466798D01*
X70989000Y-79466798D01*
X70989000Y-79533800D01*
X63812360Y-79533800D01*
X63944081Y-79445787D01*
X64060387Y-79329481D01*
X64151767Y-79192721D01*
X64214711Y-79040760D01*
X64246800Y-78879440D01*
X64246800Y-78861933D01*
X64366560Y-78838111D01*
X64518521Y-78775167D01*
X64655281Y-78683787D01*
X64771587Y-78567481D01*
X64862967Y-78430721D01*
X64925911Y-78278760D01*
X64958000Y-78117440D01*
X64958000Y-77952960D01*
X64925911Y-77791640D01*
X64862967Y-77639679D01*
X64771587Y-77502919D01*
X64655281Y-77386613D01*
X64523560Y-77298600D01*
X64655281Y-77210587D01*
X64771587Y-77094281D01*
X64862967Y-76957521D01*
X64925911Y-76805560D01*
X64958000Y-76644240D01*
X64958000Y-76479760D01*
X64925911Y-76318440D01*
X64862967Y-76166479D01*
X64771587Y-76029719D01*
X64655281Y-75913413D01*
X64518521Y-75822033D01*
X64366560Y-75759089D01*
X64246800Y-75735267D01*
X64246800Y-75717760D01*
X64214711Y-75556440D01*
X64151767Y-75404479D01*
X64060387Y-75267719D01*
X63944081Y-75151413D01*
X63807321Y-75060033D01*
X63655360Y-74997089D01*
X63494040Y-74965000D01*
X63329560Y-74965000D01*
X63168240Y-74997089D01*
X63016279Y-75060033D01*
X62879519Y-75151413D01*
X62763213Y-75267719D01*
X62675200Y-75399440D01*
X62587187Y-75267719D01*
X62470881Y-75151413D01*
X62334121Y-75060033D01*
X62182160Y-74997089D01*
X62020840Y-74965000D01*
X61856360Y-74965000D01*
X61695040Y-74997089D01*
X61543079Y-75060033D01*
X61406319Y-75151413D01*
X61290013Y-75267719D01*
X61198633Y-75404479D01*
X61135689Y-75556440D01*
X61103600Y-75717760D01*
X61103600Y-75727000D01*
X61043560Y-75727000D01*
X60882240Y-75759089D01*
X60730279Y-75822033D01*
X60593519Y-75913413D01*
X60477213Y-76029719D01*
X60385833Y-76166479D01*
X60322889Y-76318440D01*
X60290800Y-76479760D01*
X60290800Y-76644240D01*
X60322889Y-76805560D01*
X60385833Y-76957521D01*
X60477213Y-77094281D01*
X60593519Y-77210587D01*
X60730279Y-77301967D01*
X60783472Y-77324000D01*
X60730279Y-77346033D01*
X60593519Y-77437413D01*
X60477213Y-77553719D01*
X60385833Y-77690479D01*
X60322889Y-77842440D01*
X60290800Y-78003760D01*
X60290800Y-78168240D01*
X60322889Y-78329560D01*
X60335290Y-78359500D01*
X60135400Y-78359500D01*
X60135400Y-77248023D01*
X60139076Y-77210700D01*
X60135400Y-77173377D01*
X60135400Y-77173367D01*
X60124403Y-77061714D01*
X60080946Y-76918453D01*
X60010374Y-76786424D01*
X59915401Y-76670699D01*
X59886403Y-76646901D01*
X58455974Y-75216472D01*
X58504494Y-75190537D01*
X58601185Y-75111185D01*
X58680537Y-75014494D01*
X58739502Y-74904180D01*
X58775812Y-74784482D01*
X58788072Y-74660000D01*
X58788072Y-72660000D01*
X58775812Y-72535518D01*
X58739502Y-72415820D01*
X58680537Y-72305506D01*
X58601185Y-72208815D01*
X58504494Y-72129463D01*
X58394180Y-72070498D01*
X58274482Y-72034188D01*
X58150000Y-72021928D01*
X57844575Y-72021928D01*
X57784974Y-71910424D01*
X57708240Y-71816924D01*
X57673526Y-71642402D01*
X57595505Y-71454044D01*
X57482237Y-71284526D01*
X57338074Y-71140363D01*
X57168556Y-71027095D01*
X56980198Y-70949074D01*
X56780239Y-70909300D01*
X56576361Y-70909300D01*
X56376402Y-70949074D01*
X56188044Y-71027095D01*
X56018526Y-71140363D01*
X55874363Y-71284526D01*
X55761095Y-71454044D01*
X55683074Y-71642402D01*
X55643300Y-71842361D01*
X55643300Y-72046239D01*
X55680160Y-72231547D01*
X55619463Y-72305506D01*
X55560498Y-72415820D01*
X55524188Y-72535518D01*
X55511928Y-72660000D01*
X55511928Y-74660000D01*
X55524188Y-74784482D01*
X55560498Y-74904180D01*
X55619463Y-75014494D01*
X55698815Y-75111185D01*
X55795506Y-75190537D01*
X55905820Y-75249502D01*
X56025518Y-75285812D01*
X56150000Y-75298072D01*
X56455425Y-75298072D01*
X56515026Y-75409576D01*
X56586201Y-75496302D01*
X56610000Y-75525301D01*
X56638998Y-75549099D01*
X58615401Y-77525503D01*
X58615400Y-78804697D01*
X55308398Y-82111701D01*
X55279400Y-82135499D01*
X55255602Y-82164497D01*
X55255601Y-82164498D01*
X55184426Y-82251224D01*
X55113854Y-82383254D01*
X55090449Y-82460412D01*
X55073156Y-82517424D01*
X55070398Y-82526515D01*
X55055724Y-82675500D01*
X55059401Y-82712832D01*
X55059400Y-87491777D01*
X55055724Y-87529100D01*
X55059400Y-87566422D01*
X55059400Y-87566432D01*
X55070397Y-87678085D01*
X55096094Y-87762797D01*
X55113854Y-87821346D01*
X55184426Y-87953376D01*
X55212204Y-87987223D01*
X55279399Y-88069101D01*
X55308403Y-88092904D01*
X55844026Y-88628528D01*
X55795506Y-88654463D01*
X55698815Y-88733815D01*
X55619463Y-88830506D01*
X55560498Y-88940820D01*
X55524188Y-89060518D01*
X55511928Y-89185000D01*
X55511928Y-91185000D01*
X55524188Y-91309482D01*
X55560498Y-91429180D01*
X55619463Y-91539494D01*
X55698815Y-91636185D01*
X55795506Y-91715537D01*
X55905820Y-91774502D01*
X56025518Y-91810812D01*
X56150000Y-91823072D01*
X58150000Y-91823072D01*
X58274482Y-91810812D01*
X58394180Y-91774502D01*
X58504494Y-91715537D01*
X58601185Y-91636185D01*
X58680537Y-91539494D01*
X58739502Y-91429180D01*
X58775812Y-91309482D01*
X58788072Y-91185000D01*
X58788072Y-90773700D01*
X58899939Y-90773700D01*
X59099898Y-90733926D01*
X59288256Y-90655905D01*
X59457774Y-90542637D01*
X59601937Y-90398474D01*
X59715205Y-90228956D01*
X59793226Y-90040598D01*
X59833000Y-89840639D01*
X59833000Y-89636761D01*
X59793226Y-89436802D01*
X59715205Y-89248444D01*
X59601937Y-89078926D01*
X59558000Y-89034989D01*
X59558000Y-87195623D01*
X59561676Y-87158300D01*
X59558000Y-87120977D01*
X59558000Y-87120967D01*
X59547003Y-87009314D01*
X59503546Y-86866053D01*
X59490172Y-86841033D01*
X59432974Y-86734023D01*
X59361799Y-86647297D01*
X59338001Y-86618299D01*
X59309004Y-86594502D01*
X58455974Y-85741472D01*
X58504494Y-85715537D01*
X58601185Y-85636185D01*
X58680537Y-85539494D01*
X58739502Y-85429180D01*
X58775812Y-85309482D01*
X58788072Y-85185000D01*
X58788072Y-83185000D01*
X58775812Y-83060518D01*
X58739502Y-82940820D01*
X58680537Y-82830506D01*
X58601185Y-82733815D01*
X58504494Y-82654463D01*
X58394180Y-82595498D01*
X58274482Y-82559188D01*
X58150000Y-82546928D01*
X57022773Y-82546928D01*
X58749146Y-80820557D01*
X58810626Y-80882037D01*
X58980144Y-80995305D01*
X59168502Y-81073326D01*
X59368461Y-81113100D01*
X59430598Y-81113100D01*
X59822301Y-81504803D01*
X59846099Y-81533801D01*
X59961824Y-81628774D01*
X60093853Y-81699346D01*
X60237114Y-81742803D01*
X60348767Y-81753800D01*
X60348776Y-81753800D01*
X60386099Y-81757476D01*
X60423422Y-81753800D01*
X64299082Y-81753800D01*
X64288974Y-81778202D01*
X64249200Y-81978161D01*
X64249200Y-82182039D01*
X64288974Y-82381998D01*
X64366995Y-82570356D01*
X64480263Y-82739874D01*
X64624426Y-82884037D01*
X64793944Y-82997305D01*
X64982302Y-83075326D01*
X65182261Y-83115100D01*
X65244398Y-83115100D01*
X65582005Y-83452708D01*
X65605799Y-83481701D01*
X65634792Y-83505495D01*
X65634796Y-83505499D01*
X65689053Y-83550026D01*
X65721524Y-83576674D01*
X65853553Y-83647246D01*
X65996814Y-83690703D01*
X66108467Y-83701700D01*
X66108476Y-83701700D01*
X66145799Y-83705376D01*
X66183122Y-83701700D01*
X69930100Y-83701700D01*
X69930100Y-83860739D01*
X69948072Y-83951093D01*
X69919298Y-83939174D01*
X69719339Y-83899400D01*
X69515461Y-83899400D01*
X69315502Y-83939174D01*
X69127144Y-84017195D01*
X68957626Y-84130463D01*
X68813463Y-84274626D01*
X68700195Y-84444144D01*
X68622174Y-84632502D01*
X68582400Y-84832461D01*
X68582400Y-84894598D01*
X65528998Y-87948001D01*
X65500000Y-87971799D01*
X65476202Y-88000797D01*
X65476201Y-88000798D01*
X65405026Y-88087524D01*
X65334454Y-88219554D01*
X65313153Y-88289776D01*
X65290998Y-88362814D01*
X65281379Y-88460476D01*
X65276324Y-88511800D01*
X65280001Y-88549132D01*
X65280001Y-89951928D01*
X65190000Y-89951928D01*
X65065518Y-89964188D01*
X64945820Y-90000498D01*
X64835506Y-90059463D01*
X64738815Y-90138815D01*
X64659463Y-90235506D01*
X64600498Y-90345820D01*
X64564188Y-90465518D01*
X64551928Y-90590000D01*
X64551928Y-91314926D01*
X63337756Y-90100755D01*
X63464537Y-89973974D01*
X63577805Y-89804456D01*
X63655826Y-89616098D01*
X63695600Y-89416139D01*
X63695600Y-89212261D01*
X63655826Y-89012302D01*
X63577805Y-88823944D01*
X63464537Y-88654426D01*
X63420600Y-88610489D01*
X63420600Y-84041411D01*
X63444237Y-84017774D01*
X63557505Y-83848256D01*
X63635526Y-83659898D01*
X63675300Y-83459939D01*
X63675300Y-83256061D01*
X63635526Y-83056102D01*
X63557505Y-82867744D01*
X63444237Y-82698226D01*
X63300074Y-82554063D01*
X63130556Y-82440795D01*
X62942198Y-82362774D01*
X62742239Y-82323000D01*
X62538361Y-82323000D01*
X62338402Y-82362774D01*
X62150044Y-82440795D01*
X61980526Y-82554063D01*
X61836363Y-82698226D01*
X61723095Y-82867744D01*
X61645074Y-83056102D01*
X61605300Y-83256061D01*
X61605300Y-83459939D01*
X61645074Y-83659898D01*
X61723095Y-83848256D01*
X61836363Y-84017774D01*
X61900600Y-84082011D01*
X61900601Y-88426103D01*
X61874698Y-88415374D01*
X61674739Y-88375600D01*
X61470861Y-88375600D01*
X61270902Y-88415374D01*
X61082544Y-88493395D01*
X60913026Y-88606663D01*
X60768863Y-88750826D01*
X60655595Y-88920344D01*
X60577574Y-89108702D01*
X60537800Y-89308661D01*
X60537800Y-89512539D01*
X60577574Y-89712498D01*
X60655595Y-89900856D01*
X60768863Y-90070374D01*
X60913026Y-90214537D01*
X61082544Y-90327805D01*
X61270902Y-90405826D01*
X61470861Y-90445600D01*
X61532999Y-90445600D01*
X64213801Y-93126403D01*
X64237599Y-93155401D01*
X64266597Y-93179199D01*
X64353324Y-93250374D01*
X64485353Y-93320946D01*
X64628614Y-93364403D01*
X64777600Y-93379077D01*
X64814933Y-93375400D01*
X79259278Y-93375400D01*
X79296600Y-93379076D01*
X79333922Y-93375400D01*
X79333933Y-93375400D01*
X79445586Y-93364403D01*
X79588847Y-93320946D01*
X79720876Y-93250374D01*
X79836601Y-93155401D01*
X79860403Y-93126398D01*
X80369311Y-92617491D01*
X80576589Y-92755990D01*
X80846842Y-92867932D01*
X81133740Y-92925000D01*
X81426260Y-92925000D01*
X81713158Y-92867932D01*
X81983411Y-92755990D01*
X82226632Y-92593475D01*
X82433475Y-92386632D01*
X82550000Y-92212240D01*
X82666525Y-92386632D01*
X82873368Y-92593475D01*
X83116589Y-92755990D01*
X83386842Y-92867932D01*
X83673740Y-92925000D01*
X83966260Y-92925000D01*
X84253158Y-92867932D01*
X84523411Y-92755990D01*
X84766632Y-92593475D01*
X84973475Y-92386632D01*
X85090000Y-92212240D01*
X85206525Y-92386632D01*
X85413368Y-92593475D01*
X85656589Y-92755990D01*
X85926842Y-92867932D01*
X86213740Y-92925000D01*
X86506260Y-92925000D01*
X86793158Y-92867932D01*
X87063411Y-92755990D01*
X87306632Y-92593475D01*
X87513475Y-92386632D01*
X87630000Y-92212240D01*
X87746525Y-92386632D01*
X87953368Y-92593475D01*
X88196589Y-92755990D01*
X88466842Y-92867932D01*
X88753740Y-92925000D01*
X89046260Y-92925000D01*
X89333158Y-92867932D01*
X89603411Y-92755990D01*
X89846632Y-92593475D01*
X90053475Y-92386632D01*
X90170000Y-92212240D01*
X90286525Y-92386632D01*
X90493368Y-92593475D01*
X90736589Y-92755990D01*
X91006842Y-92867932D01*
X91293740Y-92925000D01*
X91586260Y-92925000D01*
X91873158Y-92867932D01*
X92143411Y-92755990D01*
X92386632Y-92593475D01*
X92593475Y-92386632D01*
X92715195Y-92204466D01*
X92784822Y-92321355D01*
X92979731Y-92537588D01*
X93213080Y-92711641D01*
X93475901Y-92836825D01*
X93623110Y-92881476D01*
X93853000Y-92760155D01*
X93853000Y-91567000D01*
X94107000Y-91567000D01*
X94107000Y-92760155D01*
X94336890Y-92881476D01*
X94484099Y-92836825D01*
X94746920Y-92711641D01*
X94980269Y-92537588D01*
X95175178Y-92321355D01*
X95250000Y-92195745D01*
X95324822Y-92321355D01*
X95519731Y-92537588D01*
X95753080Y-92711641D01*
X96015901Y-92836825D01*
X96163110Y-92881476D01*
X96393000Y-92760155D01*
X96393000Y-91567000D01*
X94107000Y-91567000D01*
X93853000Y-91567000D01*
X93833000Y-91567000D01*
X93833000Y-91313000D01*
X93853000Y-91313000D01*
X93853000Y-90119845D01*
X94107000Y-90119845D01*
X94107000Y-91313000D01*
X96393000Y-91313000D01*
X96393000Y-90119845D01*
X96163110Y-89998524D01*
X96015901Y-90043175D01*
X95753080Y-90168359D01*
X95519731Y-90342412D01*
X95324822Y-90558645D01*
X95250000Y-90684255D01*
X95175178Y-90558645D01*
X94980269Y-90342412D01*
X94746920Y-90168359D01*
X94484099Y-90043175D01*
X94336890Y-89998524D01*
X94107000Y-90119845D01*
X93853000Y-90119845D01*
X93623110Y-89998524D01*
X93475901Y-90043175D01*
X93213080Y-90168359D01*
X92979731Y-90342412D01*
X92784822Y-90558645D01*
X92715195Y-90675534D01*
X92593475Y-90493368D01*
X92386632Y-90286525D01*
X92143411Y-90124010D01*
X91873158Y-90012068D01*
X91586260Y-89955000D01*
X91293740Y-89955000D01*
X91006842Y-90012068D01*
X90736589Y-90124010D01*
X90493368Y-90286525D01*
X90286525Y-90493368D01*
X90170000Y-90667760D01*
X90053475Y-90493368D01*
X89846632Y-90286525D01*
X89603411Y-90124010D01*
X89333158Y-90012068D01*
X89046260Y-89955000D01*
X88753740Y-89955000D01*
X88466842Y-90012068D01*
X88196589Y-90124010D01*
X87989311Y-90262509D01*
X84245769Y-86518967D01*
X101285000Y-86518967D01*
X101285000Y-86841033D01*
X101347832Y-87156912D01*
X101471082Y-87454463D01*
X101650013Y-87722252D01*
X101877748Y-87949987D01*
X102145537Y-88128918D01*
X102443088Y-88252168D01*
X102758967Y-88315000D01*
X103081033Y-88315000D01*
X103396912Y-88252168D01*
X103694463Y-88128918D01*
X103962252Y-87949987D01*
X104189987Y-87722252D01*
X104368918Y-87454463D01*
X104492168Y-87156912D01*
X104555000Y-86841033D01*
X104555000Y-86518967D01*
X104492168Y-86203088D01*
X104368918Y-85905537D01*
X104189987Y-85637748D01*
X103962252Y-85410013D01*
X103694463Y-85231082D01*
X103396912Y-85107832D01*
X103081033Y-85045000D01*
X102758967Y-85045000D01*
X102443088Y-85107832D01*
X102145537Y-85231082D01*
X101877748Y-85410013D01*
X101650013Y-85637748D01*
X101471082Y-85905537D01*
X101347832Y-86203088D01*
X101285000Y-86518967D01*
X84245769Y-86518967D01*
X81685404Y-83958603D01*
X81661601Y-83929599D01*
X81545876Y-83834626D01*
X81413847Y-83764054D01*
X81270586Y-83720597D01*
X81158933Y-83709600D01*
X81158922Y-83709600D01*
X81121600Y-83705924D01*
X81084278Y-83709600D01*
X77183511Y-83709600D01*
X77175611Y-83701700D01*
X105277978Y-83701700D01*
X105315300Y-83705376D01*
X105352622Y-83701700D01*
X105352633Y-83701700D01*
X105464286Y-83690703D01*
X105607547Y-83647246D01*
X105739576Y-83576674D01*
X105855301Y-83481701D01*
X105879103Y-83452698D01*
X106756303Y-82575499D01*
X106785301Y-82551701D01*
X106880274Y-82435976D01*
X106950846Y-82303947D01*
X106994303Y-82160686D01*
X107005300Y-82049033D01*
X107008977Y-82011700D01*
X107005300Y-81974367D01*
X107005300Y-79292333D01*
X107008977Y-79255000D01*
X106994303Y-79106014D01*
X106950846Y-78962753D01*
X106880274Y-78830724D01*
X106785301Y-78714999D01*
X106669576Y-78620026D01*
X106558072Y-78560425D01*
X106558072Y-78493000D01*
X106545812Y-78368518D01*
X106537920Y-78342500D01*
X106545812Y-78316482D01*
X106558072Y-78192000D01*
X106555000Y-77715750D01*
X106396250Y-77557000D01*
X104297000Y-77557000D01*
X104297000Y-77577000D01*
X104043000Y-77577000D01*
X104043000Y-77557000D01*
X101943750Y-77557000D01*
X101785000Y-77715750D01*
X101781928Y-78192000D01*
X101794188Y-78316482D01*
X101802080Y-78342500D01*
X101794188Y-78368518D01*
X101781928Y-78493000D01*
X101781928Y-80017000D01*
X101794188Y-80141482D01*
X101797773Y-80153300D01*
X92619711Y-80153300D01*
X92575774Y-80109363D01*
X92406256Y-79996095D01*
X92217898Y-79918074D01*
X92017939Y-79878300D01*
X91814061Y-79878300D01*
X91614102Y-79918074D01*
X91425744Y-79996095D01*
X91256226Y-80109363D01*
X91212289Y-80153300D01*
X76733002Y-80153300D01*
X76362503Y-79782802D01*
X76338701Y-79753799D01*
X76222976Y-79658826D01*
X76090947Y-79588254D01*
X75947686Y-79544797D01*
X75836033Y-79533800D01*
X75836022Y-79533800D01*
X75798700Y-79530124D01*
X75761378Y-79533800D01*
X75259000Y-79533800D01*
X75259000Y-79466798D01*
X75179252Y-79466798D01*
X75259000Y-79387050D01*
X75248701Y-79288857D01*
X75234602Y-79243800D01*
X75248701Y-79198743D01*
X75259000Y-79100550D01*
X75100250Y-78941800D01*
X75044072Y-78941800D01*
X74984889Y-78894089D01*
X75043729Y-78845800D01*
X75100250Y-78845800D01*
X75259000Y-78687050D01*
X75248701Y-78588857D01*
X75234544Y-78543615D01*
X75249812Y-78493282D01*
X75262072Y-78368800D01*
X75262072Y-78018800D01*
X75249812Y-77894318D01*
X75234488Y-77843800D01*
X75249812Y-77793282D01*
X75262072Y-77668800D01*
X75262072Y-77488375D01*
X75373576Y-77428774D01*
X75489301Y-77333801D01*
X75513104Y-77304797D01*
X75923697Y-76894204D01*
X75952701Y-76870401D01*
X76047674Y-76754676D01*
X76118246Y-76622647D01*
X76161703Y-76479386D01*
X76172700Y-76367733D01*
X76176377Y-76330400D01*
X76172700Y-76293067D01*
X76172700Y-74243833D01*
X76176377Y-74206500D01*
X76161703Y-74057514D01*
X76118246Y-73914253D01*
X76047674Y-73782224D01*
X75976499Y-73695497D01*
X75952701Y-73666499D01*
X75923704Y-73642702D01*
X74947801Y-72666800D01*
X74953299Y-72666800D01*
X78377501Y-76091003D01*
X78401299Y-76120001D01*
X78517024Y-76214974D01*
X78649053Y-76285546D01*
X78792314Y-76329003D01*
X78903967Y-76340000D01*
X78903976Y-76340000D01*
X78941299Y-76343676D01*
X78978622Y-76340000D01*
X101781928Y-76340000D01*
X101781928Y-76342000D01*
X101794188Y-76466482D01*
X101805872Y-76505000D01*
X101794188Y-76543518D01*
X101781928Y-76668000D01*
X101785000Y-77144250D01*
X101943750Y-77303000D01*
X104043000Y-77303000D01*
X104043000Y-77283000D01*
X104297000Y-77283000D01*
X104297000Y-77303000D01*
X106396250Y-77303000D01*
X106555000Y-77144250D01*
X106558072Y-76668000D01*
X106545812Y-76543518D01*
X106534128Y-76505000D01*
X106545812Y-76466482D01*
X106558072Y-76342000D01*
X106558072Y-74818000D01*
X106545812Y-74693518D01*
X106509502Y-74573820D01*
X106450537Y-74463506D01*
X106371185Y-74366815D01*
X106274494Y-74287463D01*
X106164180Y-74228498D01*
X106044482Y-74192188D01*
X105920000Y-74179928D01*
X102420000Y-74179928D01*
X102295518Y-74192188D01*
X102175820Y-74228498D01*
X102065506Y-74287463D01*
X101968815Y-74366815D01*
X101889463Y-74463506D01*
X101830498Y-74573820D01*
X101794188Y-74693518D01*
X101781928Y-74818000D01*
X101781928Y-74820000D01*
X79256102Y-74820000D01*
X75831904Y-71395803D01*
X75808101Y-71366799D01*
X75692376Y-71271826D01*
X75560347Y-71201254D01*
X75417086Y-71157797D01*
X75305433Y-71146800D01*
X75305422Y-71146800D01*
X75268100Y-71143124D01*
X75230778Y-71146800D01*
X71527902Y-71146800D01*
X72576103Y-70098600D01*
X75219800Y-70098600D01*
X75219800Y-70301639D01*
X75259574Y-70501598D01*
X75337595Y-70689956D01*
X75450863Y-70859474D01*
X75595026Y-71003637D01*
X75764544Y-71116905D01*
X75952902Y-71194926D01*
X76152861Y-71234700D01*
X76356739Y-71234700D01*
X76556698Y-71194926D01*
X76567454Y-71190471D01*
X76629663Y-71283574D01*
X76773826Y-71427737D01*
X76943344Y-71541005D01*
X77131702Y-71619026D01*
X77331661Y-71658800D01*
X77393799Y-71658800D01*
X78822301Y-73087303D01*
X78846099Y-73116301D01*
X78875097Y-73140099D01*
X78961823Y-73211274D01*
X79093853Y-73281846D01*
X79237114Y-73325303D01*
X79348767Y-73336300D01*
X79348777Y-73336300D01*
X79386100Y-73339976D01*
X79423422Y-73336300D01*
X109763289Y-73336300D01*
X109807226Y-73380237D01*
X109976744Y-73493505D01*
X110165102Y-73571526D01*
X110365061Y-73611300D01*
X110568939Y-73611300D01*
X110768898Y-73571526D01*
X110941901Y-73499865D01*
X110941900Y-87760989D01*
X110897963Y-87804926D01*
X110784695Y-87974444D01*
X110706674Y-88162802D01*
X110666900Y-88362761D01*
X110666900Y-88430000D01*
X102155222Y-88430000D01*
X102117899Y-88426324D01*
X102080576Y-88430000D01*
X102080567Y-88430000D01*
X101968914Y-88440997D01*
X101825653Y-88484454D01*
X101693624Y-88555026D01*
X101693622Y-88555027D01*
X101693623Y-88555027D01*
X101606896Y-88626201D01*
X101606892Y-88626205D01*
X101577899Y-88649999D01*
X101554105Y-88678992D01*
X99970630Y-90262469D01*
X99763411Y-90124010D01*
X99493158Y-90012068D01*
X99206260Y-89955000D01*
X98913740Y-89955000D01*
X98626842Y-90012068D01*
X98356589Y-90124010D01*
X98113368Y-90286525D01*
X97906525Y-90493368D01*
X97784805Y-90675534D01*
X97715178Y-90558645D01*
X97520269Y-90342412D01*
X97286920Y-90168359D01*
X97024099Y-90043175D01*
X96876890Y-89998524D01*
X96647000Y-90119845D01*
X96647000Y-91313000D01*
X96667000Y-91313000D01*
X96667000Y-91567000D01*
X96647000Y-91567000D01*
X96647000Y-92760155D01*
X96876890Y-92881476D01*
X97024099Y-92836825D01*
X97286920Y-92711641D01*
X97520269Y-92537588D01*
X97715178Y-92321355D01*
X97784805Y-92204466D01*
X97906525Y-92386632D01*
X98113368Y-92593475D01*
X98356589Y-92755990D01*
X98626842Y-92867932D01*
X98913740Y-92925000D01*
X99206260Y-92925000D01*
X99493158Y-92867932D01*
X99763411Y-92755990D01*
X100006632Y-92593475D01*
X100213475Y-92386632D01*
X100330000Y-92212240D01*
X100446525Y-92386632D01*
X100653368Y-92593475D01*
X100896589Y-92755990D01*
X101166842Y-92867932D01*
X101453740Y-92925000D01*
X101746260Y-92925000D01*
X102033158Y-92867932D01*
X102303411Y-92755990D01*
X102546632Y-92593475D01*
X102753475Y-92386632D01*
X102878178Y-92200000D01*
X110351978Y-92200000D01*
X110389300Y-92203676D01*
X110426622Y-92200000D01*
X110426633Y-92200000D01*
X110538286Y-92189003D01*
X110681547Y-92145546D01*
X110813576Y-92074974D01*
X110929301Y-91980001D01*
X110953104Y-91950997D01*
X117210134Y-85693967D01*
X121035000Y-85693967D01*
X121035000Y-86016033D01*
X121097832Y-86331912D01*
X121221082Y-86629463D01*
X121400013Y-86897252D01*
X121627748Y-87124987D01*
X121895537Y-87303918D01*
X122193088Y-87427168D01*
X122508967Y-87490000D01*
X122831033Y-87490000D01*
X123146912Y-87427168D01*
X123444463Y-87303918D01*
X123712252Y-87124987D01*
X123939987Y-86897252D01*
X124118918Y-86629463D01*
X124242168Y-86331912D01*
X124305000Y-86016033D01*
X124305000Y-85693967D01*
X124242168Y-85378088D01*
X124118918Y-85080537D01*
X123939987Y-84812748D01*
X123712252Y-84585013D01*
X123444463Y-84406082D01*
X123146912Y-84282832D01*
X122831033Y-84220000D01*
X122508967Y-84220000D01*
X122193088Y-84282832D01*
X121895537Y-84406082D01*
X121627748Y-84585013D01*
X121400013Y-84812748D01*
X121221082Y-85080537D01*
X121097832Y-85378088D01*
X121035000Y-85693967D01*
X117210134Y-85693967D01*
X117436304Y-85467798D01*
X117465301Y-85444001D01*
X117560274Y-85328276D01*
X117630846Y-85196247D01*
X117674303Y-85052986D01*
X117685300Y-84941333D01*
X117685300Y-84941323D01*
X117688976Y-84904000D01*
X117685300Y-84866677D01*
X117685300Y-83269578D01*
X117842455Y-83378809D01*
X118038767Y-83464376D01*
X118248000Y-83510000D01*
X118848000Y-83510000D01*
X118848000Y-82552000D01*
X119102000Y-82552000D01*
X119102000Y-83510000D01*
X119702000Y-83510000D01*
X119911233Y-83464376D01*
X120107545Y-83378809D01*
X120283391Y-83256587D01*
X120432014Y-83102408D01*
X120547702Y-82922197D01*
X120616629Y-82726874D01*
X121760881Y-82726874D01*
X121840724Y-82949976D01*
X121962631Y-83137764D01*
X122118831Y-83298161D01*
X122303322Y-83425003D01*
X122509013Y-83513415D01*
X122728000Y-83560000D01*
X123028000Y-83560000D01*
X123028000Y-82552000D01*
X121887046Y-82552000D01*
X121760881Y-82726874D01*
X120616629Y-82726874D01*
X120619408Y-82719001D01*
X120492502Y-82552000D01*
X119102000Y-82552000D01*
X118848000Y-82552000D01*
X118828000Y-82552000D01*
X118828000Y-82298000D01*
X118848000Y-82298000D01*
X118848000Y-82278000D01*
X119102000Y-82278000D01*
X119102000Y-82298000D01*
X120492502Y-82298000D01*
X120619408Y-82130999D01*
X120616630Y-82123126D01*
X121760881Y-82123126D01*
X121887046Y-82298000D01*
X123028000Y-82298000D01*
X123028000Y-81290000D01*
X122728000Y-81290000D01*
X122509013Y-81336585D01*
X122303322Y-81424997D01*
X122118831Y-81551839D01*
X121962631Y-81712236D01*
X121840724Y-81900024D01*
X121760881Y-82123126D01*
X120616630Y-82123126D01*
X120547702Y-81927803D01*
X120432014Y-81747592D01*
X120283391Y-81593413D01*
X120246752Y-81567947D01*
X120325741Y-81449731D01*
X120398108Y-81275022D01*
X120435000Y-81089552D01*
X120435000Y-80900448D01*
X120398108Y-80714978D01*
X120325741Y-80540269D01*
X120220681Y-80383036D01*
X120086964Y-80249319D01*
X119929731Y-80144259D01*
X119755022Y-80071892D01*
X119569552Y-80035000D01*
X119380448Y-80035000D01*
X119194978Y-80071892D01*
X119020269Y-80144259D01*
X118863036Y-80249319D01*
X118729319Y-80383036D01*
X118624259Y-80540269D01*
X118551892Y-80714978D01*
X118515000Y-80900448D01*
X118515000Y-81089552D01*
X118551892Y-81275022D01*
X118578807Y-81340000D01*
X118248000Y-81340000D01*
X118038767Y-81385624D01*
X117842455Y-81471191D01*
X117685300Y-81580422D01*
X117685300Y-77305000D01*
X119831928Y-77305000D01*
X119831928Y-79305000D01*
X119844188Y-79429482D01*
X119880498Y-79549180D01*
X119939463Y-79659494D01*
X120018815Y-79756185D01*
X120115506Y-79835537D01*
X120225820Y-79894502D01*
X120345518Y-79930812D01*
X120470000Y-79943072D01*
X122470000Y-79943072D01*
X122594482Y-79930812D01*
X122714180Y-79894502D01*
X122824494Y-79835537D01*
X122921185Y-79756185D01*
X123000537Y-79659494D01*
X123059502Y-79549180D01*
X123095812Y-79429482D01*
X123108072Y-79305000D01*
X123108072Y-77305000D01*
X123095812Y-77180518D01*
X123059502Y-77060820D01*
X123000537Y-76950506D01*
X122921185Y-76853815D01*
X122824494Y-76774463D01*
X122714180Y-76715498D01*
X122594482Y-76679188D01*
X122470000Y-76666928D01*
X120470000Y-76666928D01*
X120345518Y-76679188D01*
X120225820Y-76715498D01*
X120115506Y-76774463D01*
X120018815Y-76853815D01*
X119939463Y-76950506D01*
X119880498Y-77060820D01*
X119844188Y-77180518D01*
X119831928Y-77305000D01*
X117685300Y-77305000D01*
X117685300Y-74629578D01*
X117842455Y-74738809D01*
X118038767Y-74824376D01*
X118248000Y-74870000D01*
X118578807Y-74870000D01*
X118551892Y-74934978D01*
X118515000Y-75120448D01*
X118515000Y-75309552D01*
X118551892Y-75495022D01*
X118624259Y-75669731D01*
X118729319Y-75826964D01*
X118863036Y-75960681D01*
X119020269Y-76065741D01*
X119194978Y-76138108D01*
X119380448Y-76175000D01*
X119569552Y-76175000D01*
X119755022Y-76138108D01*
X119929731Y-76065741D01*
X120086964Y-75960681D01*
X120220681Y-75826964D01*
X120325741Y-75669731D01*
X120398108Y-75495022D01*
X120435000Y-75309552D01*
X120435000Y-75120448D01*
X120398108Y-74934978D01*
X120325741Y-74760269D01*
X120246752Y-74642053D01*
X120283391Y-74616587D01*
X120432014Y-74462408D01*
X120547702Y-74282197D01*
X120616629Y-74086874D01*
X121760881Y-74086874D01*
X121840724Y-74309976D01*
X121962631Y-74497764D01*
X122118831Y-74658161D01*
X122303322Y-74785003D01*
X122509013Y-74873415D01*
X122728000Y-74920000D01*
X123028000Y-74920000D01*
X123028000Y-73912000D01*
X121887046Y-73912000D01*
X121760881Y-74086874D01*
X120616629Y-74086874D01*
X120619408Y-74079001D01*
X120492502Y-73912000D01*
X119102000Y-73912000D01*
X119102000Y-73932000D01*
X118848000Y-73932000D01*
X118848000Y-73912000D01*
X118828000Y-73912000D01*
X118828000Y-73658000D01*
X118848000Y-73658000D01*
X118848000Y-72700000D01*
X119102000Y-72700000D01*
X119102000Y-73658000D01*
X120492502Y-73658000D01*
X120619408Y-73490999D01*
X120616630Y-73483126D01*
X121760881Y-73483126D01*
X121887046Y-73658000D01*
X123028000Y-73658000D01*
X123028000Y-72650000D01*
X122728000Y-72650000D01*
X122509013Y-72696585D01*
X122303322Y-72784997D01*
X122118831Y-72911839D01*
X121962631Y-73072236D01*
X121840724Y-73260024D01*
X121760881Y-73483126D01*
X120616630Y-73483126D01*
X120547702Y-73287803D01*
X120432014Y-73107592D01*
X120283391Y-72953413D01*
X120107545Y-72831191D01*
X119911233Y-72745624D01*
X119702000Y-72700000D01*
X119102000Y-72700000D01*
X118848000Y-72700000D01*
X118248000Y-72700000D01*
X118038767Y-72745624D01*
X117842455Y-72831191D01*
X117685300Y-72940422D01*
X117685300Y-69523322D01*
X117688976Y-69485999D01*
X117685300Y-69448676D01*
X117685300Y-69448667D01*
X117674303Y-69337014D01*
X117630846Y-69193753D01*
X117615317Y-69164700D01*
X117560274Y-69061723D01*
X117489099Y-68974997D01*
X117465301Y-68945999D01*
X117436302Y-68922201D01*
X117269900Y-68755798D01*
X117269900Y-68693661D01*
X117230126Y-68493702D01*
X117152105Y-68305344D01*
X117038837Y-68135826D01*
X116894674Y-67991663D01*
X116725156Y-67878395D01*
X116536798Y-67800374D01*
X116336839Y-67760600D01*
X116132961Y-67760600D01*
X115933002Y-67800374D01*
X115744644Y-67878395D01*
X115575126Y-67991663D01*
X115430963Y-68135826D01*
X115317695Y-68305344D01*
X115239674Y-68493702D01*
X115210895Y-68638383D01*
X115202305Y-68617644D01*
X115089037Y-68448126D01*
X114944874Y-68303963D01*
X114775356Y-68190695D01*
X114586998Y-68112674D01*
X114387039Y-68072900D01*
X114324903Y-68072900D01*
X112622422Y-66370420D01*
X112729647Y-66298775D01*
X112880775Y-66147647D01*
X112999515Y-65969940D01*
X113081304Y-65772483D01*
X113123000Y-65562863D01*
X113123000Y-65349137D01*
X113953000Y-65349137D01*
X113953000Y-65562863D01*
X113994696Y-65772483D01*
X114076485Y-65969940D01*
X114195225Y-66147647D01*
X114346353Y-66298775D01*
X114524060Y-66417515D01*
X114721517Y-66499304D01*
X114931137Y-66541000D01*
X115144863Y-66541000D01*
X115354483Y-66499304D01*
X115551940Y-66417515D01*
X115729647Y-66298775D01*
X115880775Y-66147647D01*
X115999515Y-65969940D01*
X116081304Y-65772483D01*
X116123000Y-65562863D01*
X116123000Y-65349137D01*
X116081304Y-65139517D01*
X115999515Y-64942060D01*
X115880775Y-64764353D01*
X115729647Y-64613225D01*
X115551940Y-64494485D01*
X115354483Y-64412696D01*
X115144863Y-64371000D01*
X114931137Y-64371000D01*
X114721517Y-64412696D01*
X114524060Y-64494485D01*
X114346353Y-64613225D01*
X114195225Y-64764353D01*
X114076485Y-64942060D01*
X113994696Y-65139517D01*
X113953000Y-65349137D01*
X113123000Y-65349137D01*
X113081304Y-65139517D01*
X112999515Y-64942060D01*
X112880775Y-64764353D01*
X112729647Y-64613225D01*
X112551940Y-64494485D01*
X112354483Y-64412696D01*
X112144863Y-64371000D01*
X111931137Y-64371000D01*
X111721517Y-64412696D01*
X111524060Y-64494485D01*
X111346353Y-64613225D01*
X111195225Y-64764353D01*
X111123580Y-64871578D01*
X110412001Y-64160000D01*
X120583536Y-64160000D01*
X120577124Y-64162656D01*
X120112793Y-64472912D01*
X119717912Y-64867793D01*
X119407656Y-65332124D01*
X119193948Y-65848061D01*
X119085000Y-66395777D01*
X119085000Y-66954223D01*
X119193948Y-67501939D01*
X119407656Y-68017876D01*
X119717912Y-68482207D01*
X120112793Y-68877088D01*
X120577124Y-69187344D01*
X121093061Y-69401052D01*
X121640777Y-69510000D01*
X122199223Y-69510000D01*
X122746939Y-69401052D01*
X123262876Y-69187344D01*
X123727207Y-68877088D01*
X124122088Y-68482207D01*
X124432344Y-68017876D01*
X124435001Y-68011462D01*
X124435001Y-73207226D01*
X124347369Y-73072236D01*
X124191169Y-72911839D01*
X124006678Y-72784997D01*
X123800987Y-72696585D01*
X123582000Y-72650000D01*
X123282000Y-72650000D01*
X123282000Y-73658000D01*
X123302000Y-73658000D01*
X123302000Y-73912000D01*
X123282000Y-73912000D01*
X123282000Y-74920000D01*
X123582000Y-74920000D01*
X123800987Y-74873415D01*
X124006678Y-74785003D01*
X124191169Y-74658161D01*
X124347369Y-74497764D01*
X124435001Y-74362774D01*
X124435000Y-81847225D01*
X124347369Y-81712236D01*
X124191169Y-81551839D01*
X124006678Y-81424997D01*
X123800987Y-81336585D01*
X123582000Y-81290000D01*
X123282000Y-81290000D01*
X123282000Y-82298000D01*
X123302000Y-82298000D01*
X123302000Y-82552000D01*
X123282000Y-82552000D01*
X123282000Y-83560000D01*
X123582000Y-83560000D01*
X123800987Y-83513415D01*
X124006678Y-83425003D01*
X124191169Y-83298161D01*
X124347369Y-83137764D01*
X124435000Y-83002775D01*
X124435000Y-90103536D01*
X124432344Y-90097124D01*
X124122088Y-89632793D01*
X123727207Y-89237912D01*
X123262876Y-88927656D01*
X122746939Y-88713948D01*
X122199223Y-88605000D01*
X121640777Y-88605000D01*
X121093061Y-88713948D01*
X120577124Y-88927656D01*
X120112793Y-89237912D01*
X119717912Y-89632793D01*
X119407656Y-90097124D01*
X119193948Y-90613061D01*
X119085000Y-91160777D01*
X119085000Y-91719223D01*
X119193948Y-92266939D01*
X119407656Y-92782876D01*
X119717912Y-93247207D01*
X120112793Y-93642088D01*
X120577124Y-93952344D01*
X120583536Y-93955000D01*
X51501464Y-93955000D01*
X51507876Y-93952344D01*
X51972207Y-93642088D01*
X52367088Y-93247207D01*
X52677344Y-92782876D01*
X52891052Y-92266939D01*
X53000000Y-91719223D01*
X53000000Y-91160777D01*
X52891052Y-90613061D01*
X52677344Y-90097124D01*
X52367088Y-89632793D01*
X51972207Y-89237912D01*
X51507876Y-88927656D01*
X50991939Y-88713948D01*
X50444223Y-88605000D01*
X49885777Y-88605000D01*
X49338061Y-88713948D01*
X48822124Y-88927656D01*
X48357793Y-89237912D01*
X47962912Y-89632793D01*
X47652656Y-90097124D01*
X47650000Y-90103536D01*
X47650000Y-88392000D01*
X53975000Y-88392000D01*
X53999776Y-88389560D01*
X54023601Y-88382333D01*
X54045557Y-88370597D01*
X54064803Y-88354803D01*
X54080597Y-88335557D01*
X54092333Y-88313601D01*
X54099560Y-88289776D01*
X54102000Y-88265000D01*
X54102000Y-69215000D01*
X54099560Y-69190224D01*
X54092333Y-69166399D01*
X54080597Y-69144443D01*
X54064803Y-69125197D01*
X54045557Y-69109403D01*
X54023601Y-69097667D01*
X53999776Y-69090440D01*
X53975000Y-69088000D01*
X51656555Y-69088000D01*
X51972207Y-68877088D01*
X52367088Y-68482207D01*
X52677344Y-68017876D01*
X52891052Y-67501939D01*
X53000000Y-66954223D01*
X53000000Y-66395777D01*
X52891052Y-65848061D01*
X52677344Y-65332124D01*
X52367088Y-64867793D01*
X51972207Y-64472912D01*
X51507876Y-64162656D01*
X51501464Y-64160000D01*
X56788309Y-64160000D01*
X56784100Y-64181161D01*
%TA.AperFunction,Conductor*%
D23*
G36*
X56784100Y-64181161D02*
G01*
X56784100Y-64385039D01*
X56823874Y-64584998D01*
X56901895Y-64773356D01*
X57015163Y-64942874D01*
X57059100Y-64986811D01*
X57059100Y-65350798D01*
X56638998Y-65770901D01*
X56610000Y-65794699D01*
X56586202Y-65823697D01*
X56586201Y-65823698D01*
X56515026Y-65910424D01*
X56455425Y-66021928D01*
X56150000Y-66021928D01*
X56025518Y-66034188D01*
X55905820Y-66070498D01*
X55795506Y-66129463D01*
X55698815Y-66208815D01*
X55619463Y-66305506D01*
X55560498Y-66415820D01*
X55524188Y-66535518D01*
X55511928Y-66660000D01*
X55511928Y-68660000D01*
X55524188Y-68784482D01*
X55560498Y-68904180D01*
X55619463Y-69014494D01*
X55698815Y-69111185D01*
X55795506Y-69190537D01*
X55905820Y-69249502D01*
X56025518Y-69285812D01*
X56150000Y-69298072D01*
X58150000Y-69298072D01*
X58274482Y-69285812D01*
X58394180Y-69249502D01*
X58504494Y-69190537D01*
X58601185Y-69111185D01*
X58680537Y-69014494D01*
X58739502Y-68904180D01*
X58775812Y-68784482D01*
X58788072Y-68660000D01*
X58788072Y-66660000D01*
X58775812Y-66535518D01*
X58739502Y-66415820D01*
X58680537Y-66305506D01*
X58601185Y-66208815D01*
X58504494Y-66129463D01*
X58446866Y-66098659D01*
X58454074Y-66089876D01*
X58524646Y-65957847D01*
X58568103Y-65814586D01*
X58579100Y-65702933D01*
X58579100Y-65702924D01*
X58582776Y-65665601D01*
X58579100Y-65628278D01*
X58579100Y-64986811D01*
X58623037Y-64942874D01*
X58736305Y-64773356D01*
X58814326Y-64584998D01*
X58854100Y-64385039D01*
X58854100Y-64181161D01*
X58849891Y-64160000D01*
X63247598Y-64160000D01*
X59925599Y-67482000D01*
X59863461Y-67482000D01*
X59663502Y-67521774D01*
X59475144Y-67599795D01*
X59305626Y-67713063D01*
X59161463Y-67857226D01*
X59048195Y-68026744D01*
X58970174Y-68215102D01*
X58930400Y-68415061D01*
X58930400Y-68618939D01*
X58970174Y-68818898D01*
X59048195Y-69007256D01*
X59161463Y-69176774D01*
X59305626Y-69320937D01*
X59475144Y-69434205D01*
X59663502Y-69512226D01*
X59863461Y-69552000D01*
X60067339Y-69552000D01*
X60267298Y-69512226D01*
X60455656Y-69434205D01*
X60625174Y-69320937D01*
X60769337Y-69176774D01*
X60882605Y-69007256D01*
X60960626Y-68818898D01*
X61000400Y-68618939D01*
X61000400Y-68556801D01*
X64077201Y-65480001D01*
X64077200Y-70414077D01*
X64073524Y-70451400D01*
X64077200Y-70488722D01*
X64077200Y-70488732D01*
X64088197Y-70600385D01*
X64115368Y-70689956D01*
X64131654Y-70743646D01*
X64202226Y-70875676D01*
X64215497Y-70891846D01*
X64297199Y-70991401D01*
X64326203Y-71015204D01*
X67944798Y-74633800D01*
X67908925Y-74633800D01*
X67871600Y-74630124D01*
X67834275Y-74633800D01*
X67834267Y-74633800D01*
X67722614Y-74644797D01*
X67579353Y-74688254D01*
X67447324Y-74758826D01*
X67331599Y-74853799D01*
X67307801Y-74882798D01*
X67133398Y-75057200D01*
X67071261Y-75057200D01*
X66871302Y-75096974D01*
X66682944Y-75174995D01*
X66513426Y-75288263D01*
X66369263Y-75432426D01*
X66255995Y-75601944D01*
X66177974Y-75790302D01*
X66138200Y-75990261D01*
X66138200Y-76194139D01*
X66177974Y-76394098D01*
X66255995Y-76582456D01*
X66349417Y-76722272D01*
X66289963Y-76781726D01*
X66176695Y-76951244D01*
X66098674Y-77139602D01*
X66058900Y-77339561D01*
X66058900Y-77543439D01*
X66081140Y-77655249D01*
X65946763Y-77789626D01*
X65833495Y-77959144D01*
X65755474Y-78147502D01*
X65715700Y-78347461D01*
X65715700Y-78551339D01*
X65755474Y-78751298D01*
X65833495Y-78939656D01*
X65946763Y-79109174D01*
X66090926Y-79253337D01*
X66260444Y-79366605D01*
X66448802Y-79444626D01*
X66648761Y-79484400D01*
X66852639Y-79484400D01*
X67052598Y-79444626D01*
X67240956Y-79366605D01*
X67410474Y-79253337D01*
X67554637Y-79109174D01*
X67658454Y-78953800D01*
X70989000Y-78953800D01*
X70989000Y-79020802D01*
X71068748Y-79020802D01*
X70989000Y-79100550D01*
X70999299Y-79198743D01*
X71013398Y-79243800D01*
X70999299Y-79288857D01*
X70989000Y-79387050D01*
X71068748Y-79466798D01*
X70989000Y-79466798D01*
X70989000Y-79533800D01*
X63812360Y-79533800D01*
X63944081Y-79445787D01*
X64060387Y-79329481D01*
X64151767Y-79192721D01*
X64214711Y-79040760D01*
X64246800Y-78879440D01*
X64246800Y-78861933D01*
X64366560Y-78838111D01*
X64518521Y-78775167D01*
X64655281Y-78683787D01*
X64771587Y-78567481D01*
X64862967Y-78430721D01*
X64925911Y-78278760D01*
X64958000Y-78117440D01*
X64958000Y-77952960D01*
X64925911Y-77791640D01*
X64862967Y-77639679D01*
X64771587Y-77502919D01*
X64655281Y-77386613D01*
X64523560Y-77298600D01*
X64655281Y-77210587D01*
X64771587Y-77094281D01*
X64862967Y-76957521D01*
X64925911Y-76805560D01*
X64958000Y-76644240D01*
X64958000Y-76479760D01*
X64925911Y-76318440D01*
X64862967Y-76166479D01*
X64771587Y-76029719D01*
X64655281Y-75913413D01*
X64518521Y-75822033D01*
X64366560Y-75759089D01*
X64246800Y-75735267D01*
X64246800Y-75717760D01*
X64214711Y-75556440D01*
X64151767Y-75404479D01*
X64060387Y-75267719D01*
X63944081Y-75151413D01*
X63807321Y-75060033D01*
X63655360Y-74997089D01*
X63494040Y-74965000D01*
X63329560Y-74965000D01*
X63168240Y-74997089D01*
X63016279Y-75060033D01*
X62879519Y-75151413D01*
X62763213Y-75267719D01*
X62675200Y-75399440D01*
X62587187Y-75267719D01*
X62470881Y-75151413D01*
X62334121Y-75060033D01*
X62182160Y-74997089D01*
X62020840Y-74965000D01*
X61856360Y-74965000D01*
X61695040Y-74997089D01*
X61543079Y-75060033D01*
X61406319Y-75151413D01*
X61290013Y-75267719D01*
X61198633Y-75404479D01*
X61135689Y-75556440D01*
X61103600Y-75717760D01*
X61103600Y-75727000D01*
X61043560Y-75727000D01*
X60882240Y-75759089D01*
X60730279Y-75822033D01*
X60593519Y-75913413D01*
X60477213Y-76029719D01*
X60385833Y-76166479D01*
X60322889Y-76318440D01*
X60290800Y-76479760D01*
X60290800Y-76644240D01*
X60322889Y-76805560D01*
X60385833Y-76957521D01*
X60477213Y-77094281D01*
X60593519Y-77210587D01*
X60730279Y-77301967D01*
X60783472Y-77324000D01*
X60730279Y-77346033D01*
X60593519Y-77437413D01*
X60477213Y-77553719D01*
X60385833Y-77690479D01*
X60322889Y-77842440D01*
X60290800Y-78003760D01*
X60290800Y-78168240D01*
X60322889Y-78329560D01*
X60335290Y-78359500D01*
X60135400Y-78359500D01*
X60135400Y-77248023D01*
X60139076Y-77210700D01*
X60135400Y-77173377D01*
X60135400Y-77173367D01*
X60124403Y-77061714D01*
X60080946Y-76918453D01*
X60010374Y-76786424D01*
X59915401Y-76670699D01*
X59886403Y-76646901D01*
X58455974Y-75216472D01*
X58504494Y-75190537D01*
X58601185Y-75111185D01*
X58680537Y-75014494D01*
X58739502Y-74904180D01*
X58775812Y-74784482D01*
X58788072Y-74660000D01*
X58788072Y-72660000D01*
X58775812Y-72535518D01*
X58739502Y-72415820D01*
X58680537Y-72305506D01*
X58601185Y-72208815D01*
X58504494Y-72129463D01*
X58394180Y-72070498D01*
X58274482Y-72034188D01*
X58150000Y-72021928D01*
X57844575Y-72021928D01*
X57784974Y-71910424D01*
X57708240Y-71816924D01*
X57673526Y-71642402D01*
X57595505Y-71454044D01*
X57482237Y-71284526D01*
X57338074Y-71140363D01*
X57168556Y-71027095D01*
X56980198Y-70949074D01*
X56780239Y-70909300D01*
X56576361Y-70909300D01*
X56376402Y-70949074D01*
X56188044Y-71027095D01*
X56018526Y-71140363D01*
X55874363Y-71284526D01*
X55761095Y-71454044D01*
X55683074Y-71642402D01*
X55643300Y-71842361D01*
X55643300Y-72046239D01*
X55680160Y-72231547D01*
X55619463Y-72305506D01*
X55560498Y-72415820D01*
X55524188Y-72535518D01*
X55511928Y-72660000D01*
X55511928Y-74660000D01*
X55524188Y-74784482D01*
X55560498Y-74904180D01*
X55619463Y-75014494D01*
X55698815Y-75111185D01*
X55795506Y-75190537D01*
X55905820Y-75249502D01*
X56025518Y-75285812D01*
X56150000Y-75298072D01*
X56455425Y-75298072D01*
X56515026Y-75409576D01*
X56586201Y-75496302D01*
X56610000Y-75525301D01*
X56638998Y-75549099D01*
X58615401Y-77525503D01*
X58615400Y-78804697D01*
X55308398Y-82111701D01*
X55279400Y-82135499D01*
X55255602Y-82164497D01*
X55255601Y-82164498D01*
X55184426Y-82251224D01*
X55113854Y-82383254D01*
X55090449Y-82460412D01*
X55073156Y-82517424D01*
X55070398Y-82526515D01*
X55055724Y-82675500D01*
X55059401Y-82712832D01*
X55059400Y-87491777D01*
X55055724Y-87529100D01*
X55059400Y-87566422D01*
X55059400Y-87566432D01*
X55070397Y-87678085D01*
X55096094Y-87762797D01*
X55113854Y-87821346D01*
X55184426Y-87953376D01*
X55212204Y-87987223D01*
X55279399Y-88069101D01*
X55308403Y-88092904D01*
X55844026Y-88628528D01*
X55795506Y-88654463D01*
X55698815Y-88733815D01*
X55619463Y-88830506D01*
X55560498Y-88940820D01*
X55524188Y-89060518D01*
X55511928Y-89185000D01*
X55511928Y-91185000D01*
X55524188Y-91309482D01*
X55560498Y-91429180D01*
X55619463Y-91539494D01*
X55698815Y-91636185D01*
X55795506Y-91715537D01*
X55905820Y-91774502D01*
X56025518Y-91810812D01*
X56150000Y-91823072D01*
X58150000Y-91823072D01*
X58274482Y-91810812D01*
X58394180Y-91774502D01*
X58504494Y-91715537D01*
X58601185Y-91636185D01*
X58680537Y-91539494D01*
X58739502Y-91429180D01*
X58775812Y-91309482D01*
X58788072Y-91185000D01*
X58788072Y-90773700D01*
X58899939Y-90773700D01*
X59099898Y-90733926D01*
X59288256Y-90655905D01*
X59457774Y-90542637D01*
X59601937Y-90398474D01*
X59715205Y-90228956D01*
X59793226Y-90040598D01*
X59833000Y-89840639D01*
X59833000Y-89636761D01*
X59793226Y-89436802D01*
X59715205Y-89248444D01*
X59601937Y-89078926D01*
X59558000Y-89034989D01*
X59558000Y-87195623D01*
X59561676Y-87158300D01*
X59558000Y-87120977D01*
X59558000Y-87120967D01*
X59547003Y-87009314D01*
X59503546Y-86866053D01*
X59490172Y-86841033D01*
X59432974Y-86734023D01*
X59361799Y-86647297D01*
X59338001Y-86618299D01*
X59309004Y-86594502D01*
X58455974Y-85741472D01*
X58504494Y-85715537D01*
X58601185Y-85636185D01*
X58680537Y-85539494D01*
X58739502Y-85429180D01*
X58775812Y-85309482D01*
X58788072Y-85185000D01*
X58788072Y-83185000D01*
X58775812Y-83060518D01*
X58739502Y-82940820D01*
X58680537Y-82830506D01*
X58601185Y-82733815D01*
X58504494Y-82654463D01*
X58394180Y-82595498D01*
X58274482Y-82559188D01*
X58150000Y-82546928D01*
X57022773Y-82546928D01*
X58749146Y-80820557D01*
X58810626Y-80882037D01*
X58980144Y-80995305D01*
X59168502Y-81073326D01*
X59368461Y-81113100D01*
X59430598Y-81113100D01*
X59822301Y-81504803D01*
X59846099Y-81533801D01*
X59961824Y-81628774D01*
X60093853Y-81699346D01*
X60237114Y-81742803D01*
X60348767Y-81753800D01*
X60348776Y-81753800D01*
X60386099Y-81757476D01*
X60423422Y-81753800D01*
X64299082Y-81753800D01*
X64288974Y-81778202D01*
X64249200Y-81978161D01*
X64249200Y-82182039D01*
X64288974Y-82381998D01*
X64366995Y-82570356D01*
X64480263Y-82739874D01*
X64624426Y-82884037D01*
X64793944Y-82997305D01*
X64982302Y-83075326D01*
X65182261Y-83115100D01*
X65244398Y-83115100D01*
X65582005Y-83452708D01*
X65605799Y-83481701D01*
X65634792Y-83505495D01*
X65634796Y-83505499D01*
X65689053Y-83550026D01*
X65721524Y-83576674D01*
X65853553Y-83647246D01*
X65996814Y-83690703D01*
X66108467Y-83701700D01*
X66108476Y-83701700D01*
X66145799Y-83705376D01*
X66183122Y-83701700D01*
X69930100Y-83701700D01*
X69930100Y-83860739D01*
X69948072Y-83951093D01*
X69919298Y-83939174D01*
X69719339Y-83899400D01*
X69515461Y-83899400D01*
X69315502Y-83939174D01*
X69127144Y-84017195D01*
X68957626Y-84130463D01*
X68813463Y-84274626D01*
X68700195Y-84444144D01*
X68622174Y-84632502D01*
X68582400Y-84832461D01*
X68582400Y-84894598D01*
X65528998Y-87948001D01*
X65500000Y-87971799D01*
X65476202Y-88000797D01*
X65476201Y-88000798D01*
X65405026Y-88087524D01*
X65334454Y-88219554D01*
X65313153Y-88289776D01*
X65290998Y-88362814D01*
X65281379Y-88460476D01*
X65276324Y-88511800D01*
X65280001Y-88549132D01*
X65280001Y-89951928D01*
X65190000Y-89951928D01*
X65065518Y-89964188D01*
X64945820Y-90000498D01*
X64835506Y-90059463D01*
X64738815Y-90138815D01*
X64659463Y-90235506D01*
X64600498Y-90345820D01*
X64564188Y-90465518D01*
X64551928Y-90590000D01*
X64551928Y-91314926D01*
X63337756Y-90100755D01*
X63464537Y-89973974D01*
X63577805Y-89804456D01*
X63655826Y-89616098D01*
X63695600Y-89416139D01*
X63695600Y-89212261D01*
X63655826Y-89012302D01*
X63577805Y-88823944D01*
X63464537Y-88654426D01*
X63420600Y-88610489D01*
X63420600Y-84041411D01*
X63444237Y-84017774D01*
X63557505Y-83848256D01*
X63635526Y-83659898D01*
X63675300Y-83459939D01*
X63675300Y-83256061D01*
X63635526Y-83056102D01*
X63557505Y-82867744D01*
X63444237Y-82698226D01*
X63300074Y-82554063D01*
X63130556Y-82440795D01*
X62942198Y-82362774D01*
X62742239Y-82323000D01*
X62538361Y-82323000D01*
X62338402Y-82362774D01*
X62150044Y-82440795D01*
X61980526Y-82554063D01*
X61836363Y-82698226D01*
X61723095Y-82867744D01*
X61645074Y-83056102D01*
X61605300Y-83256061D01*
X61605300Y-83459939D01*
X61645074Y-83659898D01*
X61723095Y-83848256D01*
X61836363Y-84017774D01*
X61900600Y-84082011D01*
X61900601Y-88426103D01*
X61874698Y-88415374D01*
X61674739Y-88375600D01*
X61470861Y-88375600D01*
X61270902Y-88415374D01*
X61082544Y-88493395D01*
X60913026Y-88606663D01*
X60768863Y-88750826D01*
X60655595Y-88920344D01*
X60577574Y-89108702D01*
X60537800Y-89308661D01*
X60537800Y-89512539D01*
X60577574Y-89712498D01*
X60655595Y-89900856D01*
X60768863Y-90070374D01*
X60913026Y-90214537D01*
X61082544Y-90327805D01*
X61270902Y-90405826D01*
X61470861Y-90445600D01*
X61532999Y-90445600D01*
X64213801Y-93126403D01*
X64237599Y-93155401D01*
X64266597Y-93179199D01*
X64353324Y-93250374D01*
X64485353Y-93320946D01*
X64628614Y-93364403D01*
X64777600Y-93379077D01*
X64814933Y-93375400D01*
X79259278Y-93375400D01*
X79296600Y-93379076D01*
X79333922Y-93375400D01*
X79333933Y-93375400D01*
X79445586Y-93364403D01*
X79588847Y-93320946D01*
X79720876Y-93250374D01*
X79836601Y-93155401D01*
X79860403Y-93126398D01*
X80369311Y-92617491D01*
X80576589Y-92755990D01*
X80846842Y-92867932D01*
X81133740Y-92925000D01*
X81426260Y-92925000D01*
X81713158Y-92867932D01*
X81983411Y-92755990D01*
X82226632Y-92593475D01*
X82433475Y-92386632D01*
X82550000Y-92212240D01*
X82666525Y-92386632D01*
X82873368Y-92593475D01*
X83116589Y-92755990D01*
X83386842Y-92867932D01*
X83673740Y-92925000D01*
X83966260Y-92925000D01*
X84253158Y-92867932D01*
X84523411Y-92755990D01*
X84766632Y-92593475D01*
X84973475Y-92386632D01*
X85090000Y-92212240D01*
X85206525Y-92386632D01*
X85413368Y-92593475D01*
X85656589Y-92755990D01*
X85926842Y-92867932D01*
X86213740Y-92925000D01*
X86506260Y-92925000D01*
X86793158Y-92867932D01*
X87063411Y-92755990D01*
X87306632Y-92593475D01*
X87513475Y-92386632D01*
X87630000Y-92212240D01*
X87746525Y-92386632D01*
X87953368Y-92593475D01*
X88196589Y-92755990D01*
X88466842Y-92867932D01*
X88753740Y-92925000D01*
X89046260Y-92925000D01*
X89333158Y-92867932D01*
X89603411Y-92755990D01*
X89846632Y-92593475D01*
X90053475Y-92386632D01*
X90170000Y-92212240D01*
X90286525Y-92386632D01*
X90493368Y-92593475D01*
X90736589Y-92755990D01*
X91006842Y-92867932D01*
X91293740Y-92925000D01*
X91586260Y-92925000D01*
X91873158Y-92867932D01*
X92143411Y-92755990D01*
X92386632Y-92593475D01*
X92593475Y-92386632D01*
X92715195Y-92204466D01*
X92784822Y-92321355D01*
X92979731Y-92537588D01*
X93213080Y-92711641D01*
X93475901Y-92836825D01*
X93623110Y-92881476D01*
X93853000Y-92760155D01*
X93853000Y-91567000D01*
X94107000Y-91567000D01*
X94107000Y-92760155D01*
X94336890Y-92881476D01*
X94484099Y-92836825D01*
X94746920Y-92711641D01*
X94980269Y-92537588D01*
X95175178Y-92321355D01*
X95250000Y-92195745D01*
X95324822Y-92321355D01*
X95519731Y-92537588D01*
X95753080Y-92711641D01*
X96015901Y-92836825D01*
X96163110Y-92881476D01*
X96393000Y-92760155D01*
X96393000Y-91567000D01*
X94107000Y-91567000D01*
X93853000Y-91567000D01*
X93833000Y-91567000D01*
X93833000Y-91313000D01*
X93853000Y-91313000D01*
X93853000Y-90119845D01*
X94107000Y-90119845D01*
X94107000Y-91313000D01*
X96393000Y-91313000D01*
X96393000Y-90119845D01*
X96163110Y-89998524D01*
X96015901Y-90043175D01*
X95753080Y-90168359D01*
X95519731Y-90342412D01*
X95324822Y-90558645D01*
X95250000Y-90684255D01*
X95175178Y-90558645D01*
X94980269Y-90342412D01*
X94746920Y-90168359D01*
X94484099Y-90043175D01*
X94336890Y-89998524D01*
X94107000Y-90119845D01*
X93853000Y-90119845D01*
X93623110Y-89998524D01*
X93475901Y-90043175D01*
X93213080Y-90168359D01*
X92979731Y-90342412D01*
X92784822Y-90558645D01*
X92715195Y-90675534D01*
X92593475Y-90493368D01*
X92386632Y-90286525D01*
X92143411Y-90124010D01*
X91873158Y-90012068D01*
X91586260Y-89955000D01*
X91293740Y-89955000D01*
X91006842Y-90012068D01*
X90736589Y-90124010D01*
X90493368Y-90286525D01*
X90286525Y-90493368D01*
X90170000Y-90667760D01*
X90053475Y-90493368D01*
X89846632Y-90286525D01*
X89603411Y-90124010D01*
X89333158Y-90012068D01*
X89046260Y-89955000D01*
X88753740Y-89955000D01*
X88466842Y-90012068D01*
X88196589Y-90124010D01*
X87989311Y-90262509D01*
X84245769Y-86518967D01*
X101285000Y-86518967D01*
X101285000Y-86841033D01*
X101347832Y-87156912D01*
X101471082Y-87454463D01*
X101650013Y-87722252D01*
X101877748Y-87949987D01*
X102145537Y-88128918D01*
X102443088Y-88252168D01*
X102758967Y-88315000D01*
X103081033Y-88315000D01*
X103396912Y-88252168D01*
X103694463Y-88128918D01*
X103962252Y-87949987D01*
X104189987Y-87722252D01*
X104368918Y-87454463D01*
X104492168Y-87156912D01*
X104555000Y-86841033D01*
X104555000Y-86518967D01*
X104492168Y-86203088D01*
X104368918Y-85905537D01*
X104189987Y-85637748D01*
X103962252Y-85410013D01*
X103694463Y-85231082D01*
X103396912Y-85107832D01*
X103081033Y-85045000D01*
X102758967Y-85045000D01*
X102443088Y-85107832D01*
X102145537Y-85231082D01*
X101877748Y-85410013D01*
X101650013Y-85637748D01*
X101471082Y-85905537D01*
X101347832Y-86203088D01*
X101285000Y-86518967D01*
X84245769Y-86518967D01*
X81685404Y-83958603D01*
X81661601Y-83929599D01*
X81545876Y-83834626D01*
X81413847Y-83764054D01*
X81270586Y-83720597D01*
X81158933Y-83709600D01*
X81158922Y-83709600D01*
X81121600Y-83705924D01*
X81084278Y-83709600D01*
X77183511Y-83709600D01*
X77175611Y-83701700D01*
X105277978Y-83701700D01*
X105315300Y-83705376D01*
X105352622Y-83701700D01*
X105352633Y-83701700D01*
X105464286Y-83690703D01*
X105607547Y-83647246D01*
X105739576Y-83576674D01*
X105855301Y-83481701D01*
X105879103Y-83452698D01*
X106756303Y-82575499D01*
X106785301Y-82551701D01*
X106880274Y-82435976D01*
X106950846Y-82303947D01*
X106994303Y-82160686D01*
X107005300Y-82049033D01*
X107008977Y-82011700D01*
X107005300Y-81974367D01*
X107005300Y-79292333D01*
X107008977Y-79255000D01*
X106994303Y-79106014D01*
X106950846Y-78962753D01*
X106880274Y-78830724D01*
X106785301Y-78714999D01*
X106669576Y-78620026D01*
X106558072Y-78560425D01*
X106558072Y-78493000D01*
X106545812Y-78368518D01*
X106537920Y-78342500D01*
X106545812Y-78316482D01*
X106558072Y-78192000D01*
X106555000Y-77715750D01*
X106396250Y-77557000D01*
X104297000Y-77557000D01*
X104297000Y-77577000D01*
X104043000Y-77577000D01*
X104043000Y-77557000D01*
X101943750Y-77557000D01*
X101785000Y-77715750D01*
X101781928Y-78192000D01*
X101794188Y-78316482D01*
X101802080Y-78342500D01*
X101794188Y-78368518D01*
X101781928Y-78493000D01*
X101781928Y-80017000D01*
X101794188Y-80141482D01*
X101797773Y-80153300D01*
X92619711Y-80153300D01*
X92575774Y-80109363D01*
X92406256Y-79996095D01*
X92217898Y-79918074D01*
X92017939Y-79878300D01*
X91814061Y-79878300D01*
X91614102Y-79918074D01*
X91425744Y-79996095D01*
X91256226Y-80109363D01*
X91212289Y-80153300D01*
X76733002Y-80153300D01*
X76362503Y-79782802D01*
X76338701Y-79753799D01*
X76222976Y-79658826D01*
X76090947Y-79588254D01*
X75947686Y-79544797D01*
X75836033Y-79533800D01*
X75836022Y-79533800D01*
X75798700Y-79530124D01*
X75761378Y-79533800D01*
X75259000Y-79533800D01*
X75259000Y-79466798D01*
X75179252Y-79466798D01*
X75259000Y-79387050D01*
X75248701Y-79288857D01*
X75234602Y-79243800D01*
X75248701Y-79198743D01*
X75259000Y-79100550D01*
X75100250Y-78941800D01*
X75044072Y-78941800D01*
X74984889Y-78894089D01*
X75043729Y-78845800D01*
X75100250Y-78845800D01*
X75259000Y-78687050D01*
X75248701Y-78588857D01*
X75234544Y-78543615D01*
X75249812Y-78493282D01*
X75262072Y-78368800D01*
X75262072Y-78018800D01*
X75249812Y-77894318D01*
X75234488Y-77843800D01*
X75249812Y-77793282D01*
X75262072Y-77668800D01*
X75262072Y-77488375D01*
X75373576Y-77428774D01*
X75489301Y-77333801D01*
X75513104Y-77304797D01*
X75923697Y-76894204D01*
X75952701Y-76870401D01*
X76047674Y-76754676D01*
X76118246Y-76622647D01*
X76161703Y-76479386D01*
X76172700Y-76367733D01*
X76176377Y-76330400D01*
X76172700Y-76293067D01*
X76172700Y-74243833D01*
X76176377Y-74206500D01*
X76161703Y-74057514D01*
X76118246Y-73914253D01*
X76047674Y-73782224D01*
X75976499Y-73695497D01*
X75952701Y-73666499D01*
X75923704Y-73642702D01*
X74947801Y-72666800D01*
X74953299Y-72666800D01*
X78377501Y-76091003D01*
X78401299Y-76120001D01*
X78517024Y-76214974D01*
X78649053Y-76285546D01*
X78792314Y-76329003D01*
X78903967Y-76340000D01*
X78903976Y-76340000D01*
X78941299Y-76343676D01*
X78978622Y-76340000D01*
X101781928Y-76340000D01*
X101781928Y-76342000D01*
X101794188Y-76466482D01*
X101805872Y-76505000D01*
X101794188Y-76543518D01*
X101781928Y-76668000D01*
X101785000Y-77144250D01*
X101943750Y-77303000D01*
X104043000Y-77303000D01*
X104043000Y-77283000D01*
X104297000Y-77283000D01*
X104297000Y-77303000D01*
X106396250Y-77303000D01*
X106555000Y-77144250D01*
X106558072Y-76668000D01*
X106545812Y-76543518D01*
X106534128Y-76505000D01*
X106545812Y-76466482D01*
X106558072Y-76342000D01*
X106558072Y-74818000D01*
X106545812Y-74693518D01*
X106509502Y-74573820D01*
X106450537Y-74463506D01*
X106371185Y-74366815D01*
X106274494Y-74287463D01*
X106164180Y-74228498D01*
X106044482Y-74192188D01*
X105920000Y-74179928D01*
X102420000Y-74179928D01*
X102295518Y-74192188D01*
X102175820Y-74228498D01*
X102065506Y-74287463D01*
X101968815Y-74366815D01*
X101889463Y-74463506D01*
X101830498Y-74573820D01*
X101794188Y-74693518D01*
X101781928Y-74818000D01*
X101781928Y-74820000D01*
X79256102Y-74820000D01*
X75831904Y-71395803D01*
X75808101Y-71366799D01*
X75692376Y-71271826D01*
X75560347Y-71201254D01*
X75417086Y-71157797D01*
X75305433Y-71146800D01*
X75305422Y-71146800D01*
X75268100Y-71143124D01*
X75230778Y-71146800D01*
X71527902Y-71146800D01*
X72576103Y-70098600D01*
X75219800Y-70098600D01*
X75219800Y-70301639D01*
X75259574Y-70501598D01*
X75337595Y-70689956D01*
X75450863Y-70859474D01*
X75595026Y-71003637D01*
X75764544Y-71116905D01*
X75952902Y-71194926D01*
X76152861Y-71234700D01*
X76356739Y-71234700D01*
X76556698Y-71194926D01*
X76567454Y-71190471D01*
X76629663Y-71283574D01*
X76773826Y-71427737D01*
X76943344Y-71541005D01*
X77131702Y-71619026D01*
X77331661Y-71658800D01*
X77393799Y-71658800D01*
X78822301Y-73087303D01*
X78846099Y-73116301D01*
X78875097Y-73140099D01*
X78961823Y-73211274D01*
X79093853Y-73281846D01*
X79237114Y-73325303D01*
X79348767Y-73336300D01*
X79348777Y-73336300D01*
X79386100Y-73339976D01*
X79423422Y-73336300D01*
X109763289Y-73336300D01*
X109807226Y-73380237D01*
X109976744Y-73493505D01*
X110165102Y-73571526D01*
X110365061Y-73611300D01*
X110568939Y-73611300D01*
X110768898Y-73571526D01*
X110941901Y-73499865D01*
X110941900Y-87760989D01*
X110897963Y-87804926D01*
X110784695Y-87974444D01*
X110706674Y-88162802D01*
X110666900Y-88362761D01*
X110666900Y-88430000D01*
X102155222Y-88430000D01*
X102117899Y-88426324D01*
X102080576Y-88430000D01*
X102080567Y-88430000D01*
X101968914Y-88440997D01*
X101825653Y-88484454D01*
X101693624Y-88555026D01*
X101693622Y-88555027D01*
X101693623Y-88555027D01*
X101606896Y-88626201D01*
X101606892Y-88626205D01*
X101577899Y-88649999D01*
X101554105Y-88678992D01*
X99970630Y-90262469D01*
X99763411Y-90124010D01*
X99493158Y-90012068D01*
X99206260Y-89955000D01*
X98913740Y-89955000D01*
X98626842Y-90012068D01*
X98356589Y-90124010D01*
X98113368Y-90286525D01*
X97906525Y-90493368D01*
X97784805Y-90675534D01*
X97715178Y-90558645D01*
X97520269Y-90342412D01*
X97286920Y-90168359D01*
X97024099Y-90043175D01*
X96876890Y-89998524D01*
X96647000Y-90119845D01*
X96647000Y-91313000D01*
X96667000Y-91313000D01*
X96667000Y-91567000D01*
X96647000Y-91567000D01*
X96647000Y-92760155D01*
X96876890Y-92881476D01*
X97024099Y-92836825D01*
X97286920Y-92711641D01*
X97520269Y-92537588D01*
X97715178Y-92321355D01*
X97784805Y-92204466D01*
X97906525Y-92386632D01*
X98113368Y-92593475D01*
X98356589Y-92755990D01*
X98626842Y-92867932D01*
X98913740Y-92925000D01*
X99206260Y-92925000D01*
X99493158Y-92867932D01*
X99763411Y-92755990D01*
X100006632Y-92593475D01*
X100213475Y-92386632D01*
X100330000Y-92212240D01*
X100446525Y-92386632D01*
X100653368Y-92593475D01*
X100896589Y-92755990D01*
X101166842Y-92867932D01*
X101453740Y-92925000D01*
X101746260Y-92925000D01*
X102033158Y-92867932D01*
X102303411Y-92755990D01*
X102546632Y-92593475D01*
X102753475Y-92386632D01*
X102878178Y-92200000D01*
X110351978Y-92200000D01*
X110389300Y-92203676D01*
X110426622Y-92200000D01*
X110426633Y-92200000D01*
X110538286Y-92189003D01*
X110681547Y-92145546D01*
X110813576Y-92074974D01*
X110929301Y-91980001D01*
X110953104Y-91950997D01*
X117210134Y-85693967D01*
X121035000Y-85693967D01*
X121035000Y-86016033D01*
X121097832Y-86331912D01*
X121221082Y-86629463D01*
X121400013Y-86897252D01*
X121627748Y-87124987D01*
X121895537Y-87303918D01*
X122193088Y-87427168D01*
X122508967Y-87490000D01*
X122831033Y-87490000D01*
X123146912Y-87427168D01*
X123444463Y-87303918D01*
X123712252Y-87124987D01*
X123939987Y-86897252D01*
X124118918Y-86629463D01*
X124242168Y-86331912D01*
X124305000Y-86016033D01*
X124305000Y-85693967D01*
X124242168Y-85378088D01*
X124118918Y-85080537D01*
X123939987Y-84812748D01*
X123712252Y-84585013D01*
X123444463Y-84406082D01*
X123146912Y-84282832D01*
X122831033Y-84220000D01*
X122508967Y-84220000D01*
X122193088Y-84282832D01*
X121895537Y-84406082D01*
X121627748Y-84585013D01*
X121400013Y-84812748D01*
X121221082Y-85080537D01*
X121097832Y-85378088D01*
X121035000Y-85693967D01*
X117210134Y-85693967D01*
X117436304Y-85467798D01*
X117465301Y-85444001D01*
X117560274Y-85328276D01*
X117630846Y-85196247D01*
X117674303Y-85052986D01*
X117685300Y-84941333D01*
X117685300Y-84941323D01*
X117688976Y-84904000D01*
X117685300Y-84866677D01*
X117685300Y-83269578D01*
X117842455Y-83378809D01*
X118038767Y-83464376D01*
X118248000Y-83510000D01*
X118848000Y-83510000D01*
X118848000Y-82552000D01*
X119102000Y-82552000D01*
X119102000Y-83510000D01*
X119702000Y-83510000D01*
X119911233Y-83464376D01*
X120107545Y-83378809D01*
X120283391Y-83256587D01*
X120432014Y-83102408D01*
X120547702Y-82922197D01*
X120616629Y-82726874D01*
X121760881Y-82726874D01*
X121840724Y-82949976D01*
X121962631Y-83137764D01*
X122118831Y-83298161D01*
X122303322Y-83425003D01*
X122509013Y-83513415D01*
X122728000Y-83560000D01*
X123028000Y-83560000D01*
X123028000Y-82552000D01*
X121887046Y-82552000D01*
X121760881Y-82726874D01*
X120616629Y-82726874D01*
X120619408Y-82719001D01*
X120492502Y-82552000D01*
X119102000Y-82552000D01*
X118848000Y-82552000D01*
X118828000Y-82552000D01*
X118828000Y-82298000D01*
X118848000Y-82298000D01*
X118848000Y-82278000D01*
X119102000Y-82278000D01*
X119102000Y-82298000D01*
X120492502Y-82298000D01*
X120619408Y-82130999D01*
X120616630Y-82123126D01*
X121760881Y-82123126D01*
X121887046Y-82298000D01*
X123028000Y-82298000D01*
X123028000Y-81290000D01*
X122728000Y-81290000D01*
X122509013Y-81336585D01*
X122303322Y-81424997D01*
X122118831Y-81551839D01*
X121962631Y-81712236D01*
X121840724Y-81900024D01*
X121760881Y-82123126D01*
X120616630Y-82123126D01*
X120547702Y-81927803D01*
X120432014Y-81747592D01*
X120283391Y-81593413D01*
X120246752Y-81567947D01*
X120325741Y-81449731D01*
X120398108Y-81275022D01*
X120435000Y-81089552D01*
X120435000Y-80900448D01*
X120398108Y-80714978D01*
X120325741Y-80540269D01*
X120220681Y-80383036D01*
X120086964Y-80249319D01*
X119929731Y-80144259D01*
X119755022Y-80071892D01*
X119569552Y-80035000D01*
X119380448Y-80035000D01*
X119194978Y-80071892D01*
X119020269Y-80144259D01*
X118863036Y-80249319D01*
X118729319Y-80383036D01*
X118624259Y-80540269D01*
X118551892Y-80714978D01*
X118515000Y-80900448D01*
X118515000Y-81089552D01*
X118551892Y-81275022D01*
X118578807Y-81340000D01*
X118248000Y-81340000D01*
X118038767Y-81385624D01*
X117842455Y-81471191D01*
X117685300Y-81580422D01*
X117685300Y-77305000D01*
X119831928Y-77305000D01*
X119831928Y-79305000D01*
X119844188Y-79429482D01*
X119880498Y-79549180D01*
X119939463Y-79659494D01*
X120018815Y-79756185D01*
X120115506Y-79835537D01*
X120225820Y-79894502D01*
X120345518Y-79930812D01*
X120470000Y-79943072D01*
X122470000Y-79943072D01*
X122594482Y-79930812D01*
X122714180Y-79894502D01*
X122824494Y-79835537D01*
X122921185Y-79756185D01*
X123000537Y-79659494D01*
X123059502Y-79549180D01*
X123095812Y-79429482D01*
X123108072Y-79305000D01*
X123108072Y-77305000D01*
X123095812Y-77180518D01*
X123059502Y-77060820D01*
X123000537Y-76950506D01*
X122921185Y-76853815D01*
X122824494Y-76774463D01*
X122714180Y-76715498D01*
X122594482Y-76679188D01*
X122470000Y-76666928D01*
X120470000Y-76666928D01*
X120345518Y-76679188D01*
X120225820Y-76715498D01*
X120115506Y-76774463D01*
X120018815Y-76853815D01*
X119939463Y-76950506D01*
X119880498Y-77060820D01*
X119844188Y-77180518D01*
X119831928Y-77305000D01*
X117685300Y-77305000D01*
X117685300Y-74629578D01*
X117842455Y-74738809D01*
X118038767Y-74824376D01*
X118248000Y-74870000D01*
X118578807Y-74870000D01*
X118551892Y-74934978D01*
X118515000Y-75120448D01*
X118515000Y-75309552D01*
X118551892Y-75495022D01*
X118624259Y-75669731D01*
X118729319Y-75826964D01*
X118863036Y-75960681D01*
X119020269Y-76065741D01*
X119194978Y-76138108D01*
X119380448Y-76175000D01*
X119569552Y-76175000D01*
X119755022Y-76138108D01*
X119929731Y-76065741D01*
X120086964Y-75960681D01*
X120220681Y-75826964D01*
X120325741Y-75669731D01*
X120398108Y-75495022D01*
X120435000Y-75309552D01*
X120435000Y-75120448D01*
X120398108Y-74934978D01*
X120325741Y-74760269D01*
X120246752Y-74642053D01*
X120283391Y-74616587D01*
X120432014Y-74462408D01*
X120547702Y-74282197D01*
X120616629Y-74086874D01*
X121760881Y-74086874D01*
X121840724Y-74309976D01*
X121962631Y-74497764D01*
X122118831Y-74658161D01*
X122303322Y-74785003D01*
X122509013Y-74873415D01*
X122728000Y-74920000D01*
X123028000Y-74920000D01*
X123028000Y-73912000D01*
X121887046Y-73912000D01*
X121760881Y-74086874D01*
X120616629Y-74086874D01*
X120619408Y-74079001D01*
X120492502Y-73912000D01*
X119102000Y-73912000D01*
X119102000Y-73932000D01*
X118848000Y-73932000D01*
X118848000Y-73912000D01*
X118828000Y-73912000D01*
X118828000Y-73658000D01*
X118848000Y-73658000D01*
X118848000Y-72700000D01*
X119102000Y-72700000D01*
X119102000Y-73658000D01*
X120492502Y-73658000D01*
X120619408Y-73490999D01*
X120616630Y-73483126D01*
X121760881Y-73483126D01*
X121887046Y-73658000D01*
X123028000Y-73658000D01*
X123028000Y-72650000D01*
X122728000Y-72650000D01*
X122509013Y-72696585D01*
X122303322Y-72784997D01*
X122118831Y-72911839D01*
X121962631Y-73072236D01*
X121840724Y-73260024D01*
X121760881Y-73483126D01*
X120616630Y-73483126D01*
X120547702Y-73287803D01*
X120432014Y-73107592D01*
X120283391Y-72953413D01*
X120107545Y-72831191D01*
X119911233Y-72745624D01*
X119702000Y-72700000D01*
X119102000Y-72700000D01*
X118848000Y-72700000D01*
X118248000Y-72700000D01*
X118038767Y-72745624D01*
X117842455Y-72831191D01*
X117685300Y-72940422D01*
X117685300Y-69523322D01*
X117688976Y-69485999D01*
X117685300Y-69448676D01*
X117685300Y-69448667D01*
X117674303Y-69337014D01*
X117630846Y-69193753D01*
X117615317Y-69164700D01*
X117560274Y-69061723D01*
X117489099Y-68974997D01*
X117465301Y-68945999D01*
X117436302Y-68922201D01*
X117269900Y-68755798D01*
X117269900Y-68693661D01*
X117230126Y-68493702D01*
X117152105Y-68305344D01*
X117038837Y-68135826D01*
X116894674Y-67991663D01*
X116725156Y-67878395D01*
X116536798Y-67800374D01*
X116336839Y-67760600D01*
X116132961Y-67760600D01*
X115933002Y-67800374D01*
X115744644Y-67878395D01*
X115575126Y-67991663D01*
X115430963Y-68135826D01*
X115317695Y-68305344D01*
X115239674Y-68493702D01*
X115210895Y-68638383D01*
X115202305Y-68617644D01*
X115089037Y-68448126D01*
X114944874Y-68303963D01*
X114775356Y-68190695D01*
X114586998Y-68112674D01*
X114387039Y-68072900D01*
X114324903Y-68072900D01*
X112622422Y-66370420D01*
X112729647Y-66298775D01*
X112880775Y-66147647D01*
X112999515Y-65969940D01*
X113081304Y-65772483D01*
X113123000Y-65562863D01*
X113123000Y-65349137D01*
X113953000Y-65349137D01*
X113953000Y-65562863D01*
X113994696Y-65772483D01*
X114076485Y-65969940D01*
X114195225Y-66147647D01*
X114346353Y-66298775D01*
X114524060Y-66417515D01*
X114721517Y-66499304D01*
X114931137Y-66541000D01*
X115144863Y-66541000D01*
X115354483Y-66499304D01*
X115551940Y-66417515D01*
X115729647Y-66298775D01*
X115880775Y-66147647D01*
X115999515Y-65969940D01*
X116081304Y-65772483D01*
X116123000Y-65562863D01*
X116123000Y-65349137D01*
X116081304Y-65139517D01*
X115999515Y-64942060D01*
X115880775Y-64764353D01*
X115729647Y-64613225D01*
X115551940Y-64494485D01*
X115354483Y-64412696D01*
X115144863Y-64371000D01*
X114931137Y-64371000D01*
X114721517Y-64412696D01*
X114524060Y-64494485D01*
X114346353Y-64613225D01*
X114195225Y-64764353D01*
X114076485Y-64942060D01*
X113994696Y-65139517D01*
X113953000Y-65349137D01*
X113123000Y-65349137D01*
X113081304Y-65139517D01*
X112999515Y-64942060D01*
X112880775Y-64764353D01*
X112729647Y-64613225D01*
X112551940Y-64494485D01*
X112354483Y-64412696D01*
X112144863Y-64371000D01*
X111931137Y-64371000D01*
X111721517Y-64412696D01*
X111524060Y-64494485D01*
X111346353Y-64613225D01*
X111195225Y-64764353D01*
X111123580Y-64871578D01*
X110412001Y-64160000D01*
X120583536Y-64160000D01*
X120577124Y-64162656D01*
X120112793Y-64472912D01*
X119717912Y-64867793D01*
X119407656Y-65332124D01*
X119193948Y-65848061D01*
X119085000Y-66395777D01*
X119085000Y-66954223D01*
X119193948Y-67501939D01*
X119407656Y-68017876D01*
X119717912Y-68482207D01*
X120112793Y-68877088D01*
X120577124Y-69187344D01*
X121093061Y-69401052D01*
X121640777Y-69510000D01*
X122199223Y-69510000D01*
X122746939Y-69401052D01*
X123262876Y-69187344D01*
X123727207Y-68877088D01*
X124122088Y-68482207D01*
X124432344Y-68017876D01*
X124435001Y-68011462D01*
X124435001Y-73207226D01*
X124347369Y-73072236D01*
X124191169Y-72911839D01*
X124006678Y-72784997D01*
X123800987Y-72696585D01*
X123582000Y-72650000D01*
X123282000Y-72650000D01*
X123282000Y-73658000D01*
X123302000Y-73658000D01*
X123302000Y-73912000D01*
X123282000Y-73912000D01*
X123282000Y-74920000D01*
X123582000Y-74920000D01*
X123800987Y-74873415D01*
X124006678Y-74785003D01*
X124191169Y-74658161D01*
X124347369Y-74497764D01*
X124435001Y-74362774D01*
X124435000Y-81847225D01*
X124347369Y-81712236D01*
X124191169Y-81551839D01*
X124006678Y-81424997D01*
X123800987Y-81336585D01*
X123582000Y-81290000D01*
X123282000Y-81290000D01*
X123282000Y-82298000D01*
X123302000Y-82298000D01*
X123302000Y-82552000D01*
X123282000Y-82552000D01*
X123282000Y-83560000D01*
X123582000Y-83560000D01*
X123800987Y-83513415D01*
X124006678Y-83425003D01*
X124191169Y-83298161D01*
X124347369Y-83137764D01*
X124435000Y-83002775D01*
X124435000Y-90103536D01*
X124432344Y-90097124D01*
X124122088Y-89632793D01*
X123727207Y-89237912D01*
X123262876Y-88927656D01*
X122746939Y-88713948D01*
X122199223Y-88605000D01*
X121640777Y-88605000D01*
X121093061Y-88713948D01*
X120577124Y-88927656D01*
X120112793Y-89237912D01*
X119717912Y-89632793D01*
X119407656Y-90097124D01*
X119193948Y-90613061D01*
X119085000Y-91160777D01*
X119085000Y-91719223D01*
X119193948Y-92266939D01*
X119407656Y-92782876D01*
X119717912Y-93247207D01*
X120112793Y-93642088D01*
X120577124Y-93952344D01*
X120583536Y-93955000D01*
X51501464Y-93955000D01*
X51507876Y-93952344D01*
X51972207Y-93642088D01*
X52367088Y-93247207D01*
X52677344Y-92782876D01*
X52891052Y-92266939D01*
X53000000Y-91719223D01*
X53000000Y-91160777D01*
X52891052Y-90613061D01*
X52677344Y-90097124D01*
X52367088Y-89632793D01*
X51972207Y-89237912D01*
X51507876Y-88927656D01*
X50991939Y-88713948D01*
X50444223Y-88605000D01*
X49885777Y-88605000D01*
X49338061Y-88713948D01*
X48822124Y-88927656D01*
X48357793Y-89237912D01*
X47962912Y-89632793D01*
X47652656Y-90097124D01*
X47650000Y-90103536D01*
X47650000Y-88392000D01*
X53975000Y-88392000D01*
X53999776Y-88389560D01*
X54023601Y-88382333D01*
X54045557Y-88370597D01*
X54064803Y-88354803D01*
X54080597Y-88335557D01*
X54092333Y-88313601D01*
X54099560Y-88289776D01*
X54102000Y-88265000D01*
X54102000Y-69215000D01*
X54099560Y-69190224D01*
X54092333Y-69166399D01*
X54080597Y-69144443D01*
X54064803Y-69125197D01*
X54045557Y-69109403D01*
X54023601Y-69097667D01*
X53999776Y-69090440D01*
X53975000Y-69088000D01*
X51656555Y-69088000D01*
X51972207Y-68877088D01*
X52367088Y-68482207D01*
X52677344Y-68017876D01*
X52891052Y-67501939D01*
X53000000Y-66954223D01*
X53000000Y-66395777D01*
X52891052Y-65848061D01*
X52677344Y-65332124D01*
X52367088Y-64867793D01*
X51972207Y-64472912D01*
X51507876Y-64162656D01*
X51501464Y-64160000D01*
X56788309Y-64160000D01*
X56784100Y-64181161D01*
G37*
%TD.AperFunction*%
D22*
X113250100Y-69147703D02*
X113250100Y-69209839D01*
X113289874Y-69409798D01*
X113367895Y-69598156D01*
X113481163Y-69767674D01*
X113625326Y-69911837D01*
X113794844Y-70025105D01*
X113983202Y-70103126D01*
X114183161Y-70142900D01*
X114387039Y-70142900D01*
X114586998Y-70103126D01*
X114775356Y-70025105D01*
X114944874Y-69911837D01*
X115089037Y-69767674D01*
X115202305Y-69598156D01*
X115280326Y-69409798D01*
X115309105Y-69265117D01*
X115317695Y-69285856D01*
X115430963Y-69455374D01*
X115575126Y-69599537D01*
X115744644Y-69712805D01*
X115933002Y-69790826D01*
X116132961Y-69830600D01*
X116165301Y-69830600D01*
X116165301Y-74662100D01*
X116061761Y-74662100D01*
X115861802Y-74701874D01*
X115673444Y-74779895D01*
X115503926Y-74893163D01*
X115359763Y-75037326D01*
X115246495Y-75206844D01*
X115168474Y-75395202D01*
X115128700Y-75595161D01*
X115128700Y-75799039D01*
X115168474Y-75998998D01*
X115246495Y-76187356D01*
X115359763Y-76356874D01*
X115403701Y-76400812D01*
X115403700Y-84713898D01*
X112461900Y-87655699D01*
X112461900Y-70499122D01*
X112465576Y-70461799D01*
X112461900Y-70424476D01*
X112461900Y-70424467D01*
X112450903Y-70312814D01*
X112407446Y-70169553D01*
X112336874Y-70037524D01*
X112241901Y-69921799D01*
X112212903Y-69898001D01*
X108631404Y-66316503D01*
X108607601Y-66287499D01*
X108491876Y-66192526D01*
X108359847Y-66121954D01*
X108216586Y-66078497D01*
X108104933Y-66067500D01*
X108104922Y-66067500D01*
X108067600Y-66063824D01*
X108030278Y-66067500D01*
X107722143Y-66067500D01*
X107699574Y-66040000D01*
X107775671Y-65947275D01*
X107854850Y-65799142D01*
X107903608Y-65638408D01*
X107920072Y-65471250D01*
X107920072Y-65130000D01*
X109232399Y-65130000D01*
X113250100Y-69147703D01*
%TA.AperFunction,Conductor*%
D23*
G36*
X113250100Y-69147703D02*
G01*
X113250100Y-69209839D01*
X113289874Y-69409798D01*
X113367895Y-69598156D01*
X113481163Y-69767674D01*
X113625326Y-69911837D01*
X113794844Y-70025105D01*
X113983202Y-70103126D01*
X114183161Y-70142900D01*
X114387039Y-70142900D01*
X114586998Y-70103126D01*
X114775356Y-70025105D01*
X114944874Y-69911837D01*
X115089037Y-69767674D01*
X115202305Y-69598156D01*
X115280326Y-69409798D01*
X115309105Y-69265117D01*
X115317695Y-69285856D01*
X115430963Y-69455374D01*
X115575126Y-69599537D01*
X115744644Y-69712805D01*
X115933002Y-69790826D01*
X116132961Y-69830600D01*
X116165301Y-69830600D01*
X116165301Y-74662100D01*
X116061761Y-74662100D01*
X115861802Y-74701874D01*
X115673444Y-74779895D01*
X115503926Y-74893163D01*
X115359763Y-75037326D01*
X115246495Y-75206844D01*
X115168474Y-75395202D01*
X115128700Y-75595161D01*
X115128700Y-75799039D01*
X115168474Y-75998998D01*
X115246495Y-76187356D01*
X115359763Y-76356874D01*
X115403701Y-76400812D01*
X115403700Y-84713898D01*
X112461900Y-87655699D01*
X112461900Y-70499122D01*
X112465576Y-70461799D01*
X112461900Y-70424476D01*
X112461900Y-70424467D01*
X112450903Y-70312814D01*
X112407446Y-70169553D01*
X112336874Y-70037524D01*
X112241901Y-69921799D01*
X112212903Y-69898001D01*
X108631404Y-66316503D01*
X108607601Y-66287499D01*
X108491876Y-66192526D01*
X108359847Y-66121954D01*
X108216586Y-66078497D01*
X108104933Y-66067500D01*
X108104922Y-66067500D01*
X108067600Y-66063824D01*
X108030278Y-66067500D01*
X107722143Y-66067500D01*
X107699574Y-66040000D01*
X107775671Y-65947275D01*
X107854850Y-65799142D01*
X107903608Y-65638408D01*
X107920072Y-65471250D01*
X107920072Y-65130000D01*
X109232399Y-65130000D01*
X113250100Y-69147703D01*
G37*
%TD.AperFunction*%
D22*
X91256226Y-81717237D02*
X91425744Y-81830505D01*
X91614102Y-81908526D01*
X91814061Y-81948300D01*
X92017939Y-81948300D01*
X92217898Y-81908526D01*
X92406256Y-81830505D01*
X92575774Y-81717237D01*
X92619711Y-81673300D01*
X101589181Y-81673300D01*
X101670424Y-81739974D01*
X101781928Y-81799575D01*
X101781928Y-81867000D01*
X101794188Y-81991482D01*
X101830498Y-82111180D01*
X101868192Y-82181700D01*
X76932858Y-82181700D01*
X77077974Y-82084737D01*
X77222137Y-81940574D01*
X77335405Y-81771056D01*
X77375897Y-81673300D01*
X91212289Y-81673300D01*
X91256226Y-81717237D01*
%TA.AperFunction,Conductor*%
D23*
G36*
X91256226Y-81717237D02*
G01*
X91425744Y-81830505D01*
X91614102Y-81908526D01*
X91814061Y-81948300D01*
X92017939Y-81948300D01*
X92217898Y-81908526D01*
X92406256Y-81830505D01*
X92575774Y-81717237D01*
X92619711Y-81673300D01*
X101589181Y-81673300D01*
X101670424Y-81739974D01*
X101781928Y-81799575D01*
X101781928Y-81867000D01*
X101794188Y-81991482D01*
X101830498Y-82111180D01*
X101868192Y-82181700D01*
X76932858Y-82181700D01*
X77077974Y-82084737D01*
X77222137Y-81940574D01*
X77335405Y-81771056D01*
X77375897Y-81673300D01*
X91212289Y-81673300D01*
X91256226Y-81717237D01*
G37*
%TD.AperFunction*%
D22*
X70989000Y-81820802D02*
X71068748Y-81820802D01*
X70989000Y-81900550D01*
X70999299Y-81998743D01*
X71013398Y-82043800D01*
X70999299Y-82088857D01*
X70989561Y-82181700D01*
X66460602Y-82181700D01*
X66319200Y-82040298D01*
X66319200Y-81978161D01*
X66279426Y-81778202D01*
X66269318Y-81753800D01*
X70989000Y-81753800D01*
X70989000Y-81820802D01*
%TA.AperFunction,Conductor*%
D23*
G36*
X70989000Y-81820802D02*
G01*
X71068748Y-81820802D01*
X70989000Y-81900550D01*
X70999299Y-81998743D01*
X71013398Y-82043800D01*
X70999299Y-82088857D01*
X70989561Y-82181700D01*
X66460602Y-82181700D01*
X66319200Y-82040298D01*
X66319200Y-81978161D01*
X66279426Y-81778202D01*
X66269318Y-81753800D01*
X70989000Y-81753800D01*
X70989000Y-81820802D01*
G37*
%TD.AperFunction*%
D22*
X110941901Y-70776603D02*
X110941901Y-71652735D01*
X110768898Y-71581074D01*
X110568939Y-71541300D01*
X110365061Y-71541300D01*
X110165102Y-71581074D01*
X109976744Y-71659095D01*
X109807226Y-71772363D01*
X109763289Y-71816300D01*
X79700902Y-71816300D01*
X78538701Y-70654100D01*
X109376389Y-70654100D01*
X109420326Y-70698037D01*
X109589844Y-70811305D01*
X109778202Y-70889326D01*
X109978161Y-70929100D01*
X110182039Y-70929100D01*
X110381998Y-70889326D01*
X110570356Y-70811305D01*
X110739874Y-70698037D01*
X110801605Y-70636306D01*
X110941901Y-70776603D01*
%TA.AperFunction,Conductor*%
D23*
G36*
X110941901Y-70776603D02*
G01*
X110941901Y-71652735D01*
X110768898Y-71581074D01*
X110568939Y-71541300D01*
X110365061Y-71541300D01*
X110165102Y-71581074D01*
X109976744Y-71659095D01*
X109807226Y-71772363D01*
X109763289Y-71816300D01*
X79700902Y-71816300D01*
X78538701Y-70654100D01*
X109376389Y-70654100D01*
X109420326Y-70698037D01*
X109589844Y-70811305D01*
X109778202Y-70889326D01*
X109978161Y-70929100D01*
X110182039Y-70929100D01*
X110381998Y-70889326D01*
X110570356Y-70811305D01*
X110739874Y-70698037D01*
X110801605Y-70636306D01*
X110941901Y-70776603D01*
G37*
%TD.AperFunction*%
D22*
X99187000Y-65913000D02*
X99207000Y-65913000D01*
X99207000Y-66167000D01*
X99187000Y-66167000D01*
X99187000Y-67360155D01*
X99416890Y-67481476D01*
X99564099Y-67436825D01*
X99826920Y-67311641D01*
X100060269Y-67137588D01*
X100255178Y-66921355D01*
X100324805Y-66804466D01*
X100446525Y-66986632D01*
X100653368Y-67193475D01*
X100896589Y-67355990D01*
X101166842Y-67467932D01*
X101453740Y-67525000D01*
X101746260Y-67525000D01*
X102033158Y-67467932D01*
X102303411Y-67355990D01*
X102546632Y-67193475D01*
X102753475Y-66986632D01*
X102913951Y-66746462D01*
X102989326Y-66821837D01*
X103158844Y-66935105D01*
X103347202Y-67013126D01*
X103547161Y-67052900D01*
X103751039Y-67052900D01*
X103950998Y-67013126D01*
X104139356Y-66935105D01*
X104308874Y-66821837D01*
X104352811Y-66777900D01*
X105693928Y-66777900D01*
X105693928Y-67046250D01*
X105710392Y-67213408D01*
X105759150Y-67374142D01*
X105838329Y-67522275D01*
X105944885Y-67652115D01*
X106074725Y-67758671D01*
X106222858Y-67837850D01*
X106383592Y-67886608D01*
X106550750Y-67903072D01*
X107063250Y-67903072D01*
X107230408Y-67886608D01*
X107391142Y-67837850D01*
X107539275Y-67758671D01*
X107669115Y-67652115D01*
X107722143Y-67587500D01*
X107752799Y-67587500D01*
X109299399Y-69134100D01*
X78490301Y-69134100D01*
X80391850Y-67232552D01*
X80576589Y-67355990D01*
X80846842Y-67467932D01*
X81133740Y-67525000D01*
X81426260Y-67525000D01*
X81713158Y-67467932D01*
X81983411Y-67355990D01*
X82226632Y-67193475D01*
X82433475Y-66986632D01*
X82550000Y-66812240D01*
X82666525Y-66986632D01*
X82873368Y-67193475D01*
X83116589Y-67355990D01*
X83386842Y-67467932D01*
X83673740Y-67525000D01*
X83966260Y-67525000D01*
X84253158Y-67467932D01*
X84523411Y-67355990D01*
X84766632Y-67193475D01*
X84973475Y-66986632D01*
X85090000Y-66812240D01*
X85206525Y-66986632D01*
X85413368Y-67193475D01*
X85656589Y-67355990D01*
X85926842Y-67467932D01*
X86213740Y-67525000D01*
X86506260Y-67525000D01*
X86793158Y-67467932D01*
X87063411Y-67355990D01*
X87306632Y-67193475D01*
X87513475Y-66986632D01*
X87630000Y-66812240D01*
X87746525Y-66986632D01*
X87953368Y-67193475D01*
X88196589Y-67355990D01*
X88466842Y-67467932D01*
X88753740Y-67525000D01*
X89046260Y-67525000D01*
X89333158Y-67467932D01*
X89603411Y-67355990D01*
X89846632Y-67193475D01*
X90053475Y-66986632D01*
X90170000Y-66812240D01*
X90286525Y-66986632D01*
X90493368Y-67193475D01*
X90736589Y-67355990D01*
X91006842Y-67467932D01*
X91293740Y-67525000D01*
X91586260Y-67525000D01*
X91873158Y-67467932D01*
X92143411Y-67355990D01*
X92386632Y-67193475D01*
X92593475Y-66986632D01*
X92710000Y-66812240D01*
X92826525Y-66986632D01*
X93033368Y-67193475D01*
X93276589Y-67355990D01*
X93546842Y-67467932D01*
X93833740Y-67525000D01*
X94126260Y-67525000D01*
X94413158Y-67467932D01*
X94683411Y-67355990D01*
X94926632Y-67193475D01*
X95133475Y-66986632D01*
X95250000Y-66812240D01*
X95366525Y-66986632D01*
X95573368Y-67193475D01*
X95816589Y-67355990D01*
X96086842Y-67467932D01*
X96373740Y-67525000D01*
X96666260Y-67525000D01*
X96953158Y-67467932D01*
X97223411Y-67355990D01*
X97466632Y-67193475D01*
X97673475Y-66986632D01*
X97795195Y-66804466D01*
X97864822Y-66921355D01*
X98059731Y-67137588D01*
X98293080Y-67311641D01*
X98555901Y-67436825D01*
X98703110Y-67481476D01*
X98933000Y-67360155D01*
X98933000Y-66167000D01*
X98913000Y-66167000D01*
X98913000Y-65913000D01*
X98933000Y-65913000D01*
X98933000Y-65893000D01*
X99187000Y-65893000D01*
X99187000Y-65913000D01*
%TA.AperFunction,Conductor*%
D23*
G36*
X99187000Y-65913000D02*
G01*
X99207000Y-65913000D01*
X99207000Y-66167000D01*
X99187000Y-66167000D01*
X99187000Y-67360155D01*
X99416890Y-67481476D01*
X99564099Y-67436825D01*
X99826920Y-67311641D01*
X100060269Y-67137588D01*
X100255178Y-66921355D01*
X100324805Y-66804466D01*
X100446525Y-66986632D01*
X100653368Y-67193475D01*
X100896589Y-67355990D01*
X101166842Y-67467932D01*
X101453740Y-67525000D01*
X101746260Y-67525000D01*
X102033158Y-67467932D01*
X102303411Y-67355990D01*
X102546632Y-67193475D01*
X102753475Y-66986632D01*
X102913951Y-66746462D01*
X102989326Y-66821837D01*
X103158844Y-66935105D01*
X103347202Y-67013126D01*
X103547161Y-67052900D01*
X103751039Y-67052900D01*
X103950998Y-67013126D01*
X104139356Y-66935105D01*
X104308874Y-66821837D01*
X104352811Y-66777900D01*
X105693928Y-66777900D01*
X105693928Y-67046250D01*
X105710392Y-67213408D01*
X105759150Y-67374142D01*
X105838329Y-67522275D01*
X105944885Y-67652115D01*
X106074725Y-67758671D01*
X106222858Y-67837850D01*
X106383592Y-67886608D01*
X106550750Y-67903072D01*
X107063250Y-67903072D01*
X107230408Y-67886608D01*
X107391142Y-67837850D01*
X107539275Y-67758671D01*
X107669115Y-67652115D01*
X107722143Y-67587500D01*
X107752799Y-67587500D01*
X109299399Y-69134100D01*
X78490301Y-69134100D01*
X80391850Y-67232552D01*
X80576589Y-67355990D01*
X80846842Y-67467932D01*
X81133740Y-67525000D01*
X81426260Y-67525000D01*
X81713158Y-67467932D01*
X81983411Y-67355990D01*
X82226632Y-67193475D01*
X82433475Y-66986632D01*
X82550000Y-66812240D01*
X82666525Y-66986632D01*
X82873368Y-67193475D01*
X83116589Y-67355990D01*
X83386842Y-67467932D01*
X83673740Y-67525000D01*
X83966260Y-67525000D01*
X84253158Y-67467932D01*
X84523411Y-67355990D01*
X84766632Y-67193475D01*
X84973475Y-66986632D01*
X85090000Y-66812240D01*
X85206525Y-66986632D01*
X85413368Y-67193475D01*
X85656589Y-67355990D01*
X85926842Y-67467932D01*
X86213740Y-67525000D01*
X86506260Y-67525000D01*
X86793158Y-67467932D01*
X87063411Y-67355990D01*
X87306632Y-67193475D01*
X87513475Y-66986632D01*
X87630000Y-66812240D01*
X87746525Y-66986632D01*
X87953368Y-67193475D01*
X88196589Y-67355990D01*
X88466842Y-67467932D01*
X88753740Y-67525000D01*
X89046260Y-67525000D01*
X89333158Y-67467932D01*
X89603411Y-67355990D01*
X89846632Y-67193475D01*
X90053475Y-66986632D01*
X90170000Y-66812240D01*
X90286525Y-66986632D01*
X90493368Y-67193475D01*
X90736589Y-67355990D01*
X91006842Y-67467932D01*
X91293740Y-67525000D01*
X91586260Y-67525000D01*
X91873158Y-67467932D01*
X92143411Y-67355990D01*
X92386632Y-67193475D01*
X92593475Y-66986632D01*
X92710000Y-66812240D01*
X92826525Y-66986632D01*
X93033368Y-67193475D01*
X93276589Y-67355990D01*
X93546842Y-67467932D01*
X93833740Y-67525000D01*
X94126260Y-67525000D01*
X94413158Y-67467932D01*
X94683411Y-67355990D01*
X94926632Y-67193475D01*
X95133475Y-66986632D01*
X95250000Y-66812240D01*
X95366525Y-66986632D01*
X95573368Y-67193475D01*
X95816589Y-67355990D01*
X96086842Y-67467932D01*
X96373740Y-67525000D01*
X96666260Y-67525000D01*
X96953158Y-67467932D01*
X97223411Y-67355990D01*
X97466632Y-67193475D01*
X97673475Y-66986632D01*
X97795195Y-66804466D01*
X97864822Y-66921355D01*
X98059731Y-67137588D01*
X98293080Y-67311641D01*
X98555901Y-67436825D01*
X98703110Y-67481476D01*
X98933000Y-67360155D01*
X98933000Y-66167000D01*
X98913000Y-66167000D01*
X98913000Y-65913000D01*
X98933000Y-65913000D01*
X98933000Y-65893000D01*
X99187000Y-65893000D01*
X99187000Y-65913000D01*
G37*
%TD.AperFunction*%
%TD*%
M02*
