%TF.GenerationSoftware,KiCad,Pcbnew,(5.1.12)-1*%
%TF.CreationDate,2022-11-12T21:15:41+01:00*%
%TF.ProjectId,NewmorphS3,4e65776d-6f72-4706-9853-332e6b696361,rev?*%
%TF.SameCoordinates,Original*%
%TF.FileFunction,Legend,Bot*%
%TF.FilePolarity,Positive*%
%FSLAX46Y46*%
G04 Gerber Fmt 4.6, Leading zero omitted, Abs format (unit mm)*
G04 Created by KiCad (PCBNEW (5.1.12)-1) date 2022-11-12 21:15:41*
%MOMM*%
%LPD*%
G01*
G04 APERTURE LIST*
%ADD10C,0.100000*%
%ADD11C,0.120000*%
%ADD12C,0.150000*%
%ADD13C,0.127000*%
G04 APERTURE END LIST*
D10*
X94742857Y-93580952D02*
X94780952Y-93542857D01*
X94857142Y-93504761D01*
X94933333Y-93504761D01*
X95009523Y-93542857D01*
X95047619Y-93580952D01*
X95085714Y-93657142D01*
X95085714Y-93733333D01*
X95047619Y-93809523D01*
X95009523Y-93847619D01*
X94933333Y-93885714D01*
X94857142Y-93885714D01*
X94780952Y-93847619D01*
X94742857Y-93809523D01*
X94742857Y-93504761D02*
X94742857Y-93809523D01*
X94704761Y-93847619D01*
X94666666Y-93847619D01*
X94590476Y-93809523D01*
X94552380Y-93733333D01*
X94552380Y-93542857D01*
X94628571Y-93428571D01*
X94742857Y-93352380D01*
X94895238Y-93314285D01*
X95047619Y-93352380D01*
X95161904Y-93428571D01*
X95238095Y-93542857D01*
X95276190Y-93695238D01*
X95238095Y-93847619D01*
X95161904Y-93961904D01*
X95047619Y-94038095D01*
X94895238Y-94076190D01*
X94742857Y-94038095D01*
X94628571Y-93961904D01*
X94247619Y-93923809D02*
X94171428Y-93961904D01*
X94019047Y-93961904D01*
X93942857Y-93923809D01*
X93904761Y-93847619D01*
X93904761Y-93809523D01*
X93942857Y-93733333D01*
X94019047Y-93695238D01*
X94133333Y-93695238D01*
X94209523Y-93657142D01*
X94247619Y-93580952D01*
X94247619Y-93542857D01*
X94209523Y-93466666D01*
X94133333Y-93428571D01*
X94019047Y-93428571D01*
X93942857Y-93466666D01*
X93219047Y-93428571D02*
X93219047Y-93961904D01*
X93561904Y-93428571D02*
X93561904Y-93847619D01*
X93523809Y-93923809D01*
X93447619Y-93961904D01*
X93333333Y-93961904D01*
X93257142Y-93923809D01*
X93219047Y-93885714D01*
X92723809Y-93961904D02*
X92800000Y-93923809D01*
X92838095Y-93847619D01*
X92838095Y-93161904D01*
X92533333Y-93428571D02*
X92228571Y-93428571D01*
X92419047Y-93961904D02*
X92419047Y-93276190D01*
X92380952Y-93200000D01*
X92304761Y-93161904D01*
X92228571Y-93161904D01*
X91619047Y-93428571D02*
X91619047Y-93961904D01*
X91961904Y-93428571D02*
X91961904Y-93847619D01*
X91923809Y-93923809D01*
X91847619Y-93961904D01*
X91733333Y-93961904D01*
X91657142Y-93923809D01*
X91619047Y-93885714D01*
X91238095Y-93961904D02*
X91238095Y-93428571D01*
X91238095Y-93580952D02*
X91200000Y-93504761D01*
X91161904Y-93466666D01*
X91085714Y-93428571D01*
X91009523Y-93428571D01*
X90628571Y-93961904D02*
X90704761Y-93923809D01*
X90742857Y-93885714D01*
X90780952Y-93809523D01*
X90780952Y-93580952D01*
X90742857Y-93504761D01*
X90704761Y-93466666D01*
X90628571Y-93428571D01*
X90514285Y-93428571D01*
X90438095Y-93466666D01*
X90400000Y-93504761D01*
X90361904Y-93580952D01*
X90361904Y-93809523D01*
X90400000Y-93885714D01*
X90438095Y-93923809D01*
X90514285Y-93961904D01*
X90628571Y-93961904D01*
X90019047Y-93961904D02*
X90019047Y-93428571D01*
X90019047Y-93161904D02*
X90057142Y-93200000D01*
X90019047Y-93238095D01*
X89980952Y-93200000D01*
X90019047Y-93161904D01*
X90019047Y-93238095D01*
X89295238Y-93961904D02*
X89295238Y-93161904D01*
X89295238Y-93923809D02*
X89371428Y-93961904D01*
X89523809Y-93961904D01*
X89600000Y-93923809D01*
X89638095Y-93885714D01*
X89676190Y-93809523D01*
X89676190Y-93580952D01*
X89638095Y-93504761D01*
X89600000Y-93466666D01*
X89523809Y-93428571D01*
X89371428Y-93428571D01*
X89295238Y-93466666D01*
X88304761Y-93961904D02*
X88304761Y-93161904D01*
X88000000Y-93161904D01*
X87923809Y-93200000D01*
X87885714Y-93238095D01*
X87847619Y-93314285D01*
X87847619Y-93428571D01*
X87885714Y-93504761D01*
X87923809Y-93542857D01*
X88000000Y-93580952D01*
X88304761Y-93580952D01*
X87542857Y-93923809D02*
X87428571Y-93961904D01*
X87238095Y-93961904D01*
X87161904Y-93923809D01*
X87123809Y-93885714D01*
X87085714Y-93809523D01*
X87085714Y-93733333D01*
X87123809Y-93657142D01*
X87161904Y-93619047D01*
X87238095Y-93580952D01*
X87390476Y-93542857D01*
X87466666Y-93504761D01*
X87504761Y-93466666D01*
X87542857Y-93390476D01*
X87542857Y-93314285D01*
X87504761Y-93238095D01*
X87466666Y-93200000D01*
X87390476Y-93161904D01*
X87200000Y-93161904D01*
X87085714Y-93200000D01*
X86742857Y-93961904D02*
X86742857Y-93161904D01*
X86438095Y-93161904D01*
X86361904Y-93200000D01*
X86323809Y-93238095D01*
X86285714Y-93314285D01*
X86285714Y-93428571D01*
X86323809Y-93504761D01*
X86361904Y-93542857D01*
X86438095Y-93580952D01*
X86742857Y-93580952D01*
X86019047Y-93161904D02*
X85523809Y-93161904D01*
X85790476Y-93466666D01*
X85676190Y-93466666D01*
X85600000Y-93504761D01*
X85561904Y-93542857D01*
X85523809Y-93619047D01*
X85523809Y-93809523D01*
X85561904Y-93885714D01*
X85600000Y-93923809D01*
X85676190Y-93961904D01*
X85904761Y-93961904D01*
X85980952Y-93923809D01*
X86019047Y-93885714D01*
X85219047Y-93238095D02*
X85180952Y-93200000D01*
X85104761Y-93161904D01*
X84914285Y-93161904D01*
X84838095Y-93200000D01*
X84800000Y-93238095D01*
X84761904Y-93314285D01*
X84761904Y-93390476D01*
X84800000Y-93504761D01*
X85257142Y-93961904D01*
X84761904Y-93961904D01*
X84419047Y-93657142D02*
X83809523Y-93657142D01*
X83466666Y-93923809D02*
X83352380Y-93961904D01*
X83161904Y-93961904D01*
X83085714Y-93923809D01*
X83047619Y-93885714D01*
X83009523Y-93809523D01*
X83009523Y-93733333D01*
X83047619Y-93657142D01*
X83085714Y-93619047D01*
X83161904Y-93580952D01*
X83314285Y-93542857D01*
X83390476Y-93504761D01*
X83428571Y-93466666D01*
X83466666Y-93390476D01*
X83466666Y-93314285D01*
X83428571Y-93238095D01*
X83390476Y-93200000D01*
X83314285Y-93161904D01*
X83123809Y-93161904D01*
X83009523Y-93200000D01*
X82742857Y-93161904D02*
X82247619Y-93161904D01*
X82514285Y-93466666D01*
X82400000Y-93466666D01*
X82323809Y-93504761D01*
X82285714Y-93542857D01*
X82247619Y-93619047D01*
X82247619Y-93809523D01*
X82285714Y-93885714D01*
X82323809Y-93923809D01*
X82400000Y-93961904D01*
X82628571Y-93961904D01*
X82704761Y-93923809D01*
X82742857Y-93885714D01*
X80876190Y-93200000D02*
X80952380Y-93161904D01*
X81066666Y-93161904D01*
X81180952Y-93200000D01*
X81257142Y-93276190D01*
X81295238Y-93352380D01*
X81333333Y-93504761D01*
X81333333Y-93619047D01*
X81295238Y-93771428D01*
X81257142Y-93847619D01*
X81180952Y-93923809D01*
X81066666Y-93961904D01*
X80990476Y-93961904D01*
X80876190Y-93923809D01*
X80838095Y-93885714D01*
X80838095Y-93619047D01*
X80990476Y-93619047D01*
X80152380Y-93961904D02*
X80152380Y-93542857D01*
X80190476Y-93466666D01*
X80266666Y-93428571D01*
X80419047Y-93428571D01*
X80495238Y-93466666D01*
X80152380Y-93923809D02*
X80228571Y-93961904D01*
X80419047Y-93961904D01*
X80495238Y-93923809D01*
X80533333Y-93847619D01*
X80533333Y-93771428D01*
X80495238Y-93695238D01*
X80419047Y-93657142D01*
X80228571Y-93657142D01*
X80152380Y-93619047D01*
X79771428Y-93961904D02*
X79771428Y-93428571D01*
X79771428Y-93504761D02*
X79733333Y-93466666D01*
X79657142Y-93428571D01*
X79542857Y-93428571D01*
X79466666Y-93466666D01*
X79428571Y-93542857D01*
X79428571Y-93961904D01*
X79428571Y-93542857D02*
X79390476Y-93466666D01*
X79314285Y-93428571D01*
X79200000Y-93428571D01*
X79123809Y-93466666D01*
X79085714Y-93542857D01*
X79085714Y-93961904D01*
X78400000Y-93923809D02*
X78476190Y-93961904D01*
X78628571Y-93961904D01*
X78704761Y-93923809D01*
X78742857Y-93847619D01*
X78742857Y-93542857D01*
X78704761Y-93466666D01*
X78628571Y-93428571D01*
X78476190Y-93428571D01*
X78400000Y-93466666D01*
X78361904Y-93542857D01*
X78361904Y-93619047D01*
X78742857Y-93695238D01*
X77447619Y-93923809D02*
X77333333Y-93961904D01*
X77142857Y-93961904D01*
X77066666Y-93923809D01*
X77028571Y-93885714D01*
X76990476Y-93809523D01*
X76990476Y-93733333D01*
X77028571Y-93657142D01*
X77066666Y-93619047D01*
X77142857Y-93580952D01*
X77295238Y-93542857D01*
X77371428Y-93504761D01*
X77409523Y-93466666D01*
X77447619Y-93390476D01*
X77447619Y-93314285D01*
X77409523Y-93238095D01*
X77371428Y-93200000D01*
X77295238Y-93161904D01*
X77104761Y-93161904D01*
X76990476Y-93200000D01*
X76761904Y-93428571D02*
X76457142Y-93428571D01*
X76647619Y-93161904D02*
X76647619Y-93847619D01*
X76609523Y-93923809D01*
X76533333Y-93961904D01*
X76457142Y-93961904D01*
X75847619Y-93961904D02*
X75847619Y-93542857D01*
X75885714Y-93466666D01*
X75961904Y-93428571D01*
X76114285Y-93428571D01*
X76190476Y-93466666D01*
X75847619Y-93923809D02*
X75923809Y-93961904D01*
X76114285Y-93961904D01*
X76190476Y-93923809D01*
X76228571Y-93847619D01*
X76228571Y-93771428D01*
X76190476Y-93695238D01*
X76114285Y-93657142D01*
X75923809Y-93657142D01*
X75847619Y-93619047D01*
X75580952Y-93428571D02*
X75276190Y-93428571D01*
X75466666Y-93161904D02*
X75466666Y-93847619D01*
X75428571Y-93923809D01*
X75352380Y-93961904D01*
X75276190Y-93961904D01*
X75009523Y-93961904D02*
X75009523Y-93428571D01*
X75009523Y-93161904D02*
X75047619Y-93200000D01*
X75009523Y-93238095D01*
X74971428Y-93200000D01*
X75009523Y-93161904D01*
X75009523Y-93238095D01*
X74514285Y-93961904D02*
X74590476Y-93923809D01*
X74628571Y-93885714D01*
X74666666Y-93809523D01*
X74666666Y-93580952D01*
X74628571Y-93504761D01*
X74590476Y-93466666D01*
X74514285Y-93428571D01*
X74400000Y-93428571D01*
X74323809Y-93466666D01*
X74285714Y-93504761D01*
X74247619Y-93580952D01*
X74247619Y-93809523D01*
X74285714Y-93885714D01*
X74323809Y-93923809D01*
X74400000Y-93961904D01*
X74514285Y-93961904D01*
X73904761Y-93428571D02*
X73904761Y-93961904D01*
X73904761Y-93504761D02*
X73866666Y-93466666D01*
X73790476Y-93428571D01*
X73676190Y-93428571D01*
X73600000Y-93466666D01*
X73561904Y-93542857D01*
X73561904Y-93961904D01*
X107800000Y-81075000D02*
X107900000Y-81041666D01*
X107933333Y-81008333D01*
X107966666Y-80941666D01*
X107966666Y-80841666D01*
X107933333Y-80775000D01*
X107900000Y-80741666D01*
X107833333Y-80708333D01*
X107566666Y-80708333D01*
X107566666Y-81408333D01*
X107800000Y-81408333D01*
X107866666Y-81375000D01*
X107900000Y-81341666D01*
X107933333Y-81275000D01*
X107933333Y-81208333D01*
X107900000Y-81141666D01*
X107866666Y-81108333D01*
X107800000Y-81075000D01*
X107566666Y-81075000D01*
X108233333Y-80908333D02*
X108566666Y-80908333D01*
X108166666Y-80708333D02*
X108400000Y-81408333D01*
X108633333Y-80708333D01*
X108766666Y-81408333D02*
X109166666Y-81408333D01*
X108966666Y-80708333D02*
X108966666Y-81408333D01*
X109400000Y-80975000D02*
X109933333Y-80975000D01*
X109666666Y-80708333D02*
X109666666Y-81241666D01*
X109108333Y-76050000D02*
X109175000Y-76016666D01*
X109275000Y-76016666D01*
X109375000Y-76050000D01*
X109441666Y-76116666D01*
X109475000Y-76183333D01*
X109508333Y-76316666D01*
X109508333Y-76416666D01*
X109475000Y-76550000D01*
X109441666Y-76616666D01*
X109375000Y-76683333D01*
X109275000Y-76716666D01*
X109208333Y-76716666D01*
X109108333Y-76683333D01*
X109075000Y-76650000D01*
X109075000Y-76416666D01*
X109208333Y-76416666D01*
X108775000Y-76716666D02*
X108775000Y-76016666D01*
X108375000Y-76716666D01*
X108375000Y-76016666D01*
X108041666Y-76716666D02*
X108041666Y-76016666D01*
X107875000Y-76016666D01*
X107775000Y-76050000D01*
X107708333Y-76116666D01*
X107675000Y-76183333D01*
X107641666Y-76316666D01*
X107641666Y-76416666D01*
X107675000Y-76550000D01*
X107708333Y-76616666D01*
X107775000Y-76683333D01*
X107875000Y-76716666D01*
X108041666Y-76716666D01*
X85716666Y-86783333D02*
X85383333Y-86550000D01*
X85716666Y-86383333D02*
X85016666Y-86383333D01*
X85016666Y-86650000D01*
X85050000Y-86716666D01*
X85083333Y-86750000D01*
X85150000Y-86783333D01*
X85250000Y-86783333D01*
X85316666Y-86750000D01*
X85350000Y-86716666D01*
X85383333Y-86650000D01*
X85383333Y-86383333D01*
X85350000Y-87083333D02*
X85350000Y-87316666D01*
X85716666Y-87416666D02*
X85716666Y-87083333D01*
X85016666Y-87083333D01*
X85016666Y-87416666D01*
X85683333Y-87683333D02*
X85716666Y-87783333D01*
X85716666Y-87950000D01*
X85683333Y-88016666D01*
X85650000Y-88050000D01*
X85583333Y-88083333D01*
X85516666Y-88083333D01*
X85450000Y-88050000D01*
X85416666Y-88016666D01*
X85383333Y-87950000D01*
X85350000Y-87816666D01*
X85316666Y-87750000D01*
X85283333Y-87716666D01*
X85216666Y-87683333D01*
X85150000Y-87683333D01*
X85083333Y-87716666D01*
X85050000Y-87750000D01*
X85016666Y-87816666D01*
X85016666Y-87983333D01*
X85050000Y-88083333D01*
X85350000Y-88383333D02*
X85350000Y-88616666D01*
X85716666Y-88716666D02*
X85716666Y-88383333D01*
X85016666Y-88383333D01*
X85016666Y-88716666D01*
X85016666Y-88916666D02*
X85016666Y-89316666D01*
X85716666Y-89116666D02*
X85016666Y-89116666D01*
X91950000Y-86850000D02*
X91983333Y-86950000D01*
X92016666Y-86983333D01*
X92083333Y-87016666D01*
X92183333Y-87016666D01*
X92250000Y-86983333D01*
X92283333Y-86950000D01*
X92316666Y-86883333D01*
X92316666Y-86616666D01*
X91616666Y-86616666D01*
X91616666Y-86850000D01*
X91650000Y-86916666D01*
X91683333Y-86950000D01*
X91750000Y-86983333D01*
X91816666Y-86983333D01*
X91883333Y-86950000D01*
X91916666Y-86916666D01*
X91950000Y-86850000D01*
X91950000Y-86616666D01*
X91616666Y-87450000D02*
X91616666Y-87583333D01*
X91650000Y-87650000D01*
X91716666Y-87716666D01*
X91850000Y-87750000D01*
X92083333Y-87750000D01*
X92216666Y-87716666D01*
X92283333Y-87650000D01*
X92316666Y-87583333D01*
X92316666Y-87450000D01*
X92283333Y-87383333D01*
X92216666Y-87316666D01*
X92083333Y-87283333D01*
X91850000Y-87283333D01*
X91716666Y-87316666D01*
X91650000Y-87383333D01*
X91616666Y-87450000D01*
X91616666Y-88183333D02*
X91616666Y-88316666D01*
X91650000Y-88383333D01*
X91716666Y-88450000D01*
X91850000Y-88483333D01*
X92083333Y-88483333D01*
X92216666Y-88450000D01*
X92283333Y-88383333D01*
X92316666Y-88316666D01*
X92316666Y-88183333D01*
X92283333Y-88116666D01*
X92216666Y-88050000D01*
X92083333Y-88016666D01*
X91850000Y-88016666D01*
X91716666Y-88050000D01*
X91650000Y-88116666D01*
X91616666Y-88183333D01*
X91616666Y-88683333D02*
X91616666Y-89083333D01*
X92316666Y-88883333D02*
X91616666Y-88883333D01*
D11*
%TO.C,C101*%
X117600000Y-91299420D02*
X117600000Y-91580580D01*
X118620000Y-91299420D02*
X118620000Y-91580580D01*
%TO.C,C102*%
X110746000Y-91466580D02*
X110746000Y-91185420D01*
X109726000Y-91466580D02*
X109726000Y-91185420D01*
%TO.C,C103*%
X105031000Y-91413420D02*
X105031000Y-91694580D01*
X104011000Y-91413420D02*
X104011000Y-91694580D01*
%TO.C,C104*%
X112397000Y-91159420D02*
X112397000Y-91440580D01*
X111377000Y-91159420D02*
X111377000Y-91440580D01*
%TO.C,C105*%
X59844000Y-65376248D02*
X59844000Y-65898752D01*
X61314000Y-65376248D02*
X61314000Y-65898752D01*
%TO.C,D101*%
X113320000Y-85190000D02*
X114250000Y-85190000D01*
X116480000Y-85190000D02*
X115550000Y-85190000D01*
X116480000Y-85190000D02*
X116480000Y-87350000D01*
X113320000Y-85190000D02*
X113320000Y-86650000D01*
D12*
%TO.C,J101*%
X125935000Y-82705000D02*
X125935000Y-73505000D01*
X125935000Y-73505000D02*
X123985000Y-73505000D01*
X122335000Y-73505000D02*
X120035000Y-73505000D01*
X125935000Y-82705000D02*
X123985000Y-82705000D01*
X122335000Y-82705000D02*
X120035000Y-82705000D01*
D11*
%TO.C,R101*%
X119012258Y-85866500D02*
X118537742Y-85866500D01*
X119012258Y-84821500D02*
X118537742Y-84821500D01*
%TO.C,R102*%
X122982258Y-70978500D02*
X122507742Y-70978500D01*
X122982258Y-72023500D02*
X122507742Y-72023500D01*
%TO.C,R103*%
X113650500Y-81326258D02*
X113650500Y-80851742D01*
X114695500Y-81326258D02*
X114695500Y-80851742D01*
%TO.C,R104*%
X105551500Y-66213258D02*
X105551500Y-65738742D01*
X104506500Y-66213258D02*
X104506500Y-65738742D01*
%TO.C,R105*%
X76572936Y-87857000D02*
X77027064Y-87857000D01*
X76572936Y-86387000D02*
X77027064Y-86387000D01*
%TO.C,R108*%
X56340742Y-66054500D02*
X56815258Y-66054500D01*
X56340742Y-65009500D02*
X56815258Y-65009500D01*
%TO.C,R109*%
X62596500Y-66213258D02*
X62596500Y-65738742D01*
X63641500Y-66213258D02*
X63641500Y-65738742D01*
%TO.C,R110*%
X57039742Y-91933500D02*
X57514258Y-91933500D01*
X57039742Y-92978500D02*
X57514258Y-92978500D01*
%TO.C,R111*%
X63387500Y-91266742D02*
X63387500Y-91741258D01*
X62342500Y-91266742D02*
X62342500Y-91741258D01*
%TO.C,R112*%
X112387742Y-73322500D02*
X112862258Y-73322500D01*
X112387742Y-72277500D02*
X112862258Y-72277500D01*
%TO.C,R113*%
X112316742Y-70623500D02*
X112791258Y-70623500D01*
X112316742Y-69578500D02*
X112791258Y-69578500D01*
D13*
%TO.C,SW101*%
X81910000Y-88790000D02*
X82575000Y-88790000D01*
X82575000Y-86990000D02*
X81910000Y-86990000D01*
X79910000Y-89290000D02*
X84575000Y-89290000D01*
X84575000Y-89290000D02*
X84575000Y-86390000D01*
X84575000Y-86390000D02*
X79910000Y-86390000D01*
X79910000Y-86390000D02*
X79910000Y-89290000D01*
G36*
X79910000Y-89290000D02*
G01*
X79910000Y-88390000D01*
X80810000Y-89290000D01*
X79910000Y-89290000D01*
G37*
X79910000Y-89290000D02*
X79910000Y-88390000D01*
X80810000Y-89290000D01*
X79910000Y-89290000D01*
G36*
X84575000Y-89290000D02*
G01*
X83675000Y-89290000D01*
X84575000Y-88390000D01*
X84575000Y-89290000D01*
G37*
X84575000Y-89290000D02*
X83675000Y-89290000D01*
X84575000Y-88390000D01*
X84575000Y-89290000D01*
G36*
X84575000Y-86390000D02*
G01*
X84575000Y-87290000D01*
X83675000Y-86390000D01*
X84575000Y-86390000D01*
G37*
X84575000Y-86390000D02*
X84575000Y-87290000D01*
X83675000Y-86390000D01*
X84575000Y-86390000D01*
G36*
X79910000Y-86390000D02*
G01*
X80810000Y-86390000D01*
X79910000Y-87290000D01*
X79910000Y-86390000D01*
G37*
X79910000Y-86390000D02*
X80810000Y-86390000D01*
X79910000Y-87290000D01*
X79910000Y-86390000D01*
X81910000Y-86990000D02*
G75*
G03*
X81910000Y-88790000I0J-900000D01*
G01*
X82575000Y-88790000D02*
G75*
G03*
X82575000Y-86990000I0J900000D01*
G01*
%TO.C,SW102*%
G36*
X86600000Y-86390000D02*
G01*
X87500000Y-86390000D01*
X86600000Y-87290000D01*
X86600000Y-86390000D01*
G37*
X86600000Y-86390000D02*
X87500000Y-86390000D01*
X86600000Y-87290000D01*
X86600000Y-86390000D01*
G36*
X91265000Y-86390000D02*
G01*
X91265000Y-87290000D01*
X90365000Y-86390000D01*
X91265000Y-86390000D01*
G37*
X91265000Y-86390000D02*
X91265000Y-87290000D01*
X90365000Y-86390000D01*
X91265000Y-86390000D01*
G36*
X91265000Y-89290000D02*
G01*
X90365000Y-89290000D01*
X91265000Y-88390000D01*
X91265000Y-89290000D01*
G37*
X91265000Y-89290000D02*
X90365000Y-89290000D01*
X91265000Y-88390000D01*
X91265000Y-89290000D01*
G36*
X86600000Y-89290000D02*
G01*
X86600000Y-88390000D01*
X87500000Y-89290000D01*
X86600000Y-89290000D01*
G37*
X86600000Y-89290000D02*
X86600000Y-88390000D01*
X87500000Y-89290000D01*
X86600000Y-89290000D01*
X86600000Y-86390000D02*
X86600000Y-89290000D01*
X91265000Y-86390000D02*
X86600000Y-86390000D01*
X91265000Y-89290000D02*
X91265000Y-86390000D01*
X86600000Y-89290000D02*
X91265000Y-89290000D01*
X89265000Y-86990000D02*
X88600000Y-86990000D01*
X88600000Y-88790000D02*
X89265000Y-88790000D01*
X89265000Y-88790000D02*
G75*
G03*
X89265000Y-86990000I0J900000D01*
G01*
X88600000Y-86990000D02*
G75*
G03*
X88600000Y-88790000I0J-900000D01*
G01*
D11*
%TO.C,SW105*%
X114938000Y-66906000D02*
X115138000Y-66906000D01*
X112138000Y-62766000D02*
X112338000Y-62556000D01*
X113438000Y-62766000D02*
X113238000Y-62556000D01*
X112138000Y-64056000D02*
X112138000Y-62766000D01*
X112338000Y-62556000D02*
X113238000Y-62556000D01*
X113438000Y-62766000D02*
X113438000Y-64056000D01*
X110688000Y-64056000D02*
X116388000Y-64056000D01*
X111938000Y-66906000D02*
X113638000Y-66906000D01*
X110088000Y-65856000D02*
X110088000Y-65066000D01*
X116988000Y-65066000D02*
X116988000Y-65856000D01*
%TO.C,U101*%
X114035000Y-89830000D02*
X115835000Y-89830000D01*
X115835000Y-93050000D02*
X113385000Y-93050000D01*
%TO.C,U102*%
X108215000Y-93050000D02*
X105765000Y-93050000D01*
X106415000Y-89830000D02*
X108215000Y-89830000D01*
D12*
%TO.C,U103*%
X73025000Y-69850000D02*
X73025000Y-87850000D01*
X73025000Y-87850000D02*
X47525000Y-87850000D01*
X47525000Y-87850000D02*
X47525000Y-69850000D01*
X47525000Y-69850000D02*
X73025000Y-69850000D01*
X53525000Y-69850000D02*
X53525000Y-87850000D01*
D11*
%TO.C,C106*%
X112484420Y-73890000D02*
X112765580Y-73890000D01*
X112484420Y-74910000D02*
X112765580Y-74910000D01*
%TO.C,R106*%
X115782742Y-70623500D02*
X116257258Y-70623500D01*
X115782742Y-69578500D02*
X116257258Y-69578500D01*
%TO.C,R107*%
X119458258Y-70623500D02*
X118983742Y-70623500D01*
X119458258Y-69578500D02*
X118983742Y-69578500D01*
%TO.C,J102*%
X101040000Y-80965000D02*
X101040000Y-76285000D01*
X107260000Y-75585000D02*
X107260000Y-76865000D01*
X108860000Y-75585000D02*
X107260000Y-75585000D01*
X108860000Y-74565000D02*
X108860000Y-75585000D01*
X104610000Y-74565000D02*
X108860000Y-74565000D01*
X107260000Y-80385000D02*
X110150000Y-80385000D01*
X107260000Y-81665000D02*
X107260000Y-80385000D01*
X108860000Y-81665000D02*
X107260000Y-81665000D01*
X108860000Y-82685000D02*
X108860000Y-81665000D01*
X104610000Y-82685000D02*
X108860000Y-82685000D01*
%TO.C,C101*%
D12*
X118467142Y-86891952D02*
X118514761Y-86844333D01*
X118562380Y-86701476D01*
X118562380Y-86606238D01*
X118514761Y-86463380D01*
X118419523Y-86368142D01*
X118324285Y-86320523D01*
X118133809Y-86272904D01*
X117990952Y-86272904D01*
X117800476Y-86320523D01*
X117705238Y-86368142D01*
X117610000Y-86463380D01*
X117562380Y-86606238D01*
X117562380Y-86701476D01*
X117610000Y-86844333D01*
X117657619Y-86891952D01*
X118562380Y-87844333D02*
X118562380Y-87272904D01*
X118562380Y-87558619D02*
X117562380Y-87558619D01*
X117705238Y-87463380D01*
X117800476Y-87368142D01*
X117848095Y-87272904D01*
X117562380Y-88463380D02*
X117562380Y-88558619D01*
X117610000Y-88653857D01*
X117657619Y-88701476D01*
X117752857Y-88749095D01*
X117943333Y-88796714D01*
X118181428Y-88796714D01*
X118371904Y-88749095D01*
X118467142Y-88701476D01*
X118514761Y-88653857D01*
X118562380Y-88558619D01*
X118562380Y-88463380D01*
X118514761Y-88368142D01*
X118467142Y-88320523D01*
X118371904Y-88272904D01*
X118181428Y-88225285D01*
X117943333Y-88225285D01*
X117752857Y-88272904D01*
X117657619Y-88320523D01*
X117610000Y-88368142D01*
X117562380Y-88463380D01*
X118562380Y-89749095D02*
X118562380Y-89177666D01*
X118562380Y-89463380D02*
X117562380Y-89463380D01*
X117705238Y-89368142D01*
X117800476Y-89272904D01*
X117848095Y-89177666D01*
%TO.C,C102*%
X111609047Y-94210142D02*
X111656666Y-94257761D01*
X111799523Y-94305380D01*
X111894761Y-94305380D01*
X112037619Y-94257761D01*
X112132857Y-94162523D01*
X112180476Y-94067285D01*
X112228095Y-93876809D01*
X112228095Y-93733952D01*
X112180476Y-93543476D01*
X112132857Y-93448238D01*
X112037619Y-93353000D01*
X111894761Y-93305380D01*
X111799523Y-93305380D01*
X111656666Y-93353000D01*
X111609047Y-93400619D01*
X110656666Y-94305380D02*
X111228095Y-94305380D01*
X110942380Y-94305380D02*
X110942380Y-93305380D01*
X111037619Y-93448238D01*
X111132857Y-93543476D01*
X111228095Y-93591095D01*
X110037619Y-93305380D02*
X109942380Y-93305380D01*
X109847142Y-93353000D01*
X109799523Y-93400619D01*
X109751904Y-93495857D01*
X109704285Y-93686333D01*
X109704285Y-93924428D01*
X109751904Y-94114904D01*
X109799523Y-94210142D01*
X109847142Y-94257761D01*
X109942380Y-94305380D01*
X110037619Y-94305380D01*
X110132857Y-94257761D01*
X110180476Y-94210142D01*
X110228095Y-94114904D01*
X110275714Y-93924428D01*
X110275714Y-93686333D01*
X110228095Y-93495857D01*
X110180476Y-93400619D01*
X110132857Y-93353000D01*
X110037619Y-93305380D01*
X109323333Y-93400619D02*
X109275714Y-93353000D01*
X109180476Y-93305380D01*
X108942380Y-93305380D01*
X108847142Y-93353000D01*
X108799523Y-93400619D01*
X108751904Y-93495857D01*
X108751904Y-93591095D01*
X108799523Y-93733952D01*
X109370952Y-94305380D01*
X108751904Y-94305380D01*
%TO.C,C103*%
X103448142Y-90434952D02*
X103495761Y-90387333D01*
X103543380Y-90244476D01*
X103543380Y-90149238D01*
X103495761Y-90006380D01*
X103400523Y-89911142D01*
X103305285Y-89863523D01*
X103114809Y-89815904D01*
X102971952Y-89815904D01*
X102781476Y-89863523D01*
X102686238Y-89911142D01*
X102591000Y-90006380D01*
X102543380Y-90149238D01*
X102543380Y-90244476D01*
X102591000Y-90387333D01*
X102638619Y-90434952D01*
X103543380Y-91387333D02*
X103543380Y-90815904D01*
X103543380Y-91101619D02*
X102543380Y-91101619D01*
X102686238Y-91006380D01*
X102781476Y-90911142D01*
X102829095Y-90815904D01*
X102543380Y-92006380D02*
X102543380Y-92101619D01*
X102591000Y-92196857D01*
X102638619Y-92244476D01*
X102733857Y-92292095D01*
X102924333Y-92339714D01*
X103162428Y-92339714D01*
X103352904Y-92292095D01*
X103448142Y-92244476D01*
X103495761Y-92196857D01*
X103543380Y-92101619D01*
X103543380Y-92006380D01*
X103495761Y-91911142D01*
X103448142Y-91863523D01*
X103352904Y-91815904D01*
X103162428Y-91768285D01*
X102924333Y-91768285D01*
X102733857Y-91815904D01*
X102638619Y-91863523D01*
X102591000Y-91911142D01*
X102543380Y-92006380D01*
X102543380Y-92673047D02*
X102543380Y-93292095D01*
X102924333Y-92958761D01*
X102924333Y-93101619D01*
X102971952Y-93196857D01*
X103019571Y-93244476D01*
X103114809Y-93292095D01*
X103352904Y-93292095D01*
X103448142Y-93244476D01*
X103495761Y-93196857D01*
X103543380Y-93101619D01*
X103543380Y-92815904D01*
X103495761Y-92720666D01*
X103448142Y-92673047D01*
%TO.C,C104*%
X113006047Y-89257142D02*
X113053666Y-89304761D01*
X113196523Y-89352380D01*
X113291761Y-89352380D01*
X113434619Y-89304761D01*
X113529857Y-89209523D01*
X113577476Y-89114285D01*
X113625095Y-88923809D01*
X113625095Y-88780952D01*
X113577476Y-88590476D01*
X113529857Y-88495238D01*
X113434619Y-88400000D01*
X113291761Y-88352380D01*
X113196523Y-88352380D01*
X113053666Y-88400000D01*
X113006047Y-88447619D01*
X112053666Y-89352380D02*
X112625095Y-89352380D01*
X112339380Y-89352380D02*
X112339380Y-88352380D01*
X112434619Y-88495238D01*
X112529857Y-88590476D01*
X112625095Y-88638095D01*
X111434619Y-88352380D02*
X111339380Y-88352380D01*
X111244142Y-88400000D01*
X111196523Y-88447619D01*
X111148904Y-88542857D01*
X111101285Y-88733333D01*
X111101285Y-88971428D01*
X111148904Y-89161904D01*
X111196523Y-89257142D01*
X111244142Y-89304761D01*
X111339380Y-89352380D01*
X111434619Y-89352380D01*
X111529857Y-89304761D01*
X111577476Y-89257142D01*
X111625095Y-89161904D01*
X111672714Y-88971428D01*
X111672714Y-88733333D01*
X111625095Y-88542857D01*
X111577476Y-88447619D01*
X111529857Y-88400000D01*
X111434619Y-88352380D01*
X110244142Y-88685714D02*
X110244142Y-89352380D01*
X110482238Y-88304761D02*
X110720333Y-89019047D01*
X110101285Y-89019047D01*
%TO.C,C105*%
X59256142Y-64518452D02*
X59303761Y-64470833D01*
X59351380Y-64327976D01*
X59351380Y-64232738D01*
X59303761Y-64089880D01*
X59208523Y-63994642D01*
X59113285Y-63947023D01*
X58922809Y-63899404D01*
X58779952Y-63899404D01*
X58589476Y-63947023D01*
X58494238Y-63994642D01*
X58399000Y-64089880D01*
X58351380Y-64232738D01*
X58351380Y-64327976D01*
X58399000Y-64470833D01*
X58446619Y-64518452D01*
X59351380Y-65470833D02*
X59351380Y-64899404D01*
X59351380Y-65185119D02*
X58351380Y-65185119D01*
X58494238Y-65089880D01*
X58589476Y-64994642D01*
X58637095Y-64899404D01*
X58351380Y-66089880D02*
X58351380Y-66185119D01*
X58399000Y-66280357D01*
X58446619Y-66327976D01*
X58541857Y-66375595D01*
X58732333Y-66423214D01*
X58970428Y-66423214D01*
X59160904Y-66375595D01*
X59256142Y-66327976D01*
X59303761Y-66280357D01*
X59351380Y-66185119D01*
X59351380Y-66089880D01*
X59303761Y-65994642D01*
X59256142Y-65947023D01*
X59160904Y-65899404D01*
X58970428Y-65851785D01*
X58732333Y-65851785D01*
X58541857Y-65899404D01*
X58446619Y-65947023D01*
X58399000Y-65994642D01*
X58351380Y-66089880D01*
X58351380Y-67327976D02*
X58351380Y-66851785D01*
X58827571Y-66804166D01*
X58779952Y-66851785D01*
X58732333Y-66947023D01*
X58732333Y-67185119D01*
X58779952Y-67280357D01*
X58827571Y-67327976D01*
X58922809Y-67375595D01*
X59160904Y-67375595D01*
X59256142Y-67327976D01*
X59303761Y-67280357D01*
X59351380Y-67185119D01*
X59351380Y-66947023D01*
X59303761Y-66851785D01*
X59256142Y-66804166D01*
%TO.C,D101*%
X116540476Y-84152380D02*
X116540476Y-83152380D01*
X116302380Y-83152380D01*
X116159523Y-83200000D01*
X116064285Y-83295238D01*
X116016666Y-83390476D01*
X115969047Y-83580952D01*
X115969047Y-83723809D01*
X116016666Y-83914285D01*
X116064285Y-84009523D01*
X116159523Y-84104761D01*
X116302380Y-84152380D01*
X116540476Y-84152380D01*
X115016666Y-84152380D02*
X115588095Y-84152380D01*
X115302380Y-84152380D02*
X115302380Y-83152380D01*
X115397619Y-83295238D01*
X115492857Y-83390476D01*
X115588095Y-83438095D01*
X114397619Y-83152380D02*
X114302380Y-83152380D01*
X114207142Y-83200000D01*
X114159523Y-83247619D01*
X114111904Y-83342857D01*
X114064285Y-83533333D01*
X114064285Y-83771428D01*
X114111904Y-83961904D01*
X114159523Y-84057142D01*
X114207142Y-84104761D01*
X114302380Y-84152380D01*
X114397619Y-84152380D01*
X114492857Y-84104761D01*
X114540476Y-84057142D01*
X114588095Y-83961904D01*
X114635714Y-83771428D01*
X114635714Y-83533333D01*
X114588095Y-83342857D01*
X114540476Y-83247619D01*
X114492857Y-83200000D01*
X114397619Y-83152380D01*
X113111904Y-84152380D02*
X113683333Y-84152380D01*
X113397619Y-84152380D02*
X113397619Y-83152380D01*
X113492857Y-83295238D01*
X113588095Y-83390476D01*
X113683333Y-83438095D01*
%TO.C,J101*%
X119848380Y-76565285D02*
X120562666Y-76565285D01*
X120705523Y-76517666D01*
X120800761Y-76422428D01*
X120848380Y-76279571D01*
X120848380Y-76184333D01*
X120848380Y-77565285D02*
X120848380Y-76993857D01*
X120848380Y-77279571D02*
X119848380Y-77279571D01*
X119991238Y-77184333D01*
X120086476Y-77089095D01*
X120134095Y-76993857D01*
X119848380Y-78184333D02*
X119848380Y-78279571D01*
X119896000Y-78374809D01*
X119943619Y-78422428D01*
X120038857Y-78470047D01*
X120229333Y-78517666D01*
X120467428Y-78517666D01*
X120657904Y-78470047D01*
X120753142Y-78422428D01*
X120800761Y-78374809D01*
X120848380Y-78279571D01*
X120848380Y-78184333D01*
X120800761Y-78089095D01*
X120753142Y-78041476D01*
X120657904Y-77993857D01*
X120467428Y-77946238D01*
X120229333Y-77946238D01*
X120038857Y-77993857D01*
X119943619Y-78041476D01*
X119896000Y-78089095D01*
X119848380Y-78184333D01*
X120848380Y-79470047D02*
X120848380Y-78898619D01*
X120848380Y-79184333D02*
X119848380Y-79184333D01*
X119991238Y-79089095D01*
X120086476Y-78993857D01*
X120134095Y-78898619D01*
%TO.C,R101*%
X119894047Y-84366380D02*
X120227380Y-83890190D01*
X120465476Y-84366380D02*
X120465476Y-83366380D01*
X120084523Y-83366380D01*
X119989285Y-83414000D01*
X119941666Y-83461619D01*
X119894047Y-83556857D01*
X119894047Y-83699714D01*
X119941666Y-83794952D01*
X119989285Y-83842571D01*
X120084523Y-83890190D01*
X120465476Y-83890190D01*
X118941666Y-84366380D02*
X119513095Y-84366380D01*
X119227380Y-84366380D02*
X119227380Y-83366380D01*
X119322619Y-83509238D01*
X119417857Y-83604476D01*
X119513095Y-83652095D01*
X118322619Y-83366380D02*
X118227380Y-83366380D01*
X118132142Y-83414000D01*
X118084523Y-83461619D01*
X118036904Y-83556857D01*
X117989285Y-83747333D01*
X117989285Y-83985428D01*
X118036904Y-84175904D01*
X118084523Y-84271142D01*
X118132142Y-84318761D01*
X118227380Y-84366380D01*
X118322619Y-84366380D01*
X118417857Y-84318761D01*
X118465476Y-84271142D01*
X118513095Y-84175904D01*
X118560714Y-83985428D01*
X118560714Y-83747333D01*
X118513095Y-83556857D01*
X118465476Y-83461619D01*
X118417857Y-83414000D01*
X118322619Y-83366380D01*
X117036904Y-84366380D02*
X117608333Y-84366380D01*
X117322619Y-84366380D02*
X117322619Y-83366380D01*
X117417857Y-83509238D01*
X117513095Y-83604476D01*
X117608333Y-83652095D01*
%TO.C,R102*%
X123864047Y-70523380D02*
X124197380Y-70047190D01*
X124435476Y-70523380D02*
X124435476Y-69523380D01*
X124054523Y-69523380D01*
X123959285Y-69571000D01*
X123911666Y-69618619D01*
X123864047Y-69713857D01*
X123864047Y-69856714D01*
X123911666Y-69951952D01*
X123959285Y-69999571D01*
X124054523Y-70047190D01*
X124435476Y-70047190D01*
X122911666Y-70523380D02*
X123483095Y-70523380D01*
X123197380Y-70523380D02*
X123197380Y-69523380D01*
X123292619Y-69666238D01*
X123387857Y-69761476D01*
X123483095Y-69809095D01*
X122292619Y-69523380D02*
X122197380Y-69523380D01*
X122102142Y-69571000D01*
X122054523Y-69618619D01*
X122006904Y-69713857D01*
X121959285Y-69904333D01*
X121959285Y-70142428D01*
X122006904Y-70332904D01*
X122054523Y-70428142D01*
X122102142Y-70475761D01*
X122197380Y-70523380D01*
X122292619Y-70523380D01*
X122387857Y-70475761D01*
X122435476Y-70428142D01*
X122483095Y-70332904D01*
X122530714Y-70142428D01*
X122530714Y-69904333D01*
X122483095Y-69713857D01*
X122435476Y-69618619D01*
X122387857Y-69571000D01*
X122292619Y-69523380D01*
X121578333Y-69618619D02*
X121530714Y-69571000D01*
X121435476Y-69523380D01*
X121197380Y-69523380D01*
X121102142Y-69571000D01*
X121054523Y-69618619D01*
X121006904Y-69713857D01*
X121006904Y-69809095D01*
X121054523Y-69951952D01*
X121625952Y-70523380D01*
X121006904Y-70523380D01*
%TO.C,R103*%
X116055380Y-79969952D02*
X115579190Y-79636619D01*
X116055380Y-79398523D02*
X115055380Y-79398523D01*
X115055380Y-79779476D01*
X115103000Y-79874714D01*
X115150619Y-79922333D01*
X115245857Y-79969952D01*
X115388714Y-79969952D01*
X115483952Y-79922333D01*
X115531571Y-79874714D01*
X115579190Y-79779476D01*
X115579190Y-79398523D01*
X116055380Y-80922333D02*
X116055380Y-80350904D01*
X116055380Y-80636619D02*
X115055380Y-80636619D01*
X115198238Y-80541380D01*
X115293476Y-80446142D01*
X115341095Y-80350904D01*
X115055380Y-81541380D02*
X115055380Y-81636619D01*
X115103000Y-81731857D01*
X115150619Y-81779476D01*
X115245857Y-81827095D01*
X115436333Y-81874714D01*
X115674428Y-81874714D01*
X115864904Y-81827095D01*
X115960142Y-81779476D01*
X116007761Y-81731857D01*
X116055380Y-81636619D01*
X116055380Y-81541380D01*
X116007761Y-81446142D01*
X115960142Y-81398523D01*
X115864904Y-81350904D01*
X115674428Y-81303285D01*
X115436333Y-81303285D01*
X115245857Y-81350904D01*
X115150619Y-81398523D01*
X115103000Y-81446142D01*
X115055380Y-81541380D01*
X115055380Y-82208047D02*
X115055380Y-82827095D01*
X115436333Y-82493761D01*
X115436333Y-82636619D01*
X115483952Y-82731857D01*
X115531571Y-82779476D01*
X115626809Y-82827095D01*
X115864904Y-82827095D01*
X115960142Y-82779476D01*
X116007761Y-82731857D01*
X116055380Y-82636619D01*
X116055380Y-82350904D01*
X116007761Y-82255666D01*
X115960142Y-82208047D01*
%TO.C,R104*%
X106911380Y-64856952D02*
X106435190Y-64523619D01*
X106911380Y-64285523D02*
X105911380Y-64285523D01*
X105911380Y-64666476D01*
X105959000Y-64761714D01*
X106006619Y-64809333D01*
X106101857Y-64856952D01*
X106244714Y-64856952D01*
X106339952Y-64809333D01*
X106387571Y-64761714D01*
X106435190Y-64666476D01*
X106435190Y-64285523D01*
X106911380Y-65809333D02*
X106911380Y-65237904D01*
X106911380Y-65523619D02*
X105911380Y-65523619D01*
X106054238Y-65428380D01*
X106149476Y-65333142D01*
X106197095Y-65237904D01*
X105911380Y-66428380D02*
X105911380Y-66523619D01*
X105959000Y-66618857D01*
X106006619Y-66666476D01*
X106101857Y-66714095D01*
X106292333Y-66761714D01*
X106530428Y-66761714D01*
X106720904Y-66714095D01*
X106816142Y-66666476D01*
X106863761Y-66618857D01*
X106911380Y-66523619D01*
X106911380Y-66428380D01*
X106863761Y-66333142D01*
X106816142Y-66285523D01*
X106720904Y-66237904D01*
X106530428Y-66190285D01*
X106292333Y-66190285D01*
X106101857Y-66237904D01*
X106006619Y-66285523D01*
X105959000Y-66333142D01*
X105911380Y-66428380D01*
X106244714Y-67618857D02*
X106911380Y-67618857D01*
X105863761Y-67380761D02*
X106578047Y-67142666D01*
X106578047Y-67761714D01*
%TO.C,R105*%
X77919047Y-89224380D02*
X78252380Y-88748190D01*
X78490476Y-89224380D02*
X78490476Y-88224380D01*
X78109523Y-88224380D01*
X78014285Y-88272000D01*
X77966666Y-88319619D01*
X77919047Y-88414857D01*
X77919047Y-88557714D01*
X77966666Y-88652952D01*
X78014285Y-88700571D01*
X78109523Y-88748190D01*
X78490476Y-88748190D01*
X76966666Y-89224380D02*
X77538095Y-89224380D01*
X77252380Y-89224380D02*
X77252380Y-88224380D01*
X77347619Y-88367238D01*
X77442857Y-88462476D01*
X77538095Y-88510095D01*
X76347619Y-88224380D02*
X76252380Y-88224380D01*
X76157142Y-88272000D01*
X76109523Y-88319619D01*
X76061904Y-88414857D01*
X76014285Y-88605333D01*
X76014285Y-88843428D01*
X76061904Y-89033904D01*
X76109523Y-89129142D01*
X76157142Y-89176761D01*
X76252380Y-89224380D01*
X76347619Y-89224380D01*
X76442857Y-89176761D01*
X76490476Y-89129142D01*
X76538095Y-89033904D01*
X76585714Y-88843428D01*
X76585714Y-88605333D01*
X76538095Y-88414857D01*
X76490476Y-88319619D01*
X76442857Y-88272000D01*
X76347619Y-88224380D01*
X75109523Y-88224380D02*
X75585714Y-88224380D01*
X75633333Y-88700571D01*
X75585714Y-88652952D01*
X75490476Y-88605333D01*
X75252380Y-88605333D01*
X75157142Y-88652952D01*
X75109523Y-88700571D01*
X75061904Y-88795809D01*
X75061904Y-89033904D01*
X75109523Y-89129142D01*
X75157142Y-89176761D01*
X75252380Y-89224380D01*
X75490476Y-89224380D01*
X75585714Y-89176761D01*
X75633333Y-89129142D01*
%TO.C,R108*%
X56236047Y-64714380D02*
X56569380Y-64238190D01*
X56807476Y-64714380D02*
X56807476Y-63714380D01*
X56426523Y-63714380D01*
X56331285Y-63762000D01*
X56283666Y-63809619D01*
X56236047Y-63904857D01*
X56236047Y-64047714D01*
X56283666Y-64142952D01*
X56331285Y-64190571D01*
X56426523Y-64238190D01*
X56807476Y-64238190D01*
X55283666Y-64714380D02*
X55855095Y-64714380D01*
X55569380Y-64714380D02*
X55569380Y-63714380D01*
X55664619Y-63857238D01*
X55759857Y-63952476D01*
X55855095Y-64000095D01*
X54664619Y-63714380D02*
X54569380Y-63714380D01*
X54474142Y-63762000D01*
X54426523Y-63809619D01*
X54378904Y-63904857D01*
X54331285Y-64095333D01*
X54331285Y-64333428D01*
X54378904Y-64523904D01*
X54426523Y-64619142D01*
X54474142Y-64666761D01*
X54569380Y-64714380D01*
X54664619Y-64714380D01*
X54759857Y-64666761D01*
X54807476Y-64619142D01*
X54855095Y-64523904D01*
X54902714Y-64333428D01*
X54902714Y-64095333D01*
X54855095Y-63904857D01*
X54807476Y-63809619D01*
X54759857Y-63762000D01*
X54664619Y-63714380D01*
X53759857Y-64142952D02*
X53855095Y-64095333D01*
X53902714Y-64047714D01*
X53950333Y-63952476D01*
X53950333Y-63904857D01*
X53902714Y-63809619D01*
X53855095Y-63762000D01*
X53759857Y-63714380D01*
X53569380Y-63714380D01*
X53474142Y-63762000D01*
X53426523Y-63809619D01*
X53378904Y-63904857D01*
X53378904Y-63952476D01*
X53426523Y-64047714D01*
X53474142Y-64095333D01*
X53569380Y-64142952D01*
X53759857Y-64142952D01*
X53855095Y-64190571D01*
X53902714Y-64238190D01*
X53950333Y-64333428D01*
X53950333Y-64523904D01*
X53902714Y-64619142D01*
X53855095Y-64666761D01*
X53759857Y-64714380D01*
X53569380Y-64714380D01*
X53474142Y-64666761D01*
X53426523Y-64619142D01*
X53378904Y-64523904D01*
X53378904Y-64333428D01*
X53426523Y-64238190D01*
X53474142Y-64190571D01*
X53569380Y-64142952D01*
%TO.C,R109*%
X64873047Y-68778380D02*
X65206380Y-68302190D01*
X65444476Y-68778380D02*
X65444476Y-67778380D01*
X65063523Y-67778380D01*
X64968285Y-67826000D01*
X64920666Y-67873619D01*
X64873047Y-67968857D01*
X64873047Y-68111714D01*
X64920666Y-68206952D01*
X64968285Y-68254571D01*
X65063523Y-68302190D01*
X65444476Y-68302190D01*
X63920666Y-68778380D02*
X64492095Y-68778380D01*
X64206380Y-68778380D02*
X64206380Y-67778380D01*
X64301619Y-67921238D01*
X64396857Y-68016476D01*
X64492095Y-68064095D01*
X63301619Y-67778380D02*
X63206380Y-67778380D01*
X63111142Y-67826000D01*
X63063523Y-67873619D01*
X63015904Y-67968857D01*
X62968285Y-68159333D01*
X62968285Y-68397428D01*
X63015904Y-68587904D01*
X63063523Y-68683142D01*
X63111142Y-68730761D01*
X63206380Y-68778380D01*
X63301619Y-68778380D01*
X63396857Y-68730761D01*
X63444476Y-68683142D01*
X63492095Y-68587904D01*
X63539714Y-68397428D01*
X63539714Y-68159333D01*
X63492095Y-67968857D01*
X63444476Y-67873619D01*
X63396857Y-67826000D01*
X63301619Y-67778380D01*
X62492095Y-68778380D02*
X62301619Y-68778380D01*
X62206380Y-68730761D01*
X62158761Y-68683142D01*
X62063523Y-68540285D01*
X62015904Y-68349809D01*
X62015904Y-67968857D01*
X62063523Y-67873619D01*
X62111142Y-67826000D01*
X62206380Y-67778380D01*
X62396857Y-67778380D01*
X62492095Y-67826000D01*
X62539714Y-67873619D01*
X62587333Y-67968857D01*
X62587333Y-68206952D01*
X62539714Y-68302190D01*
X62492095Y-68349809D01*
X62396857Y-68397428D01*
X62206380Y-68397428D01*
X62111142Y-68349809D01*
X62063523Y-68302190D01*
X62015904Y-68206952D01*
%TO.C,R110*%
X58396047Y-94338380D02*
X58729380Y-93862190D01*
X58967476Y-94338380D02*
X58967476Y-93338380D01*
X58586523Y-93338380D01*
X58491285Y-93386000D01*
X58443666Y-93433619D01*
X58396047Y-93528857D01*
X58396047Y-93671714D01*
X58443666Y-93766952D01*
X58491285Y-93814571D01*
X58586523Y-93862190D01*
X58967476Y-93862190D01*
X57443666Y-94338380D02*
X58015095Y-94338380D01*
X57729380Y-94338380D02*
X57729380Y-93338380D01*
X57824619Y-93481238D01*
X57919857Y-93576476D01*
X58015095Y-93624095D01*
X56491285Y-94338380D02*
X57062714Y-94338380D01*
X56777000Y-94338380D02*
X56777000Y-93338380D01*
X56872238Y-93481238D01*
X56967476Y-93576476D01*
X57062714Y-93624095D01*
X55872238Y-93338380D02*
X55777000Y-93338380D01*
X55681761Y-93386000D01*
X55634142Y-93433619D01*
X55586523Y-93528857D01*
X55538904Y-93719333D01*
X55538904Y-93957428D01*
X55586523Y-94147904D01*
X55634142Y-94243142D01*
X55681761Y-94290761D01*
X55777000Y-94338380D01*
X55872238Y-94338380D01*
X55967476Y-94290761D01*
X56015095Y-94243142D01*
X56062714Y-94147904D01*
X56110333Y-93957428D01*
X56110333Y-93719333D01*
X56062714Y-93528857D01*
X56015095Y-93433619D01*
X55967476Y-93386000D01*
X55872238Y-93338380D01*
%TO.C,R111*%
X61887380Y-90384952D02*
X61411190Y-90051619D01*
X61887380Y-89813523D02*
X60887380Y-89813523D01*
X60887380Y-90194476D01*
X60935000Y-90289714D01*
X60982619Y-90337333D01*
X61077857Y-90384952D01*
X61220714Y-90384952D01*
X61315952Y-90337333D01*
X61363571Y-90289714D01*
X61411190Y-90194476D01*
X61411190Y-89813523D01*
X61887380Y-91337333D02*
X61887380Y-90765904D01*
X61887380Y-91051619D02*
X60887380Y-91051619D01*
X61030238Y-90956380D01*
X61125476Y-90861142D01*
X61173095Y-90765904D01*
X61887380Y-92289714D02*
X61887380Y-91718285D01*
X61887380Y-92004000D02*
X60887380Y-92004000D01*
X61030238Y-91908761D01*
X61125476Y-91813523D01*
X61173095Y-91718285D01*
X61887380Y-93242095D02*
X61887380Y-92670666D01*
X61887380Y-92956380D02*
X60887380Y-92956380D01*
X61030238Y-92861142D01*
X61125476Y-92765904D01*
X61173095Y-92670666D01*
%TO.C,R112*%
D10*
X116383333Y-73516666D02*
X116616666Y-73183333D01*
X116783333Y-73516666D02*
X116783333Y-72816666D01*
X116516666Y-72816666D01*
X116450000Y-72850000D01*
X116416666Y-72883333D01*
X116383333Y-72950000D01*
X116383333Y-73050000D01*
X116416666Y-73116666D01*
X116450000Y-73150000D01*
X116516666Y-73183333D01*
X116783333Y-73183333D01*
X115716666Y-73516666D02*
X116116666Y-73516666D01*
X115916666Y-73516666D02*
X115916666Y-72816666D01*
X115983333Y-72916666D01*
X116050000Y-72983333D01*
X116116666Y-73016666D01*
X115050000Y-73516666D02*
X115450000Y-73516666D01*
X115250000Y-73516666D02*
X115250000Y-72816666D01*
X115316666Y-72916666D01*
X115383333Y-72983333D01*
X115450000Y-73016666D01*
X114783333Y-72883333D02*
X114750000Y-72850000D01*
X114683333Y-72816666D01*
X114516666Y-72816666D01*
X114450000Y-72850000D01*
X114416666Y-72883333D01*
X114383333Y-72950000D01*
X114383333Y-73016666D01*
X114416666Y-73116666D01*
X114816666Y-73516666D01*
X114383333Y-73516666D01*
%TO.C,R113*%
X113183333Y-71716666D02*
X113416666Y-71383333D01*
X113583333Y-71716666D02*
X113583333Y-71016666D01*
X113316666Y-71016666D01*
X113250000Y-71050000D01*
X113216666Y-71083333D01*
X113183333Y-71150000D01*
X113183333Y-71250000D01*
X113216666Y-71316666D01*
X113250000Y-71350000D01*
X113316666Y-71383333D01*
X113583333Y-71383333D01*
X112516666Y-71716666D02*
X112916666Y-71716666D01*
X112716666Y-71716666D02*
X112716666Y-71016666D01*
X112783333Y-71116666D01*
X112850000Y-71183333D01*
X112916666Y-71216666D01*
X111850000Y-71716666D02*
X112250000Y-71716666D01*
X112050000Y-71716666D02*
X112050000Y-71016666D01*
X112116666Y-71116666D01*
X112183333Y-71183333D01*
X112250000Y-71216666D01*
X111616666Y-71016666D02*
X111183333Y-71016666D01*
X111416666Y-71283333D01*
X111316666Y-71283333D01*
X111250000Y-71316666D01*
X111216666Y-71350000D01*
X111183333Y-71416666D01*
X111183333Y-71583333D01*
X111216666Y-71650000D01*
X111250000Y-71683333D01*
X111316666Y-71716666D01*
X111516666Y-71716666D01*
X111583333Y-71683333D01*
X111616666Y-71650000D01*
%TO.C,U101*%
D12*
X116649285Y-93432380D02*
X116649285Y-94241904D01*
X116601666Y-94337142D01*
X116554047Y-94384761D01*
X116458809Y-94432380D01*
X116268333Y-94432380D01*
X116173095Y-94384761D01*
X116125476Y-94337142D01*
X116077857Y-94241904D01*
X116077857Y-93432380D01*
X115077857Y-94432380D02*
X115649285Y-94432380D01*
X115363571Y-94432380D02*
X115363571Y-93432380D01*
X115458809Y-93575238D01*
X115554047Y-93670476D01*
X115649285Y-93718095D01*
X114458809Y-93432380D02*
X114363571Y-93432380D01*
X114268333Y-93480000D01*
X114220714Y-93527619D01*
X114173095Y-93622857D01*
X114125476Y-93813333D01*
X114125476Y-94051428D01*
X114173095Y-94241904D01*
X114220714Y-94337142D01*
X114268333Y-94384761D01*
X114363571Y-94432380D01*
X114458809Y-94432380D01*
X114554047Y-94384761D01*
X114601666Y-94337142D01*
X114649285Y-94241904D01*
X114696904Y-94051428D01*
X114696904Y-93813333D01*
X114649285Y-93622857D01*
X114601666Y-93527619D01*
X114554047Y-93480000D01*
X114458809Y-93432380D01*
X113173095Y-94432380D02*
X113744523Y-94432380D01*
X113458809Y-94432380D02*
X113458809Y-93432380D01*
X113554047Y-93575238D01*
X113649285Y-93670476D01*
X113744523Y-93718095D01*
%TO.C,U102*%
X107886285Y-93305380D02*
X107886285Y-94114904D01*
X107838666Y-94210142D01*
X107791047Y-94257761D01*
X107695809Y-94305380D01*
X107505333Y-94305380D01*
X107410095Y-94257761D01*
X107362476Y-94210142D01*
X107314857Y-94114904D01*
X107314857Y-93305380D01*
X106314857Y-94305380D02*
X106886285Y-94305380D01*
X106600571Y-94305380D02*
X106600571Y-93305380D01*
X106695809Y-93448238D01*
X106791047Y-93543476D01*
X106886285Y-93591095D01*
X105695809Y-93305380D02*
X105600571Y-93305380D01*
X105505333Y-93353000D01*
X105457714Y-93400619D01*
X105410095Y-93495857D01*
X105362476Y-93686333D01*
X105362476Y-93924428D01*
X105410095Y-94114904D01*
X105457714Y-94210142D01*
X105505333Y-94257761D01*
X105600571Y-94305380D01*
X105695809Y-94305380D01*
X105791047Y-94257761D01*
X105838666Y-94210142D01*
X105886285Y-94114904D01*
X105933904Y-93924428D01*
X105933904Y-93686333D01*
X105886285Y-93495857D01*
X105838666Y-93400619D01*
X105791047Y-93353000D01*
X105695809Y-93305380D01*
X104981523Y-93400619D02*
X104933904Y-93353000D01*
X104838666Y-93305380D01*
X104600571Y-93305380D01*
X104505333Y-93353000D01*
X104457714Y-93400619D01*
X104410095Y-93495857D01*
X104410095Y-93591095D01*
X104457714Y-93733952D01*
X105029142Y-94305380D01*
X104410095Y-94305380D01*
%TO.C,U103*%
X65727380Y-75635714D02*
X66536904Y-75635714D01*
X66632142Y-75683333D01*
X66679761Y-75730952D01*
X66727380Y-75826190D01*
X66727380Y-76016666D01*
X66679761Y-76111904D01*
X66632142Y-76159523D01*
X66536904Y-76207142D01*
X65727380Y-76207142D01*
X66727380Y-77207142D02*
X66727380Y-76635714D01*
X66727380Y-76921428D02*
X65727380Y-76921428D01*
X65870238Y-76826190D01*
X65965476Y-76730952D01*
X66013095Y-76635714D01*
X65727380Y-77826190D02*
X65727380Y-77921428D01*
X65775000Y-78016666D01*
X65822619Y-78064285D01*
X65917857Y-78111904D01*
X66108333Y-78159523D01*
X66346428Y-78159523D01*
X66536904Y-78111904D01*
X66632142Y-78064285D01*
X66679761Y-78016666D01*
X66727380Y-77921428D01*
X66727380Y-77826190D01*
X66679761Y-77730952D01*
X66632142Y-77683333D01*
X66536904Y-77635714D01*
X66346428Y-77588095D01*
X66108333Y-77588095D01*
X65917857Y-77635714D01*
X65822619Y-77683333D01*
X65775000Y-77730952D01*
X65727380Y-77826190D01*
X65727380Y-78492857D02*
X65727380Y-79111904D01*
X66108333Y-78778571D01*
X66108333Y-78921428D01*
X66155952Y-79016666D01*
X66203571Y-79064285D01*
X66298809Y-79111904D01*
X66536904Y-79111904D01*
X66632142Y-79064285D01*
X66679761Y-79016666D01*
X66727380Y-78921428D01*
X66727380Y-78635714D01*
X66679761Y-78540476D01*
X66632142Y-78492857D01*
X51203571Y-72433333D02*
X51203571Y-72766666D01*
X51727380Y-72909523D02*
X51727380Y-72433333D01*
X50727380Y-72433333D01*
X50727380Y-72909523D01*
X51679761Y-73290476D02*
X51727380Y-73433333D01*
X51727380Y-73671428D01*
X51679761Y-73766666D01*
X51632142Y-73814285D01*
X51536904Y-73861904D01*
X51441666Y-73861904D01*
X51346428Y-73814285D01*
X51298809Y-73766666D01*
X51251190Y-73671428D01*
X51203571Y-73480952D01*
X51155952Y-73385714D01*
X51108333Y-73338095D01*
X51013095Y-73290476D01*
X50917857Y-73290476D01*
X50822619Y-73338095D01*
X50775000Y-73385714D01*
X50727380Y-73480952D01*
X50727380Y-73719047D01*
X50775000Y-73861904D01*
X51727380Y-74290476D02*
X50727380Y-74290476D01*
X50727380Y-74671428D01*
X50775000Y-74766666D01*
X50822619Y-74814285D01*
X50917857Y-74861904D01*
X51060714Y-74861904D01*
X51155952Y-74814285D01*
X51203571Y-74766666D01*
X51251190Y-74671428D01*
X51251190Y-74290476D01*
X50727380Y-75195238D02*
X50727380Y-75814285D01*
X51108333Y-75480952D01*
X51108333Y-75623809D01*
X51155952Y-75719047D01*
X51203571Y-75766666D01*
X51298809Y-75814285D01*
X51536904Y-75814285D01*
X51632142Y-75766666D01*
X51679761Y-75719047D01*
X51727380Y-75623809D01*
X51727380Y-75338095D01*
X51679761Y-75242857D01*
X51632142Y-75195238D01*
X50822619Y-76195238D02*
X50775000Y-76242857D01*
X50727380Y-76338095D01*
X50727380Y-76576190D01*
X50775000Y-76671428D01*
X50822619Y-76719047D01*
X50917857Y-76766666D01*
X51013095Y-76766666D01*
X51155952Y-76719047D01*
X51727380Y-76147619D01*
X51727380Y-76766666D01*
X51679761Y-77147619D02*
X51727380Y-77290476D01*
X51727380Y-77528571D01*
X51679761Y-77623809D01*
X51632142Y-77671428D01*
X51536904Y-77719047D01*
X51441666Y-77719047D01*
X51346428Y-77671428D01*
X51298809Y-77623809D01*
X51251190Y-77528571D01*
X51203571Y-77338095D01*
X51155952Y-77242857D01*
X51108333Y-77195238D01*
X51013095Y-77147619D01*
X50917857Y-77147619D01*
X50822619Y-77195238D01*
X50775000Y-77242857D01*
X50727380Y-77338095D01*
X50727380Y-77576190D01*
X50775000Y-77719047D01*
X50727380Y-78052380D02*
X50727380Y-78671428D01*
X51108333Y-78338095D01*
X51108333Y-78480952D01*
X51155952Y-78576190D01*
X51203571Y-78623809D01*
X51298809Y-78671428D01*
X51536904Y-78671428D01*
X51632142Y-78623809D01*
X51679761Y-78576190D01*
X51727380Y-78480952D01*
X51727380Y-78195238D01*
X51679761Y-78100000D01*
X51632142Y-78052380D01*
X51346428Y-79100000D02*
X51346428Y-79861904D01*
X50727380Y-80242857D02*
X51727380Y-80480952D01*
X51013095Y-80671428D01*
X51727380Y-80861904D01*
X50727380Y-81100000D01*
X51727380Y-81480952D02*
X51060714Y-81480952D01*
X51251190Y-81480952D02*
X51155952Y-81528571D01*
X51108333Y-81576190D01*
X51060714Y-81671428D01*
X51060714Y-81766666D01*
X51727380Y-82242857D02*
X51679761Y-82147619D01*
X51632142Y-82100000D01*
X51536904Y-82052380D01*
X51251190Y-82052380D01*
X51155952Y-82100000D01*
X51108333Y-82147619D01*
X51060714Y-82242857D01*
X51060714Y-82385714D01*
X51108333Y-82480952D01*
X51155952Y-82528571D01*
X51251190Y-82576190D01*
X51536904Y-82576190D01*
X51632142Y-82528571D01*
X51679761Y-82480952D01*
X51727380Y-82385714D01*
X51727380Y-82242857D01*
X51727380Y-83147619D02*
X51679761Y-83052380D01*
X51632142Y-83004761D01*
X51536904Y-82957142D01*
X51251190Y-82957142D01*
X51155952Y-83004761D01*
X51108333Y-83052380D01*
X51060714Y-83147619D01*
X51060714Y-83290476D01*
X51108333Y-83385714D01*
X51155952Y-83433333D01*
X51251190Y-83480952D01*
X51536904Y-83480952D01*
X51632142Y-83433333D01*
X51679761Y-83385714D01*
X51727380Y-83290476D01*
X51727380Y-83147619D01*
X51727380Y-83909523D02*
X51060714Y-83909523D01*
X51155952Y-83909523D02*
X51108333Y-83957142D01*
X51060714Y-84052380D01*
X51060714Y-84195238D01*
X51108333Y-84290476D01*
X51203571Y-84338095D01*
X51727380Y-84338095D01*
X51203571Y-84338095D02*
X51108333Y-84385714D01*
X51060714Y-84480952D01*
X51060714Y-84623809D01*
X51108333Y-84719047D01*
X51203571Y-84766666D01*
X51727380Y-84766666D01*
X49441666Y-73338095D02*
X49441666Y-73814285D01*
X49727380Y-73242857D02*
X48727380Y-73576190D01*
X49727380Y-73909523D01*
X49727380Y-74242857D02*
X48727380Y-74242857D01*
X49727380Y-74814285D01*
X48727380Y-74814285D01*
X48727380Y-75147619D02*
X48727380Y-75719047D01*
X49727380Y-75433333D02*
X48727380Y-75433333D01*
X49203571Y-76052380D02*
X49203571Y-76385714D01*
X49727380Y-76528571D02*
X49727380Y-76052380D01*
X48727380Y-76052380D01*
X48727380Y-76528571D01*
X49727380Y-76957142D02*
X48727380Y-76957142D01*
X49727380Y-77528571D01*
X48727380Y-77528571D01*
X49727380Y-78004761D02*
X48727380Y-78004761D01*
X49727380Y-78576190D01*
X48727380Y-78576190D01*
X49441666Y-79004761D02*
X49441666Y-79480952D01*
X49727380Y-78909523D02*
X48727380Y-79242857D01*
X49727380Y-79576190D01*
X49441666Y-80623809D02*
X49441666Y-81100000D01*
X49727380Y-80528571D02*
X48727380Y-80861904D01*
X49727380Y-81195238D01*
X49727380Y-82100000D02*
X49251190Y-81766666D01*
X49727380Y-81528571D02*
X48727380Y-81528571D01*
X48727380Y-81909523D01*
X48775000Y-82004761D01*
X48822619Y-82052380D01*
X48917857Y-82100000D01*
X49060714Y-82100000D01*
X49155952Y-82052380D01*
X49203571Y-82004761D01*
X49251190Y-81909523D01*
X49251190Y-81528571D01*
X49203571Y-82528571D02*
X49203571Y-82861904D01*
X49727380Y-83004761D02*
X49727380Y-82528571D01*
X48727380Y-82528571D01*
X48727380Y-83004761D01*
X49441666Y-83385714D02*
X49441666Y-83861904D01*
X49727380Y-83290476D02*
X48727380Y-83623809D01*
X49727380Y-83957142D01*
%TO.C,C106*%
D10*
X116183333Y-74650000D02*
X116216666Y-74683333D01*
X116316666Y-74716666D01*
X116383333Y-74716666D01*
X116483333Y-74683333D01*
X116550000Y-74616666D01*
X116583333Y-74550000D01*
X116616666Y-74416666D01*
X116616666Y-74316666D01*
X116583333Y-74183333D01*
X116550000Y-74116666D01*
X116483333Y-74050000D01*
X116383333Y-74016666D01*
X116316666Y-74016666D01*
X116216666Y-74050000D01*
X116183333Y-74083333D01*
X115516666Y-74716666D02*
X115916666Y-74716666D01*
X115716666Y-74716666D02*
X115716666Y-74016666D01*
X115783333Y-74116666D01*
X115850000Y-74183333D01*
X115916666Y-74216666D01*
X115083333Y-74016666D02*
X115016666Y-74016666D01*
X114950000Y-74050000D01*
X114916666Y-74083333D01*
X114883333Y-74150000D01*
X114850000Y-74283333D01*
X114850000Y-74450000D01*
X114883333Y-74583333D01*
X114916666Y-74650000D01*
X114950000Y-74683333D01*
X115016666Y-74716666D01*
X115083333Y-74716666D01*
X115150000Y-74683333D01*
X115183333Y-74650000D01*
X115216666Y-74583333D01*
X115250000Y-74450000D01*
X115250000Y-74283333D01*
X115216666Y-74150000D01*
X115183333Y-74083333D01*
X115150000Y-74050000D01*
X115083333Y-74016666D01*
X114250000Y-74016666D02*
X114383333Y-74016666D01*
X114450000Y-74050000D01*
X114483333Y-74083333D01*
X114550000Y-74183333D01*
X114583333Y-74316666D01*
X114583333Y-74583333D01*
X114550000Y-74650000D01*
X114516666Y-74683333D01*
X114450000Y-74716666D01*
X114316666Y-74716666D01*
X114250000Y-74683333D01*
X114216666Y-74650000D01*
X114183333Y-74583333D01*
X114183333Y-74416666D01*
X114216666Y-74350000D01*
X114250000Y-74316666D01*
X114316666Y-74283333D01*
X114450000Y-74283333D01*
X114516666Y-74316666D01*
X114550000Y-74350000D01*
X114583333Y-74416666D01*
%TO.C,R106*%
X116803333Y-71716666D02*
X117036666Y-71383333D01*
X117203333Y-71716666D02*
X117203333Y-71016666D01*
X116936666Y-71016666D01*
X116870000Y-71050000D01*
X116836666Y-71083333D01*
X116803333Y-71150000D01*
X116803333Y-71250000D01*
X116836666Y-71316666D01*
X116870000Y-71350000D01*
X116936666Y-71383333D01*
X117203333Y-71383333D01*
X116136666Y-71716666D02*
X116536666Y-71716666D01*
X116336666Y-71716666D02*
X116336666Y-71016666D01*
X116403333Y-71116666D01*
X116470000Y-71183333D01*
X116536666Y-71216666D01*
X115703333Y-71016666D02*
X115636666Y-71016666D01*
X115570000Y-71050000D01*
X115536666Y-71083333D01*
X115503333Y-71150000D01*
X115470000Y-71283333D01*
X115470000Y-71450000D01*
X115503333Y-71583333D01*
X115536666Y-71650000D01*
X115570000Y-71683333D01*
X115636666Y-71716666D01*
X115703333Y-71716666D01*
X115770000Y-71683333D01*
X115803333Y-71650000D01*
X115836666Y-71583333D01*
X115870000Y-71450000D01*
X115870000Y-71283333D01*
X115836666Y-71150000D01*
X115803333Y-71083333D01*
X115770000Y-71050000D01*
X115703333Y-71016666D01*
X114870000Y-71016666D02*
X115003333Y-71016666D01*
X115070000Y-71050000D01*
X115103333Y-71083333D01*
X115170000Y-71183333D01*
X115203333Y-71316666D01*
X115203333Y-71583333D01*
X115170000Y-71650000D01*
X115136666Y-71683333D01*
X115070000Y-71716666D01*
X114936666Y-71716666D01*
X114870000Y-71683333D01*
X114836666Y-71650000D01*
X114803333Y-71583333D01*
X114803333Y-71416666D01*
X114836666Y-71350000D01*
X114870000Y-71316666D01*
X114936666Y-71283333D01*
X115070000Y-71283333D01*
X115136666Y-71316666D01*
X115170000Y-71350000D01*
X115203333Y-71416666D01*
%TO.C,R107*%
X119983333Y-71716666D02*
X120216666Y-71383333D01*
X120383333Y-71716666D02*
X120383333Y-71016666D01*
X120116666Y-71016666D01*
X120050000Y-71050000D01*
X120016666Y-71083333D01*
X119983333Y-71150000D01*
X119983333Y-71250000D01*
X120016666Y-71316666D01*
X120050000Y-71350000D01*
X120116666Y-71383333D01*
X120383333Y-71383333D01*
X119316666Y-71716666D02*
X119716666Y-71716666D01*
X119516666Y-71716666D02*
X119516666Y-71016666D01*
X119583333Y-71116666D01*
X119650000Y-71183333D01*
X119716666Y-71216666D01*
X118883333Y-71016666D02*
X118816666Y-71016666D01*
X118750000Y-71050000D01*
X118716666Y-71083333D01*
X118683333Y-71150000D01*
X118650000Y-71283333D01*
X118650000Y-71450000D01*
X118683333Y-71583333D01*
X118716666Y-71650000D01*
X118750000Y-71683333D01*
X118816666Y-71716666D01*
X118883333Y-71716666D01*
X118950000Y-71683333D01*
X118983333Y-71650000D01*
X119016666Y-71583333D01*
X119050000Y-71450000D01*
X119050000Y-71283333D01*
X119016666Y-71150000D01*
X118983333Y-71083333D01*
X118950000Y-71050000D01*
X118883333Y-71016666D01*
X118416666Y-71016666D02*
X117950000Y-71016666D01*
X118250000Y-71716666D01*
%TO.C,J102*%
D12*
X103452380Y-77389285D02*
X104166666Y-77389285D01*
X104309523Y-77341666D01*
X104404761Y-77246428D01*
X104452380Y-77103571D01*
X104452380Y-77008333D01*
X104452380Y-78389285D02*
X104452380Y-77817857D01*
X104452380Y-78103571D02*
X103452380Y-78103571D01*
X103595238Y-78008333D01*
X103690476Y-77913095D01*
X103738095Y-77817857D01*
X103452380Y-79008333D02*
X103452380Y-79103571D01*
X103500000Y-79198809D01*
X103547619Y-79246428D01*
X103642857Y-79294047D01*
X103833333Y-79341666D01*
X104071428Y-79341666D01*
X104261904Y-79294047D01*
X104357142Y-79246428D01*
X104404761Y-79198809D01*
X104452380Y-79103571D01*
X104452380Y-79008333D01*
X104404761Y-78913095D01*
X104357142Y-78865476D01*
X104261904Y-78817857D01*
X104071428Y-78770238D01*
X103833333Y-78770238D01*
X103642857Y-78817857D01*
X103547619Y-78865476D01*
X103500000Y-78913095D01*
X103452380Y-79008333D01*
X103547619Y-79722619D02*
X103500000Y-79770238D01*
X103452380Y-79865476D01*
X103452380Y-80103571D01*
X103500000Y-80198809D01*
X103547619Y-80246428D01*
X103642857Y-80294047D01*
X103738095Y-80294047D01*
X103880952Y-80246428D01*
X104452380Y-79675000D01*
X104452380Y-80294047D01*
%TD*%
M02*
