%TF.GenerationSoftware,KiCad,Pcbnew,(5.1.12)-1*%
%TF.CreationDate,2022-11-12T21:15:41+01:00*%
%TF.ProjectId,NewmorphS3,4e65776d-6f72-4706-9853-332e6b696361,rev?*%
%TF.SameCoordinates,Original*%
%TF.FileFunction,Copper,L2,Bot*%
%TF.FilePolarity,Positive*%
%FSLAX46Y46*%
G04 Gerber Fmt 4.6, Leading zero omitted, Abs format (unit mm)*
G04 Created by KiCad (PCBNEW (5.1.12)-1) date 2022-11-12 21:15:41*
%MOMM*%
%LPD*%
G01*
G04 APERTURE LIST*
%TA.AperFunction,SMDPad,CuDef*%
%ADD10R,0.800000X0.900000*%
%TD*%
%TA.AperFunction,ComponentPad*%
%ADD11O,1.600000X1.000000*%
%TD*%
%TA.AperFunction,ComponentPad*%
%ADD12O,2.100000X0.900000*%
%TD*%
%TA.AperFunction,SMDPad,CuDef*%
%ADD13R,1.750000X0.300000*%
%TD*%
%TA.AperFunction,SMDPad,CuDef*%
%ADD14R,1.050000X0.650000*%
%TD*%
%TA.AperFunction,SMDPad,CuDef*%
%ADD15R,0.700000X1.500000*%
%TD*%
%TA.AperFunction,SMDPad,CuDef*%
%ADD16R,1.000000X0.800000*%
%TD*%
%TA.AperFunction,SMDPad,CuDef*%
%ADD17R,1.060000X0.650000*%
%TD*%
%TA.AperFunction,ComponentPad*%
%ADD18C,0.400000*%
%TD*%
%TA.AperFunction,ComponentPad*%
%ADD19R,1.700000X1.700000*%
%TD*%
%TA.AperFunction,ComponentPad*%
%ADD20O,1.700000X1.700000*%
%TD*%
%TA.AperFunction,ComponentPad*%
%ADD21C,0.700000*%
%TD*%
%TA.AperFunction,ComponentPad*%
%ADD22C,4.400000*%
%TD*%
%TA.AperFunction,ViaPad*%
%ADD23C,0.800000*%
%TD*%
%TA.AperFunction,Conductor*%
%ADD24C,0.250000*%
%TD*%
%TA.AperFunction,Conductor*%
%ADD25C,0.254000*%
%TD*%
%TA.AperFunction,Conductor*%
%ADD26C,0.100000*%
%TD*%
G04 APERTURE END LIST*
%TO.P,C101,1*%
%TO.N,/VUSB*%
%TA.AperFunction,SMDPad,CuDef*%
G36*
G01*
X117860000Y-90215000D02*
X118360000Y-90215000D01*
G75*
G02*
X118585000Y-90440000I0J-225000D01*
G01*
X118585000Y-90890000D01*
G75*
G02*
X118360000Y-91115000I-225000J0D01*
G01*
X117860000Y-91115000D01*
G75*
G02*
X117635000Y-90890000I0J225000D01*
G01*
X117635000Y-90440000D01*
G75*
G02*
X117860000Y-90215000I225000J0D01*
G01*
G37*
%TD.AperFunction*%
%TO.P,C101,2*%
%TO.N,GND*%
%TA.AperFunction,SMDPad,CuDef*%
G36*
G01*
X117860000Y-91765000D02*
X118360000Y-91765000D01*
G75*
G02*
X118585000Y-91990000I0J-225000D01*
G01*
X118585000Y-92440000D01*
G75*
G02*
X118360000Y-92665000I-225000J0D01*
G01*
X117860000Y-92665000D01*
G75*
G02*
X117635000Y-92440000I0J225000D01*
G01*
X117635000Y-91990000D01*
G75*
G02*
X117860000Y-91765000I225000J0D01*
G01*
G37*
%TD.AperFunction*%
%TD*%
%TO.P,C102,1*%
%TO.N,GND*%
%TA.AperFunction,SMDPad,CuDef*%
G36*
G01*
X110486000Y-92551000D02*
X109986000Y-92551000D01*
G75*
G02*
X109761000Y-92326000I0J225000D01*
G01*
X109761000Y-91876000D01*
G75*
G02*
X109986000Y-91651000I225000J0D01*
G01*
X110486000Y-91651000D01*
G75*
G02*
X110711000Y-91876000I0J-225000D01*
G01*
X110711000Y-92326000D01*
G75*
G02*
X110486000Y-92551000I-225000J0D01*
G01*
G37*
%TD.AperFunction*%
%TO.P,C102,2*%
%TO.N,Net-(C102-Pad2)*%
%TA.AperFunction,SMDPad,CuDef*%
G36*
G01*
X110486000Y-91001000D02*
X109986000Y-91001000D01*
G75*
G02*
X109761000Y-90776000I0J225000D01*
G01*
X109761000Y-90326000D01*
G75*
G02*
X109986000Y-90101000I225000J0D01*
G01*
X110486000Y-90101000D01*
G75*
G02*
X110711000Y-90326000I0J-225000D01*
G01*
X110711000Y-90776000D01*
G75*
G02*
X110486000Y-91001000I-225000J0D01*
G01*
G37*
%TD.AperFunction*%
%TD*%
%TO.P,C103,2*%
%TO.N,Net-(C103-Pad2)*%
%TA.AperFunction,SMDPad,CuDef*%
G36*
G01*
X104271000Y-91879000D02*
X104771000Y-91879000D01*
G75*
G02*
X104996000Y-92104000I0J-225000D01*
G01*
X104996000Y-92554000D01*
G75*
G02*
X104771000Y-92779000I-225000J0D01*
G01*
X104271000Y-92779000D01*
G75*
G02*
X104046000Y-92554000I0J225000D01*
G01*
X104046000Y-92104000D01*
G75*
G02*
X104271000Y-91879000I225000J0D01*
G01*
G37*
%TD.AperFunction*%
%TO.P,C103,1*%
%TO.N,GND*%
%TA.AperFunction,SMDPad,CuDef*%
G36*
G01*
X104271000Y-90329000D02*
X104771000Y-90329000D01*
G75*
G02*
X104996000Y-90554000I0J-225000D01*
G01*
X104996000Y-91004000D01*
G75*
G02*
X104771000Y-91229000I-225000J0D01*
G01*
X104271000Y-91229000D01*
G75*
G02*
X104046000Y-91004000I0J225000D01*
G01*
X104046000Y-90554000D01*
G75*
G02*
X104271000Y-90329000I225000J0D01*
G01*
G37*
%TD.AperFunction*%
%TD*%
%TO.P,C104,2*%
%TO.N,GND*%
%TA.AperFunction,SMDPad,CuDef*%
G36*
G01*
X111637000Y-91625000D02*
X112137000Y-91625000D01*
G75*
G02*
X112362000Y-91850000I0J-225000D01*
G01*
X112362000Y-92300000D01*
G75*
G02*
X112137000Y-92525000I-225000J0D01*
G01*
X111637000Y-92525000D01*
G75*
G02*
X111412000Y-92300000I0J225000D01*
G01*
X111412000Y-91850000D01*
G75*
G02*
X111637000Y-91625000I225000J0D01*
G01*
G37*
%TD.AperFunction*%
%TO.P,C104,1*%
%TO.N,/VBAT*%
%TA.AperFunction,SMDPad,CuDef*%
G36*
G01*
X111637000Y-90075000D02*
X112137000Y-90075000D01*
G75*
G02*
X112362000Y-90300000I0J-225000D01*
G01*
X112362000Y-90750000D01*
G75*
G02*
X112137000Y-90975000I-225000J0D01*
G01*
X111637000Y-90975000D01*
G75*
G02*
X111412000Y-90750000I0J225000D01*
G01*
X111412000Y-90300000D01*
G75*
G02*
X111637000Y-90075000I225000J0D01*
G01*
G37*
%TD.AperFunction*%
%TD*%
%TO.P,C105,1*%
%TO.N,GND*%
%TA.AperFunction,SMDPad,CuDef*%
G36*
G01*
X60104000Y-64012500D02*
X61054000Y-64012500D01*
G75*
G02*
X61304000Y-64262500I0J-250000D01*
G01*
X61304000Y-64937500D01*
G75*
G02*
X61054000Y-65187500I-250000J0D01*
G01*
X60104000Y-65187500D01*
G75*
G02*
X59854000Y-64937500I0J250000D01*
G01*
X59854000Y-64262500D01*
G75*
G02*
X60104000Y-64012500I250000J0D01*
G01*
G37*
%TD.AperFunction*%
%TO.P,C105,2*%
%TO.N,/EN*%
%TA.AperFunction,SMDPad,CuDef*%
G36*
G01*
X60104000Y-66087500D02*
X61054000Y-66087500D01*
G75*
G02*
X61304000Y-66337500I0J-250000D01*
G01*
X61304000Y-67012500D01*
G75*
G02*
X61054000Y-67262500I-250000J0D01*
G01*
X60104000Y-67262500D01*
G75*
G02*
X59854000Y-67012500I0J250000D01*
G01*
X59854000Y-66337500D01*
G75*
G02*
X60104000Y-66087500I250000J0D01*
G01*
G37*
%TD.AperFunction*%
%TD*%
D10*
%TO.P,D101,1*%
%TO.N,/VUSB*%
X115850000Y-86950000D03*
%TO.P,D101,2*%
%TO.N,/VBAT*%
X113950000Y-86950000D03*
%TO.P,D101,3*%
%TO.N,Net-(C102-Pad2)*%
X114900000Y-84950000D03*
%TD*%
D11*
%TO.P,J101,S1*%
%TO.N,GND*%
X123155000Y-73785000D03*
X123155000Y-82425000D03*
D12*
X118975000Y-73785000D03*
X118975000Y-82425000D03*
D13*
%TO.P,J101,A7*%
%TO.N,Net-(J101-PadA7)*%
X118135000Y-78355000D03*
%TO.P,J101,B6*%
%TO.N,Net-(J101-PadA6)*%
X118135000Y-78855000D03*
%TO.P,J101,A8*%
%TO.N,N/C*%
X118135000Y-79355000D03*
%TO.P,J101,B5*%
%TO.N,Net-(J101-PadB5)*%
X118135000Y-79855000D03*
%TO.P,J101,B7*%
%TO.N,Net-(J101-PadA7)*%
X118135000Y-77355000D03*
%TO.P,J101,B8*%
%TO.N,N/C*%
X118135000Y-76355000D03*
%TO.P,J101,A5*%
%TO.N,Net-(J101-PadA5)*%
X118135000Y-76855000D03*
%TO.P,J101,A6*%
%TO.N,Net-(J101-PadA6)*%
X118135000Y-77855000D03*
%TO.P,J101,A1*%
%TO.N,GND*%
X118135000Y-74755000D03*
%TO.P,J101,B12*%
X118135000Y-75055000D03*
%TO.P,J101,A4*%
%TO.N,/VUSB*%
X118135000Y-75555000D03*
%TO.P,J101,B9*%
X118135000Y-75855000D03*
%TO.P,J101,A9*%
X118135000Y-80655000D03*
%TO.P,J101,B4*%
X118135000Y-80355000D03*
%TO.P,J101,B1*%
%TO.N,GND*%
X118135000Y-81155000D03*
%TO.P,J101,A12*%
X118135000Y-81455000D03*
%TD*%
%TO.P,R101,2*%
%TO.N,Net-(R101-Pad2)*%
%TA.AperFunction,SMDPad,CuDef*%
G36*
G01*
X118350000Y-85069000D02*
X118350000Y-85619000D01*
G75*
G02*
X118150000Y-85819000I-200000J0D01*
G01*
X117750000Y-85819000D01*
G75*
G02*
X117550000Y-85619000I0J200000D01*
G01*
X117550000Y-85069000D01*
G75*
G02*
X117750000Y-84869000I200000J0D01*
G01*
X118150000Y-84869000D01*
G75*
G02*
X118350000Y-85069000I0J-200000D01*
G01*
G37*
%TD.AperFunction*%
%TO.P,R101,1*%
%TO.N,GND*%
%TA.AperFunction,SMDPad,CuDef*%
G36*
G01*
X120000000Y-85069000D02*
X120000000Y-85619000D01*
G75*
G02*
X119800000Y-85819000I-200000J0D01*
G01*
X119400000Y-85819000D01*
G75*
G02*
X119200000Y-85619000I0J200000D01*
G01*
X119200000Y-85069000D01*
G75*
G02*
X119400000Y-84869000I200000J0D01*
G01*
X119800000Y-84869000D01*
G75*
G02*
X120000000Y-85069000I0J-200000D01*
G01*
G37*
%TD.AperFunction*%
%TD*%
%TO.P,R102,1*%
%TO.N,GND*%
%TA.AperFunction,SMDPad,CuDef*%
G36*
G01*
X123970000Y-71226000D02*
X123970000Y-71776000D01*
G75*
G02*
X123770000Y-71976000I-200000J0D01*
G01*
X123370000Y-71976000D01*
G75*
G02*
X123170000Y-71776000I0J200000D01*
G01*
X123170000Y-71226000D01*
G75*
G02*
X123370000Y-71026000I200000J0D01*
G01*
X123770000Y-71026000D01*
G75*
G02*
X123970000Y-71226000I0J-200000D01*
G01*
G37*
%TD.AperFunction*%
%TO.P,R102,2*%
%TO.N,Net-(J101-PadA5)*%
%TA.AperFunction,SMDPad,CuDef*%
G36*
G01*
X122320000Y-71226000D02*
X122320000Y-71776000D01*
G75*
G02*
X122120000Y-71976000I-200000J0D01*
G01*
X121720000Y-71976000D01*
G75*
G02*
X121520000Y-71776000I0J200000D01*
G01*
X121520000Y-71226000D01*
G75*
G02*
X121720000Y-71026000I200000J0D01*
G01*
X122120000Y-71026000D01*
G75*
G02*
X122320000Y-71226000I0J-200000D01*
G01*
G37*
%TD.AperFunction*%
%TD*%
%TO.P,R103,2*%
%TO.N,Net-(J101-PadB5)*%
%TA.AperFunction,SMDPad,CuDef*%
G36*
G01*
X114448000Y-80664000D02*
X113898000Y-80664000D01*
G75*
G02*
X113698000Y-80464000I0J200000D01*
G01*
X113698000Y-80064000D01*
G75*
G02*
X113898000Y-79864000I200000J0D01*
G01*
X114448000Y-79864000D01*
G75*
G02*
X114648000Y-80064000I0J-200000D01*
G01*
X114648000Y-80464000D01*
G75*
G02*
X114448000Y-80664000I-200000J0D01*
G01*
G37*
%TD.AperFunction*%
%TO.P,R103,1*%
%TO.N,GND*%
%TA.AperFunction,SMDPad,CuDef*%
G36*
G01*
X114448000Y-82314000D02*
X113898000Y-82314000D01*
G75*
G02*
X113698000Y-82114000I0J200000D01*
G01*
X113698000Y-81714000D01*
G75*
G02*
X113898000Y-81514000I200000J0D01*
G01*
X114448000Y-81514000D01*
G75*
G02*
X114648000Y-81714000I0J-200000D01*
G01*
X114648000Y-82114000D01*
G75*
G02*
X114448000Y-82314000I-200000J0D01*
G01*
G37*
%TD.AperFunction*%
%TD*%
%TO.P,R104,1*%
%TO.N,/VUSB*%
%TA.AperFunction,SMDPad,CuDef*%
G36*
G01*
X105304000Y-67201000D02*
X104754000Y-67201000D01*
G75*
G02*
X104554000Y-67001000I0J200000D01*
G01*
X104554000Y-66601000D01*
G75*
G02*
X104754000Y-66401000I200000J0D01*
G01*
X105304000Y-66401000D01*
G75*
G02*
X105504000Y-66601000I0J-200000D01*
G01*
X105504000Y-67001000D01*
G75*
G02*
X105304000Y-67201000I-200000J0D01*
G01*
G37*
%TD.AperFunction*%
%TO.P,R104,2*%
%TO.N,Net-(D102-Pad2)*%
%TA.AperFunction,SMDPad,CuDef*%
G36*
G01*
X105304000Y-65551000D02*
X104754000Y-65551000D01*
G75*
G02*
X104554000Y-65351000I0J200000D01*
G01*
X104554000Y-64951000D01*
G75*
G02*
X104754000Y-64751000I200000J0D01*
G01*
X105304000Y-64751000D01*
G75*
G02*
X105504000Y-64951000I0J-200000D01*
G01*
X105504000Y-65351000D01*
G75*
G02*
X105304000Y-65551000I-200000J0D01*
G01*
G37*
%TD.AperFunction*%
%TD*%
%TO.P,R105,1*%
%TO.N,+3V3*%
%TA.AperFunction,SMDPad,CuDef*%
G36*
G01*
X75200000Y-87572001D02*
X75200000Y-86671999D01*
G75*
G02*
X75449999Y-86422000I249999J0D01*
G01*
X76150001Y-86422000D01*
G75*
G02*
X76400000Y-86671999I0J-249999D01*
G01*
X76400000Y-87572001D01*
G75*
G02*
X76150001Y-87822000I-249999J0D01*
G01*
X75449999Y-87822000D01*
G75*
G02*
X75200000Y-87572001I0J249999D01*
G01*
G37*
%TD.AperFunction*%
%TO.P,R105,2*%
%TO.N,/EN*%
%TA.AperFunction,SMDPad,CuDef*%
G36*
G01*
X77200000Y-87572001D02*
X77200000Y-86671999D01*
G75*
G02*
X77449999Y-86422000I249999J0D01*
G01*
X78150001Y-86422000D01*
G75*
G02*
X78400000Y-86671999I0J-249999D01*
G01*
X78400000Y-87572001D01*
G75*
G02*
X78150001Y-87822000I-249999J0D01*
G01*
X77449999Y-87822000D01*
G75*
G02*
X77200000Y-87572001I0J249999D01*
G01*
G37*
%TD.AperFunction*%
%TD*%
%TO.P,R108,1*%
%TO.N,GND*%
%TA.AperFunction,SMDPad,CuDef*%
G36*
G01*
X55353000Y-65807000D02*
X55353000Y-65257000D01*
G75*
G02*
X55553000Y-65057000I200000J0D01*
G01*
X55953000Y-65057000D01*
G75*
G02*
X56153000Y-65257000I0J-200000D01*
G01*
X56153000Y-65807000D01*
G75*
G02*
X55953000Y-66007000I-200000J0D01*
G01*
X55553000Y-66007000D01*
G75*
G02*
X55353000Y-65807000I0J200000D01*
G01*
G37*
%TD.AperFunction*%
%TO.P,R108,2*%
%TO.N,Net-(R108-Pad2)*%
%TA.AperFunction,SMDPad,CuDef*%
G36*
G01*
X57003000Y-65807000D02*
X57003000Y-65257000D01*
G75*
G02*
X57203000Y-65057000I200000J0D01*
G01*
X57603000Y-65057000D01*
G75*
G02*
X57803000Y-65257000I0J-200000D01*
G01*
X57803000Y-65807000D01*
G75*
G02*
X57603000Y-66007000I-200000J0D01*
G01*
X57203000Y-66007000D01*
G75*
G02*
X57003000Y-65807000I0J200000D01*
G01*
G37*
%TD.AperFunction*%
%TD*%
%TO.P,R109,2*%
%TO.N,Net-(R108-Pad2)*%
%TA.AperFunction,SMDPad,CuDef*%
G36*
G01*
X63394000Y-65551000D02*
X62844000Y-65551000D01*
G75*
G02*
X62644000Y-65351000I0J200000D01*
G01*
X62644000Y-64951000D01*
G75*
G02*
X62844000Y-64751000I200000J0D01*
G01*
X63394000Y-64751000D01*
G75*
G02*
X63594000Y-64951000I0J-200000D01*
G01*
X63594000Y-65351000D01*
G75*
G02*
X63394000Y-65551000I-200000J0D01*
G01*
G37*
%TD.AperFunction*%
%TO.P,R109,1*%
%TO.N,/BUTT1*%
%TA.AperFunction,SMDPad,CuDef*%
G36*
G01*
X63394000Y-67201000D02*
X62844000Y-67201000D01*
G75*
G02*
X62644000Y-67001000I0J200000D01*
G01*
X62644000Y-66601000D01*
G75*
G02*
X62844000Y-66401000I200000J0D01*
G01*
X63394000Y-66401000D01*
G75*
G02*
X63594000Y-66601000I0J-200000D01*
G01*
X63594000Y-67001000D01*
G75*
G02*
X63394000Y-67201000I-200000J0D01*
G01*
G37*
%TD.AperFunction*%
%TD*%
%TO.P,R110,2*%
%TO.N,Net-(R110-Pad2)*%
%TA.AperFunction,SMDPad,CuDef*%
G36*
G01*
X57702000Y-92731000D02*
X57702000Y-92181000D01*
G75*
G02*
X57902000Y-91981000I200000J0D01*
G01*
X58302000Y-91981000D01*
G75*
G02*
X58502000Y-92181000I0J-200000D01*
G01*
X58502000Y-92731000D01*
G75*
G02*
X58302000Y-92931000I-200000J0D01*
G01*
X57902000Y-92931000D01*
G75*
G02*
X57702000Y-92731000I0J200000D01*
G01*
G37*
%TD.AperFunction*%
%TO.P,R110,1*%
%TO.N,GND*%
%TA.AperFunction,SMDPad,CuDef*%
G36*
G01*
X56052000Y-92731000D02*
X56052000Y-92181000D01*
G75*
G02*
X56252000Y-91981000I200000J0D01*
G01*
X56652000Y-91981000D01*
G75*
G02*
X56852000Y-92181000I0J-200000D01*
G01*
X56852000Y-92731000D01*
G75*
G02*
X56652000Y-92931000I-200000J0D01*
G01*
X56252000Y-92931000D01*
G75*
G02*
X56052000Y-92731000I0J200000D01*
G01*
G37*
%TD.AperFunction*%
%TD*%
%TO.P,R111,2*%
%TO.N,Net-(R110-Pad2)*%
%TA.AperFunction,SMDPad,CuDef*%
G36*
G01*
X62590000Y-91929000D02*
X63140000Y-91929000D01*
G75*
G02*
X63340000Y-92129000I0J-200000D01*
G01*
X63340000Y-92529000D01*
G75*
G02*
X63140000Y-92729000I-200000J0D01*
G01*
X62590000Y-92729000D01*
G75*
G02*
X62390000Y-92529000I0J200000D01*
G01*
X62390000Y-92129000D01*
G75*
G02*
X62590000Y-91929000I200000J0D01*
G01*
G37*
%TD.AperFunction*%
%TO.P,R111,1*%
%TO.N,/BUTT2*%
%TA.AperFunction,SMDPad,CuDef*%
G36*
G01*
X62590000Y-90279000D02*
X63140000Y-90279000D01*
G75*
G02*
X63340000Y-90479000I0J-200000D01*
G01*
X63340000Y-90879000D01*
G75*
G02*
X63140000Y-91079000I-200000J0D01*
G01*
X62590000Y-91079000D01*
G75*
G02*
X62390000Y-90879000I0J200000D01*
G01*
X62390000Y-90479000D01*
G75*
G02*
X62590000Y-90279000I200000J0D01*
G01*
G37*
%TD.AperFunction*%
%TD*%
%TO.P,R112,1*%
%TO.N,/D-*%
%TA.AperFunction,SMDPad,CuDef*%
G36*
G01*
X111400000Y-73075000D02*
X111400000Y-72525000D01*
G75*
G02*
X111600000Y-72325000I200000J0D01*
G01*
X112000000Y-72325000D01*
G75*
G02*
X112200000Y-72525000I0J-200000D01*
G01*
X112200000Y-73075000D01*
G75*
G02*
X112000000Y-73275000I-200000J0D01*
G01*
X111600000Y-73275000D01*
G75*
G02*
X111400000Y-73075000I0J200000D01*
G01*
G37*
%TD.AperFunction*%
%TO.P,R112,2*%
%TO.N,Net-(J101-PadA7)*%
%TA.AperFunction,SMDPad,CuDef*%
G36*
G01*
X113050000Y-73075000D02*
X113050000Y-72525000D01*
G75*
G02*
X113250000Y-72325000I200000J0D01*
G01*
X113650000Y-72325000D01*
G75*
G02*
X113850000Y-72525000I0J-200000D01*
G01*
X113850000Y-73075000D01*
G75*
G02*
X113650000Y-73275000I-200000J0D01*
G01*
X113250000Y-73275000D01*
G75*
G02*
X113050000Y-73075000I0J200000D01*
G01*
G37*
%TD.AperFunction*%
%TD*%
%TO.P,R113,1*%
%TO.N,/D+*%
%TA.AperFunction,SMDPad,CuDef*%
G36*
G01*
X111329000Y-70376000D02*
X111329000Y-69826000D01*
G75*
G02*
X111529000Y-69626000I200000J0D01*
G01*
X111929000Y-69626000D01*
G75*
G02*
X112129000Y-69826000I0J-200000D01*
G01*
X112129000Y-70376000D01*
G75*
G02*
X111929000Y-70576000I-200000J0D01*
G01*
X111529000Y-70576000D01*
G75*
G02*
X111329000Y-70376000I0J200000D01*
G01*
G37*
%TD.AperFunction*%
%TO.P,R113,2*%
%TO.N,Net-(J101-PadA6)*%
%TA.AperFunction,SMDPad,CuDef*%
G36*
G01*
X112979000Y-70376000D02*
X112979000Y-69826000D01*
G75*
G02*
X113179000Y-69626000I200000J0D01*
G01*
X113579000Y-69626000D01*
G75*
G02*
X113779000Y-69826000I0J-200000D01*
G01*
X113779000Y-70376000D01*
G75*
G02*
X113579000Y-70576000I-200000J0D01*
G01*
X113179000Y-70576000D01*
G75*
G02*
X112979000Y-70376000I0J200000D01*
G01*
G37*
%TD.AperFunction*%
%TD*%
D14*
%TO.P,SW101,2*%
%TO.N,GND*%
X83975000Y-86790000D03*
X80510000Y-86790000D03*
%TO.P,SW101,1*%
%TO.N,/EN*%
X83975000Y-88890000D03*
X80510000Y-88890000D03*
%TD*%
%TO.P,SW102,1*%
%TO.N,/IO0*%
X87200000Y-88890000D03*
X90665000Y-88890000D03*
%TO.P,SW102,2*%
%TO.N,GND*%
X87200000Y-86790000D03*
X90665000Y-86790000D03*
%TD*%
D15*
%TO.P,SW105,1*%
%TO.N,Net-(C103-Pad2)*%
X111288000Y-67216000D03*
%TO.P,SW105,2*%
%TO.N,+3V3*%
X114288000Y-67216000D03*
%TO.P,SW105,3*%
%TO.N,N/C*%
X115788000Y-67216000D03*
D16*
%TO.P,SW105,*%
%TO.N,*%
X109888000Y-64356000D03*
X117188000Y-64356000D03*
X117188000Y-66566000D03*
X109888000Y-66566000D03*
%TD*%
D17*
%TO.P,U101,1*%
%TO.N,Net-(D102-Pad1)*%
X113835000Y-92390000D03*
%TO.P,U101,2*%
%TO.N,GND*%
X113835000Y-91440000D03*
%TO.P,U101,3*%
%TO.N,/VBAT*%
X113835000Y-90490000D03*
%TO.P,U101,4*%
%TO.N,/VUSB*%
X116035000Y-90490000D03*
%TO.P,U101,5*%
%TO.N,Net-(R101-Pad2)*%
X116035000Y-92390000D03*
%TD*%
%TO.P,U102,5*%
%TO.N,Net-(C103-Pad2)*%
X108415000Y-92390000D03*
%TO.P,U102,4*%
%TO.N,N/C*%
X108415000Y-90490000D03*
%TO.P,U102,3*%
%TO.N,Net-(C102-Pad2)*%
X106215000Y-90490000D03*
%TO.P,U102,2*%
%TO.N,GND*%
X106215000Y-91440000D03*
%TO.P,U102,1*%
%TO.N,Net-(C102-Pad2)*%
X106215000Y-92390000D03*
%TD*%
%TO.P,U103,41*%
%TO.N,GND*%
%TA.AperFunction,SMDPad,CuDef*%
G36*
G01*
X64643100Y-76360000D02*
X63716900Y-76360000D01*
G75*
G02*
X63630000Y-76273100I0J86900D01*
G01*
X63630000Y-75346900D01*
G75*
G02*
X63716900Y-75260000I86900J0D01*
G01*
X64643100Y-75260000D01*
G75*
G02*
X64730000Y-75346900I0J-86900D01*
G01*
X64730000Y-76273100D01*
G75*
G02*
X64643100Y-76360000I-86900J0D01*
G01*
G37*
%TD.AperFunction*%
%TA.AperFunction,SMDPad,CuDef*%
G36*
G01*
X63143100Y-79360000D02*
X62216900Y-79360000D01*
G75*
G02*
X62130000Y-79273100I0J86900D01*
G01*
X62130000Y-78346900D01*
G75*
G02*
X62216900Y-78260000I86900J0D01*
G01*
X63143100Y-78260000D01*
G75*
G02*
X63230000Y-78346900I0J-86900D01*
G01*
X63230000Y-79273100D01*
G75*
G02*
X63143100Y-79360000I-86900J0D01*
G01*
G37*
%TD.AperFunction*%
%TA.AperFunction,SMDPad,CuDef*%
G36*
G01*
X63143100Y-77860000D02*
X62216900Y-77860000D01*
G75*
G02*
X62130000Y-77773100I0J86900D01*
G01*
X62130000Y-76846900D01*
G75*
G02*
X62216900Y-76760000I86900J0D01*
G01*
X63143100Y-76760000D01*
G75*
G02*
X63230000Y-76846900I0J-86900D01*
G01*
X63230000Y-77773100D01*
G75*
G02*
X63143100Y-77860000I-86900J0D01*
G01*
G37*
%TD.AperFunction*%
D18*
%TO.P,U103,*%
%TO.N,*%
X62599000Y-78086000D03*
X64123000Y-76562000D03*
%TO.P,U103,41*%
%TO.N,GND*%
%TA.AperFunction,SMDPad,CuDef*%
G36*
G01*
X64643100Y-79360000D02*
X63716900Y-79360000D01*
G75*
G02*
X63630000Y-79273100I0J86900D01*
G01*
X63630000Y-78346900D01*
G75*
G02*
X63716900Y-78260000I86900J0D01*
G01*
X64643100Y-78260000D01*
G75*
G02*
X64730000Y-78346900I0J-86900D01*
G01*
X64730000Y-79273100D01*
G75*
G02*
X64643100Y-79360000I-86900J0D01*
G01*
G37*
%TD.AperFunction*%
%TA.AperFunction,SMDPad,CuDef*%
G36*
G01*
X61643100Y-79360000D02*
X60716900Y-79360000D01*
G75*
G02*
X60630000Y-79273100I0J86900D01*
G01*
X60630000Y-78346900D01*
G75*
G02*
X60716900Y-78260000I86900J0D01*
G01*
X61643100Y-78260000D01*
G75*
G02*
X61730000Y-78346900I0J-86900D01*
G01*
X61730000Y-79273100D01*
G75*
G02*
X61643100Y-79360000I-86900J0D01*
G01*
G37*
%TD.AperFunction*%
%TA.AperFunction,SMDPad,CuDef*%
G36*
G01*
X61643100Y-77860000D02*
X60716900Y-77860000D01*
G75*
G02*
X60630000Y-77773100I0J86900D01*
G01*
X60630000Y-76846900D01*
G75*
G02*
X60716900Y-76760000I86900J0D01*
G01*
X61643100Y-76760000D01*
G75*
G02*
X61730000Y-76846900I0J-86900D01*
G01*
X61730000Y-77773100D01*
G75*
G02*
X61643100Y-77860000I-86900J0D01*
G01*
G37*
%TD.AperFunction*%
%TO.P,U103,*%
%TO.N,*%
X63411800Y-77273200D03*
X64123000Y-78035200D03*
X61125800Y-76562000D03*
X62649800Y-76562000D03*
%TO.P,U103,41*%
%TO.N,GND*%
%TA.AperFunction,SMDPad,CuDef*%
G36*
G01*
X63143100Y-76360000D02*
X62216900Y-76360000D01*
G75*
G02*
X62130000Y-76273100I0J86900D01*
G01*
X62130000Y-75346900D01*
G75*
G02*
X62216900Y-75260000I86900J0D01*
G01*
X63143100Y-75260000D01*
G75*
G02*
X63230000Y-75346900I0J-86900D01*
G01*
X63230000Y-76273100D01*
G75*
G02*
X63143100Y-76360000I-86900J0D01*
G01*
G37*
%TD.AperFunction*%
%TA.AperFunction,SMDPad,CuDef*%
G36*
G01*
X61643100Y-76360000D02*
X60716900Y-76360000D01*
G75*
G02*
X60630000Y-76273100I0J86900D01*
G01*
X60630000Y-75346900D01*
G75*
G02*
X60716900Y-75260000I86900J0D01*
G01*
X61643100Y-75260000D01*
G75*
G02*
X61730000Y-75346900I0J-86900D01*
G01*
X61730000Y-76273100D01*
G75*
G02*
X61643100Y-76360000I-86900J0D01*
G01*
G37*
%TD.AperFunction*%
%TO.P,U103,*%
%TO.N,*%
X63411800Y-75800000D03*
X61125800Y-78086000D03*
X61938600Y-75800000D03*
X61938600Y-77324000D03*
X61938600Y-78797200D03*
X63411800Y-78797200D03*
%TO.P,U103,41*%
%TO.N,GND*%
%TA.AperFunction,SMDPad,CuDef*%
G36*
G01*
X64643100Y-77860000D02*
X63716900Y-77860000D01*
G75*
G02*
X63630000Y-77773100I0J86900D01*
G01*
X63630000Y-76846900D01*
G75*
G02*
X63716900Y-76760000I86900J0D01*
G01*
X64643100Y-76760000D01*
G75*
G02*
X64730000Y-76846900I0J-86900D01*
G01*
X64730000Y-77773100D01*
G75*
G02*
X64643100Y-77860000I-86900J0D01*
G01*
G37*
%TD.AperFunction*%
%TO.P,U103,1*%
%TA.AperFunction,SMDPad,CuDef*%
G36*
G01*
X54646100Y-69350000D02*
X55403900Y-69350000D01*
G75*
G02*
X55475000Y-69421100I0J-71100D01*
G01*
X55475000Y-70778900D01*
G75*
G02*
X55403900Y-70850000I-71100J0D01*
G01*
X54646100Y-70850000D01*
G75*
G02*
X54575000Y-70778900I0J71100D01*
G01*
X54575000Y-69421100D01*
G75*
G02*
X54646100Y-69350000I71100J0D01*
G01*
G37*
%TD.AperFunction*%
%TO.P,U103,2*%
%TO.N,+3V3*%
%TA.AperFunction,SMDPad,CuDef*%
G36*
G01*
X55916100Y-69350000D02*
X56673900Y-69350000D01*
G75*
G02*
X56745000Y-69421100I0J-71100D01*
G01*
X56745000Y-70778900D01*
G75*
G02*
X56673900Y-70850000I-71100J0D01*
G01*
X55916100Y-70850000D01*
G75*
G02*
X55845000Y-70778900I0J71100D01*
G01*
X55845000Y-69421100D01*
G75*
G02*
X55916100Y-69350000I71100J0D01*
G01*
G37*
%TD.AperFunction*%
%TO.P,U103,3*%
%TO.N,/EN*%
%TA.AperFunction,SMDPad,CuDef*%
G36*
G01*
X57186100Y-69350000D02*
X57943900Y-69350000D01*
G75*
G02*
X58015000Y-69421100I0J-71100D01*
G01*
X58015000Y-70778900D01*
G75*
G02*
X57943900Y-70850000I-71100J0D01*
G01*
X57186100Y-70850000D01*
G75*
G02*
X57115000Y-70778900I0J71100D01*
G01*
X57115000Y-69421100D01*
G75*
G02*
X57186100Y-69350000I71100J0D01*
G01*
G37*
%TD.AperFunction*%
%TO.P,U103,4*%
%TO.N,ChkBat*%
%TA.AperFunction,SMDPad,CuDef*%
G36*
G01*
X58456100Y-69350000D02*
X59213900Y-69350000D01*
G75*
G02*
X59285000Y-69421100I0J-71100D01*
G01*
X59285000Y-70778900D01*
G75*
G02*
X59213900Y-70850000I-71100J0D01*
G01*
X58456100Y-70850000D01*
G75*
G02*
X58385000Y-70778900I0J71100D01*
G01*
X58385000Y-69421100D01*
G75*
G02*
X58456100Y-69350000I71100J0D01*
G01*
G37*
%TD.AperFunction*%
%TO.P,U103,5*%
%TO.N,/LEDA*%
%TA.AperFunction,SMDPad,CuDef*%
G36*
G01*
X59726100Y-69350000D02*
X60483900Y-69350000D01*
G75*
G02*
X60555000Y-69421100I0J-71100D01*
G01*
X60555000Y-70778900D01*
G75*
G02*
X60483900Y-70850000I-71100J0D01*
G01*
X59726100Y-70850000D01*
G75*
G02*
X59655000Y-70778900I0J71100D01*
G01*
X59655000Y-69421100D01*
G75*
G02*
X59726100Y-69350000I71100J0D01*
G01*
G37*
%TD.AperFunction*%
%TO.P,U103,6*%
%TO.N,/BUTT1*%
%TA.AperFunction,SMDPad,CuDef*%
G36*
G01*
X60996100Y-69350000D02*
X61753900Y-69350000D01*
G75*
G02*
X61825000Y-69421100I0J-71100D01*
G01*
X61825000Y-70778900D01*
G75*
G02*
X61753900Y-70850000I-71100J0D01*
G01*
X60996100Y-70850000D01*
G75*
G02*
X60925000Y-70778900I0J71100D01*
G01*
X60925000Y-69421100D01*
G75*
G02*
X60996100Y-69350000I71100J0D01*
G01*
G37*
%TD.AperFunction*%
%TO.P,U103,7*%
%TO.N,/BUTT2*%
%TA.AperFunction,SMDPad,CuDef*%
G36*
G01*
X62266100Y-69350000D02*
X63023900Y-69350000D01*
G75*
G02*
X63095000Y-69421100I0J-71100D01*
G01*
X63095000Y-70778900D01*
G75*
G02*
X63023900Y-70850000I-71100J0D01*
G01*
X62266100Y-70850000D01*
G75*
G02*
X62195000Y-70778900I0J71100D01*
G01*
X62195000Y-69421100D01*
G75*
G02*
X62266100Y-69350000I71100J0D01*
G01*
G37*
%TD.AperFunction*%
%TO.P,U103,8*%
%TO.N,/IO15*%
%TA.AperFunction,SMDPad,CuDef*%
G36*
G01*
X63536100Y-69350000D02*
X64293900Y-69350000D01*
G75*
G02*
X64365000Y-69421100I0J-71100D01*
G01*
X64365000Y-70778900D01*
G75*
G02*
X64293900Y-70850000I-71100J0D01*
G01*
X63536100Y-70850000D01*
G75*
G02*
X63465000Y-70778900I0J71100D01*
G01*
X63465000Y-69421100D01*
G75*
G02*
X63536100Y-69350000I71100J0D01*
G01*
G37*
%TD.AperFunction*%
%TO.P,U103,9*%
%TO.N,/IO16*%
%TA.AperFunction,SMDPad,CuDef*%
G36*
G01*
X64806100Y-69350000D02*
X65563900Y-69350000D01*
G75*
G02*
X65635000Y-69421100I0J-71100D01*
G01*
X65635000Y-70778900D01*
G75*
G02*
X65563900Y-70850000I-71100J0D01*
G01*
X64806100Y-70850000D01*
G75*
G02*
X64735000Y-70778900I0J71100D01*
G01*
X64735000Y-69421100D01*
G75*
G02*
X64806100Y-69350000I71100J0D01*
G01*
G37*
%TD.AperFunction*%
%TO.P,U103,10*%
%TO.N,/IO17*%
%TA.AperFunction,SMDPad,CuDef*%
G36*
G01*
X66076100Y-69350000D02*
X66833900Y-69350000D01*
G75*
G02*
X66905000Y-69421100I0J-71100D01*
G01*
X66905000Y-70778900D01*
G75*
G02*
X66833900Y-70850000I-71100J0D01*
G01*
X66076100Y-70850000D01*
G75*
G02*
X66005000Y-70778900I0J71100D01*
G01*
X66005000Y-69421100D01*
G75*
G02*
X66076100Y-69350000I71100J0D01*
G01*
G37*
%TD.AperFunction*%
%TO.P,U103,11*%
%TO.N,/IO18*%
%TA.AperFunction,SMDPad,CuDef*%
G36*
G01*
X67346100Y-69350000D02*
X68103900Y-69350000D01*
G75*
G02*
X68175000Y-69421100I0J-71100D01*
G01*
X68175000Y-70778900D01*
G75*
G02*
X68103900Y-70850000I-71100J0D01*
G01*
X67346100Y-70850000D01*
G75*
G02*
X67275000Y-70778900I0J71100D01*
G01*
X67275000Y-69421100D01*
G75*
G02*
X67346100Y-69350000I71100J0D01*
G01*
G37*
%TD.AperFunction*%
%TO.P,U103,12*%
%TO.N,/IO8*%
%TA.AperFunction,SMDPad,CuDef*%
G36*
G01*
X68616100Y-69350000D02*
X69373900Y-69350000D01*
G75*
G02*
X69445000Y-69421100I0J-71100D01*
G01*
X69445000Y-70778900D01*
G75*
G02*
X69373900Y-70850000I-71100J0D01*
G01*
X68616100Y-70850000D01*
G75*
G02*
X68545000Y-70778900I0J71100D01*
G01*
X68545000Y-69421100D01*
G75*
G02*
X68616100Y-69350000I71100J0D01*
G01*
G37*
%TD.AperFunction*%
%TO.P,U103,13*%
%TO.N,/D-*%
%TA.AperFunction,SMDPad,CuDef*%
G36*
G01*
X69886100Y-69350000D02*
X70643900Y-69350000D01*
G75*
G02*
X70715000Y-69421100I0J-71100D01*
G01*
X70715000Y-70778900D01*
G75*
G02*
X70643900Y-70850000I-71100J0D01*
G01*
X69886100Y-70850000D01*
G75*
G02*
X69815000Y-70778900I0J71100D01*
G01*
X69815000Y-69421100D01*
G75*
G02*
X69886100Y-69350000I71100J0D01*
G01*
G37*
%TD.AperFunction*%
%TO.P,U103,14*%
%TO.N,/D+*%
%TA.AperFunction,SMDPad,CuDef*%
G36*
G01*
X71156100Y-69350000D02*
X71913900Y-69350000D01*
G75*
G02*
X71985000Y-69421100I0J-71100D01*
G01*
X71985000Y-70778900D01*
G75*
G02*
X71913900Y-70850000I-71100J0D01*
G01*
X71156100Y-70850000D01*
G75*
G02*
X71085000Y-70778900I0J71100D01*
G01*
X71085000Y-69421100D01*
G75*
G02*
X71156100Y-69350000I71100J0D01*
G01*
G37*
%TD.AperFunction*%
%TO.P,U103,40*%
%TO.N,GND*%
%TA.AperFunction,SMDPad,CuDef*%
G36*
G01*
X54646100Y-86850000D02*
X55403900Y-86850000D01*
G75*
G02*
X55475000Y-86921100I0J-71100D01*
G01*
X55475000Y-88278900D01*
G75*
G02*
X55403900Y-88350000I-71100J0D01*
G01*
X54646100Y-88350000D01*
G75*
G02*
X54575000Y-88278900I0J71100D01*
G01*
X54575000Y-86921100D01*
G75*
G02*
X54646100Y-86850000I71100J0D01*
G01*
G37*
%TD.AperFunction*%
%TO.P,U103,39*%
%TO.N,/JoyX*%
%TA.AperFunction,SMDPad,CuDef*%
G36*
G01*
X55916100Y-86850000D02*
X56673900Y-86850000D01*
G75*
G02*
X56745000Y-86921100I0J-71100D01*
G01*
X56745000Y-88278900D01*
G75*
G02*
X56673900Y-88350000I-71100J0D01*
G01*
X55916100Y-88350000D01*
G75*
G02*
X55845000Y-88278900I0J71100D01*
G01*
X55845000Y-86921100D01*
G75*
G02*
X55916100Y-86850000I71100J0D01*
G01*
G37*
%TD.AperFunction*%
%TO.P,U103,38*%
%TO.N,/JoyY*%
%TA.AperFunction,SMDPad,CuDef*%
G36*
G01*
X57186100Y-86850000D02*
X57943900Y-86850000D01*
G75*
G02*
X58015000Y-86921100I0J-71100D01*
G01*
X58015000Y-88278900D01*
G75*
G02*
X57943900Y-88350000I-71100J0D01*
G01*
X57186100Y-88350000D01*
G75*
G02*
X57115000Y-88278900I0J71100D01*
G01*
X57115000Y-86921100D01*
G75*
G02*
X57186100Y-86850000I71100J0D01*
G01*
G37*
%TD.AperFunction*%
%TO.P,U103,37*%
%TO.N,/TXD*%
%TA.AperFunction,SMDPad,CuDef*%
G36*
G01*
X58456100Y-86850000D02*
X59213900Y-86850000D01*
G75*
G02*
X59285000Y-86921100I0J-71100D01*
G01*
X59285000Y-88278900D01*
G75*
G02*
X59213900Y-88350000I-71100J0D01*
G01*
X58456100Y-88350000D01*
G75*
G02*
X58385000Y-88278900I0J71100D01*
G01*
X58385000Y-86921100D01*
G75*
G02*
X58456100Y-86850000I71100J0D01*
G01*
G37*
%TD.AperFunction*%
%TO.P,U103,29*%
%TO.N,/SCK*%
%TA.AperFunction,SMDPad,CuDef*%
G36*
G01*
X68616100Y-86850000D02*
X69373900Y-86850000D01*
G75*
G02*
X69445000Y-86921100I0J-71100D01*
G01*
X69445000Y-88278900D01*
G75*
G02*
X69373900Y-88350000I-71100J0D01*
G01*
X68616100Y-88350000D01*
G75*
G02*
X68545000Y-88278900I0J71100D01*
G01*
X68545000Y-86921100D01*
G75*
G02*
X68616100Y-86850000I71100J0D01*
G01*
G37*
%TD.AperFunction*%
%TO.P,U103,35*%
%TO.N,/IO42*%
%TA.AperFunction,SMDPad,CuDef*%
G36*
G01*
X60996100Y-86850000D02*
X61753900Y-86850000D01*
G75*
G02*
X61825000Y-86921100I0J-71100D01*
G01*
X61825000Y-88278900D01*
G75*
G02*
X61753900Y-88350000I-71100J0D01*
G01*
X60996100Y-88350000D01*
G75*
G02*
X60925000Y-88278900I0J71100D01*
G01*
X60925000Y-86921100D01*
G75*
G02*
X60996100Y-86850000I71100J0D01*
G01*
G37*
%TD.AperFunction*%
%TO.P,U103,30*%
%TO.N,/MISO*%
%TA.AperFunction,SMDPad,CuDef*%
G36*
G01*
X67346100Y-86850000D02*
X68103900Y-86850000D01*
G75*
G02*
X68175000Y-86921100I0J-71100D01*
G01*
X68175000Y-88278900D01*
G75*
G02*
X68103900Y-88350000I-71100J0D01*
G01*
X67346100Y-88350000D01*
G75*
G02*
X67275000Y-88278900I0J71100D01*
G01*
X67275000Y-86921100D01*
G75*
G02*
X67346100Y-86850000I71100J0D01*
G01*
G37*
%TD.AperFunction*%
%TO.P,U103,27*%
%TO.N,/IO0*%
%TA.AperFunction,SMDPad,CuDef*%
G36*
G01*
X71156100Y-86850000D02*
X71913900Y-86850000D01*
G75*
G02*
X71985000Y-86921100I0J-71100D01*
G01*
X71985000Y-88278900D01*
G75*
G02*
X71913900Y-88350000I-71100J0D01*
G01*
X71156100Y-88350000D01*
G75*
G02*
X71085000Y-88278900I0J71100D01*
G01*
X71085000Y-86921100D01*
G75*
G02*
X71156100Y-86850000I71100J0D01*
G01*
G37*
%TD.AperFunction*%
%TO.P,U103,28*%
%TO.N,/MOSI*%
%TA.AperFunction,SMDPad,CuDef*%
G36*
G01*
X69886100Y-86850000D02*
X70643900Y-86850000D01*
G75*
G02*
X70715000Y-86921100I0J-71100D01*
G01*
X70715000Y-88278900D01*
G75*
G02*
X70643900Y-88350000I-71100J0D01*
G01*
X69886100Y-88350000D01*
G75*
G02*
X69815000Y-88278900I0J71100D01*
G01*
X69815000Y-86921100D01*
G75*
G02*
X69886100Y-86850000I71100J0D01*
G01*
G37*
%TD.AperFunction*%
%TO.P,U103,34*%
%TO.N,/DisplRST*%
%TA.AperFunction,SMDPad,CuDef*%
G36*
G01*
X62266100Y-86850000D02*
X63023900Y-86850000D01*
G75*
G02*
X63095000Y-86921100I0J-71100D01*
G01*
X63095000Y-88278900D01*
G75*
G02*
X63023900Y-88350000I-71100J0D01*
G01*
X62266100Y-88350000D01*
G75*
G02*
X62195000Y-88278900I0J71100D01*
G01*
X62195000Y-86921100D01*
G75*
G02*
X62266100Y-86850000I71100J0D01*
G01*
G37*
%TD.AperFunction*%
%TO.P,U103,36*%
%TO.N,/RXD*%
%TA.AperFunction,SMDPad,CuDef*%
G36*
G01*
X59726100Y-86850000D02*
X60483900Y-86850000D01*
G75*
G02*
X60555000Y-86921100I0J-71100D01*
G01*
X60555000Y-88278900D01*
G75*
G02*
X60483900Y-88350000I-71100J0D01*
G01*
X59726100Y-88350000D01*
G75*
G02*
X59655000Y-88278900I0J71100D01*
G01*
X59655000Y-86921100D01*
G75*
G02*
X59726100Y-86850000I71100J0D01*
G01*
G37*
%TD.AperFunction*%
%TO.P,U103,31*%
%TO.N,/IO38*%
%TA.AperFunction,SMDPad,CuDef*%
G36*
G01*
X66076100Y-86850000D02*
X66833900Y-86850000D01*
G75*
G02*
X66905000Y-86921100I0J-71100D01*
G01*
X66905000Y-88278900D01*
G75*
G02*
X66833900Y-88350000I-71100J0D01*
G01*
X66076100Y-88350000D01*
G75*
G02*
X66005000Y-88278900I0J71100D01*
G01*
X66005000Y-86921100D01*
G75*
G02*
X66076100Y-86850000I71100J0D01*
G01*
G37*
%TD.AperFunction*%
%TO.P,U103,32*%
%TO.N,/Display_CS*%
%TA.AperFunction,SMDPad,CuDef*%
G36*
G01*
X64806100Y-86850000D02*
X65563900Y-86850000D01*
G75*
G02*
X65635000Y-86921100I0J-71100D01*
G01*
X65635000Y-88278900D01*
G75*
G02*
X65563900Y-88350000I-71100J0D01*
G01*
X64806100Y-88350000D01*
G75*
G02*
X64735000Y-88278900I0J71100D01*
G01*
X64735000Y-86921100D01*
G75*
G02*
X64806100Y-86850000I71100J0D01*
G01*
G37*
%TD.AperFunction*%
%TO.P,U103,33*%
%TO.N,/DisplayDC*%
%TA.AperFunction,SMDPad,CuDef*%
G36*
G01*
X63536100Y-86850000D02*
X64293900Y-86850000D01*
G75*
G02*
X64365000Y-86921100I0J-71100D01*
G01*
X64365000Y-88278900D01*
G75*
G02*
X64293900Y-88350000I-71100J0D01*
G01*
X63536100Y-88350000D01*
G75*
G02*
X63465000Y-88278900I0J71100D01*
G01*
X63465000Y-86921100D01*
G75*
G02*
X63536100Y-86850000I71100J0D01*
G01*
G37*
%TD.AperFunction*%
%TO.P,U103,15*%
%TO.N,/IO3*%
%TA.AperFunction,SMDPad,CuDef*%
G36*
G01*
X73525000Y-71621100D02*
X73525000Y-72378900D01*
G75*
G02*
X73453900Y-72450000I-71100J0D01*
G01*
X72096100Y-72450000D01*
G75*
G02*
X72025000Y-72378900I0J71100D01*
G01*
X72025000Y-71621100D01*
G75*
G02*
X72096100Y-71550000I71100J0D01*
G01*
X73453900Y-71550000D01*
G75*
G02*
X73525000Y-71621100I0J-71100D01*
G01*
G37*
%TD.AperFunction*%
%TO.P,U103,16*%
%TO.N,/IO46*%
%TA.AperFunction,SMDPad,CuDef*%
G36*
G01*
X73525000Y-72891100D02*
X73525000Y-73648900D01*
G75*
G02*
X73453900Y-73720000I-71100J0D01*
G01*
X72096100Y-73720000D01*
G75*
G02*
X72025000Y-73648900I0J71100D01*
G01*
X72025000Y-72891100D01*
G75*
G02*
X72096100Y-72820000I71100J0D01*
G01*
X73453900Y-72820000D01*
G75*
G02*
X73525000Y-72891100I0J-71100D01*
G01*
G37*
%TD.AperFunction*%
%TO.P,U103,17*%
%TO.N,/IO9*%
%TA.AperFunction,SMDPad,CuDef*%
G36*
G01*
X73525000Y-74161100D02*
X73525000Y-74918900D01*
G75*
G02*
X73453900Y-74990000I-71100J0D01*
G01*
X72096100Y-74990000D01*
G75*
G02*
X72025000Y-74918900I0J71100D01*
G01*
X72025000Y-74161100D01*
G75*
G02*
X72096100Y-74090000I71100J0D01*
G01*
X73453900Y-74090000D01*
G75*
G02*
X73525000Y-74161100I0J-71100D01*
G01*
G37*
%TD.AperFunction*%
%TO.P,U103,18*%
%TO.N,/IO10*%
%TA.AperFunction,SMDPad,CuDef*%
G36*
G01*
X73525000Y-75431100D02*
X73525000Y-76188900D01*
G75*
G02*
X73453900Y-76260000I-71100J0D01*
G01*
X72096100Y-76260000D01*
G75*
G02*
X72025000Y-76188900I0J71100D01*
G01*
X72025000Y-75431100D01*
G75*
G02*
X72096100Y-75360000I71100J0D01*
G01*
X73453900Y-75360000D01*
G75*
G02*
X73525000Y-75431100I0J-71100D01*
G01*
G37*
%TD.AperFunction*%
%TO.P,U103,19*%
%TO.N,/IO11*%
%TA.AperFunction,SMDPad,CuDef*%
G36*
G01*
X73525000Y-76701100D02*
X73525000Y-77458900D01*
G75*
G02*
X73453900Y-77530000I-71100J0D01*
G01*
X72096100Y-77530000D01*
G75*
G02*
X72025000Y-77458900I0J71100D01*
G01*
X72025000Y-76701100D01*
G75*
G02*
X72096100Y-76630000I71100J0D01*
G01*
X73453900Y-76630000D01*
G75*
G02*
X73525000Y-76701100I0J-71100D01*
G01*
G37*
%TD.AperFunction*%
%TO.P,U103,20*%
%TO.N,/IO12*%
%TA.AperFunction,SMDPad,CuDef*%
G36*
G01*
X73525000Y-77971100D02*
X73525000Y-78728900D01*
G75*
G02*
X73453900Y-78800000I-71100J0D01*
G01*
X72096100Y-78800000D01*
G75*
G02*
X72025000Y-78728900I0J71100D01*
G01*
X72025000Y-77971100D01*
G75*
G02*
X72096100Y-77900000I71100J0D01*
G01*
X73453900Y-77900000D01*
G75*
G02*
X73525000Y-77971100I0J-71100D01*
G01*
G37*
%TD.AperFunction*%
%TO.P,U103,21*%
%TO.N,/IO13*%
%TA.AperFunction,SMDPad,CuDef*%
G36*
G01*
X73525000Y-79241100D02*
X73525000Y-79998900D01*
G75*
G02*
X73453900Y-80070000I-71100J0D01*
G01*
X72096100Y-80070000D01*
G75*
G02*
X72025000Y-79998900I0J71100D01*
G01*
X72025000Y-79241100D01*
G75*
G02*
X72096100Y-79170000I71100J0D01*
G01*
X73453900Y-79170000D01*
G75*
G02*
X73525000Y-79241100I0J-71100D01*
G01*
G37*
%TD.AperFunction*%
%TO.P,U103,22*%
%TO.N,/IO14*%
%TA.AperFunction,SMDPad,CuDef*%
G36*
G01*
X73525000Y-80511100D02*
X73525000Y-81268900D01*
G75*
G02*
X73453900Y-81340000I-71100J0D01*
G01*
X72096100Y-81340000D01*
G75*
G02*
X72025000Y-81268900I0J71100D01*
G01*
X72025000Y-80511100D01*
G75*
G02*
X72096100Y-80440000I71100J0D01*
G01*
X73453900Y-80440000D01*
G75*
G02*
X73525000Y-80511100I0J-71100D01*
G01*
G37*
%TD.AperFunction*%
%TO.P,U103,23*%
%TO.N,/IO21*%
%TA.AperFunction,SMDPad,CuDef*%
G36*
G01*
X73525000Y-81781100D02*
X73525000Y-82538900D01*
G75*
G02*
X73453900Y-82610000I-71100J0D01*
G01*
X72096100Y-82610000D01*
G75*
G02*
X72025000Y-82538900I0J71100D01*
G01*
X72025000Y-81781100D01*
G75*
G02*
X72096100Y-81710000I71100J0D01*
G01*
X73453900Y-81710000D01*
G75*
G02*
X73525000Y-81781100I0J-71100D01*
G01*
G37*
%TD.AperFunction*%
%TO.P,U103,24*%
%TO.N,N/C*%
%TA.AperFunction,SMDPad,CuDef*%
G36*
G01*
X73525000Y-83051100D02*
X73525000Y-83808900D01*
G75*
G02*
X73453900Y-83880000I-71100J0D01*
G01*
X72096100Y-83880000D01*
G75*
G02*
X72025000Y-83808900I0J71100D01*
G01*
X72025000Y-83051100D01*
G75*
G02*
X72096100Y-82980000I71100J0D01*
G01*
X73453900Y-82980000D01*
G75*
G02*
X73525000Y-83051100I0J-71100D01*
G01*
G37*
%TD.AperFunction*%
%TO.P,U103,25*%
%TO.N,/IO48*%
%TA.AperFunction,SMDPad,CuDef*%
G36*
G01*
X73525000Y-84321100D02*
X73525000Y-85078900D01*
G75*
G02*
X73453900Y-85150000I-71100J0D01*
G01*
X72096100Y-85150000D01*
G75*
G02*
X72025000Y-85078900I0J71100D01*
G01*
X72025000Y-84321100D01*
G75*
G02*
X72096100Y-84250000I71100J0D01*
G01*
X73453900Y-84250000D01*
G75*
G02*
X73525000Y-84321100I0J-71100D01*
G01*
G37*
%TD.AperFunction*%
%TO.P,U103,26*%
%TO.N,/IO45*%
%TA.AperFunction,SMDPad,CuDef*%
G36*
G01*
X73525000Y-85591100D02*
X73525000Y-86348900D01*
G75*
G02*
X73453900Y-86420000I-71100J0D01*
G01*
X72096100Y-86420000D01*
G75*
G02*
X72025000Y-86348900I0J71100D01*
G01*
X72025000Y-85591100D01*
G75*
G02*
X72096100Y-85520000I71100J0D01*
G01*
X73453900Y-85520000D01*
G75*
G02*
X73525000Y-85591100I0J-71100D01*
G01*
G37*
%TD.AperFunction*%
%TD*%
D19*
%TO.P,J103,1*%
%TO.N,/MISO*%
X66040000Y-66040000D03*
D20*
%TO.P,J103,2*%
%TO.N,/MOSI*%
X68580000Y-66040000D03*
%TO.P,J103,3*%
%TO.N,/SCK*%
X71120000Y-66040000D03*
%TO.P,J103,4*%
%TO.N,/IO15*%
X73660000Y-66040000D03*
%TO.P,J103,5*%
%TO.N,/IO16*%
X76200000Y-66040000D03*
%TO.P,J103,6*%
%TO.N,/IO17*%
X78740000Y-66040000D03*
%TO.P,J103,7*%
%TO.N,/IO18*%
X81280000Y-66040000D03*
%TO.P,J103,8*%
%TO.N,/IO8*%
X83820000Y-66040000D03*
%TO.P,J103,9*%
%TO.N,/IO9*%
X86360000Y-66040000D03*
%TO.P,J103,10*%
%TO.N,/IO10*%
X88900000Y-66040000D03*
%TO.P,J103,11*%
%TO.N,/IO11*%
X91440000Y-66040000D03*
%TO.P,J103,12*%
%TO.N,/IO12*%
X93980000Y-66040000D03*
%TO.P,J103,13*%
%TO.N,/IO13*%
X96520000Y-66040000D03*
%TO.P,J103,14*%
%TO.N,GND*%
X99060000Y-66040000D03*
%TO.P,J103,15*%
%TO.N,+3V3*%
X101600000Y-66040000D03*
%TD*%
%TO.P,J104,15*%
%TO.N,/VBAT*%
X101600000Y-91440000D03*
%TO.P,J104,14*%
%TO.N,/VUSB*%
X99060000Y-91440000D03*
%TO.P,J104,13*%
%TO.N,GND*%
X96520000Y-91440000D03*
%TO.P,J104,12*%
X93980000Y-91440000D03*
%TO.P,J104,11*%
%TO.N,+3V3*%
X91440000Y-91440000D03*
%TO.P,J104,10*%
%TO.N,/IO48*%
X88900000Y-91440000D03*
%TO.P,J104,9*%
%TO.N,/IO46*%
X86360000Y-91440000D03*
%TO.P,J104,8*%
%TO.N,/IO45*%
X83820000Y-91440000D03*
%TO.P,J104,7*%
%TO.N,/IO42*%
X81280000Y-91440000D03*
%TO.P,J104,6*%
%TO.N,/IO38*%
X78740000Y-91440000D03*
%TO.P,J104,5*%
%TO.N,/RXD*%
X76200000Y-91440000D03*
%TO.P,J104,4*%
%TO.N,/TXD*%
X73660000Y-91440000D03*
%TO.P,J104,3*%
%TO.N,/IO21*%
X71120000Y-91440000D03*
%TO.P,J104,2*%
%TO.N,/IO14*%
X68580000Y-91440000D03*
D19*
%TO.P,J104,1*%
%TO.N,/IO3*%
X66040000Y-91440000D03*
%TD*%
%TO.P,C106,1*%
%TO.N,GND*%
%TA.AperFunction,SMDPad,CuDef*%
G36*
G01*
X111400000Y-74650000D02*
X111400000Y-74150000D01*
G75*
G02*
X111625000Y-73925000I225000J0D01*
G01*
X112075000Y-73925000D01*
G75*
G02*
X112300000Y-74150000I0J-225000D01*
G01*
X112300000Y-74650000D01*
G75*
G02*
X112075000Y-74875000I-225000J0D01*
G01*
X111625000Y-74875000D01*
G75*
G02*
X111400000Y-74650000I0J225000D01*
G01*
G37*
%TD.AperFunction*%
%TO.P,C106,2*%
%TO.N,+3V3*%
%TA.AperFunction,SMDPad,CuDef*%
G36*
G01*
X112950000Y-74650000D02*
X112950000Y-74150000D01*
G75*
G02*
X113175000Y-73925000I225000J0D01*
G01*
X113625000Y-73925000D01*
G75*
G02*
X113850000Y-74150000I0J-225000D01*
G01*
X113850000Y-74650000D01*
G75*
G02*
X113625000Y-74875000I-225000J0D01*
G01*
X113175000Y-74875000D01*
G75*
G02*
X112950000Y-74650000I0J225000D01*
G01*
G37*
%TD.AperFunction*%
%TD*%
D21*
%TO.P,H101,1*%
%TO.N,N/C*%
X123086726Y-65508274D03*
X121920000Y-65025000D03*
X120753274Y-65508274D03*
X120270000Y-66675000D03*
X120753274Y-67841726D03*
X121920000Y-68325000D03*
X123086726Y-67841726D03*
X123570000Y-66675000D03*
D22*
X121920000Y-66675000D03*
%TD*%
%TO.P,H102,1*%
%TO.N,N/C*%
X121920000Y-91440000D03*
D21*
X123570000Y-91440000D03*
X123086726Y-92606726D03*
X121920000Y-93090000D03*
X120753274Y-92606726D03*
X120270000Y-91440000D03*
X120753274Y-90273274D03*
X121920000Y-89790000D03*
X123086726Y-90273274D03*
%TD*%
%TO.P,H103,1*%
%TO.N,N/C*%
X51331726Y-65508274D03*
X50165000Y-65025000D03*
X48998274Y-65508274D03*
X48515000Y-66675000D03*
X48998274Y-67841726D03*
X50165000Y-68325000D03*
X51331726Y-67841726D03*
X51815000Y-66675000D03*
D22*
X50165000Y-66675000D03*
%TD*%
%TO.P,H104,1*%
%TO.N,N/C*%
X50165000Y-91440000D03*
D21*
X51815000Y-91440000D03*
X51331726Y-92606726D03*
X50165000Y-93090000D03*
X48998274Y-92606726D03*
X48515000Y-91440000D03*
X48998274Y-90273274D03*
X50165000Y-89790000D03*
X51331726Y-90273274D03*
%TD*%
%TO.P,R106,2*%
%TO.N,/VBAT*%
%TA.AperFunction,SMDPad,CuDef*%
G36*
G01*
X116445000Y-70376000D02*
X116445000Y-69826000D01*
G75*
G02*
X116645000Y-69626000I200000J0D01*
G01*
X117045000Y-69626000D01*
G75*
G02*
X117245000Y-69826000I0J-200000D01*
G01*
X117245000Y-70376000D01*
G75*
G02*
X117045000Y-70576000I-200000J0D01*
G01*
X116645000Y-70576000D01*
G75*
G02*
X116445000Y-70376000I0J200000D01*
G01*
G37*
%TD.AperFunction*%
%TO.P,R106,1*%
%TO.N,ChkBat*%
%TA.AperFunction,SMDPad,CuDef*%
G36*
G01*
X114795000Y-70376000D02*
X114795000Y-69826000D01*
G75*
G02*
X114995000Y-69626000I200000J0D01*
G01*
X115395000Y-69626000D01*
G75*
G02*
X115595000Y-69826000I0J-200000D01*
G01*
X115595000Y-70376000D01*
G75*
G02*
X115395000Y-70576000I-200000J0D01*
G01*
X114995000Y-70576000D01*
G75*
G02*
X114795000Y-70376000I0J200000D01*
G01*
G37*
%TD.AperFunction*%
%TD*%
%TO.P,R107,1*%
%TO.N,GND*%
%TA.AperFunction,SMDPad,CuDef*%
G36*
G01*
X120446000Y-69826000D02*
X120446000Y-70376000D01*
G75*
G02*
X120246000Y-70576000I-200000J0D01*
G01*
X119846000Y-70576000D01*
G75*
G02*
X119646000Y-70376000I0J200000D01*
G01*
X119646000Y-69826000D01*
G75*
G02*
X119846000Y-69626000I200000J0D01*
G01*
X120246000Y-69626000D01*
G75*
G02*
X120446000Y-69826000I0J-200000D01*
G01*
G37*
%TD.AperFunction*%
%TO.P,R107,2*%
%TO.N,ChkBat*%
%TA.AperFunction,SMDPad,CuDef*%
G36*
G01*
X118796000Y-69826000D02*
X118796000Y-70376000D01*
G75*
G02*
X118596000Y-70576000I-200000J0D01*
G01*
X118196000Y-70576000D01*
G75*
G02*
X117996000Y-70376000I0J200000D01*
G01*
X117996000Y-69826000D01*
G75*
G02*
X118196000Y-69626000I200000J0D01*
G01*
X118596000Y-69626000D01*
G75*
G02*
X118796000Y-69826000I0J-200000D01*
G01*
G37*
%TD.AperFunction*%
%TD*%
%TO.P,J102,1*%
%TO.N,/VBAT*%
%TA.AperFunction,SMDPad,CuDef*%
G36*
G01*
X109900000Y-80125000D02*
X106900000Y-80125000D01*
G75*
G02*
X106650000Y-79875000I0J250000D01*
G01*
X106650000Y-79375000D01*
G75*
G02*
X106900000Y-79125000I250000J0D01*
G01*
X109900000Y-79125000D01*
G75*
G02*
X110150000Y-79375000I0J-250000D01*
G01*
X110150000Y-79875000D01*
G75*
G02*
X109900000Y-80125000I-250000J0D01*
G01*
G37*
%TD.AperFunction*%
%TO.P,J102,2*%
%TO.N,GND*%
%TA.AperFunction,SMDPad,CuDef*%
G36*
G01*
X109900000Y-78125000D02*
X106900000Y-78125000D01*
G75*
G02*
X106650000Y-77875000I0J250000D01*
G01*
X106650000Y-77375000D01*
G75*
G02*
X106900000Y-77125000I250000J0D01*
G01*
X109900000Y-77125000D01*
G75*
G02*
X110150000Y-77375000I0J-250000D01*
G01*
X110150000Y-77875000D01*
G75*
G02*
X109900000Y-78125000I-250000J0D01*
G01*
G37*
%TD.AperFunction*%
%TO.P,J102,MP*%
%TO.N,N/C*%
%TA.AperFunction,SMDPad,CuDef*%
G36*
G01*
X104100000Y-82725000D02*
X101200000Y-82725000D01*
G75*
G02*
X100950000Y-82475000I0J250000D01*
G01*
X100950000Y-81475000D01*
G75*
G02*
X101200000Y-81225000I250000J0D01*
G01*
X104100000Y-81225000D01*
G75*
G02*
X104350000Y-81475000I0J-250000D01*
G01*
X104350000Y-82475000D01*
G75*
G02*
X104100000Y-82725000I-250000J0D01*
G01*
G37*
%TD.AperFunction*%
%TA.AperFunction,SMDPad,CuDef*%
G36*
G01*
X104100000Y-76025000D02*
X101200000Y-76025000D01*
G75*
G02*
X100950000Y-75775000I0J250000D01*
G01*
X100950000Y-74775000D01*
G75*
G02*
X101200000Y-74525000I250000J0D01*
G01*
X104100000Y-74525000D01*
G75*
G02*
X104350000Y-74775000I0J-250000D01*
G01*
X104350000Y-75775000D01*
G75*
G02*
X104100000Y-76025000I-250000J0D01*
G01*
G37*
%TD.AperFunction*%
%TD*%
D23*
%TO.N,GND*%
X118100000Y-92175000D03*
X111900000Y-92100000D03*
X113975000Y-91450000D03*
X123725000Y-71375000D03*
%TO.N,/VUSB*%
X116163700Y-75697100D03*
%TO.N,GND*%
X120675000Y-72125000D03*
X119250000Y-68775000D03*
X113400000Y-78050000D03*
X121050000Y-80850000D03*
X115400000Y-82750000D03*
X112775000Y-84600000D03*
X109625000Y-92650000D03*
X78975000Y-81850000D03*
X83975000Y-79500000D03*
X64213920Y-78830018D03*
X95550000Y-86000000D03*
X101050000Y-73700000D03*
X92475000Y-71275000D03*
X79075000Y-85150000D03*
X83250000Y-84450000D03*
%TO.N,/VBAT*%
X116234900Y-68795600D03*
%TO.N,Net-(D102-Pad1)*%
X111701900Y-88464700D03*
%TO.N,Net-(D102-Pad2)*%
X103649100Y-66017900D03*
%TO.N,/IO16*%
X66398300Y-68462500D03*
%TO.N,/IO17*%
X67773100Y-68509200D03*
%TO.N,+3V3*%
X76418200Y-81280800D03*
X91916000Y-80913300D03*
X56678300Y-71944300D03*
%TO.N,/IO48*%
X76479800Y-84469600D03*
%TO.N,/IO46*%
X70965100Y-83758800D03*
%TO.N,/IO45*%
X74384700Y-86120300D03*
%TO.N,/IO42*%
X61572800Y-89410600D03*
%TO.N,/IO14*%
X71326300Y-86004600D03*
%TO.N,ChkBat*%
X59965400Y-68517000D03*
X114285100Y-69107900D03*
%TO.N,Net-(R108-Pad2)*%
X57819100Y-64283100D03*
%TO.N,Net-(R110-Pad2)*%
X58798000Y-89738700D03*
%TO.N,/BUTT2*%
X62660600Y-89314200D03*
X62640300Y-83358000D03*
%TO.N,/D-*%
X110467000Y-72576300D03*
X77433600Y-70623800D03*
%TO.N,/D+*%
X110080100Y-69894100D03*
X76254800Y-70199700D03*
%TO.N,/LEDA*%
X59470400Y-80078100D03*
%TO.N,/DisplRST*%
X67173200Y-76092200D03*
%TO.N,/Display_CS*%
X67093900Y-77441500D03*
%TO.N,/DisplayDC*%
X66750700Y-78449400D03*
%TO.N,/JoyX*%
X70752000Y-71906800D03*
%TO.N,/JoyY*%
X65284200Y-82080100D03*
%TO.N,/MISO*%
X68004900Y-72551700D03*
%TO.N,/MOSI*%
X70611000Y-76417600D03*
%TO.N,/SCK*%
X69391900Y-72589300D03*
%TO.N,/IO3*%
X69617400Y-84934400D03*
%TO.N,/IO21*%
X74347200Y-84469600D03*
%TD*%
D24*
%TO.N,/VUSB*%
X99060000Y-91440000D02*
X99060000Y-90264700D01*
X99060000Y-90264700D02*
X99087300Y-90237400D01*
X99087300Y-90237400D02*
X99087300Y-72742700D01*
X99087300Y-72742700D02*
X105029000Y-66801000D01*
X99060000Y-91440000D02*
X101133100Y-93513100D01*
X101133100Y-93513100D02*
X114031700Y-93513100D01*
X114031700Y-93513100D02*
X115125700Y-92419100D01*
X115125700Y-92419100D02*
X115125700Y-90879400D01*
X115125700Y-90879400D02*
X115515100Y-90490000D01*
X118135000Y-75855000D02*
X116934700Y-75855000D01*
X116163700Y-75697100D02*
X116776800Y-75697100D01*
X116776800Y-75697100D02*
X116934700Y-75855000D01*
X118135000Y-75555000D02*
X118135000Y-75855000D01*
X115850000Y-86950000D02*
X115850000Y-87725300D01*
X115515100Y-90490000D02*
X115515100Y-88060200D01*
X115515100Y-88060200D02*
X115850000Y-87725300D01*
X116035000Y-90490000D02*
X115515100Y-90490000D01*
X115850000Y-86174700D02*
X116934700Y-85090000D01*
X116934700Y-85090000D02*
X116934700Y-84470500D01*
X116934700Y-84470500D02*
X118334200Y-84470500D01*
X118334200Y-84470500D02*
X118691900Y-84828200D01*
X118691900Y-90083100D02*
X118110000Y-90665000D01*
X118135000Y-80655000D02*
X116934700Y-80655000D01*
X115850000Y-86950000D02*
X115850000Y-86174700D01*
X118135000Y-80355000D02*
X118135000Y-80655000D01*
X118691900Y-85034622D02*
X118691900Y-85216900D01*
X120350010Y-83376512D02*
X118691900Y-85034622D01*
X120350010Y-82103981D02*
X120350010Y-83376512D01*
X120324999Y-82078970D02*
X120350010Y-82103981D01*
X120119999Y-80344999D02*
X120324999Y-80549999D01*
X120324999Y-80549999D02*
X120324999Y-82078970D01*
X118852998Y-80655000D02*
X119162999Y-80344999D01*
X118135000Y-80655000D02*
X118852998Y-80655000D01*
X118691900Y-85216900D02*
X118691900Y-90083100D01*
X119162999Y-80344999D02*
X120119999Y-80344999D01*
X118691900Y-84828200D02*
X118691900Y-85216900D01*
%TO.N,GND*%
X118135000Y-81155000D02*
X118135000Y-81455000D01*
X118135000Y-81585000D02*
X118975000Y-82425000D01*
X118135000Y-81455000D02*
X118135000Y-81585000D01*
X111850000Y-79200000D02*
X111850000Y-74400000D01*
X115400000Y-82750000D02*
X111850000Y-79200000D01*
X118135000Y-74625000D02*
X118975000Y-73785000D01*
X118135000Y-75055000D02*
X118135000Y-74625000D01*
X105182000Y-91440000D02*
X104521000Y-90779000D01*
X106215000Y-91440000D02*
X105182000Y-91440000D01*
X109687000Y-92650000D02*
X110236000Y-92101000D01*
X109625000Y-92650000D02*
X109687000Y-92650000D01*
X81625000Y-81850000D02*
X83975000Y-79500000D01*
X78975000Y-81850000D02*
X81625000Y-81850000D01*
X64648001Y-77778001D02*
X64180000Y-77310000D01*
X64648001Y-78341999D02*
X64648001Y-77778001D01*
X64180000Y-78810000D02*
X64648001Y-78341999D01*
X64648001Y-76841999D02*
X64648001Y-76278001D01*
X64648001Y-76278001D02*
X64180000Y-75810000D01*
X64180000Y-77310000D02*
X64648001Y-76841999D01*
X63159799Y-75274999D02*
X62680000Y-75754798D01*
X63663801Y-75274999D02*
X63159799Y-75274999D01*
X62680000Y-75754798D02*
X62680000Y-75810000D01*
X64180000Y-75791198D02*
X63663801Y-75274999D01*
X64180000Y-75810000D02*
X64180000Y-75791198D01*
X61715001Y-75274999D02*
X61180000Y-75810000D01*
X62190601Y-75274999D02*
X61715001Y-75274999D01*
X62680000Y-75764398D02*
X62190601Y-75274999D01*
X62680000Y-75810000D02*
X62680000Y-75764398D01*
X61180000Y-77284802D02*
X61180000Y-77310000D01*
X61650801Y-76814001D02*
X61180000Y-77284802D01*
X61180000Y-75839198D02*
X61650801Y-76309999D01*
X61650801Y-76309999D02*
X61650801Y-76814001D01*
X61180000Y-75810000D02*
X61180000Y-75839198D01*
X61650801Y-78339199D02*
X61180000Y-78810000D01*
X61650801Y-77833999D02*
X61650801Y-78339199D01*
X61413599Y-77596797D02*
X61650801Y-77833999D01*
X61260000Y-77310000D02*
X61413599Y-77463599D01*
X61413599Y-77463599D02*
X61413599Y-77596797D01*
X61180000Y-77310000D02*
X61260000Y-77310000D01*
X61692201Y-79322201D02*
X61180000Y-78810000D01*
X62167799Y-79322201D02*
X61692201Y-79322201D01*
X62680000Y-78810000D02*
X62167799Y-79322201D01*
X62680000Y-77389998D02*
X62680000Y-77310000D01*
X63124001Y-77833999D02*
X62680000Y-77389998D01*
X63124001Y-78338001D02*
X63124001Y-77833999D01*
X62680000Y-78782002D02*
X63124001Y-78338001D01*
X62680000Y-78810000D02*
X62680000Y-78782002D01*
%TO.N,Net-(C102-Pad2)*%
X110236000Y-90551000D02*
X110236000Y-88888700D01*
X110236000Y-88888700D02*
X114174700Y-84950000D01*
X107775100Y-91194800D02*
X109592200Y-91194800D01*
X109592200Y-91194800D02*
X110236000Y-90551000D01*
X114900000Y-84950000D02*
X114174700Y-84950000D01*
X107070300Y-90490000D02*
X107775100Y-91194800D01*
X106215000Y-92390000D02*
X106600800Y-92390000D01*
X106600800Y-92390000D02*
X107775100Y-91215700D01*
X107775100Y-91215700D02*
X107775100Y-91194800D01*
X106215000Y-90490000D02*
X107070300Y-90490000D01*
%TO.N,Net-(C103-Pad2)*%
X108415000Y-92390000D02*
X107559700Y-92390000D01*
X107559700Y-92390000D02*
X106909400Y-93040300D01*
X106909400Y-93040300D02*
X105232300Y-93040300D01*
X105232300Y-93040300D02*
X104521000Y-92329000D01*
X111288000Y-68291300D02*
X110657200Y-68291300D01*
X110657200Y-68291300D02*
X105806900Y-73141600D01*
X105806900Y-73141600D02*
X105806900Y-81841500D01*
X105806900Y-81841500D02*
X100399400Y-87249000D01*
X100399400Y-87249000D02*
X100399400Y-91902300D01*
X100399400Y-91902300D02*
X101143300Y-92646200D01*
X101143300Y-92646200D02*
X104203800Y-92646200D01*
X104203800Y-92646200D02*
X104521000Y-92329000D01*
X111288000Y-67216000D02*
X111288000Y-68291300D01*
%TO.N,/VBAT*%
X113950000Y-86950000D02*
X114675300Y-86950000D01*
X108400000Y-83569900D02*
X114835000Y-83569900D01*
X114835000Y-83569900D02*
X115625400Y-84360300D01*
X115625400Y-84360300D02*
X115625400Y-85614600D01*
X115625400Y-85614600D02*
X114675300Y-86564700D01*
X114675300Y-86564700D02*
X114675300Y-86950000D01*
X108400000Y-83569900D02*
X101705200Y-90264700D01*
X101705200Y-90264700D02*
X101600000Y-90264700D01*
X108400000Y-79625000D02*
X108400000Y-83569900D01*
X101600000Y-91440000D02*
X101600000Y-90264700D01*
X116234900Y-68795600D02*
X116845000Y-69405700D01*
X116845000Y-69405700D02*
X116845000Y-70101000D01*
X113224700Y-90490000D02*
X113835000Y-90490000D01*
X111887000Y-90525000D02*
X111922000Y-90490000D01*
X111922000Y-90490000D02*
X113224700Y-90490000D01*
X113224700Y-90490000D02*
X113224700Y-86950000D01*
X113950000Y-86950000D02*
X113224700Y-86950000D01*
%TO.N,/EN*%
X83975000Y-88890000D02*
X84825300Y-88890000D01*
X60579000Y-66675000D02*
X61179200Y-66074800D01*
X61179200Y-66074800D02*
X63437200Y-66074800D01*
X63437200Y-66074800D02*
X65111400Y-64400600D01*
X65111400Y-64400600D02*
X96544100Y-64400600D01*
X96544100Y-64400600D02*
X97700100Y-65556600D01*
X97700100Y-65556600D02*
X97700100Y-68266300D01*
X97700100Y-68266300D02*
X84825300Y-81141100D01*
X84825300Y-81141100D02*
X84825300Y-88890000D01*
X57565000Y-70100000D02*
X57565000Y-69689000D01*
X57565000Y-69689000D02*
X60579000Y-66675000D01*
X80510000Y-88890000D02*
X79568000Y-88890000D01*
X79568000Y-88890000D02*
X77800000Y-87122000D01*
X83975000Y-88890000D02*
X80510000Y-88890000D01*
%TO.N,Net-(D102-Pad1)*%
X113835000Y-92390000D02*
X112979700Y-92390000D01*
X112979700Y-92390000D02*
X112518400Y-92851300D01*
X112518400Y-92851300D02*
X111371700Y-92851300D01*
X111371700Y-92851300D02*
X111085700Y-92565300D01*
X111085700Y-92565300D02*
X111085700Y-89080900D01*
X111085700Y-89080900D02*
X111701900Y-88464700D01*
%TO.N,Net-(D102-Pad2)*%
X105029000Y-65151000D02*
X104516000Y-65151000D01*
X104516000Y-65151000D02*
X103649100Y-66017900D01*
%TO.N,Net-(J101-PadA7)*%
X113450000Y-72800000D02*
X115203300Y-74553300D01*
X115203300Y-74553300D02*
X115203300Y-75786400D01*
X115203300Y-75786400D02*
X116771900Y-77355000D01*
X116771900Y-77355000D02*
X116934700Y-77355000D01*
X116934700Y-77355000D02*
X118135000Y-77355000D01*
X116934700Y-77355000D02*
X116934700Y-78355000D01*
X118135000Y-78355000D02*
X116934700Y-78355000D01*
%TO.N,Net-(J101-PadA6)*%
X113379000Y-70101000D02*
X114654400Y-71376400D01*
X114654400Y-71376400D02*
X120341900Y-71376400D01*
X120341900Y-71376400D02*
X121046000Y-70672300D01*
X121046000Y-70672300D02*
X122330600Y-70672300D01*
X122330600Y-70672300D02*
X122745000Y-71086700D01*
X122745000Y-71086700D02*
X122745000Y-71907600D01*
X122745000Y-71907600D02*
X124295100Y-73457700D01*
X124295100Y-73457700D02*
X124295100Y-74144600D01*
X124295100Y-74144600D02*
X120584700Y-77855000D01*
X120584700Y-77855000D02*
X119335300Y-77855000D01*
X118135000Y-78855000D02*
X119335300Y-78855000D01*
X118135000Y-77855000D02*
X119335300Y-77855000D01*
X119335300Y-77855000D02*
X119335300Y-78855000D01*
%TO.N,Net-(J101-PadB5)*%
X114173000Y-80264000D02*
X114582000Y-79855000D01*
X114582000Y-79855000D02*
X118135000Y-79855000D01*
%TO.N,Net-(J101-PadA5)*%
X118135000Y-76855000D02*
X119335300Y-76855000D01*
X121920000Y-71501000D02*
X121920000Y-74270300D01*
X121920000Y-74270300D02*
X119335300Y-76855000D01*
%TO.N,/IO15*%
X73660000Y-66040000D02*
X72484700Y-66040000D01*
X72484700Y-66040000D02*
X72484700Y-65672700D01*
X72484700Y-65672700D02*
X71675200Y-64863200D01*
X71675200Y-64863200D02*
X70626200Y-64863200D01*
X70626200Y-64863200D02*
X69850000Y-65639400D01*
X69850000Y-65639400D02*
X69850000Y-66476800D01*
X69850000Y-66476800D02*
X68967200Y-67359600D01*
X68967200Y-67359600D02*
X66283900Y-67359600D01*
X66283900Y-67359600D02*
X63915000Y-69728500D01*
X63915000Y-69728500D02*
X63915000Y-70100000D01*
%TO.N,/IO16*%
X66398300Y-68462500D02*
X65185000Y-69675800D01*
X65185000Y-69675800D02*
X65185000Y-70100000D01*
%TO.N,/IO17*%
X67773100Y-68509200D02*
X67695200Y-68509200D01*
X67695200Y-68509200D02*
X66455000Y-69749400D01*
X66455000Y-69749400D02*
X66455000Y-70100000D01*
%TO.N,/IO18*%
X81280000Y-66040000D02*
X80104700Y-66040000D01*
X67725000Y-70100000D02*
X67725000Y-69734800D01*
X67725000Y-69734800D02*
X70244500Y-67215300D01*
X70244500Y-67215300D02*
X79296800Y-67215300D01*
X79296800Y-67215300D02*
X80104700Y-66407400D01*
X80104700Y-66407400D02*
X80104700Y-66040000D01*
%TO.N,/IO9*%
X72775000Y-74540000D02*
X77052000Y-74540000D01*
X77052000Y-74540000D02*
X85184700Y-66407300D01*
X85184700Y-66407300D02*
X85184700Y-66040000D01*
X86360000Y-66040000D02*
X85184700Y-66040000D01*
%TO.N,/IO10*%
X88900000Y-66040000D02*
X87724700Y-66040000D01*
X87724700Y-66040000D02*
X87724700Y-66407300D01*
X87724700Y-66407300D02*
X78322000Y-75810000D01*
X78322000Y-75810000D02*
X72775000Y-75810000D01*
%TO.N,/IO11*%
X91440000Y-66040000D02*
X90264700Y-66040000D01*
X90264700Y-66040000D02*
X90264700Y-66407300D01*
X90264700Y-66407300D02*
X79592000Y-77080000D01*
X79592000Y-77080000D02*
X72775000Y-77080000D01*
%TO.N,/IO13*%
X96520000Y-66040000D02*
X95344700Y-66040000D01*
X95344700Y-66040000D02*
X95344700Y-66407300D01*
X95344700Y-66407300D02*
X82132000Y-79620000D01*
X82132000Y-79620000D02*
X72775000Y-79620000D01*
%TO.N,+3V3*%
X76418200Y-81280800D02*
X77237200Y-82099800D01*
X77237200Y-82099800D02*
X77237200Y-85684800D01*
X77237200Y-85684800D02*
X75800000Y-87122000D01*
X91916000Y-80913300D02*
X91916000Y-89788700D01*
X91916000Y-89788700D02*
X91440000Y-90264700D01*
X114288000Y-67216000D02*
X114288000Y-68291300D01*
X113400000Y-74400000D02*
X112624900Y-73624900D01*
X112624900Y-73624900D02*
X112624900Y-69616800D01*
X112624900Y-69616800D02*
X113950400Y-68291300D01*
X113950400Y-68291300D02*
X114288000Y-68291300D01*
X102775300Y-66040000D02*
X102775300Y-65819600D01*
X102775300Y-65819600D02*
X104198200Y-64396700D01*
X104198200Y-64396700D02*
X107329600Y-64396700D01*
X107329600Y-64396700D02*
X108014300Y-65081400D01*
X108014300Y-65081400D02*
X111034600Y-65081400D01*
X111034600Y-65081400D02*
X111448300Y-64667700D01*
X111448300Y-64667700D02*
X112485800Y-64667700D01*
X112485800Y-64667700D02*
X113958800Y-66140700D01*
X113958800Y-66140700D02*
X114288000Y-66140700D01*
X101600000Y-66040000D02*
X102775300Y-66040000D01*
X91916000Y-80913300D02*
X91916000Y-76899300D01*
X91916000Y-76899300D02*
X101600000Y-67215300D01*
X101600000Y-66040000D02*
X101600000Y-67215300D01*
X114288000Y-67216000D02*
X114288000Y-66140700D01*
X91440000Y-91440000D02*
X91440000Y-90264700D01*
X56295000Y-70100000D02*
X56295000Y-71561000D01*
X56295000Y-71561000D02*
X56678300Y-71944300D01*
%TO.N,/IO48*%
X76479800Y-84469600D02*
X75720000Y-85229400D01*
X75720000Y-85229400D02*
X73762700Y-85229400D01*
X73762700Y-85229400D02*
X73233300Y-84700000D01*
X73233300Y-84700000D02*
X72775000Y-84700000D01*
%TO.N,/IO46*%
X70965100Y-83758800D02*
X70965100Y-77089300D01*
X70965100Y-77089300D02*
X71336300Y-76718100D01*
X71336300Y-76718100D02*
X71336300Y-74360100D01*
X71336300Y-74360100D02*
X72426400Y-73270000D01*
X72426400Y-73270000D02*
X72775000Y-73270000D01*
%TO.N,/IO45*%
X74384700Y-86120300D02*
X72925300Y-86120300D01*
X72925300Y-86120300D02*
X72775000Y-85970000D01*
%TO.N,/IO42*%
X61572800Y-89410600D02*
X61375000Y-89212800D01*
X61375000Y-89212800D02*
X61375000Y-87600000D01*
%TO.N,/RXD*%
X76200000Y-91440000D02*
X75024700Y-91440000D01*
X75024700Y-91440000D02*
X75024700Y-91072700D01*
X75024700Y-91072700D02*
X74201300Y-90249300D01*
X74201300Y-90249300D02*
X65040400Y-90249300D01*
X65040400Y-90249300D02*
X63879800Y-91409900D01*
X63879800Y-91409900D02*
X62306800Y-91409900D01*
X62306800Y-91409900D02*
X60105000Y-89208100D01*
X60105000Y-89208100D02*
X60105000Y-87600000D01*
%TO.N,/TXD*%
X73660000Y-91440000D02*
X72484700Y-91440000D01*
X72484700Y-91440000D02*
X72484700Y-91807300D01*
X72484700Y-91807300D02*
X70988400Y-93303600D01*
X70988400Y-93303600D02*
X57658000Y-93303600D01*
X57658000Y-93303600D02*
X57372200Y-93017800D01*
X57372200Y-93017800D02*
X57372200Y-89981800D01*
X57372200Y-89981800D02*
X58835000Y-88519000D01*
X58835000Y-88519000D02*
X58835000Y-87600000D01*
%TO.N,/IO14*%
X72775000Y-80890000D02*
X72371500Y-80890000D01*
X72371500Y-80890000D02*
X71690500Y-81571000D01*
X71690500Y-81571000D02*
X71690500Y-85640400D01*
X71690500Y-85640400D02*
X71326300Y-86004600D01*
%TO.N,Net-(R101-Pad2)*%
X116035000Y-92390000D02*
X116890300Y-92390000D01*
X116890300Y-92390000D02*
X116890300Y-86403700D01*
X116890300Y-86403700D02*
X117950000Y-85344000D01*
%TO.N,ChkBat*%
X118396000Y-70101000D02*
X117582900Y-70914100D01*
X117582900Y-70914100D02*
X116008100Y-70914100D01*
X116008100Y-70914100D02*
X115195000Y-70101000D01*
X114285100Y-69107900D02*
X115195000Y-70017800D01*
X115195000Y-70017800D02*
X115195000Y-70101000D01*
X59965400Y-68517000D02*
X58835000Y-69647400D01*
X58835000Y-69647400D02*
X58835000Y-70100000D01*
%TO.N,Net-(R108-Pad2)*%
X57819100Y-65513900D02*
X62756100Y-65513900D01*
X62756100Y-65513900D02*
X63119000Y-65151000D01*
X57403000Y-65532000D02*
X57421100Y-65513900D01*
X57421100Y-65513900D02*
X57819100Y-65513900D01*
X57819100Y-64283100D02*
X57819100Y-65513900D01*
%TO.N,/BUTT1*%
X61375000Y-70100000D02*
X61375000Y-68545000D01*
X61375000Y-68545000D02*
X63119000Y-66801000D01*
%TO.N,Net-(R110-Pad2)*%
X58798000Y-91760000D02*
X58102000Y-92456000D01*
X58798000Y-89738700D02*
X58798000Y-91760000D01*
X62865000Y-92329000D02*
X59367000Y-92329000D01*
X59367000Y-92329000D02*
X58798000Y-91760000D01*
%TO.N,/BUTT2*%
X62660600Y-89314200D02*
X62865000Y-89518600D01*
X62865000Y-89518600D02*
X62865000Y-90679000D01*
X62645000Y-70100000D02*
X62645000Y-70769300D01*
X62645000Y-70769300D02*
X60304300Y-73110000D01*
X60304300Y-73110000D02*
X60304300Y-81022000D01*
X60304300Y-81022000D02*
X62640300Y-83358000D01*
%TO.N,/D-*%
X77433600Y-70623800D02*
X76875900Y-71181500D01*
X76875900Y-71181500D02*
X70954300Y-71181500D01*
X70954300Y-71181500D02*
X70265000Y-70492200D01*
X70265000Y-70492200D02*
X70265000Y-70100000D01*
X110467000Y-72576300D02*
X111576300Y-72576300D01*
X111576300Y-72576300D02*
X111800000Y-72800000D01*
%TO.N,/D+*%
X110080100Y-69894100D02*
X111522100Y-69894100D01*
X111522100Y-69894100D02*
X111729000Y-70101000D01*
X71535000Y-70100000D02*
X76155100Y-70100000D01*
X76155100Y-70100000D02*
X76254800Y-70199700D01*
%TO.N,/IO0*%
X71535000Y-87600000D02*
X72115100Y-88180100D01*
X72115100Y-88180100D02*
X76858100Y-88180100D01*
X76858100Y-88180100D02*
X78218300Y-89540300D01*
X78218300Y-89540300D02*
X85699400Y-89540300D01*
X85699400Y-89540300D02*
X86349700Y-88890000D01*
X87200000Y-88890000D02*
X86349700Y-88890000D01*
X90665000Y-88890000D02*
X87200000Y-88890000D01*
%TO.N,/LEDA*%
X60105000Y-70100000D02*
X59849900Y-70355100D01*
X59849900Y-70355100D02*
X59849900Y-79698600D01*
X59849900Y-79698600D02*
X59470400Y-80078100D01*
%TO.N,/DisplRST*%
X62645000Y-87600000D02*
X62645000Y-85745100D01*
X62645000Y-85745100D02*
X66009500Y-82380600D01*
X66009500Y-82380600D02*
X66009500Y-77255900D01*
X66009500Y-77255900D02*
X67173200Y-76092200D01*
%TO.N,/Display_CS*%
X65185000Y-87600000D02*
X65185000Y-86445800D01*
X65185000Y-86445800D02*
X67476000Y-84154800D01*
X67476000Y-84154800D02*
X67476000Y-77823600D01*
X67476000Y-77823600D02*
X67093900Y-77441500D01*
%TO.N,/DisplayDC*%
X63915000Y-87600000D02*
X63915000Y-86386700D01*
X63915000Y-86386700D02*
X66750700Y-83551000D01*
X66750700Y-83551000D02*
X66750700Y-78449400D01*
%TO.N,/JoyX*%
X70752000Y-71906800D02*
X70634100Y-71788900D01*
X70634100Y-71788900D02*
X67713500Y-71788900D01*
X67713500Y-71788900D02*
X65134400Y-74368000D01*
X65134400Y-74368000D02*
X65134400Y-81204200D01*
X65134400Y-81204200D02*
X64558900Y-81779700D01*
X64558900Y-81779700D02*
X64558900Y-82465900D01*
X64558900Y-82465900D02*
X62937800Y-84087000D01*
X62937800Y-84087000D02*
X59368800Y-84087000D01*
X59368800Y-84087000D02*
X56295000Y-87160800D01*
X56295000Y-87160800D02*
X56295000Y-87600000D01*
%TO.N,/JoyY*%
X65284200Y-82080100D02*
X65284200Y-82377500D01*
X65284200Y-82377500D02*
X61491800Y-86169900D01*
X61491800Y-86169900D02*
X58644200Y-86169900D01*
X58644200Y-86169900D02*
X57565000Y-87249100D01*
X57565000Y-87249100D02*
X57565000Y-87600000D01*
%TO.N,/MISO*%
X68004900Y-72551700D02*
X68004900Y-87320100D01*
X68004900Y-87320100D02*
X67725000Y-87600000D01*
%TO.N,/MOSI*%
X70265000Y-87600000D02*
X70342700Y-87522300D01*
X70342700Y-87522300D02*
X70342700Y-84633900D01*
X70342700Y-84633900D02*
X70239700Y-84530900D01*
X70239700Y-84530900D02*
X70239700Y-76788900D01*
X70239700Y-76788900D02*
X70611000Y-76417600D01*
%TO.N,/SCK*%
X69391900Y-72589300D02*
X68892100Y-73089100D01*
X68892100Y-73089100D02*
X68892100Y-87497100D01*
X68892100Y-87497100D02*
X68995000Y-87600000D01*
%TO.N,/IO38*%
X66455000Y-87600000D02*
X66455000Y-87959100D01*
X66455000Y-87959100D02*
X68224400Y-89728500D01*
X68224400Y-89728500D02*
X76156500Y-89728500D01*
X76156500Y-89728500D02*
X77564700Y-91136700D01*
X77564700Y-91136700D02*
X77564700Y-91440000D01*
X78740000Y-91440000D02*
X77564700Y-91440000D01*
%TO.N,/IO3*%
X69617400Y-84934400D02*
X69617400Y-74809000D01*
X69617400Y-74809000D02*
X72426400Y-72000000D01*
X72426400Y-72000000D02*
X72775000Y-72000000D01*
%TO.N,/IO8*%
X83820000Y-66040000D02*
X82644700Y-66040000D01*
X82644700Y-66040000D02*
X82644700Y-66407300D01*
X82644700Y-66407300D02*
X81386300Y-67665700D01*
X81386300Y-67665700D02*
X70979900Y-67665700D01*
X70979900Y-67665700D02*
X68995000Y-69650600D01*
X68995000Y-69650600D02*
X68995000Y-70100000D01*
%TO.N,/IO12*%
X93980000Y-66040000D02*
X92804700Y-66040000D01*
X92804700Y-66040000D02*
X92804700Y-66407300D01*
X92804700Y-66407300D02*
X80862000Y-78350000D01*
X80862000Y-78350000D02*
X72775000Y-78350000D01*
%TO.N,/IO21*%
X74347200Y-84469600D02*
X74347200Y-83383500D01*
X74347200Y-83383500D02*
X73123700Y-82160000D01*
X73123700Y-82160000D02*
X72775000Y-82160000D01*
%TD*%
D25*
%TO.N,GND*%
X56784100Y-64181161D02*
X56784100Y-64385039D01*
X56811099Y-64520772D01*
X56737392Y-64560169D01*
X56635410Y-64643863D01*
X56604185Y-64605815D01*
X56507494Y-64526463D01*
X56397180Y-64467498D01*
X56277482Y-64431188D01*
X56153000Y-64418928D01*
X56038750Y-64422000D01*
X55880000Y-64580750D01*
X55880000Y-65405000D01*
X55900000Y-65405000D01*
X55900000Y-65659000D01*
X55880000Y-65659000D01*
X55880000Y-66483250D01*
X56038750Y-66642000D01*
X56153000Y-66645072D01*
X56277482Y-66632812D01*
X56397180Y-66596502D01*
X56507494Y-66537537D01*
X56604185Y-66458185D01*
X56635410Y-66420137D01*
X56737392Y-66503831D01*
X56882284Y-66581278D01*
X57039500Y-66628969D01*
X57203000Y-66645072D01*
X57603000Y-66645072D01*
X57766500Y-66628969D01*
X57923716Y-66581278D01*
X58068608Y-66503831D01*
X58195606Y-66399606D01*
X58298771Y-66273900D01*
X59222192Y-66273900D01*
X59215928Y-66337500D01*
X59215928Y-66963270D01*
X57467271Y-68711928D01*
X57186100Y-68711928D01*
X57047747Y-68725555D01*
X56930000Y-68761273D01*
X56812253Y-68725555D01*
X56673900Y-68711928D01*
X55916100Y-68711928D01*
X55777747Y-68725555D01*
X55690868Y-68751910D01*
X55599482Y-68724188D01*
X55475000Y-68711928D01*
X55310750Y-68715000D01*
X55152000Y-68873750D01*
X55152000Y-69973000D01*
X55172000Y-69973000D01*
X55172000Y-70227000D01*
X55152000Y-70227000D01*
X55152000Y-71326250D01*
X55310750Y-71485000D01*
X55475000Y-71488072D01*
X55535001Y-71482163D01*
X55535001Y-71523668D01*
X55531324Y-71561000D01*
X55535001Y-71598333D01*
X55545998Y-71709986D01*
X55556710Y-71745299D01*
X55589454Y-71853246D01*
X55643300Y-71953984D01*
X55643300Y-72046239D01*
X55683074Y-72246198D01*
X55761095Y-72434556D01*
X55874363Y-72604074D01*
X56018526Y-72748237D01*
X56188044Y-72861505D01*
X56376402Y-72939526D01*
X56576361Y-72979300D01*
X56780239Y-72979300D01*
X56980198Y-72939526D01*
X57168556Y-72861505D01*
X57338074Y-72748237D01*
X57482237Y-72604074D01*
X57595505Y-72434556D01*
X57673526Y-72246198D01*
X57713300Y-72046239D01*
X57713300Y-71842361D01*
X57673526Y-71642402D01*
X57609600Y-71488072D01*
X57943900Y-71488072D01*
X58082253Y-71474445D01*
X58200000Y-71438727D01*
X58317747Y-71474445D01*
X58456100Y-71488072D01*
X59089900Y-71488072D01*
X59089901Y-79115432D01*
X58980144Y-79160895D01*
X58810626Y-79274163D01*
X58666463Y-79418326D01*
X58553195Y-79587844D01*
X58475174Y-79776202D01*
X58435400Y-79976161D01*
X58435400Y-80180039D01*
X58475174Y-80379998D01*
X58553195Y-80568356D01*
X58666463Y-80737874D01*
X58810626Y-80882037D01*
X58980144Y-80995305D01*
X59168502Y-81073326D01*
X59368461Y-81113100D01*
X59549597Y-81113100D01*
X59555298Y-81170986D01*
X59565782Y-81205547D01*
X59598754Y-81314246D01*
X59669326Y-81446276D01*
X59733913Y-81524974D01*
X59764300Y-81562001D01*
X59793298Y-81585799D01*
X61534498Y-83327000D01*
X59406125Y-83327000D01*
X59368800Y-83323324D01*
X59331475Y-83327000D01*
X59331467Y-83327000D01*
X59219814Y-83337997D01*
X59076553Y-83381454D01*
X58944524Y-83452026D01*
X58828799Y-83546999D01*
X58805001Y-83575997D01*
X56169071Y-86211928D01*
X55916100Y-86211928D01*
X55777747Y-86225555D01*
X55690868Y-86251910D01*
X55599482Y-86224188D01*
X55475000Y-86211928D01*
X55310750Y-86215000D01*
X55152000Y-86373750D01*
X55152000Y-87473000D01*
X55172000Y-87473000D01*
X55172000Y-87727000D01*
X55152000Y-87727000D01*
X55152000Y-88826250D01*
X55310750Y-88985000D01*
X55475000Y-88988072D01*
X55599482Y-88975812D01*
X55690868Y-88948090D01*
X55777747Y-88974445D01*
X55916100Y-88988072D01*
X56673900Y-88988072D01*
X56812253Y-88974445D01*
X56930000Y-88938727D01*
X57047747Y-88974445D01*
X57186100Y-88988072D01*
X57291127Y-88988072D01*
X56861198Y-89418001D01*
X56832200Y-89441799D01*
X56808402Y-89470797D01*
X56808401Y-89470798D01*
X56737226Y-89557524D01*
X56666654Y-89689554D01*
X56648895Y-89748101D01*
X56623198Y-89832814D01*
X56621203Y-89853072D01*
X56608524Y-89981800D01*
X56612201Y-90019132D01*
X56612201Y-91471549D01*
X56579000Y-91504750D01*
X56579000Y-92329000D01*
X56599000Y-92329000D01*
X56599000Y-92583000D01*
X56579000Y-92583000D01*
X56579000Y-93407250D01*
X56737750Y-93566000D01*
X56845727Y-93568903D01*
X56861203Y-93581604D01*
X57094196Y-93814597D01*
X57117999Y-93843601D01*
X57233724Y-93938574D01*
X57264454Y-93955000D01*
X51501464Y-93955000D01*
X51507876Y-93952344D01*
X51972207Y-93642088D01*
X52367088Y-93247207D01*
X52578370Y-92931000D01*
X55413928Y-92931000D01*
X55426188Y-93055482D01*
X55462498Y-93175180D01*
X55521463Y-93285494D01*
X55600815Y-93382185D01*
X55697506Y-93461537D01*
X55807820Y-93520502D01*
X55927518Y-93556812D01*
X56052000Y-93569072D01*
X56166250Y-93566000D01*
X56325000Y-93407250D01*
X56325000Y-92583000D01*
X55575750Y-92583000D01*
X55417000Y-92741750D01*
X55413928Y-92931000D01*
X52578370Y-92931000D01*
X52677344Y-92782876D01*
X52891052Y-92266939D01*
X52947929Y-91981000D01*
X55413928Y-91981000D01*
X55417000Y-92170250D01*
X55575750Y-92329000D01*
X56325000Y-92329000D01*
X56325000Y-91504750D01*
X56166250Y-91346000D01*
X56052000Y-91342928D01*
X55927518Y-91355188D01*
X55807820Y-91391498D01*
X55697506Y-91450463D01*
X55600815Y-91529815D01*
X55521463Y-91626506D01*
X55462498Y-91736820D01*
X55426188Y-91856518D01*
X55413928Y-91981000D01*
X52947929Y-91981000D01*
X53000000Y-91719223D01*
X53000000Y-91160777D01*
X52891052Y-90613061D01*
X52677344Y-90097124D01*
X52367088Y-89632793D01*
X51972207Y-89237912D01*
X51507876Y-88927656D01*
X50991939Y-88713948D01*
X50444223Y-88605000D01*
X49885777Y-88605000D01*
X49338061Y-88713948D01*
X48822124Y-88927656D01*
X48357793Y-89237912D01*
X47962912Y-89632793D01*
X47652656Y-90097124D01*
X47650000Y-90103536D01*
X47650000Y-88392000D01*
X53941065Y-88392000D01*
X53949188Y-88474482D01*
X53985498Y-88594180D01*
X54044463Y-88704494D01*
X54123815Y-88801185D01*
X54220506Y-88880537D01*
X54330820Y-88939502D01*
X54450518Y-88975812D01*
X54575000Y-88988072D01*
X54739250Y-88985000D01*
X54898000Y-88826250D01*
X54898000Y-87727000D01*
X54878000Y-87727000D01*
X54878000Y-87473000D01*
X54898000Y-87473000D01*
X54898000Y-86373750D01*
X54739250Y-86215000D01*
X54575000Y-86211928D01*
X54450518Y-86224188D01*
X54330820Y-86260498D01*
X54220506Y-86319463D01*
X54123815Y-86398815D01*
X54102000Y-86425397D01*
X54102000Y-71274603D01*
X54123815Y-71301185D01*
X54220506Y-71380537D01*
X54330820Y-71439502D01*
X54450518Y-71475812D01*
X54575000Y-71488072D01*
X54739250Y-71485000D01*
X54898000Y-71326250D01*
X54898000Y-70227000D01*
X54878000Y-70227000D01*
X54878000Y-69973000D01*
X54898000Y-69973000D01*
X54898000Y-68873750D01*
X54739250Y-68715000D01*
X54575000Y-68711928D01*
X54450518Y-68724188D01*
X54330820Y-68760498D01*
X54220506Y-68819463D01*
X54123815Y-68898815D01*
X54044463Y-68995506D01*
X53994022Y-69089873D01*
X53975000Y-69088000D01*
X51656555Y-69088000D01*
X51972207Y-68877088D01*
X52367088Y-68482207D01*
X52677344Y-68017876D01*
X52891052Y-67501939D01*
X53000000Y-66954223D01*
X53000000Y-66395777D01*
X52922668Y-66007000D01*
X54714928Y-66007000D01*
X54727188Y-66131482D01*
X54763498Y-66251180D01*
X54822463Y-66361494D01*
X54901815Y-66458185D01*
X54998506Y-66537537D01*
X55108820Y-66596502D01*
X55228518Y-66632812D01*
X55353000Y-66645072D01*
X55467250Y-66642000D01*
X55626000Y-66483250D01*
X55626000Y-65659000D01*
X54876750Y-65659000D01*
X54718000Y-65817750D01*
X54714928Y-66007000D01*
X52922668Y-66007000D01*
X52891052Y-65848061D01*
X52677344Y-65332124D01*
X52493513Y-65057000D01*
X54714928Y-65057000D01*
X54718000Y-65246250D01*
X54876750Y-65405000D01*
X55626000Y-65405000D01*
X55626000Y-64580750D01*
X55467250Y-64422000D01*
X55353000Y-64418928D01*
X55228518Y-64431188D01*
X55108820Y-64467498D01*
X54998506Y-64526463D01*
X54901815Y-64605815D01*
X54822463Y-64702506D01*
X54763498Y-64812820D01*
X54727188Y-64932518D01*
X54714928Y-65057000D01*
X52493513Y-65057000D01*
X52367088Y-64867793D01*
X51972207Y-64472912D01*
X51507876Y-64162656D01*
X51501464Y-64160000D01*
X56788309Y-64160000D01*
X56784100Y-64181161D01*
%TA.AperFunction,Conductor*%
D26*
G36*
X56784100Y-64181161D02*
G01*
X56784100Y-64385039D01*
X56811099Y-64520772D01*
X56737392Y-64560169D01*
X56635410Y-64643863D01*
X56604185Y-64605815D01*
X56507494Y-64526463D01*
X56397180Y-64467498D01*
X56277482Y-64431188D01*
X56153000Y-64418928D01*
X56038750Y-64422000D01*
X55880000Y-64580750D01*
X55880000Y-65405000D01*
X55900000Y-65405000D01*
X55900000Y-65659000D01*
X55880000Y-65659000D01*
X55880000Y-66483250D01*
X56038750Y-66642000D01*
X56153000Y-66645072D01*
X56277482Y-66632812D01*
X56397180Y-66596502D01*
X56507494Y-66537537D01*
X56604185Y-66458185D01*
X56635410Y-66420137D01*
X56737392Y-66503831D01*
X56882284Y-66581278D01*
X57039500Y-66628969D01*
X57203000Y-66645072D01*
X57603000Y-66645072D01*
X57766500Y-66628969D01*
X57923716Y-66581278D01*
X58068608Y-66503831D01*
X58195606Y-66399606D01*
X58298771Y-66273900D01*
X59222192Y-66273900D01*
X59215928Y-66337500D01*
X59215928Y-66963270D01*
X57467271Y-68711928D01*
X57186100Y-68711928D01*
X57047747Y-68725555D01*
X56930000Y-68761273D01*
X56812253Y-68725555D01*
X56673900Y-68711928D01*
X55916100Y-68711928D01*
X55777747Y-68725555D01*
X55690868Y-68751910D01*
X55599482Y-68724188D01*
X55475000Y-68711928D01*
X55310750Y-68715000D01*
X55152000Y-68873750D01*
X55152000Y-69973000D01*
X55172000Y-69973000D01*
X55172000Y-70227000D01*
X55152000Y-70227000D01*
X55152000Y-71326250D01*
X55310750Y-71485000D01*
X55475000Y-71488072D01*
X55535001Y-71482163D01*
X55535001Y-71523668D01*
X55531324Y-71561000D01*
X55535001Y-71598333D01*
X55545998Y-71709986D01*
X55556710Y-71745299D01*
X55589454Y-71853246D01*
X55643300Y-71953984D01*
X55643300Y-72046239D01*
X55683074Y-72246198D01*
X55761095Y-72434556D01*
X55874363Y-72604074D01*
X56018526Y-72748237D01*
X56188044Y-72861505D01*
X56376402Y-72939526D01*
X56576361Y-72979300D01*
X56780239Y-72979300D01*
X56980198Y-72939526D01*
X57168556Y-72861505D01*
X57338074Y-72748237D01*
X57482237Y-72604074D01*
X57595505Y-72434556D01*
X57673526Y-72246198D01*
X57713300Y-72046239D01*
X57713300Y-71842361D01*
X57673526Y-71642402D01*
X57609600Y-71488072D01*
X57943900Y-71488072D01*
X58082253Y-71474445D01*
X58200000Y-71438727D01*
X58317747Y-71474445D01*
X58456100Y-71488072D01*
X59089900Y-71488072D01*
X59089901Y-79115432D01*
X58980144Y-79160895D01*
X58810626Y-79274163D01*
X58666463Y-79418326D01*
X58553195Y-79587844D01*
X58475174Y-79776202D01*
X58435400Y-79976161D01*
X58435400Y-80180039D01*
X58475174Y-80379998D01*
X58553195Y-80568356D01*
X58666463Y-80737874D01*
X58810626Y-80882037D01*
X58980144Y-80995305D01*
X59168502Y-81073326D01*
X59368461Y-81113100D01*
X59549597Y-81113100D01*
X59555298Y-81170986D01*
X59565782Y-81205547D01*
X59598754Y-81314246D01*
X59669326Y-81446276D01*
X59733913Y-81524974D01*
X59764300Y-81562001D01*
X59793298Y-81585799D01*
X61534498Y-83327000D01*
X59406125Y-83327000D01*
X59368800Y-83323324D01*
X59331475Y-83327000D01*
X59331467Y-83327000D01*
X59219814Y-83337997D01*
X59076553Y-83381454D01*
X58944524Y-83452026D01*
X58828799Y-83546999D01*
X58805001Y-83575997D01*
X56169071Y-86211928D01*
X55916100Y-86211928D01*
X55777747Y-86225555D01*
X55690868Y-86251910D01*
X55599482Y-86224188D01*
X55475000Y-86211928D01*
X55310750Y-86215000D01*
X55152000Y-86373750D01*
X55152000Y-87473000D01*
X55172000Y-87473000D01*
X55172000Y-87727000D01*
X55152000Y-87727000D01*
X55152000Y-88826250D01*
X55310750Y-88985000D01*
X55475000Y-88988072D01*
X55599482Y-88975812D01*
X55690868Y-88948090D01*
X55777747Y-88974445D01*
X55916100Y-88988072D01*
X56673900Y-88988072D01*
X56812253Y-88974445D01*
X56930000Y-88938727D01*
X57047747Y-88974445D01*
X57186100Y-88988072D01*
X57291127Y-88988072D01*
X56861198Y-89418001D01*
X56832200Y-89441799D01*
X56808402Y-89470797D01*
X56808401Y-89470798D01*
X56737226Y-89557524D01*
X56666654Y-89689554D01*
X56648895Y-89748101D01*
X56623198Y-89832814D01*
X56621203Y-89853072D01*
X56608524Y-89981800D01*
X56612201Y-90019132D01*
X56612201Y-91471549D01*
X56579000Y-91504750D01*
X56579000Y-92329000D01*
X56599000Y-92329000D01*
X56599000Y-92583000D01*
X56579000Y-92583000D01*
X56579000Y-93407250D01*
X56737750Y-93566000D01*
X56845727Y-93568903D01*
X56861203Y-93581604D01*
X57094196Y-93814597D01*
X57117999Y-93843601D01*
X57233724Y-93938574D01*
X57264454Y-93955000D01*
X51501464Y-93955000D01*
X51507876Y-93952344D01*
X51972207Y-93642088D01*
X52367088Y-93247207D01*
X52578370Y-92931000D01*
X55413928Y-92931000D01*
X55426188Y-93055482D01*
X55462498Y-93175180D01*
X55521463Y-93285494D01*
X55600815Y-93382185D01*
X55697506Y-93461537D01*
X55807820Y-93520502D01*
X55927518Y-93556812D01*
X56052000Y-93569072D01*
X56166250Y-93566000D01*
X56325000Y-93407250D01*
X56325000Y-92583000D01*
X55575750Y-92583000D01*
X55417000Y-92741750D01*
X55413928Y-92931000D01*
X52578370Y-92931000D01*
X52677344Y-92782876D01*
X52891052Y-92266939D01*
X52947929Y-91981000D01*
X55413928Y-91981000D01*
X55417000Y-92170250D01*
X55575750Y-92329000D01*
X56325000Y-92329000D01*
X56325000Y-91504750D01*
X56166250Y-91346000D01*
X56052000Y-91342928D01*
X55927518Y-91355188D01*
X55807820Y-91391498D01*
X55697506Y-91450463D01*
X55600815Y-91529815D01*
X55521463Y-91626506D01*
X55462498Y-91736820D01*
X55426188Y-91856518D01*
X55413928Y-91981000D01*
X52947929Y-91981000D01*
X53000000Y-91719223D01*
X53000000Y-91160777D01*
X52891052Y-90613061D01*
X52677344Y-90097124D01*
X52367088Y-89632793D01*
X51972207Y-89237912D01*
X51507876Y-88927656D01*
X50991939Y-88713948D01*
X50444223Y-88605000D01*
X49885777Y-88605000D01*
X49338061Y-88713948D01*
X48822124Y-88927656D01*
X48357793Y-89237912D01*
X47962912Y-89632793D01*
X47652656Y-90097124D01*
X47650000Y-90103536D01*
X47650000Y-88392000D01*
X53941065Y-88392000D01*
X53949188Y-88474482D01*
X53985498Y-88594180D01*
X54044463Y-88704494D01*
X54123815Y-88801185D01*
X54220506Y-88880537D01*
X54330820Y-88939502D01*
X54450518Y-88975812D01*
X54575000Y-88988072D01*
X54739250Y-88985000D01*
X54898000Y-88826250D01*
X54898000Y-87727000D01*
X54878000Y-87727000D01*
X54878000Y-87473000D01*
X54898000Y-87473000D01*
X54898000Y-86373750D01*
X54739250Y-86215000D01*
X54575000Y-86211928D01*
X54450518Y-86224188D01*
X54330820Y-86260498D01*
X54220506Y-86319463D01*
X54123815Y-86398815D01*
X54102000Y-86425397D01*
X54102000Y-71274603D01*
X54123815Y-71301185D01*
X54220506Y-71380537D01*
X54330820Y-71439502D01*
X54450518Y-71475812D01*
X54575000Y-71488072D01*
X54739250Y-71485000D01*
X54898000Y-71326250D01*
X54898000Y-70227000D01*
X54878000Y-70227000D01*
X54878000Y-69973000D01*
X54898000Y-69973000D01*
X54898000Y-68873750D01*
X54739250Y-68715000D01*
X54575000Y-68711928D01*
X54450518Y-68724188D01*
X54330820Y-68760498D01*
X54220506Y-68819463D01*
X54123815Y-68898815D01*
X54044463Y-68995506D01*
X53994022Y-69089873D01*
X53975000Y-69088000D01*
X51656555Y-69088000D01*
X51972207Y-68877088D01*
X52367088Y-68482207D01*
X52677344Y-68017876D01*
X52891052Y-67501939D01*
X53000000Y-66954223D01*
X53000000Y-66395777D01*
X52922668Y-66007000D01*
X54714928Y-66007000D01*
X54727188Y-66131482D01*
X54763498Y-66251180D01*
X54822463Y-66361494D01*
X54901815Y-66458185D01*
X54998506Y-66537537D01*
X55108820Y-66596502D01*
X55228518Y-66632812D01*
X55353000Y-66645072D01*
X55467250Y-66642000D01*
X55626000Y-66483250D01*
X55626000Y-65659000D01*
X54876750Y-65659000D01*
X54718000Y-65817750D01*
X54714928Y-66007000D01*
X52922668Y-66007000D01*
X52891052Y-65848061D01*
X52677344Y-65332124D01*
X52493513Y-65057000D01*
X54714928Y-65057000D01*
X54718000Y-65246250D01*
X54876750Y-65405000D01*
X55626000Y-65405000D01*
X55626000Y-64580750D01*
X55467250Y-64422000D01*
X55353000Y-64418928D01*
X55228518Y-64431188D01*
X55108820Y-64467498D01*
X54998506Y-64526463D01*
X54901815Y-64605815D01*
X54822463Y-64702506D01*
X54763498Y-64812820D01*
X54727188Y-64932518D01*
X54714928Y-65057000D01*
X52493513Y-65057000D01*
X52367088Y-64867793D01*
X51972207Y-64472912D01*
X51507876Y-64162656D01*
X51501464Y-64160000D01*
X56788309Y-64160000D01*
X56784100Y-64181161D01*
G37*
%TD.AperFunction*%
D25*
X102989326Y-66821837D02*
X103158844Y-66935105D01*
X103347202Y-67013126D01*
X103547161Y-67052900D01*
X103702298Y-67052900D01*
X98576298Y-72178901D01*
X98547300Y-72202699D01*
X98523502Y-72231697D01*
X98523501Y-72231698D01*
X98452326Y-72318424D01*
X98381754Y-72450454D01*
X98353811Y-72542574D01*
X98338298Y-72593714D01*
X98336463Y-72612346D01*
X98323624Y-72742700D01*
X98327301Y-72780033D01*
X98327300Y-90061972D01*
X98324180Y-90072258D01*
X98310998Y-90115714D01*
X98306912Y-90157203D01*
X98113368Y-90286525D01*
X97906525Y-90493368D01*
X97784805Y-90675534D01*
X97715178Y-90558645D01*
X97520269Y-90342412D01*
X97286920Y-90168359D01*
X97024099Y-90043175D01*
X96876890Y-89998524D01*
X96647000Y-90119845D01*
X96647000Y-91313000D01*
X96667000Y-91313000D01*
X96667000Y-91567000D01*
X96647000Y-91567000D01*
X96647000Y-92760155D01*
X96876890Y-92881476D01*
X97024099Y-92836825D01*
X97286920Y-92711641D01*
X97520269Y-92537588D01*
X97715178Y-92321355D01*
X97784805Y-92204466D01*
X97906525Y-92386632D01*
X98113368Y-92593475D01*
X98356589Y-92755990D01*
X98626842Y-92867932D01*
X98913740Y-92925000D01*
X99206260Y-92925000D01*
X99426408Y-92881209D01*
X100500198Y-93955000D01*
X71381946Y-93955000D01*
X71412676Y-93938574D01*
X71528401Y-93843601D01*
X71552204Y-93814597D01*
X72749311Y-92617491D01*
X72956589Y-92755990D01*
X73226842Y-92867932D01*
X73513740Y-92925000D01*
X73806260Y-92925000D01*
X74093158Y-92867932D01*
X74363411Y-92755990D01*
X74606632Y-92593475D01*
X74813475Y-92386632D01*
X74930000Y-92212240D01*
X75046525Y-92386632D01*
X75253368Y-92593475D01*
X75496589Y-92755990D01*
X75766842Y-92867932D01*
X76053740Y-92925000D01*
X76346260Y-92925000D01*
X76633158Y-92867932D01*
X76903411Y-92755990D01*
X77146632Y-92593475D01*
X77353475Y-92386632D01*
X77470000Y-92212240D01*
X77586525Y-92386632D01*
X77793368Y-92593475D01*
X78036589Y-92755990D01*
X78306842Y-92867932D01*
X78593740Y-92925000D01*
X78886260Y-92925000D01*
X79173158Y-92867932D01*
X79443411Y-92755990D01*
X79686632Y-92593475D01*
X79893475Y-92386632D01*
X80010000Y-92212240D01*
X80126525Y-92386632D01*
X80333368Y-92593475D01*
X80576589Y-92755990D01*
X80846842Y-92867932D01*
X81133740Y-92925000D01*
X81426260Y-92925000D01*
X81713158Y-92867932D01*
X81983411Y-92755990D01*
X82226632Y-92593475D01*
X82433475Y-92386632D01*
X82550000Y-92212240D01*
X82666525Y-92386632D01*
X82873368Y-92593475D01*
X83116589Y-92755990D01*
X83386842Y-92867932D01*
X83673740Y-92925000D01*
X83966260Y-92925000D01*
X84253158Y-92867932D01*
X84523411Y-92755990D01*
X84766632Y-92593475D01*
X84973475Y-92386632D01*
X85090000Y-92212240D01*
X85206525Y-92386632D01*
X85413368Y-92593475D01*
X85656589Y-92755990D01*
X85926842Y-92867932D01*
X86213740Y-92925000D01*
X86506260Y-92925000D01*
X86793158Y-92867932D01*
X87063411Y-92755990D01*
X87306632Y-92593475D01*
X87513475Y-92386632D01*
X87630000Y-92212240D01*
X87746525Y-92386632D01*
X87953368Y-92593475D01*
X88196589Y-92755990D01*
X88466842Y-92867932D01*
X88753740Y-92925000D01*
X89046260Y-92925000D01*
X89333158Y-92867932D01*
X89603411Y-92755990D01*
X89846632Y-92593475D01*
X90053475Y-92386632D01*
X90170000Y-92212240D01*
X90286525Y-92386632D01*
X90493368Y-92593475D01*
X90736589Y-92755990D01*
X91006842Y-92867932D01*
X91293740Y-92925000D01*
X91586260Y-92925000D01*
X91873158Y-92867932D01*
X92143411Y-92755990D01*
X92386632Y-92593475D01*
X92593475Y-92386632D01*
X92715195Y-92204466D01*
X92784822Y-92321355D01*
X92979731Y-92537588D01*
X93213080Y-92711641D01*
X93475901Y-92836825D01*
X93623110Y-92881476D01*
X93853000Y-92760155D01*
X93853000Y-91567000D01*
X94107000Y-91567000D01*
X94107000Y-92760155D01*
X94336890Y-92881476D01*
X94484099Y-92836825D01*
X94746920Y-92711641D01*
X94980269Y-92537588D01*
X95175178Y-92321355D01*
X95250000Y-92195745D01*
X95324822Y-92321355D01*
X95519731Y-92537588D01*
X95753080Y-92711641D01*
X96015901Y-92836825D01*
X96163110Y-92881476D01*
X96393000Y-92760155D01*
X96393000Y-91567000D01*
X94107000Y-91567000D01*
X93853000Y-91567000D01*
X93833000Y-91567000D01*
X93833000Y-91313000D01*
X93853000Y-91313000D01*
X93853000Y-90119845D01*
X94107000Y-90119845D01*
X94107000Y-91313000D01*
X96393000Y-91313000D01*
X96393000Y-90119845D01*
X96163110Y-89998524D01*
X96015901Y-90043175D01*
X95753080Y-90168359D01*
X95519731Y-90342412D01*
X95324822Y-90558645D01*
X95250000Y-90684255D01*
X95175178Y-90558645D01*
X94980269Y-90342412D01*
X94746920Y-90168359D01*
X94484099Y-90043175D01*
X94336890Y-89998524D01*
X94107000Y-90119845D01*
X93853000Y-90119845D01*
X93623110Y-89998524D01*
X93475901Y-90043175D01*
X93213080Y-90168359D01*
X92979731Y-90342412D01*
X92784822Y-90558645D01*
X92715195Y-90675534D01*
X92593475Y-90493368D01*
X92441065Y-90340958D01*
X92456001Y-90328701D01*
X92550974Y-90212976D01*
X92621546Y-90080947D01*
X92665003Y-89937686D01*
X92676000Y-89826033D01*
X92676000Y-89826025D01*
X92679676Y-89788700D01*
X92676000Y-89751375D01*
X92676000Y-81617011D01*
X92719937Y-81573074D01*
X92833205Y-81403556D01*
X92911226Y-81215198D01*
X92951000Y-81015239D01*
X92951000Y-80811361D01*
X92911226Y-80611402D01*
X92833205Y-80423044D01*
X92719937Y-80253526D01*
X92676000Y-80209589D01*
X92676000Y-77214101D01*
X102111003Y-67779099D01*
X102140001Y-67755301D01*
X102183333Y-67702501D01*
X102234974Y-67639577D01*
X102305546Y-67507547D01*
X102314053Y-67479502D01*
X102349003Y-67364286D01*
X102353089Y-67322796D01*
X102546632Y-67193475D01*
X102753475Y-66986632D01*
X102882796Y-66793089D01*
X102924286Y-66789003D01*
X102948996Y-66781507D01*
X102989326Y-66821837D01*
%TA.AperFunction,Conductor*%
D26*
G36*
X102989326Y-66821837D02*
G01*
X103158844Y-66935105D01*
X103347202Y-67013126D01*
X103547161Y-67052900D01*
X103702298Y-67052900D01*
X98576298Y-72178901D01*
X98547300Y-72202699D01*
X98523502Y-72231697D01*
X98523501Y-72231698D01*
X98452326Y-72318424D01*
X98381754Y-72450454D01*
X98353811Y-72542574D01*
X98338298Y-72593714D01*
X98336463Y-72612346D01*
X98323624Y-72742700D01*
X98327301Y-72780033D01*
X98327300Y-90061972D01*
X98324180Y-90072258D01*
X98310998Y-90115714D01*
X98306912Y-90157203D01*
X98113368Y-90286525D01*
X97906525Y-90493368D01*
X97784805Y-90675534D01*
X97715178Y-90558645D01*
X97520269Y-90342412D01*
X97286920Y-90168359D01*
X97024099Y-90043175D01*
X96876890Y-89998524D01*
X96647000Y-90119845D01*
X96647000Y-91313000D01*
X96667000Y-91313000D01*
X96667000Y-91567000D01*
X96647000Y-91567000D01*
X96647000Y-92760155D01*
X96876890Y-92881476D01*
X97024099Y-92836825D01*
X97286920Y-92711641D01*
X97520269Y-92537588D01*
X97715178Y-92321355D01*
X97784805Y-92204466D01*
X97906525Y-92386632D01*
X98113368Y-92593475D01*
X98356589Y-92755990D01*
X98626842Y-92867932D01*
X98913740Y-92925000D01*
X99206260Y-92925000D01*
X99426408Y-92881209D01*
X100500198Y-93955000D01*
X71381946Y-93955000D01*
X71412676Y-93938574D01*
X71528401Y-93843601D01*
X71552204Y-93814597D01*
X72749311Y-92617491D01*
X72956589Y-92755990D01*
X73226842Y-92867932D01*
X73513740Y-92925000D01*
X73806260Y-92925000D01*
X74093158Y-92867932D01*
X74363411Y-92755990D01*
X74606632Y-92593475D01*
X74813475Y-92386632D01*
X74930000Y-92212240D01*
X75046525Y-92386632D01*
X75253368Y-92593475D01*
X75496589Y-92755990D01*
X75766842Y-92867932D01*
X76053740Y-92925000D01*
X76346260Y-92925000D01*
X76633158Y-92867932D01*
X76903411Y-92755990D01*
X77146632Y-92593475D01*
X77353475Y-92386632D01*
X77470000Y-92212240D01*
X77586525Y-92386632D01*
X77793368Y-92593475D01*
X78036589Y-92755990D01*
X78306842Y-92867932D01*
X78593740Y-92925000D01*
X78886260Y-92925000D01*
X79173158Y-92867932D01*
X79443411Y-92755990D01*
X79686632Y-92593475D01*
X79893475Y-92386632D01*
X80010000Y-92212240D01*
X80126525Y-92386632D01*
X80333368Y-92593475D01*
X80576589Y-92755990D01*
X80846842Y-92867932D01*
X81133740Y-92925000D01*
X81426260Y-92925000D01*
X81713158Y-92867932D01*
X81983411Y-92755990D01*
X82226632Y-92593475D01*
X82433475Y-92386632D01*
X82550000Y-92212240D01*
X82666525Y-92386632D01*
X82873368Y-92593475D01*
X83116589Y-92755990D01*
X83386842Y-92867932D01*
X83673740Y-92925000D01*
X83966260Y-92925000D01*
X84253158Y-92867932D01*
X84523411Y-92755990D01*
X84766632Y-92593475D01*
X84973475Y-92386632D01*
X85090000Y-92212240D01*
X85206525Y-92386632D01*
X85413368Y-92593475D01*
X85656589Y-92755990D01*
X85926842Y-92867932D01*
X86213740Y-92925000D01*
X86506260Y-92925000D01*
X86793158Y-92867932D01*
X87063411Y-92755990D01*
X87306632Y-92593475D01*
X87513475Y-92386632D01*
X87630000Y-92212240D01*
X87746525Y-92386632D01*
X87953368Y-92593475D01*
X88196589Y-92755990D01*
X88466842Y-92867932D01*
X88753740Y-92925000D01*
X89046260Y-92925000D01*
X89333158Y-92867932D01*
X89603411Y-92755990D01*
X89846632Y-92593475D01*
X90053475Y-92386632D01*
X90170000Y-92212240D01*
X90286525Y-92386632D01*
X90493368Y-92593475D01*
X90736589Y-92755990D01*
X91006842Y-92867932D01*
X91293740Y-92925000D01*
X91586260Y-92925000D01*
X91873158Y-92867932D01*
X92143411Y-92755990D01*
X92386632Y-92593475D01*
X92593475Y-92386632D01*
X92715195Y-92204466D01*
X92784822Y-92321355D01*
X92979731Y-92537588D01*
X93213080Y-92711641D01*
X93475901Y-92836825D01*
X93623110Y-92881476D01*
X93853000Y-92760155D01*
X93853000Y-91567000D01*
X94107000Y-91567000D01*
X94107000Y-92760155D01*
X94336890Y-92881476D01*
X94484099Y-92836825D01*
X94746920Y-92711641D01*
X94980269Y-92537588D01*
X95175178Y-92321355D01*
X95250000Y-92195745D01*
X95324822Y-92321355D01*
X95519731Y-92537588D01*
X95753080Y-92711641D01*
X96015901Y-92836825D01*
X96163110Y-92881476D01*
X96393000Y-92760155D01*
X96393000Y-91567000D01*
X94107000Y-91567000D01*
X93853000Y-91567000D01*
X93833000Y-91567000D01*
X93833000Y-91313000D01*
X93853000Y-91313000D01*
X93853000Y-90119845D01*
X94107000Y-90119845D01*
X94107000Y-91313000D01*
X96393000Y-91313000D01*
X96393000Y-90119845D01*
X96163110Y-89998524D01*
X96015901Y-90043175D01*
X95753080Y-90168359D01*
X95519731Y-90342412D01*
X95324822Y-90558645D01*
X95250000Y-90684255D01*
X95175178Y-90558645D01*
X94980269Y-90342412D01*
X94746920Y-90168359D01*
X94484099Y-90043175D01*
X94336890Y-89998524D01*
X94107000Y-90119845D01*
X93853000Y-90119845D01*
X93623110Y-89998524D01*
X93475901Y-90043175D01*
X93213080Y-90168359D01*
X92979731Y-90342412D01*
X92784822Y-90558645D01*
X92715195Y-90675534D01*
X92593475Y-90493368D01*
X92441065Y-90340958D01*
X92456001Y-90328701D01*
X92550974Y-90212976D01*
X92621546Y-90080947D01*
X92665003Y-89937686D01*
X92676000Y-89826033D01*
X92676000Y-89826025D01*
X92679676Y-89788700D01*
X92676000Y-89751375D01*
X92676000Y-81617011D01*
X92719937Y-81573074D01*
X92833205Y-81403556D01*
X92911226Y-81215198D01*
X92951000Y-81015239D01*
X92951000Y-80811361D01*
X92911226Y-80611402D01*
X92833205Y-80423044D01*
X92719937Y-80253526D01*
X92676000Y-80209589D01*
X92676000Y-77214101D01*
X102111003Y-67779099D01*
X102140001Y-67755301D01*
X102183333Y-67702501D01*
X102234974Y-67639577D01*
X102305546Y-67507547D01*
X102314053Y-67479502D01*
X102349003Y-67364286D01*
X102353089Y-67322796D01*
X102546632Y-67193475D01*
X102753475Y-66986632D01*
X102882796Y-66793089D01*
X102924286Y-66789003D01*
X102948996Y-66781507D01*
X102989326Y-66821837D01*
G37*
%TD.AperFunction*%
D25*
X118237000Y-92088000D02*
X118257000Y-92088000D01*
X118257000Y-92342000D01*
X118237000Y-92342000D01*
X118237000Y-93141250D01*
X118395750Y-93300000D01*
X118585000Y-93303072D01*
X118709482Y-93290812D01*
X118829180Y-93254502D01*
X118939494Y-93195537D01*
X119036185Y-93116185D01*
X119115537Y-93019494D01*
X119174502Y-92909180D01*
X119210812Y-92789482D01*
X119223072Y-92665000D01*
X119220000Y-92500750D01*
X119061252Y-92342002D01*
X119220000Y-92342002D01*
X119220000Y-92329834D01*
X119407656Y-92782876D01*
X119717912Y-93247207D01*
X120112793Y-93642088D01*
X120577124Y-93952344D01*
X120583536Y-93955000D01*
X114664601Y-93955000D01*
X115302466Y-93317135D01*
X115380518Y-93340812D01*
X115505000Y-93353072D01*
X116565000Y-93353072D01*
X116689482Y-93340812D01*
X116809180Y-93304502D01*
X116919494Y-93245537D01*
X117016185Y-93166185D01*
X117038423Y-93139088D01*
X117039286Y-93139003D01*
X117170000Y-93099352D01*
X117183815Y-93116185D01*
X117280506Y-93195537D01*
X117390820Y-93254502D01*
X117510518Y-93290812D01*
X117635000Y-93303072D01*
X117824250Y-93300000D01*
X117983000Y-93141250D01*
X117983000Y-92342000D01*
X117963000Y-92342000D01*
X117963000Y-92088000D01*
X117983000Y-92088000D01*
X117983000Y-92068000D01*
X118237000Y-92068000D01*
X118237000Y-92088000D01*
%TA.AperFunction,Conductor*%
D26*
G36*
X118237000Y-92088000D02*
G01*
X118257000Y-92088000D01*
X118257000Y-92342000D01*
X118237000Y-92342000D01*
X118237000Y-93141250D01*
X118395750Y-93300000D01*
X118585000Y-93303072D01*
X118709482Y-93290812D01*
X118829180Y-93254502D01*
X118939494Y-93195537D01*
X119036185Y-93116185D01*
X119115537Y-93019494D01*
X119174502Y-92909180D01*
X119210812Y-92789482D01*
X119223072Y-92665000D01*
X119220000Y-92500750D01*
X119061252Y-92342002D01*
X119220000Y-92342002D01*
X119220000Y-92329834D01*
X119407656Y-92782876D01*
X119717912Y-93247207D01*
X120112793Y-93642088D01*
X120577124Y-93952344D01*
X120583536Y-93955000D01*
X114664601Y-93955000D01*
X115302466Y-93317135D01*
X115380518Y-93340812D01*
X115505000Y-93353072D01*
X116565000Y-93353072D01*
X116689482Y-93340812D01*
X116809180Y-93304502D01*
X116919494Y-93245537D01*
X117016185Y-93166185D01*
X117038423Y-93139088D01*
X117039286Y-93139003D01*
X117170000Y-93099352D01*
X117183815Y-93116185D01*
X117280506Y-93195537D01*
X117390820Y-93254502D01*
X117510518Y-93290812D01*
X117635000Y-93303072D01*
X117824250Y-93300000D01*
X117983000Y-93141250D01*
X117983000Y-92342000D01*
X117963000Y-92342000D01*
X117963000Y-92088000D01*
X117983000Y-92088000D01*
X117983000Y-92068000D01*
X118237000Y-92068000D01*
X118237000Y-92088000D01*
G37*
%TD.AperFunction*%
D25*
X110325700Y-92248000D02*
X110109000Y-92248000D01*
X110109000Y-92228000D01*
X110089000Y-92228000D01*
X110089000Y-91974000D01*
X110109000Y-91974000D01*
X110109000Y-91954000D01*
X110325700Y-91954000D01*
X110325700Y-92248000D01*
%TA.AperFunction,Conductor*%
D26*
G36*
X110325700Y-92248000D02*
G01*
X110109000Y-92248000D01*
X110109000Y-92228000D01*
X110089000Y-92228000D01*
X110089000Y-91974000D01*
X110109000Y-91974000D01*
X110109000Y-91954000D01*
X110325700Y-91954000D01*
X110325700Y-92248000D01*
G37*
%TD.AperFunction*%
D25*
X112014000Y-91948000D02*
X112034000Y-91948000D01*
X112034000Y-92091300D01*
X111845700Y-92091300D01*
X111845700Y-91928000D01*
X112014000Y-91928000D01*
X112014000Y-91948000D01*
%TA.AperFunction,Conductor*%
D26*
G36*
X112014000Y-91948000D02*
G01*
X112034000Y-91948000D01*
X112034000Y-92091300D01*
X111845700Y-92091300D01*
X111845700Y-91928000D01*
X112014000Y-91928000D01*
X112014000Y-91948000D01*
G37*
%TD.AperFunction*%
D25*
X113686288Y-84367661D02*
X113634699Y-84409999D01*
X113610901Y-84438997D01*
X109724998Y-88324901D01*
X109696000Y-88348699D01*
X109672202Y-88377697D01*
X109672201Y-88377698D01*
X109601026Y-88464424D01*
X109530454Y-88596454D01*
X109501744Y-88691102D01*
X109486998Y-88739714D01*
X109480944Y-88801185D01*
X109472324Y-88888700D01*
X109476001Y-88926032D01*
X109476001Y-89633415D01*
X109387109Y-89706366D01*
X109299494Y-89634463D01*
X109189180Y-89575498D01*
X109069482Y-89539188D01*
X108945000Y-89526928D01*
X107885000Y-89526928D01*
X107760518Y-89539188D01*
X107640820Y-89575498D01*
X107530506Y-89634463D01*
X107433815Y-89713815D01*
X107371789Y-89789394D01*
X107362547Y-89784454D01*
X107219286Y-89740997D01*
X107218423Y-89740912D01*
X107196185Y-89713815D01*
X107099494Y-89634463D01*
X106989180Y-89575498D01*
X106869482Y-89539188D01*
X106745000Y-89526928D01*
X105685000Y-89526928D01*
X105560518Y-89539188D01*
X105440820Y-89575498D01*
X105330506Y-89634463D01*
X105233815Y-89713815D01*
X105218208Y-89732833D01*
X105120482Y-89703188D01*
X104996000Y-89690928D01*
X104806750Y-89694000D01*
X104648000Y-89852750D01*
X104648000Y-90652000D01*
X104668000Y-90652000D01*
X104668000Y-90906000D01*
X104648000Y-90906000D01*
X104648000Y-90926000D01*
X104394000Y-90926000D01*
X104394000Y-90906000D01*
X103569750Y-90906000D01*
X103411000Y-91064750D01*
X103407928Y-91229000D01*
X103420188Y-91353482D01*
X103456498Y-91473180D01*
X103515463Y-91583494D01*
X103551700Y-91627649D01*
X103473625Y-91773717D01*
X103439504Y-91886200D01*
X103022530Y-91886200D01*
X103027932Y-91873158D01*
X103085000Y-91586260D01*
X103085000Y-91293740D01*
X103027932Y-91006842D01*
X102915990Y-90736589D01*
X102753475Y-90493368D01*
X102652404Y-90392297D01*
X102715701Y-90329000D01*
X103407928Y-90329000D01*
X103411000Y-90493250D01*
X103569750Y-90652000D01*
X104394000Y-90652000D01*
X104394000Y-89852750D01*
X104235250Y-89694000D01*
X104046000Y-89690928D01*
X103921518Y-89703188D01*
X103801820Y-89739498D01*
X103691506Y-89798463D01*
X103594815Y-89877815D01*
X103515463Y-89974506D01*
X103456498Y-90084820D01*
X103420188Y-90204518D01*
X103407928Y-90329000D01*
X102715701Y-90329000D01*
X108714802Y-84329900D01*
X113732299Y-84329900D01*
X113686288Y-84367661D01*
%TA.AperFunction,Conductor*%
D26*
G36*
X113686288Y-84367661D02*
G01*
X113634699Y-84409999D01*
X113610901Y-84438997D01*
X109724998Y-88324901D01*
X109696000Y-88348699D01*
X109672202Y-88377697D01*
X109672201Y-88377698D01*
X109601026Y-88464424D01*
X109530454Y-88596454D01*
X109501744Y-88691102D01*
X109486998Y-88739714D01*
X109480944Y-88801185D01*
X109472324Y-88888700D01*
X109476001Y-88926032D01*
X109476001Y-89633415D01*
X109387109Y-89706366D01*
X109299494Y-89634463D01*
X109189180Y-89575498D01*
X109069482Y-89539188D01*
X108945000Y-89526928D01*
X107885000Y-89526928D01*
X107760518Y-89539188D01*
X107640820Y-89575498D01*
X107530506Y-89634463D01*
X107433815Y-89713815D01*
X107371789Y-89789394D01*
X107362547Y-89784454D01*
X107219286Y-89740997D01*
X107218423Y-89740912D01*
X107196185Y-89713815D01*
X107099494Y-89634463D01*
X106989180Y-89575498D01*
X106869482Y-89539188D01*
X106745000Y-89526928D01*
X105685000Y-89526928D01*
X105560518Y-89539188D01*
X105440820Y-89575498D01*
X105330506Y-89634463D01*
X105233815Y-89713815D01*
X105218208Y-89732833D01*
X105120482Y-89703188D01*
X104996000Y-89690928D01*
X104806750Y-89694000D01*
X104648000Y-89852750D01*
X104648000Y-90652000D01*
X104668000Y-90652000D01*
X104668000Y-90906000D01*
X104648000Y-90906000D01*
X104648000Y-90926000D01*
X104394000Y-90926000D01*
X104394000Y-90906000D01*
X103569750Y-90906000D01*
X103411000Y-91064750D01*
X103407928Y-91229000D01*
X103420188Y-91353482D01*
X103456498Y-91473180D01*
X103515463Y-91583494D01*
X103551700Y-91627649D01*
X103473625Y-91773717D01*
X103439504Y-91886200D01*
X103022530Y-91886200D01*
X103027932Y-91873158D01*
X103085000Y-91586260D01*
X103085000Y-91293740D01*
X103027932Y-91006842D01*
X102915990Y-90736589D01*
X102753475Y-90493368D01*
X102652404Y-90392297D01*
X102715701Y-90329000D01*
X103407928Y-90329000D01*
X103411000Y-90493250D01*
X103569750Y-90652000D01*
X104394000Y-90652000D01*
X104394000Y-89852750D01*
X104235250Y-89694000D01*
X104046000Y-89690928D01*
X103921518Y-89703188D01*
X103801820Y-89739498D01*
X103691506Y-89798463D01*
X103594815Y-89877815D01*
X103515463Y-89974506D01*
X103456498Y-90084820D01*
X103420188Y-90204518D01*
X103407928Y-90329000D01*
X102715701Y-90329000D01*
X108714802Y-84329900D01*
X113732299Y-84329900D01*
X113686288Y-84367661D01*
G37*
%TD.AperFunction*%
D25*
X124435000Y-81847225D02*
X124347369Y-81712236D01*
X124191169Y-81551839D01*
X124006678Y-81424997D01*
X123800987Y-81336585D01*
X123582000Y-81290000D01*
X123282000Y-81290000D01*
X123282000Y-82298000D01*
X123302000Y-82298000D01*
X123302000Y-82552000D01*
X123282000Y-82552000D01*
X123282000Y-83560000D01*
X123582000Y-83560000D01*
X123800987Y-83513415D01*
X124006678Y-83425003D01*
X124191169Y-83298161D01*
X124347369Y-83137764D01*
X124435000Y-83002775D01*
X124435000Y-90103536D01*
X124432344Y-90097124D01*
X124122088Y-89632793D01*
X123727207Y-89237912D01*
X123262876Y-88927656D01*
X122746939Y-88713948D01*
X122199223Y-88605000D01*
X121640777Y-88605000D01*
X121093061Y-88713948D01*
X120577124Y-88927656D01*
X120112793Y-89237912D01*
X119717912Y-89632793D01*
X119451900Y-90030908D01*
X119451900Y-86316350D01*
X119473000Y-86295250D01*
X119473000Y-85471000D01*
X119727000Y-85471000D01*
X119727000Y-86295250D01*
X119885750Y-86454000D01*
X120000000Y-86457072D01*
X120124482Y-86444812D01*
X120244180Y-86408502D01*
X120354494Y-86349537D01*
X120451185Y-86270185D01*
X120530537Y-86173494D01*
X120589502Y-86063180D01*
X120625812Y-85943482D01*
X120638072Y-85819000D01*
X120636043Y-85693967D01*
X121035000Y-85693967D01*
X121035000Y-86016033D01*
X121097832Y-86331912D01*
X121221082Y-86629463D01*
X121400013Y-86897252D01*
X121627748Y-87124987D01*
X121895537Y-87303918D01*
X122193088Y-87427168D01*
X122508967Y-87490000D01*
X122831033Y-87490000D01*
X123146912Y-87427168D01*
X123444463Y-87303918D01*
X123712252Y-87124987D01*
X123939987Y-86897252D01*
X124118918Y-86629463D01*
X124242168Y-86331912D01*
X124305000Y-86016033D01*
X124305000Y-85693967D01*
X124242168Y-85378088D01*
X124118918Y-85080537D01*
X123939987Y-84812748D01*
X123712252Y-84585013D01*
X123444463Y-84406082D01*
X123146912Y-84282832D01*
X122831033Y-84220000D01*
X122508967Y-84220000D01*
X122193088Y-84282832D01*
X121895537Y-84406082D01*
X121627748Y-84585013D01*
X121400013Y-84812748D01*
X121221082Y-85080537D01*
X121097832Y-85378088D01*
X121035000Y-85693967D01*
X120636043Y-85693967D01*
X120635000Y-85629750D01*
X120476250Y-85471000D01*
X119727000Y-85471000D01*
X119473000Y-85471000D01*
X119453000Y-85471000D01*
X119453000Y-85348323D01*
X119604323Y-85197000D01*
X119727000Y-85197000D01*
X119727000Y-85217000D01*
X120476250Y-85217000D01*
X120635000Y-85058250D01*
X120638072Y-84869000D01*
X120625812Y-84744518D01*
X120589502Y-84624820D01*
X120530537Y-84514506D01*
X120451185Y-84417815D01*
X120414014Y-84387310D01*
X120861013Y-83940311D01*
X120890011Y-83916513D01*
X120984984Y-83800788D01*
X121055556Y-83668759D01*
X121099013Y-83525498D01*
X121110010Y-83413845D01*
X121110010Y-83413837D01*
X121113686Y-83376512D01*
X121110010Y-83339187D01*
X121110010Y-82726874D01*
X121760881Y-82726874D01*
X121840724Y-82949976D01*
X121962631Y-83137764D01*
X122118831Y-83298161D01*
X122303322Y-83425003D01*
X122509013Y-83513415D01*
X122728000Y-83560000D01*
X123028000Y-83560000D01*
X123028000Y-82552000D01*
X121887046Y-82552000D01*
X121760881Y-82726874D01*
X121110010Y-82726874D01*
X121110010Y-82141304D01*
X121111800Y-82123126D01*
X121760881Y-82123126D01*
X121887046Y-82298000D01*
X123028000Y-82298000D01*
X123028000Y-81290000D01*
X122728000Y-81290000D01*
X122509013Y-81336585D01*
X122303322Y-81424997D01*
X122118831Y-81551839D01*
X121962631Y-81712236D01*
X121840724Y-81900024D01*
X121760881Y-82123126D01*
X121111800Y-82123126D01*
X121113686Y-82103981D01*
X121110010Y-82066659D01*
X121110010Y-82066648D01*
X121099013Y-81954995D01*
X121084999Y-81908796D01*
X121084999Y-80587324D01*
X121088675Y-80549999D01*
X121084999Y-80512674D01*
X121084999Y-80512666D01*
X121074002Y-80401013D01*
X121030545Y-80257752D01*
X120959973Y-80125723D01*
X120865000Y-80009998D01*
X120835997Y-79986196D01*
X120683803Y-79834002D01*
X120660000Y-79804998D01*
X120544275Y-79710025D01*
X120412246Y-79639453D01*
X120268985Y-79595996D01*
X120157332Y-79584999D01*
X120157321Y-79584999D01*
X120119999Y-79581323D01*
X120082677Y-79584999D01*
X119640193Y-79584999D01*
X119643438Y-79552052D01*
X119759576Y-79489974D01*
X119875301Y-79395001D01*
X119970274Y-79279276D01*
X120040846Y-79147247D01*
X120084303Y-79003986D01*
X120095300Y-78892333D01*
X120098977Y-78855000D01*
X120095300Y-78817667D01*
X120095300Y-78615000D01*
X120547378Y-78615000D01*
X120584700Y-78618676D01*
X120622022Y-78615000D01*
X120622033Y-78615000D01*
X120733686Y-78604003D01*
X120876947Y-78560546D01*
X121008976Y-78489974D01*
X121124701Y-78395001D01*
X121148504Y-78365997D01*
X124435001Y-75079501D01*
X124435000Y-81847225D01*
%TA.AperFunction,Conductor*%
D26*
G36*
X124435000Y-81847225D02*
G01*
X124347369Y-81712236D01*
X124191169Y-81551839D01*
X124006678Y-81424997D01*
X123800987Y-81336585D01*
X123582000Y-81290000D01*
X123282000Y-81290000D01*
X123282000Y-82298000D01*
X123302000Y-82298000D01*
X123302000Y-82552000D01*
X123282000Y-82552000D01*
X123282000Y-83560000D01*
X123582000Y-83560000D01*
X123800987Y-83513415D01*
X124006678Y-83425003D01*
X124191169Y-83298161D01*
X124347369Y-83137764D01*
X124435000Y-83002775D01*
X124435000Y-90103536D01*
X124432344Y-90097124D01*
X124122088Y-89632793D01*
X123727207Y-89237912D01*
X123262876Y-88927656D01*
X122746939Y-88713948D01*
X122199223Y-88605000D01*
X121640777Y-88605000D01*
X121093061Y-88713948D01*
X120577124Y-88927656D01*
X120112793Y-89237912D01*
X119717912Y-89632793D01*
X119451900Y-90030908D01*
X119451900Y-86316350D01*
X119473000Y-86295250D01*
X119473000Y-85471000D01*
X119727000Y-85471000D01*
X119727000Y-86295250D01*
X119885750Y-86454000D01*
X120000000Y-86457072D01*
X120124482Y-86444812D01*
X120244180Y-86408502D01*
X120354494Y-86349537D01*
X120451185Y-86270185D01*
X120530537Y-86173494D01*
X120589502Y-86063180D01*
X120625812Y-85943482D01*
X120638072Y-85819000D01*
X120636043Y-85693967D01*
X121035000Y-85693967D01*
X121035000Y-86016033D01*
X121097832Y-86331912D01*
X121221082Y-86629463D01*
X121400013Y-86897252D01*
X121627748Y-87124987D01*
X121895537Y-87303918D01*
X122193088Y-87427168D01*
X122508967Y-87490000D01*
X122831033Y-87490000D01*
X123146912Y-87427168D01*
X123444463Y-87303918D01*
X123712252Y-87124987D01*
X123939987Y-86897252D01*
X124118918Y-86629463D01*
X124242168Y-86331912D01*
X124305000Y-86016033D01*
X124305000Y-85693967D01*
X124242168Y-85378088D01*
X124118918Y-85080537D01*
X123939987Y-84812748D01*
X123712252Y-84585013D01*
X123444463Y-84406082D01*
X123146912Y-84282832D01*
X122831033Y-84220000D01*
X122508967Y-84220000D01*
X122193088Y-84282832D01*
X121895537Y-84406082D01*
X121627748Y-84585013D01*
X121400013Y-84812748D01*
X121221082Y-85080537D01*
X121097832Y-85378088D01*
X121035000Y-85693967D01*
X120636043Y-85693967D01*
X120635000Y-85629750D01*
X120476250Y-85471000D01*
X119727000Y-85471000D01*
X119473000Y-85471000D01*
X119453000Y-85471000D01*
X119453000Y-85348323D01*
X119604323Y-85197000D01*
X119727000Y-85197000D01*
X119727000Y-85217000D01*
X120476250Y-85217000D01*
X120635000Y-85058250D01*
X120638072Y-84869000D01*
X120625812Y-84744518D01*
X120589502Y-84624820D01*
X120530537Y-84514506D01*
X120451185Y-84417815D01*
X120414014Y-84387310D01*
X120861013Y-83940311D01*
X120890011Y-83916513D01*
X120984984Y-83800788D01*
X121055556Y-83668759D01*
X121099013Y-83525498D01*
X121110010Y-83413845D01*
X121110010Y-83413837D01*
X121113686Y-83376512D01*
X121110010Y-83339187D01*
X121110010Y-82726874D01*
X121760881Y-82726874D01*
X121840724Y-82949976D01*
X121962631Y-83137764D01*
X122118831Y-83298161D01*
X122303322Y-83425003D01*
X122509013Y-83513415D01*
X122728000Y-83560000D01*
X123028000Y-83560000D01*
X123028000Y-82552000D01*
X121887046Y-82552000D01*
X121760881Y-82726874D01*
X121110010Y-82726874D01*
X121110010Y-82141304D01*
X121111800Y-82123126D01*
X121760881Y-82123126D01*
X121887046Y-82298000D01*
X123028000Y-82298000D01*
X123028000Y-81290000D01*
X122728000Y-81290000D01*
X122509013Y-81336585D01*
X122303322Y-81424997D01*
X122118831Y-81551839D01*
X121962631Y-81712236D01*
X121840724Y-81900024D01*
X121760881Y-82123126D01*
X121111800Y-82123126D01*
X121113686Y-82103981D01*
X121110010Y-82066659D01*
X121110010Y-82066648D01*
X121099013Y-81954995D01*
X121084999Y-81908796D01*
X121084999Y-80587324D01*
X121088675Y-80549999D01*
X121084999Y-80512674D01*
X121084999Y-80512666D01*
X121074002Y-80401013D01*
X121030545Y-80257752D01*
X120959973Y-80125723D01*
X120865000Y-80009998D01*
X120835997Y-79986196D01*
X120683803Y-79834002D01*
X120660000Y-79804998D01*
X120544275Y-79710025D01*
X120412246Y-79639453D01*
X120268985Y-79595996D01*
X120157332Y-79584999D01*
X120157321Y-79584999D01*
X120119999Y-79581323D01*
X120082677Y-79584999D01*
X119640193Y-79584999D01*
X119643438Y-79552052D01*
X119759576Y-79489974D01*
X119875301Y-79395001D01*
X119970274Y-79279276D01*
X120040846Y-79147247D01*
X120084303Y-79003986D01*
X120095300Y-78892333D01*
X120098977Y-78855000D01*
X120095300Y-78817667D01*
X120095300Y-78615000D01*
X120547378Y-78615000D01*
X120584700Y-78618676D01*
X120622022Y-78615000D01*
X120622033Y-78615000D01*
X120733686Y-78604003D01*
X120876947Y-78560546D01*
X121008976Y-78489974D01*
X121124701Y-78395001D01*
X121148504Y-78365997D01*
X124435001Y-75079501D01*
X124435000Y-81847225D01*
G37*
%TD.AperFunction*%
D25*
X102590103Y-64929996D02*
X102546632Y-64886525D01*
X102303411Y-64724010D01*
X102033158Y-64612068D01*
X101746260Y-64555000D01*
X101453740Y-64555000D01*
X101166842Y-64612068D01*
X100896589Y-64724010D01*
X100653368Y-64886525D01*
X100446525Y-65093368D01*
X100324805Y-65275534D01*
X100255178Y-65158645D01*
X100060269Y-64942412D01*
X99826920Y-64768359D01*
X99564099Y-64643175D01*
X99416890Y-64598524D01*
X99187000Y-64719845D01*
X99187000Y-65913000D01*
X99207000Y-65913000D01*
X99207000Y-66167000D01*
X99187000Y-66167000D01*
X99187000Y-67360155D01*
X99416890Y-67481476D01*
X99564099Y-67436825D01*
X99826920Y-67311641D01*
X100060269Y-67137588D01*
X100255178Y-66921355D01*
X100324805Y-66804466D01*
X100446525Y-66986632D01*
X100600196Y-67140303D01*
X91404998Y-76335501D01*
X91376000Y-76359299D01*
X91352202Y-76388297D01*
X91352201Y-76388298D01*
X91281026Y-76475024D01*
X91210454Y-76607054D01*
X91184588Y-76692326D01*
X91166998Y-76750314D01*
X91161557Y-76805560D01*
X91152324Y-76899300D01*
X91156001Y-76936632D01*
X91156000Y-80209589D01*
X91112063Y-80253526D01*
X90998795Y-80423044D01*
X90920774Y-80611402D01*
X90881000Y-80811361D01*
X90881000Y-81015239D01*
X90920774Y-81215198D01*
X90998795Y-81403556D01*
X91112063Y-81573074D01*
X91156000Y-81617011D01*
X91156001Y-85827365D01*
X90950750Y-85830000D01*
X90792000Y-85988750D01*
X90792000Y-86663000D01*
X90812000Y-86663000D01*
X90812000Y-86917000D01*
X90792000Y-86917000D01*
X90792000Y-87591250D01*
X90950750Y-87750000D01*
X91156001Y-87752635D01*
X91156001Y-87926928D01*
X90140000Y-87926928D01*
X90015518Y-87939188D01*
X89895820Y-87975498D01*
X89785506Y-88034463D01*
X89688815Y-88113815D01*
X89675532Y-88130000D01*
X88189468Y-88130000D01*
X88176185Y-88113815D01*
X88079494Y-88034463D01*
X87969180Y-87975498D01*
X87849482Y-87939188D01*
X87725000Y-87926928D01*
X86675000Y-87926928D01*
X86550518Y-87939188D01*
X86430820Y-87975498D01*
X86320506Y-88034463D01*
X86223815Y-88113815D01*
X86201577Y-88140912D01*
X86200714Y-88140997D01*
X86061739Y-88183154D01*
X86057453Y-88184454D01*
X85925423Y-88255026D01*
X85863865Y-88305546D01*
X85809699Y-88349999D01*
X85785901Y-88378997D01*
X85585300Y-88579598D01*
X85585300Y-87115000D01*
X86036928Y-87115000D01*
X86049188Y-87239482D01*
X86085498Y-87359180D01*
X86144463Y-87469494D01*
X86223815Y-87566185D01*
X86320506Y-87645537D01*
X86430820Y-87704502D01*
X86550518Y-87740812D01*
X86675000Y-87753072D01*
X86914250Y-87750000D01*
X87073000Y-87591250D01*
X87073000Y-86917000D01*
X87327000Y-86917000D01*
X87327000Y-87591250D01*
X87485750Y-87750000D01*
X87725000Y-87753072D01*
X87849482Y-87740812D01*
X87969180Y-87704502D01*
X88079494Y-87645537D01*
X88176185Y-87566185D01*
X88255537Y-87469494D01*
X88314502Y-87359180D01*
X88350812Y-87239482D01*
X88363072Y-87115000D01*
X89501928Y-87115000D01*
X89514188Y-87239482D01*
X89550498Y-87359180D01*
X89609463Y-87469494D01*
X89688815Y-87566185D01*
X89785506Y-87645537D01*
X89895820Y-87704502D01*
X90015518Y-87740812D01*
X90140000Y-87753072D01*
X90379250Y-87750000D01*
X90538000Y-87591250D01*
X90538000Y-86917000D01*
X89663750Y-86917000D01*
X89505000Y-87075750D01*
X89501928Y-87115000D01*
X88363072Y-87115000D01*
X88360000Y-87075750D01*
X88201250Y-86917000D01*
X87327000Y-86917000D01*
X87073000Y-86917000D01*
X86198750Y-86917000D01*
X86040000Y-87075750D01*
X86036928Y-87115000D01*
X85585300Y-87115000D01*
X85585300Y-86465000D01*
X86036928Y-86465000D01*
X86040000Y-86504250D01*
X86198750Y-86663000D01*
X87073000Y-86663000D01*
X87073000Y-85988750D01*
X87327000Y-85988750D01*
X87327000Y-86663000D01*
X88201250Y-86663000D01*
X88360000Y-86504250D01*
X88363072Y-86465000D01*
X89501928Y-86465000D01*
X89505000Y-86504250D01*
X89663750Y-86663000D01*
X90538000Y-86663000D01*
X90538000Y-85988750D01*
X90379250Y-85830000D01*
X90140000Y-85826928D01*
X90015518Y-85839188D01*
X89895820Y-85875498D01*
X89785506Y-85934463D01*
X89688815Y-86013815D01*
X89609463Y-86110506D01*
X89550498Y-86220820D01*
X89514188Y-86340518D01*
X89501928Y-86465000D01*
X88363072Y-86465000D01*
X88350812Y-86340518D01*
X88314502Y-86220820D01*
X88255537Y-86110506D01*
X88176185Y-86013815D01*
X88079494Y-85934463D01*
X87969180Y-85875498D01*
X87849482Y-85839188D01*
X87725000Y-85826928D01*
X87485750Y-85830000D01*
X87327000Y-85988750D01*
X87073000Y-85988750D01*
X86914250Y-85830000D01*
X86675000Y-85826928D01*
X86550518Y-85839188D01*
X86430820Y-85875498D01*
X86320506Y-85934463D01*
X86223815Y-86013815D01*
X86144463Y-86110506D01*
X86085498Y-86220820D01*
X86049188Y-86340518D01*
X86036928Y-86465000D01*
X85585300Y-86465000D01*
X85585300Y-81455901D01*
X98211103Y-68830099D01*
X98240101Y-68806301D01*
X98335074Y-68690576D01*
X98405646Y-68558547D01*
X98449103Y-68415286D01*
X98460100Y-68303633D01*
X98460100Y-68303625D01*
X98463776Y-68266300D01*
X98460100Y-68228975D01*
X98460100Y-67391194D01*
X98555901Y-67436825D01*
X98703110Y-67481476D01*
X98933000Y-67360155D01*
X98933000Y-66167000D01*
X98913000Y-66167000D01*
X98913000Y-65913000D01*
X98933000Y-65913000D01*
X98933000Y-64719845D01*
X98703110Y-64598524D01*
X98555901Y-64643175D01*
X98293080Y-64768359D01*
X98117571Y-64899269D01*
X97378301Y-64160000D01*
X103360097Y-64160000D01*
X102590103Y-64929996D01*
%TA.AperFunction,Conductor*%
D26*
G36*
X102590103Y-64929996D02*
G01*
X102546632Y-64886525D01*
X102303411Y-64724010D01*
X102033158Y-64612068D01*
X101746260Y-64555000D01*
X101453740Y-64555000D01*
X101166842Y-64612068D01*
X100896589Y-64724010D01*
X100653368Y-64886525D01*
X100446525Y-65093368D01*
X100324805Y-65275534D01*
X100255178Y-65158645D01*
X100060269Y-64942412D01*
X99826920Y-64768359D01*
X99564099Y-64643175D01*
X99416890Y-64598524D01*
X99187000Y-64719845D01*
X99187000Y-65913000D01*
X99207000Y-65913000D01*
X99207000Y-66167000D01*
X99187000Y-66167000D01*
X99187000Y-67360155D01*
X99416890Y-67481476D01*
X99564099Y-67436825D01*
X99826920Y-67311641D01*
X100060269Y-67137588D01*
X100255178Y-66921355D01*
X100324805Y-66804466D01*
X100446525Y-66986632D01*
X100600196Y-67140303D01*
X91404998Y-76335501D01*
X91376000Y-76359299D01*
X91352202Y-76388297D01*
X91352201Y-76388298D01*
X91281026Y-76475024D01*
X91210454Y-76607054D01*
X91184588Y-76692326D01*
X91166998Y-76750314D01*
X91161557Y-76805560D01*
X91152324Y-76899300D01*
X91156001Y-76936632D01*
X91156000Y-80209589D01*
X91112063Y-80253526D01*
X90998795Y-80423044D01*
X90920774Y-80611402D01*
X90881000Y-80811361D01*
X90881000Y-81015239D01*
X90920774Y-81215198D01*
X90998795Y-81403556D01*
X91112063Y-81573074D01*
X91156000Y-81617011D01*
X91156001Y-85827365D01*
X90950750Y-85830000D01*
X90792000Y-85988750D01*
X90792000Y-86663000D01*
X90812000Y-86663000D01*
X90812000Y-86917000D01*
X90792000Y-86917000D01*
X90792000Y-87591250D01*
X90950750Y-87750000D01*
X91156001Y-87752635D01*
X91156001Y-87926928D01*
X90140000Y-87926928D01*
X90015518Y-87939188D01*
X89895820Y-87975498D01*
X89785506Y-88034463D01*
X89688815Y-88113815D01*
X89675532Y-88130000D01*
X88189468Y-88130000D01*
X88176185Y-88113815D01*
X88079494Y-88034463D01*
X87969180Y-87975498D01*
X87849482Y-87939188D01*
X87725000Y-87926928D01*
X86675000Y-87926928D01*
X86550518Y-87939188D01*
X86430820Y-87975498D01*
X86320506Y-88034463D01*
X86223815Y-88113815D01*
X86201577Y-88140912D01*
X86200714Y-88140997D01*
X86061739Y-88183154D01*
X86057453Y-88184454D01*
X85925423Y-88255026D01*
X85863865Y-88305546D01*
X85809699Y-88349999D01*
X85785901Y-88378997D01*
X85585300Y-88579598D01*
X85585300Y-87115000D01*
X86036928Y-87115000D01*
X86049188Y-87239482D01*
X86085498Y-87359180D01*
X86144463Y-87469494D01*
X86223815Y-87566185D01*
X86320506Y-87645537D01*
X86430820Y-87704502D01*
X86550518Y-87740812D01*
X86675000Y-87753072D01*
X86914250Y-87750000D01*
X87073000Y-87591250D01*
X87073000Y-86917000D01*
X87327000Y-86917000D01*
X87327000Y-87591250D01*
X87485750Y-87750000D01*
X87725000Y-87753072D01*
X87849482Y-87740812D01*
X87969180Y-87704502D01*
X88079494Y-87645537D01*
X88176185Y-87566185D01*
X88255537Y-87469494D01*
X88314502Y-87359180D01*
X88350812Y-87239482D01*
X88363072Y-87115000D01*
X89501928Y-87115000D01*
X89514188Y-87239482D01*
X89550498Y-87359180D01*
X89609463Y-87469494D01*
X89688815Y-87566185D01*
X89785506Y-87645537D01*
X89895820Y-87704502D01*
X90015518Y-87740812D01*
X90140000Y-87753072D01*
X90379250Y-87750000D01*
X90538000Y-87591250D01*
X90538000Y-86917000D01*
X89663750Y-86917000D01*
X89505000Y-87075750D01*
X89501928Y-87115000D01*
X88363072Y-87115000D01*
X88360000Y-87075750D01*
X88201250Y-86917000D01*
X87327000Y-86917000D01*
X87073000Y-86917000D01*
X86198750Y-86917000D01*
X86040000Y-87075750D01*
X86036928Y-87115000D01*
X85585300Y-87115000D01*
X85585300Y-86465000D01*
X86036928Y-86465000D01*
X86040000Y-86504250D01*
X86198750Y-86663000D01*
X87073000Y-86663000D01*
X87073000Y-85988750D01*
X87327000Y-85988750D01*
X87327000Y-86663000D01*
X88201250Y-86663000D01*
X88360000Y-86504250D01*
X88363072Y-86465000D01*
X89501928Y-86465000D01*
X89505000Y-86504250D01*
X89663750Y-86663000D01*
X90538000Y-86663000D01*
X90538000Y-85988750D01*
X90379250Y-85830000D01*
X90140000Y-85826928D01*
X90015518Y-85839188D01*
X89895820Y-85875498D01*
X89785506Y-85934463D01*
X89688815Y-86013815D01*
X89609463Y-86110506D01*
X89550498Y-86220820D01*
X89514188Y-86340518D01*
X89501928Y-86465000D01*
X88363072Y-86465000D01*
X88350812Y-86340518D01*
X88314502Y-86220820D01*
X88255537Y-86110506D01*
X88176185Y-86013815D01*
X88079494Y-85934463D01*
X87969180Y-85875498D01*
X87849482Y-85839188D01*
X87725000Y-85826928D01*
X87485750Y-85830000D01*
X87327000Y-85988750D01*
X87073000Y-85988750D01*
X86914250Y-85830000D01*
X86675000Y-85826928D01*
X86550518Y-85839188D01*
X86430820Y-85875498D01*
X86320506Y-85934463D01*
X86223815Y-86013815D01*
X86144463Y-86110506D01*
X86085498Y-86220820D01*
X86049188Y-86340518D01*
X86036928Y-86465000D01*
X85585300Y-86465000D01*
X85585300Y-81455901D01*
X98211103Y-68830099D01*
X98240101Y-68806301D01*
X98335074Y-68690576D01*
X98405646Y-68558547D01*
X98449103Y-68415286D01*
X98460100Y-68303633D01*
X98460100Y-68303625D01*
X98463776Y-68266300D01*
X98460100Y-68228975D01*
X98460100Y-67391194D01*
X98555901Y-67436825D01*
X98703110Y-67481476D01*
X98933000Y-67360155D01*
X98933000Y-66167000D01*
X98913000Y-66167000D01*
X98913000Y-65913000D01*
X98933000Y-65913000D01*
X98933000Y-64719845D01*
X98703110Y-64598524D01*
X98555901Y-64643175D01*
X98293080Y-64768359D01*
X98117571Y-64899269D01*
X97378301Y-64160000D01*
X103360097Y-64160000D01*
X102590103Y-64929996D01*
G37*
%TD.AperFunction*%
D25*
X95816589Y-67355990D02*
X96086842Y-67467932D01*
X96373740Y-67525000D01*
X96666260Y-67525000D01*
X96940101Y-67470529D01*
X96940101Y-67951497D01*
X84314303Y-80577296D01*
X84285299Y-80601099D01*
X84241064Y-80655000D01*
X84190326Y-80716824D01*
X84131381Y-80827102D01*
X84119754Y-80848854D01*
X84076297Y-80992115D01*
X84065300Y-81103768D01*
X84065300Y-81103778D01*
X84061624Y-81141100D01*
X84065300Y-81178422D01*
X84065301Y-87926928D01*
X83450000Y-87926928D01*
X83325518Y-87939188D01*
X83205820Y-87975498D01*
X83095506Y-88034463D01*
X82998815Y-88113815D01*
X82985532Y-88130000D01*
X81499468Y-88130000D01*
X81486185Y-88113815D01*
X81389494Y-88034463D01*
X81279180Y-87975498D01*
X81159482Y-87939188D01*
X81035000Y-87926928D01*
X79985000Y-87926928D01*
X79860518Y-87939188D01*
X79740820Y-87975498D01*
X79732661Y-87979859D01*
X79038072Y-87285271D01*
X79038072Y-87115000D01*
X79346928Y-87115000D01*
X79359188Y-87239482D01*
X79395498Y-87359180D01*
X79454463Y-87469494D01*
X79533815Y-87566185D01*
X79630506Y-87645537D01*
X79740820Y-87704502D01*
X79860518Y-87740812D01*
X79985000Y-87753072D01*
X80224250Y-87750000D01*
X80383000Y-87591250D01*
X80383000Y-86917000D01*
X80637000Y-86917000D01*
X80637000Y-87591250D01*
X80795750Y-87750000D01*
X81035000Y-87753072D01*
X81159482Y-87740812D01*
X81279180Y-87704502D01*
X81389494Y-87645537D01*
X81486185Y-87566185D01*
X81565537Y-87469494D01*
X81624502Y-87359180D01*
X81660812Y-87239482D01*
X81673072Y-87115000D01*
X82811928Y-87115000D01*
X82824188Y-87239482D01*
X82860498Y-87359180D01*
X82919463Y-87469494D01*
X82998815Y-87566185D01*
X83095506Y-87645537D01*
X83205820Y-87704502D01*
X83325518Y-87740812D01*
X83450000Y-87753072D01*
X83689250Y-87750000D01*
X83848000Y-87591250D01*
X83848000Y-86917000D01*
X82973750Y-86917000D01*
X82815000Y-87075750D01*
X82811928Y-87115000D01*
X81673072Y-87115000D01*
X81670000Y-87075750D01*
X81511250Y-86917000D01*
X80637000Y-86917000D01*
X80383000Y-86917000D01*
X79508750Y-86917000D01*
X79350000Y-87075750D01*
X79346928Y-87115000D01*
X79038072Y-87115000D01*
X79038072Y-86671999D01*
X79021008Y-86498745D01*
X79010772Y-86465000D01*
X79346928Y-86465000D01*
X79350000Y-86504250D01*
X79508750Y-86663000D01*
X80383000Y-86663000D01*
X80383000Y-85988750D01*
X80637000Y-85988750D01*
X80637000Y-86663000D01*
X81511250Y-86663000D01*
X81670000Y-86504250D01*
X81673072Y-86465000D01*
X82811928Y-86465000D01*
X82815000Y-86504250D01*
X82973750Y-86663000D01*
X83848000Y-86663000D01*
X83848000Y-85988750D01*
X83689250Y-85830000D01*
X83450000Y-85826928D01*
X83325518Y-85839188D01*
X83205820Y-85875498D01*
X83095506Y-85934463D01*
X82998815Y-86013815D01*
X82919463Y-86110506D01*
X82860498Y-86220820D01*
X82824188Y-86340518D01*
X82811928Y-86465000D01*
X81673072Y-86465000D01*
X81660812Y-86340518D01*
X81624502Y-86220820D01*
X81565537Y-86110506D01*
X81486185Y-86013815D01*
X81389494Y-85934463D01*
X81279180Y-85875498D01*
X81159482Y-85839188D01*
X81035000Y-85826928D01*
X80795750Y-85830000D01*
X80637000Y-85988750D01*
X80383000Y-85988750D01*
X80224250Y-85830000D01*
X79985000Y-85826928D01*
X79860518Y-85839188D01*
X79740820Y-85875498D01*
X79630506Y-85934463D01*
X79533815Y-86013815D01*
X79454463Y-86110506D01*
X79395498Y-86220820D01*
X79359188Y-86340518D01*
X79346928Y-86465000D01*
X79010772Y-86465000D01*
X78970472Y-86332149D01*
X78888405Y-86178613D01*
X78777962Y-86044038D01*
X78643387Y-85933595D01*
X78489851Y-85851528D01*
X78323255Y-85800992D01*
X78150001Y-85783928D01*
X77991114Y-85783928D01*
X77997200Y-85722133D01*
X77997200Y-85722125D01*
X78000876Y-85684800D01*
X77997200Y-85647475D01*
X77997200Y-82137123D01*
X78000876Y-82099800D01*
X77997200Y-82062477D01*
X77997200Y-82062467D01*
X77986203Y-81950814D01*
X77942746Y-81807553D01*
X77907988Y-81742526D01*
X77872174Y-81675523D01*
X77800999Y-81588797D01*
X77777201Y-81559799D01*
X77748204Y-81536002D01*
X77453200Y-81240998D01*
X77453200Y-81178861D01*
X77413426Y-80978902D01*
X77335405Y-80790544D01*
X77222137Y-80621026D01*
X77077974Y-80476863D01*
X76933008Y-80380000D01*
X82094678Y-80380000D01*
X82132000Y-80383676D01*
X82169322Y-80380000D01*
X82169333Y-80380000D01*
X82280986Y-80369003D01*
X82424247Y-80325546D01*
X82556276Y-80254974D01*
X82672001Y-80160001D01*
X82695804Y-80130997D01*
X95609311Y-67217491D01*
X95816589Y-67355990D01*
%TA.AperFunction,Conductor*%
D26*
G36*
X95816589Y-67355990D02*
G01*
X96086842Y-67467932D01*
X96373740Y-67525000D01*
X96666260Y-67525000D01*
X96940101Y-67470529D01*
X96940101Y-67951497D01*
X84314303Y-80577296D01*
X84285299Y-80601099D01*
X84241064Y-80655000D01*
X84190326Y-80716824D01*
X84131381Y-80827102D01*
X84119754Y-80848854D01*
X84076297Y-80992115D01*
X84065300Y-81103768D01*
X84065300Y-81103778D01*
X84061624Y-81141100D01*
X84065300Y-81178422D01*
X84065301Y-87926928D01*
X83450000Y-87926928D01*
X83325518Y-87939188D01*
X83205820Y-87975498D01*
X83095506Y-88034463D01*
X82998815Y-88113815D01*
X82985532Y-88130000D01*
X81499468Y-88130000D01*
X81486185Y-88113815D01*
X81389494Y-88034463D01*
X81279180Y-87975498D01*
X81159482Y-87939188D01*
X81035000Y-87926928D01*
X79985000Y-87926928D01*
X79860518Y-87939188D01*
X79740820Y-87975498D01*
X79732661Y-87979859D01*
X79038072Y-87285271D01*
X79038072Y-87115000D01*
X79346928Y-87115000D01*
X79359188Y-87239482D01*
X79395498Y-87359180D01*
X79454463Y-87469494D01*
X79533815Y-87566185D01*
X79630506Y-87645537D01*
X79740820Y-87704502D01*
X79860518Y-87740812D01*
X79985000Y-87753072D01*
X80224250Y-87750000D01*
X80383000Y-87591250D01*
X80383000Y-86917000D01*
X80637000Y-86917000D01*
X80637000Y-87591250D01*
X80795750Y-87750000D01*
X81035000Y-87753072D01*
X81159482Y-87740812D01*
X81279180Y-87704502D01*
X81389494Y-87645537D01*
X81486185Y-87566185D01*
X81565537Y-87469494D01*
X81624502Y-87359180D01*
X81660812Y-87239482D01*
X81673072Y-87115000D01*
X82811928Y-87115000D01*
X82824188Y-87239482D01*
X82860498Y-87359180D01*
X82919463Y-87469494D01*
X82998815Y-87566185D01*
X83095506Y-87645537D01*
X83205820Y-87704502D01*
X83325518Y-87740812D01*
X83450000Y-87753072D01*
X83689250Y-87750000D01*
X83848000Y-87591250D01*
X83848000Y-86917000D01*
X82973750Y-86917000D01*
X82815000Y-87075750D01*
X82811928Y-87115000D01*
X81673072Y-87115000D01*
X81670000Y-87075750D01*
X81511250Y-86917000D01*
X80637000Y-86917000D01*
X80383000Y-86917000D01*
X79508750Y-86917000D01*
X79350000Y-87075750D01*
X79346928Y-87115000D01*
X79038072Y-87115000D01*
X79038072Y-86671999D01*
X79021008Y-86498745D01*
X79010772Y-86465000D01*
X79346928Y-86465000D01*
X79350000Y-86504250D01*
X79508750Y-86663000D01*
X80383000Y-86663000D01*
X80383000Y-85988750D01*
X80637000Y-85988750D01*
X80637000Y-86663000D01*
X81511250Y-86663000D01*
X81670000Y-86504250D01*
X81673072Y-86465000D01*
X82811928Y-86465000D01*
X82815000Y-86504250D01*
X82973750Y-86663000D01*
X83848000Y-86663000D01*
X83848000Y-85988750D01*
X83689250Y-85830000D01*
X83450000Y-85826928D01*
X83325518Y-85839188D01*
X83205820Y-85875498D01*
X83095506Y-85934463D01*
X82998815Y-86013815D01*
X82919463Y-86110506D01*
X82860498Y-86220820D01*
X82824188Y-86340518D01*
X82811928Y-86465000D01*
X81673072Y-86465000D01*
X81660812Y-86340518D01*
X81624502Y-86220820D01*
X81565537Y-86110506D01*
X81486185Y-86013815D01*
X81389494Y-85934463D01*
X81279180Y-85875498D01*
X81159482Y-85839188D01*
X81035000Y-85826928D01*
X80795750Y-85830000D01*
X80637000Y-85988750D01*
X80383000Y-85988750D01*
X80224250Y-85830000D01*
X79985000Y-85826928D01*
X79860518Y-85839188D01*
X79740820Y-85875498D01*
X79630506Y-85934463D01*
X79533815Y-86013815D01*
X79454463Y-86110506D01*
X79395498Y-86220820D01*
X79359188Y-86340518D01*
X79346928Y-86465000D01*
X79010772Y-86465000D01*
X78970472Y-86332149D01*
X78888405Y-86178613D01*
X78777962Y-86044038D01*
X78643387Y-85933595D01*
X78489851Y-85851528D01*
X78323255Y-85800992D01*
X78150001Y-85783928D01*
X77991114Y-85783928D01*
X77997200Y-85722133D01*
X77997200Y-85722125D01*
X78000876Y-85684800D01*
X77997200Y-85647475D01*
X77997200Y-82137123D01*
X78000876Y-82099800D01*
X77997200Y-82062477D01*
X77997200Y-82062467D01*
X77986203Y-81950814D01*
X77942746Y-81807553D01*
X77907988Y-81742526D01*
X77872174Y-81675523D01*
X77800999Y-81588797D01*
X77777201Y-81559799D01*
X77748204Y-81536002D01*
X77453200Y-81240998D01*
X77453200Y-81178861D01*
X77413426Y-80978902D01*
X77335405Y-80790544D01*
X77222137Y-80621026D01*
X77077974Y-80476863D01*
X76933008Y-80380000D01*
X82094678Y-80380000D01*
X82132000Y-80383676D01*
X82169322Y-80380000D01*
X82169333Y-80380000D01*
X82280986Y-80369003D01*
X82424247Y-80325546D01*
X82556276Y-80254974D01*
X82672001Y-80160001D01*
X82695804Y-80130997D01*
X95609311Y-67217491D01*
X95816589Y-67355990D01*
G37*
%TD.AperFunction*%
D25*
X107450501Y-65592402D02*
X107474299Y-65621401D01*
X107503297Y-65645199D01*
X107590023Y-65716374D01*
X107677119Y-65762928D01*
X107722053Y-65786946D01*
X107865314Y-65830403D01*
X107976967Y-65841400D01*
X107976976Y-65841400D01*
X108014299Y-65845076D01*
X108051622Y-65841400D01*
X108841484Y-65841400D01*
X108798498Y-65921820D01*
X108762188Y-66041518D01*
X108749928Y-66166000D01*
X108749928Y-66966000D01*
X108762188Y-67090482D01*
X108798498Y-67210180D01*
X108857463Y-67320494D01*
X108936815Y-67417185D01*
X109033506Y-67496537D01*
X109143820Y-67555502D01*
X109263518Y-67591812D01*
X109388000Y-67604072D01*
X110299928Y-67604072D01*
X110299928Y-67620511D01*
X110232923Y-67656326D01*
X110173294Y-67705263D01*
X110117199Y-67751299D01*
X110093401Y-67780297D01*
X105295903Y-72577796D01*
X105266899Y-72601599D01*
X105221759Y-72656603D01*
X105171926Y-72717324D01*
X105111062Y-72831191D01*
X105101354Y-72849354D01*
X105057897Y-72992615D01*
X105046900Y-73104268D01*
X105046900Y-73104278D01*
X105043224Y-73141600D01*
X105046900Y-73178922D01*
X105046901Y-81526697D01*
X104988072Y-81585526D01*
X104988072Y-81475000D01*
X104971008Y-81301746D01*
X104920472Y-81135150D01*
X104838405Y-80981614D01*
X104727962Y-80847038D01*
X104593386Y-80736595D01*
X104439850Y-80654528D01*
X104273254Y-80603992D01*
X104100000Y-80586928D01*
X101200000Y-80586928D01*
X101026746Y-80603992D01*
X100860150Y-80654528D01*
X100706614Y-80736595D01*
X100572038Y-80847038D01*
X100461595Y-80981614D01*
X100379528Y-81135150D01*
X100328992Y-81301746D01*
X100311928Y-81475000D01*
X100311928Y-82475000D01*
X100328992Y-82648254D01*
X100379528Y-82814850D01*
X100461595Y-82968386D01*
X100572038Y-83102962D01*
X100706614Y-83213405D01*
X100860150Y-83295472D01*
X101026746Y-83346008D01*
X101200000Y-83363072D01*
X103210526Y-83363072D01*
X99888403Y-86685196D01*
X99859399Y-86708999D01*
X99847300Y-86723742D01*
X99847300Y-74775000D01*
X100311928Y-74775000D01*
X100311928Y-75775000D01*
X100328992Y-75948254D01*
X100379528Y-76114850D01*
X100461595Y-76268386D01*
X100572038Y-76402962D01*
X100706614Y-76513405D01*
X100860150Y-76595472D01*
X101026746Y-76646008D01*
X101200000Y-76663072D01*
X104100000Y-76663072D01*
X104273254Y-76646008D01*
X104439850Y-76595472D01*
X104593386Y-76513405D01*
X104727962Y-76402962D01*
X104838405Y-76268386D01*
X104920472Y-76114850D01*
X104971008Y-75948254D01*
X104988072Y-75775000D01*
X104988072Y-74775000D01*
X104971008Y-74601746D01*
X104920472Y-74435150D01*
X104838405Y-74281614D01*
X104727962Y-74147038D01*
X104593386Y-74036595D01*
X104439850Y-73954528D01*
X104273254Y-73903992D01*
X104100000Y-73886928D01*
X101200000Y-73886928D01*
X101026746Y-73903992D01*
X100860150Y-73954528D01*
X100706614Y-74036595D01*
X100572038Y-74147038D01*
X100461595Y-74281614D01*
X100379528Y-74435150D01*
X100328992Y-74601746D01*
X100311928Y-74775000D01*
X99847300Y-74775000D01*
X99847300Y-73057501D01*
X105065730Y-67839072D01*
X105304000Y-67839072D01*
X105467500Y-67822969D01*
X105624716Y-67775278D01*
X105769608Y-67697831D01*
X105896606Y-67593606D01*
X106000831Y-67466608D01*
X106078278Y-67321716D01*
X106125969Y-67164500D01*
X106142072Y-67001000D01*
X106142072Y-66601000D01*
X106125969Y-66437500D01*
X106078278Y-66280284D01*
X106000831Y-66135392D01*
X105896606Y-66008394D01*
X105857134Y-65976000D01*
X105896606Y-65943606D01*
X106000831Y-65816608D01*
X106078278Y-65671716D01*
X106125969Y-65514500D01*
X106142072Y-65351000D01*
X106142072Y-65156700D01*
X107014799Y-65156700D01*
X107450501Y-65592402D01*
%TA.AperFunction,Conductor*%
D26*
G36*
X107450501Y-65592402D02*
G01*
X107474299Y-65621401D01*
X107503297Y-65645199D01*
X107590023Y-65716374D01*
X107677119Y-65762928D01*
X107722053Y-65786946D01*
X107865314Y-65830403D01*
X107976967Y-65841400D01*
X107976976Y-65841400D01*
X108014299Y-65845076D01*
X108051622Y-65841400D01*
X108841484Y-65841400D01*
X108798498Y-65921820D01*
X108762188Y-66041518D01*
X108749928Y-66166000D01*
X108749928Y-66966000D01*
X108762188Y-67090482D01*
X108798498Y-67210180D01*
X108857463Y-67320494D01*
X108936815Y-67417185D01*
X109033506Y-67496537D01*
X109143820Y-67555502D01*
X109263518Y-67591812D01*
X109388000Y-67604072D01*
X110299928Y-67604072D01*
X110299928Y-67620511D01*
X110232923Y-67656326D01*
X110173294Y-67705263D01*
X110117199Y-67751299D01*
X110093401Y-67780297D01*
X105295903Y-72577796D01*
X105266899Y-72601599D01*
X105221759Y-72656603D01*
X105171926Y-72717324D01*
X105111062Y-72831191D01*
X105101354Y-72849354D01*
X105057897Y-72992615D01*
X105046900Y-73104268D01*
X105046900Y-73104278D01*
X105043224Y-73141600D01*
X105046900Y-73178922D01*
X105046901Y-81526697D01*
X104988072Y-81585526D01*
X104988072Y-81475000D01*
X104971008Y-81301746D01*
X104920472Y-81135150D01*
X104838405Y-80981614D01*
X104727962Y-80847038D01*
X104593386Y-80736595D01*
X104439850Y-80654528D01*
X104273254Y-80603992D01*
X104100000Y-80586928D01*
X101200000Y-80586928D01*
X101026746Y-80603992D01*
X100860150Y-80654528D01*
X100706614Y-80736595D01*
X100572038Y-80847038D01*
X100461595Y-80981614D01*
X100379528Y-81135150D01*
X100328992Y-81301746D01*
X100311928Y-81475000D01*
X100311928Y-82475000D01*
X100328992Y-82648254D01*
X100379528Y-82814850D01*
X100461595Y-82968386D01*
X100572038Y-83102962D01*
X100706614Y-83213405D01*
X100860150Y-83295472D01*
X101026746Y-83346008D01*
X101200000Y-83363072D01*
X103210526Y-83363072D01*
X99888403Y-86685196D01*
X99859399Y-86708999D01*
X99847300Y-86723742D01*
X99847300Y-74775000D01*
X100311928Y-74775000D01*
X100311928Y-75775000D01*
X100328992Y-75948254D01*
X100379528Y-76114850D01*
X100461595Y-76268386D01*
X100572038Y-76402962D01*
X100706614Y-76513405D01*
X100860150Y-76595472D01*
X101026746Y-76646008D01*
X101200000Y-76663072D01*
X104100000Y-76663072D01*
X104273254Y-76646008D01*
X104439850Y-76595472D01*
X104593386Y-76513405D01*
X104727962Y-76402962D01*
X104838405Y-76268386D01*
X104920472Y-76114850D01*
X104971008Y-75948254D01*
X104988072Y-75775000D01*
X104988072Y-74775000D01*
X104971008Y-74601746D01*
X104920472Y-74435150D01*
X104838405Y-74281614D01*
X104727962Y-74147038D01*
X104593386Y-74036595D01*
X104439850Y-73954528D01*
X104273254Y-73903992D01*
X104100000Y-73886928D01*
X101200000Y-73886928D01*
X101026746Y-73903992D01*
X100860150Y-73954528D01*
X100706614Y-74036595D01*
X100572038Y-74147038D01*
X100461595Y-74281614D01*
X100379528Y-74435150D01*
X100328992Y-74601746D01*
X100311928Y-74775000D01*
X99847300Y-74775000D01*
X99847300Y-73057501D01*
X105065730Y-67839072D01*
X105304000Y-67839072D01*
X105467500Y-67822969D01*
X105624716Y-67775278D01*
X105769608Y-67697831D01*
X105896606Y-67593606D01*
X106000831Y-67466608D01*
X106078278Y-67321716D01*
X106125969Y-67164500D01*
X106142072Y-67001000D01*
X106142072Y-66601000D01*
X106125969Y-66437500D01*
X106078278Y-66280284D01*
X106000831Y-66135392D01*
X105896606Y-66008394D01*
X105857134Y-65976000D01*
X105896606Y-65943606D01*
X106000831Y-65816608D01*
X106078278Y-65671716D01*
X106125969Y-65514500D01*
X106142072Y-65351000D01*
X106142072Y-65156700D01*
X107014799Y-65156700D01*
X107450501Y-65592402D01*
G37*
%TD.AperFunction*%
D25*
X109420326Y-70698037D02*
X109589844Y-70811305D01*
X109778202Y-70889326D01*
X109978161Y-70929100D01*
X110182039Y-70929100D01*
X110381998Y-70889326D01*
X110570356Y-70811305D01*
X110739874Y-70698037D01*
X110751574Y-70686337D01*
X110754722Y-70696716D01*
X110832169Y-70841608D01*
X110936394Y-70968606D01*
X111063392Y-71072831D01*
X111208284Y-71150278D01*
X111365500Y-71197969D01*
X111529000Y-71214072D01*
X111864901Y-71214072D01*
X111864900Y-71686928D01*
X111600000Y-71686928D01*
X111436500Y-71703031D01*
X111279284Y-71750722D01*
X111165795Y-71811384D01*
X111126774Y-71772363D01*
X110957256Y-71659095D01*
X110768898Y-71581074D01*
X110568939Y-71541300D01*
X110365061Y-71541300D01*
X110165102Y-71581074D01*
X109976744Y-71659095D01*
X109807226Y-71772363D01*
X109663063Y-71916526D01*
X109549795Y-72086044D01*
X109471774Y-72274402D01*
X109432000Y-72474361D01*
X109432000Y-72678239D01*
X109471774Y-72878198D01*
X109549795Y-73066556D01*
X109663063Y-73236074D01*
X109807226Y-73380237D01*
X109976744Y-73493505D01*
X110165102Y-73571526D01*
X110365061Y-73611300D01*
X110568939Y-73611300D01*
X110768898Y-73571526D01*
X110892360Y-73520386D01*
X110899552Y-73533842D01*
X110869463Y-73570506D01*
X110810498Y-73680820D01*
X110774188Y-73800518D01*
X110761928Y-73925000D01*
X110765000Y-74114250D01*
X110923750Y-74273000D01*
X111723000Y-74273000D01*
X111723000Y-74253000D01*
X111977000Y-74253000D01*
X111977000Y-74273000D01*
X111997000Y-74273000D01*
X111997000Y-74527000D01*
X111977000Y-74527000D01*
X111977000Y-75351250D01*
X112135750Y-75510000D01*
X112300000Y-75513072D01*
X112424482Y-75500812D01*
X112544180Y-75464502D01*
X112654494Y-75405537D01*
X112698649Y-75369300D01*
X112844717Y-75447375D01*
X113006623Y-75496488D01*
X113175000Y-75513072D01*
X113625000Y-75513072D01*
X113793377Y-75496488D01*
X113955283Y-75447375D01*
X114104497Y-75367618D01*
X114235284Y-75260284D01*
X114342618Y-75129497D01*
X114422375Y-74980283D01*
X114443300Y-74911301D01*
X114443301Y-75749068D01*
X114439624Y-75786400D01*
X114443301Y-75823733D01*
X114454298Y-75935386D01*
X114458482Y-75949180D01*
X114497754Y-76078646D01*
X114568326Y-76210676D01*
X114628297Y-76283750D01*
X114663300Y-76326401D01*
X114692298Y-76350199D01*
X116174700Y-77832603D01*
X116174701Y-78317658D01*
X116171023Y-78355000D01*
X116185697Y-78503986D01*
X116229154Y-78647247D01*
X116299726Y-78779276D01*
X116394699Y-78895001D01*
X116510424Y-78989974D01*
X116626562Y-79052052D01*
X116630792Y-79095000D01*
X114619322Y-79095000D01*
X114581999Y-79091324D01*
X114544676Y-79095000D01*
X114544667Y-79095000D01*
X114433014Y-79105997D01*
X114289753Y-79149454D01*
X114157724Y-79220026D01*
X114150532Y-79225928D01*
X113898000Y-79225928D01*
X113734500Y-79242031D01*
X113577284Y-79289722D01*
X113432392Y-79367169D01*
X113305394Y-79471394D01*
X113201169Y-79598392D01*
X113123722Y-79743284D01*
X113076031Y-79900500D01*
X113059928Y-80064000D01*
X113059928Y-80464000D01*
X113076031Y-80627500D01*
X113123722Y-80784716D01*
X113201169Y-80929608D01*
X113284863Y-81031590D01*
X113246815Y-81062815D01*
X113167463Y-81159506D01*
X113108498Y-81269820D01*
X113072188Y-81389518D01*
X113059928Y-81514000D01*
X113063000Y-81628250D01*
X113221750Y-81787000D01*
X114046000Y-81787000D01*
X114046000Y-81767000D01*
X114300000Y-81767000D01*
X114300000Y-81787000D01*
X115124250Y-81787000D01*
X115283000Y-81628250D01*
X115286072Y-81514000D01*
X115273812Y-81389518D01*
X115237502Y-81269820D01*
X115178537Y-81159506D01*
X115099185Y-81062815D01*
X115061137Y-81031590D01*
X115144831Y-80929608D01*
X115222278Y-80784716D01*
X115269969Y-80627500D01*
X115271200Y-80615000D01*
X116174963Y-80615000D01*
X116171023Y-80655000D01*
X116185697Y-80803986D01*
X116229154Y-80947247D01*
X116299726Y-81079276D01*
X116394699Y-81195001D01*
X116510424Y-81289974D01*
X116626656Y-81352102D01*
X116635901Y-81437801D01*
X116673801Y-81557005D01*
X116684804Y-81576946D01*
X116625000Y-81636750D01*
X116635901Y-81737801D01*
X116673801Y-81857005D01*
X116734228Y-81966524D01*
X116814861Y-82062151D01*
X116912600Y-82140209D01*
X117023689Y-82197700D01*
X117143860Y-82232413D01*
X117268493Y-82243015D01*
X117415136Y-82242254D01*
X117457498Y-82298000D01*
X118848000Y-82298000D01*
X118848000Y-82278000D01*
X119102000Y-82278000D01*
X119102000Y-82298000D01*
X119122000Y-82298000D01*
X119122000Y-82552000D01*
X119102000Y-82552000D01*
X119102000Y-83510000D01*
X119141720Y-83510000D01*
X118790178Y-83861543D01*
X118758476Y-83835526D01*
X118626447Y-83764954D01*
X118483186Y-83721497D01*
X118371533Y-83710500D01*
X118371522Y-83710500D01*
X118334200Y-83706824D01*
X118296878Y-83710500D01*
X116972033Y-83710500D01*
X116934700Y-83706823D01*
X116897367Y-83710500D01*
X116785714Y-83721497D01*
X116642453Y-83764954D01*
X116510424Y-83835526D01*
X116394699Y-83930499D01*
X116311566Y-84031797D01*
X116260374Y-83936024D01*
X116235571Y-83905801D01*
X116189199Y-83849296D01*
X116189195Y-83849292D01*
X116165401Y-83820299D01*
X116136409Y-83796506D01*
X115398803Y-83058902D01*
X115375001Y-83029899D01*
X115259276Y-82934926D01*
X115127247Y-82864354D01*
X115018531Y-82831376D01*
X115099185Y-82765185D01*
X115137087Y-82719001D01*
X117330592Y-82719001D01*
X117402298Y-82922197D01*
X117517986Y-83102408D01*
X117666609Y-83256587D01*
X117842455Y-83378809D01*
X118038767Y-83464376D01*
X118248000Y-83510000D01*
X118848000Y-83510000D01*
X118848000Y-82552000D01*
X117457498Y-82552000D01*
X117330592Y-82719001D01*
X115137087Y-82719001D01*
X115178537Y-82668494D01*
X115237502Y-82558180D01*
X115273812Y-82438482D01*
X115286072Y-82314000D01*
X115283000Y-82199750D01*
X115124250Y-82041000D01*
X114300000Y-82041000D01*
X114300000Y-82061000D01*
X114046000Y-82061000D01*
X114046000Y-82041000D01*
X113221750Y-82041000D01*
X113063000Y-82199750D01*
X113059928Y-82314000D01*
X113072188Y-82438482D01*
X113108498Y-82558180D01*
X113167463Y-82668494D01*
X113246815Y-82765185D01*
X113301301Y-82809900D01*
X109160000Y-82809900D01*
X109160000Y-80763072D01*
X109900000Y-80763072D01*
X110073254Y-80746008D01*
X110239850Y-80695472D01*
X110393386Y-80613405D01*
X110527962Y-80502962D01*
X110638405Y-80368386D01*
X110720472Y-80214850D01*
X110771008Y-80048254D01*
X110788072Y-79875000D01*
X110788072Y-79375000D01*
X110771008Y-79201746D01*
X110720472Y-79035150D01*
X110638405Y-78881614D01*
X110527962Y-78747038D01*
X110451187Y-78684031D01*
X110504494Y-78655537D01*
X110601185Y-78576185D01*
X110680537Y-78479494D01*
X110739502Y-78369180D01*
X110775812Y-78249482D01*
X110788072Y-78125000D01*
X110785000Y-77910750D01*
X110626250Y-77752000D01*
X108527000Y-77752000D01*
X108527000Y-77772000D01*
X108273000Y-77772000D01*
X108273000Y-77752000D01*
X108253000Y-77752000D01*
X108253000Y-77498000D01*
X108273000Y-77498000D01*
X108273000Y-76648750D01*
X108527000Y-76648750D01*
X108527000Y-77498000D01*
X110626250Y-77498000D01*
X110785000Y-77339250D01*
X110788072Y-77125000D01*
X110775812Y-77000518D01*
X110739502Y-76880820D01*
X110680537Y-76770506D01*
X110601185Y-76673815D01*
X110504494Y-76594463D01*
X110394180Y-76535498D01*
X110274482Y-76499188D01*
X110150000Y-76486928D01*
X108685750Y-76490000D01*
X108527000Y-76648750D01*
X108273000Y-76648750D01*
X108114250Y-76490000D01*
X106650000Y-76486928D01*
X106566900Y-76495112D01*
X106566900Y-74875000D01*
X110761928Y-74875000D01*
X110774188Y-74999482D01*
X110810498Y-75119180D01*
X110869463Y-75229494D01*
X110948815Y-75326185D01*
X111045506Y-75405537D01*
X111155820Y-75464502D01*
X111275518Y-75500812D01*
X111400000Y-75513072D01*
X111564250Y-75510000D01*
X111723000Y-75351250D01*
X111723000Y-74527000D01*
X110923750Y-74527000D01*
X110765000Y-74685750D01*
X110761928Y-74875000D01*
X106566900Y-74875000D01*
X106566900Y-73456401D01*
X109372795Y-70650506D01*
X109420326Y-70698037D01*
%TA.AperFunction,Conductor*%
D26*
G36*
X109420326Y-70698037D02*
G01*
X109589844Y-70811305D01*
X109778202Y-70889326D01*
X109978161Y-70929100D01*
X110182039Y-70929100D01*
X110381998Y-70889326D01*
X110570356Y-70811305D01*
X110739874Y-70698037D01*
X110751574Y-70686337D01*
X110754722Y-70696716D01*
X110832169Y-70841608D01*
X110936394Y-70968606D01*
X111063392Y-71072831D01*
X111208284Y-71150278D01*
X111365500Y-71197969D01*
X111529000Y-71214072D01*
X111864901Y-71214072D01*
X111864900Y-71686928D01*
X111600000Y-71686928D01*
X111436500Y-71703031D01*
X111279284Y-71750722D01*
X111165795Y-71811384D01*
X111126774Y-71772363D01*
X110957256Y-71659095D01*
X110768898Y-71581074D01*
X110568939Y-71541300D01*
X110365061Y-71541300D01*
X110165102Y-71581074D01*
X109976744Y-71659095D01*
X109807226Y-71772363D01*
X109663063Y-71916526D01*
X109549795Y-72086044D01*
X109471774Y-72274402D01*
X109432000Y-72474361D01*
X109432000Y-72678239D01*
X109471774Y-72878198D01*
X109549795Y-73066556D01*
X109663063Y-73236074D01*
X109807226Y-73380237D01*
X109976744Y-73493505D01*
X110165102Y-73571526D01*
X110365061Y-73611300D01*
X110568939Y-73611300D01*
X110768898Y-73571526D01*
X110892360Y-73520386D01*
X110899552Y-73533842D01*
X110869463Y-73570506D01*
X110810498Y-73680820D01*
X110774188Y-73800518D01*
X110761928Y-73925000D01*
X110765000Y-74114250D01*
X110923750Y-74273000D01*
X111723000Y-74273000D01*
X111723000Y-74253000D01*
X111977000Y-74253000D01*
X111977000Y-74273000D01*
X111997000Y-74273000D01*
X111997000Y-74527000D01*
X111977000Y-74527000D01*
X111977000Y-75351250D01*
X112135750Y-75510000D01*
X112300000Y-75513072D01*
X112424482Y-75500812D01*
X112544180Y-75464502D01*
X112654494Y-75405537D01*
X112698649Y-75369300D01*
X112844717Y-75447375D01*
X113006623Y-75496488D01*
X113175000Y-75513072D01*
X113625000Y-75513072D01*
X113793377Y-75496488D01*
X113955283Y-75447375D01*
X114104497Y-75367618D01*
X114235284Y-75260284D01*
X114342618Y-75129497D01*
X114422375Y-74980283D01*
X114443300Y-74911301D01*
X114443301Y-75749068D01*
X114439624Y-75786400D01*
X114443301Y-75823733D01*
X114454298Y-75935386D01*
X114458482Y-75949180D01*
X114497754Y-76078646D01*
X114568326Y-76210676D01*
X114628297Y-76283750D01*
X114663300Y-76326401D01*
X114692298Y-76350199D01*
X116174700Y-77832603D01*
X116174701Y-78317658D01*
X116171023Y-78355000D01*
X116185697Y-78503986D01*
X116229154Y-78647247D01*
X116299726Y-78779276D01*
X116394699Y-78895001D01*
X116510424Y-78989974D01*
X116626562Y-79052052D01*
X116630792Y-79095000D01*
X114619322Y-79095000D01*
X114581999Y-79091324D01*
X114544676Y-79095000D01*
X114544667Y-79095000D01*
X114433014Y-79105997D01*
X114289753Y-79149454D01*
X114157724Y-79220026D01*
X114150532Y-79225928D01*
X113898000Y-79225928D01*
X113734500Y-79242031D01*
X113577284Y-79289722D01*
X113432392Y-79367169D01*
X113305394Y-79471394D01*
X113201169Y-79598392D01*
X113123722Y-79743284D01*
X113076031Y-79900500D01*
X113059928Y-80064000D01*
X113059928Y-80464000D01*
X113076031Y-80627500D01*
X113123722Y-80784716D01*
X113201169Y-80929608D01*
X113284863Y-81031590D01*
X113246815Y-81062815D01*
X113167463Y-81159506D01*
X113108498Y-81269820D01*
X113072188Y-81389518D01*
X113059928Y-81514000D01*
X113063000Y-81628250D01*
X113221750Y-81787000D01*
X114046000Y-81787000D01*
X114046000Y-81767000D01*
X114300000Y-81767000D01*
X114300000Y-81787000D01*
X115124250Y-81787000D01*
X115283000Y-81628250D01*
X115286072Y-81514000D01*
X115273812Y-81389518D01*
X115237502Y-81269820D01*
X115178537Y-81159506D01*
X115099185Y-81062815D01*
X115061137Y-81031590D01*
X115144831Y-80929608D01*
X115222278Y-80784716D01*
X115269969Y-80627500D01*
X115271200Y-80615000D01*
X116174963Y-80615000D01*
X116171023Y-80655000D01*
X116185697Y-80803986D01*
X116229154Y-80947247D01*
X116299726Y-81079276D01*
X116394699Y-81195001D01*
X116510424Y-81289974D01*
X116626656Y-81352102D01*
X116635901Y-81437801D01*
X116673801Y-81557005D01*
X116684804Y-81576946D01*
X116625000Y-81636750D01*
X116635901Y-81737801D01*
X116673801Y-81857005D01*
X116734228Y-81966524D01*
X116814861Y-82062151D01*
X116912600Y-82140209D01*
X117023689Y-82197700D01*
X117143860Y-82232413D01*
X117268493Y-82243015D01*
X117415136Y-82242254D01*
X117457498Y-82298000D01*
X118848000Y-82298000D01*
X118848000Y-82278000D01*
X119102000Y-82278000D01*
X119102000Y-82298000D01*
X119122000Y-82298000D01*
X119122000Y-82552000D01*
X119102000Y-82552000D01*
X119102000Y-83510000D01*
X119141720Y-83510000D01*
X118790178Y-83861543D01*
X118758476Y-83835526D01*
X118626447Y-83764954D01*
X118483186Y-83721497D01*
X118371533Y-83710500D01*
X118371522Y-83710500D01*
X118334200Y-83706824D01*
X118296878Y-83710500D01*
X116972033Y-83710500D01*
X116934700Y-83706823D01*
X116897367Y-83710500D01*
X116785714Y-83721497D01*
X116642453Y-83764954D01*
X116510424Y-83835526D01*
X116394699Y-83930499D01*
X116311566Y-84031797D01*
X116260374Y-83936024D01*
X116235571Y-83905801D01*
X116189199Y-83849296D01*
X116189195Y-83849292D01*
X116165401Y-83820299D01*
X116136409Y-83796506D01*
X115398803Y-83058902D01*
X115375001Y-83029899D01*
X115259276Y-82934926D01*
X115127247Y-82864354D01*
X115018531Y-82831376D01*
X115099185Y-82765185D01*
X115137087Y-82719001D01*
X117330592Y-82719001D01*
X117402298Y-82922197D01*
X117517986Y-83102408D01*
X117666609Y-83256587D01*
X117842455Y-83378809D01*
X118038767Y-83464376D01*
X118248000Y-83510000D01*
X118848000Y-83510000D01*
X118848000Y-82552000D01*
X117457498Y-82552000D01*
X117330592Y-82719001D01*
X115137087Y-82719001D01*
X115178537Y-82668494D01*
X115237502Y-82558180D01*
X115273812Y-82438482D01*
X115286072Y-82314000D01*
X115283000Y-82199750D01*
X115124250Y-82041000D01*
X114300000Y-82041000D01*
X114300000Y-82061000D01*
X114046000Y-82061000D01*
X114046000Y-82041000D01*
X113221750Y-82041000D01*
X113063000Y-82199750D01*
X113059928Y-82314000D01*
X113072188Y-82438482D01*
X113108498Y-82558180D01*
X113167463Y-82668494D01*
X113246815Y-82765185D01*
X113301301Y-82809900D01*
X109160000Y-82809900D01*
X109160000Y-80763072D01*
X109900000Y-80763072D01*
X110073254Y-80746008D01*
X110239850Y-80695472D01*
X110393386Y-80613405D01*
X110527962Y-80502962D01*
X110638405Y-80368386D01*
X110720472Y-80214850D01*
X110771008Y-80048254D01*
X110788072Y-79875000D01*
X110788072Y-79375000D01*
X110771008Y-79201746D01*
X110720472Y-79035150D01*
X110638405Y-78881614D01*
X110527962Y-78747038D01*
X110451187Y-78684031D01*
X110504494Y-78655537D01*
X110601185Y-78576185D01*
X110680537Y-78479494D01*
X110739502Y-78369180D01*
X110775812Y-78249482D01*
X110788072Y-78125000D01*
X110785000Y-77910750D01*
X110626250Y-77752000D01*
X108527000Y-77752000D01*
X108527000Y-77772000D01*
X108273000Y-77772000D01*
X108273000Y-77752000D01*
X108253000Y-77752000D01*
X108253000Y-77498000D01*
X108273000Y-77498000D01*
X108273000Y-76648750D01*
X108527000Y-76648750D01*
X108527000Y-77498000D01*
X110626250Y-77498000D01*
X110785000Y-77339250D01*
X110788072Y-77125000D01*
X110775812Y-77000518D01*
X110739502Y-76880820D01*
X110680537Y-76770506D01*
X110601185Y-76673815D01*
X110504494Y-76594463D01*
X110394180Y-76535498D01*
X110274482Y-76499188D01*
X110150000Y-76486928D01*
X108685750Y-76490000D01*
X108527000Y-76648750D01*
X108273000Y-76648750D01*
X108114250Y-76490000D01*
X106650000Y-76486928D01*
X106566900Y-76495112D01*
X106566900Y-74875000D01*
X110761928Y-74875000D01*
X110774188Y-74999482D01*
X110810498Y-75119180D01*
X110869463Y-75229494D01*
X110948815Y-75326185D01*
X111045506Y-75405537D01*
X111155820Y-75464502D01*
X111275518Y-75500812D01*
X111400000Y-75513072D01*
X111564250Y-75510000D01*
X111723000Y-75351250D01*
X111723000Y-74527000D01*
X110923750Y-74527000D01*
X110765000Y-74685750D01*
X110761928Y-74875000D01*
X106566900Y-74875000D01*
X106566900Y-73456401D01*
X109372795Y-70650506D01*
X109420326Y-70698037D01*
G37*
%TD.AperFunction*%
D25*
X64327000Y-78937000D02*
X64307000Y-78937000D01*
X64307000Y-79836250D01*
X64374401Y-79903651D01*
X64374401Y-80889397D01*
X64047902Y-81215897D01*
X64018899Y-81239699D01*
X63977549Y-81290085D01*
X63923926Y-81355424D01*
X63883630Y-81430812D01*
X63853354Y-81487454D01*
X63809897Y-81630715D01*
X63798900Y-81742368D01*
X63798900Y-81742378D01*
X63795224Y-81779700D01*
X63798900Y-81817022D01*
X63798900Y-82151098D01*
X63348005Y-82601994D01*
X63300074Y-82554063D01*
X63130556Y-82440795D01*
X62942198Y-82362774D01*
X62742239Y-82323000D01*
X62680102Y-82323000D01*
X61064300Y-80707199D01*
X61064300Y-78921000D01*
X61111867Y-78921000D01*
X61135689Y-79040760D01*
X61198633Y-79192721D01*
X61290013Y-79329481D01*
X61307000Y-79346468D01*
X61307000Y-79836250D01*
X61465750Y-79995000D01*
X61730000Y-79998072D01*
X61854482Y-79985812D01*
X61930000Y-79962904D01*
X62005518Y-79985812D01*
X62130000Y-79998072D01*
X62394250Y-79995000D01*
X62553000Y-79836250D01*
X62553000Y-79363668D01*
X62587187Y-79329481D01*
X62675200Y-79197760D01*
X62763213Y-79329481D01*
X62807000Y-79373268D01*
X62807000Y-79836250D01*
X62965750Y-79995000D01*
X63230000Y-79998072D01*
X63354482Y-79985812D01*
X63430000Y-79962904D01*
X63505518Y-79985812D01*
X63630000Y-79998072D01*
X63894250Y-79995000D01*
X64053000Y-79836250D01*
X64053000Y-79336868D01*
X64060387Y-79329481D01*
X64151767Y-79192721D01*
X64214711Y-79040760D01*
X64246800Y-78879440D01*
X64246800Y-78861933D01*
X64327000Y-78845980D01*
X64327000Y-78937000D01*
%TA.AperFunction,Conductor*%
D26*
G36*
X64327000Y-78937000D02*
G01*
X64307000Y-78937000D01*
X64307000Y-79836250D01*
X64374401Y-79903651D01*
X64374401Y-80889397D01*
X64047902Y-81215897D01*
X64018899Y-81239699D01*
X63977549Y-81290085D01*
X63923926Y-81355424D01*
X63883630Y-81430812D01*
X63853354Y-81487454D01*
X63809897Y-81630715D01*
X63798900Y-81742368D01*
X63798900Y-81742378D01*
X63795224Y-81779700D01*
X63798900Y-81817022D01*
X63798900Y-82151098D01*
X63348005Y-82601994D01*
X63300074Y-82554063D01*
X63130556Y-82440795D01*
X62942198Y-82362774D01*
X62742239Y-82323000D01*
X62680102Y-82323000D01*
X61064300Y-80707199D01*
X61064300Y-78921000D01*
X61111867Y-78921000D01*
X61135689Y-79040760D01*
X61198633Y-79192721D01*
X61290013Y-79329481D01*
X61307000Y-79346468D01*
X61307000Y-79836250D01*
X61465750Y-79995000D01*
X61730000Y-79998072D01*
X61854482Y-79985812D01*
X61930000Y-79962904D01*
X62005518Y-79985812D01*
X62130000Y-79998072D01*
X62394250Y-79995000D01*
X62553000Y-79836250D01*
X62553000Y-79363668D01*
X62587187Y-79329481D01*
X62675200Y-79197760D01*
X62763213Y-79329481D01*
X62807000Y-79373268D01*
X62807000Y-79836250D01*
X62965750Y-79995000D01*
X63230000Y-79998072D01*
X63354482Y-79985812D01*
X63430000Y-79962904D01*
X63505518Y-79985812D01*
X63630000Y-79998072D01*
X63894250Y-79995000D01*
X64053000Y-79836250D01*
X64053000Y-79336868D01*
X64060387Y-79329481D01*
X64151767Y-79192721D01*
X64214711Y-79040760D01*
X64246800Y-78879440D01*
X64246800Y-78861933D01*
X64327000Y-78845980D01*
X64327000Y-78937000D01*
G37*
%TD.AperFunction*%
D25*
X65937747Y-71474445D02*
X66076100Y-71488072D01*
X66833900Y-71488072D01*
X66951066Y-71476532D01*
X64623403Y-73804196D01*
X64594399Y-73827999D01*
X64546038Y-73886928D01*
X64499426Y-73943724D01*
X64470575Y-73997700D01*
X64428854Y-74075754D01*
X64385397Y-74219015D01*
X64374400Y-74330668D01*
X64374400Y-74330678D01*
X64370724Y-74368000D01*
X64374400Y-74405323D01*
X64374400Y-74716350D01*
X64307000Y-74783750D01*
X64307000Y-75683000D01*
X64327000Y-75683000D01*
X64327000Y-75751220D01*
X64246800Y-75735267D01*
X64246800Y-75717760D01*
X64214711Y-75556440D01*
X64151767Y-75404479D01*
X64060387Y-75267719D01*
X64053000Y-75260332D01*
X64053000Y-74783750D01*
X63894250Y-74625000D01*
X63630000Y-74621928D01*
X63505518Y-74634188D01*
X63430000Y-74657096D01*
X63354482Y-74634188D01*
X63230000Y-74621928D01*
X62965750Y-74625000D01*
X62807000Y-74783750D01*
X62807000Y-75223932D01*
X62763213Y-75267719D01*
X62675200Y-75399440D01*
X62587187Y-75267719D01*
X62553000Y-75233532D01*
X62553000Y-74783750D01*
X62394250Y-74625000D01*
X62130000Y-74621928D01*
X62005518Y-74634188D01*
X61930000Y-74657096D01*
X61854482Y-74634188D01*
X61730000Y-74621928D01*
X61465750Y-74625000D01*
X61307000Y-74783750D01*
X61307000Y-75250732D01*
X61290013Y-75267719D01*
X61198633Y-75404479D01*
X61135689Y-75556440D01*
X61103600Y-75717760D01*
X61103600Y-75727000D01*
X61064300Y-75727000D01*
X61064300Y-73424801D01*
X63001030Y-71488072D01*
X63023900Y-71488072D01*
X63162253Y-71474445D01*
X63280000Y-71438727D01*
X63397747Y-71474445D01*
X63536100Y-71488072D01*
X64293900Y-71488072D01*
X64432253Y-71474445D01*
X64550000Y-71438727D01*
X64667747Y-71474445D01*
X64806100Y-71488072D01*
X65563900Y-71488072D01*
X65702253Y-71474445D01*
X65820000Y-71438727D01*
X65937747Y-71474445D01*
%TA.AperFunction,Conductor*%
D26*
G36*
X65937747Y-71474445D02*
G01*
X66076100Y-71488072D01*
X66833900Y-71488072D01*
X66951066Y-71476532D01*
X64623403Y-73804196D01*
X64594399Y-73827999D01*
X64546038Y-73886928D01*
X64499426Y-73943724D01*
X64470575Y-73997700D01*
X64428854Y-74075754D01*
X64385397Y-74219015D01*
X64374400Y-74330668D01*
X64374400Y-74330678D01*
X64370724Y-74368000D01*
X64374400Y-74405323D01*
X64374400Y-74716350D01*
X64307000Y-74783750D01*
X64307000Y-75683000D01*
X64327000Y-75683000D01*
X64327000Y-75751220D01*
X64246800Y-75735267D01*
X64246800Y-75717760D01*
X64214711Y-75556440D01*
X64151767Y-75404479D01*
X64060387Y-75267719D01*
X64053000Y-75260332D01*
X64053000Y-74783750D01*
X63894250Y-74625000D01*
X63630000Y-74621928D01*
X63505518Y-74634188D01*
X63430000Y-74657096D01*
X63354482Y-74634188D01*
X63230000Y-74621928D01*
X62965750Y-74625000D01*
X62807000Y-74783750D01*
X62807000Y-75223932D01*
X62763213Y-75267719D01*
X62675200Y-75399440D01*
X62587187Y-75267719D01*
X62553000Y-75233532D01*
X62553000Y-74783750D01*
X62394250Y-74625000D01*
X62130000Y-74621928D01*
X62005518Y-74634188D01*
X61930000Y-74657096D01*
X61854482Y-74634188D01*
X61730000Y-74621928D01*
X61465750Y-74625000D01*
X61307000Y-74783750D01*
X61307000Y-75250732D01*
X61290013Y-75267719D01*
X61198633Y-75404479D01*
X61135689Y-75556440D01*
X61103600Y-75717760D01*
X61103600Y-75727000D01*
X61064300Y-75727000D01*
X61064300Y-73424801D01*
X63001030Y-71488072D01*
X63023900Y-71488072D01*
X63162253Y-71474445D01*
X63280000Y-71438727D01*
X63397747Y-71474445D01*
X63536100Y-71488072D01*
X64293900Y-71488072D01*
X64432253Y-71474445D01*
X64550000Y-71438727D01*
X64667747Y-71474445D01*
X64806100Y-71488072D01*
X65563900Y-71488072D01*
X65702253Y-71474445D01*
X65820000Y-71438727D01*
X65937747Y-71474445D01*
G37*
%TD.AperFunction*%
D25*
X120898031Y-71939500D02*
X120945722Y-72096716D01*
X121023169Y-72241608D01*
X121127394Y-72368606D01*
X121160000Y-72395365D01*
X121160001Y-73955497D01*
X120334378Y-74781120D01*
X120325741Y-74760269D01*
X120246752Y-74642053D01*
X120283391Y-74616587D01*
X120432014Y-74462408D01*
X120547702Y-74282197D01*
X120619408Y-74079001D01*
X120492502Y-73912000D01*
X119102000Y-73912000D01*
X119102000Y-73932000D01*
X118848000Y-73932000D01*
X118848000Y-73912000D01*
X117457498Y-73912000D01*
X117415136Y-73967746D01*
X117268493Y-73966985D01*
X117143860Y-73977587D01*
X117023689Y-74012300D01*
X116912600Y-74069791D01*
X116814861Y-74147849D01*
X116734228Y-74243476D01*
X116673801Y-74352995D01*
X116635901Y-74472199D01*
X116625000Y-74573250D01*
X116684804Y-74633054D01*
X116673801Y-74652995D01*
X116635901Y-74772199D01*
X116635879Y-74772407D01*
X116465598Y-74701874D01*
X116265639Y-74662100D01*
X116061761Y-74662100D01*
X115963300Y-74681685D01*
X115963300Y-74590625D01*
X115966976Y-74553300D01*
X115963300Y-74515975D01*
X115963300Y-74515967D01*
X115952303Y-74404314D01*
X115908846Y-74261053D01*
X115838274Y-74129024D01*
X115743301Y-74013299D01*
X115714304Y-73989502D01*
X115215801Y-73490999D01*
X117330592Y-73490999D01*
X117457498Y-73658000D01*
X118848000Y-73658000D01*
X118848000Y-72700000D01*
X119102000Y-72700000D01*
X119102000Y-73658000D01*
X120492502Y-73658000D01*
X120619408Y-73490999D01*
X120547702Y-73287803D01*
X120432014Y-73107592D01*
X120283391Y-72953413D01*
X120107545Y-72831191D01*
X119911233Y-72745624D01*
X119702000Y-72700000D01*
X119102000Y-72700000D01*
X118848000Y-72700000D01*
X118248000Y-72700000D01*
X118038767Y-72745624D01*
X117842455Y-72831191D01*
X117666609Y-72953413D01*
X117517986Y-73107592D01*
X117402298Y-73287803D01*
X117330592Y-73490999D01*
X115215801Y-73490999D01*
X114488072Y-72763271D01*
X114488072Y-72525000D01*
X114471969Y-72361500D01*
X114424278Y-72204284D01*
X114357580Y-72079502D01*
X114362153Y-72081946D01*
X114505414Y-72125403D01*
X114617067Y-72136400D01*
X114617077Y-72136400D01*
X114654400Y-72140076D01*
X114691723Y-72136400D01*
X120304578Y-72136400D01*
X120341900Y-72140076D01*
X120379222Y-72136400D01*
X120379233Y-72136400D01*
X120490886Y-72125403D01*
X120634147Y-72081946D01*
X120766176Y-72011374D01*
X120881901Y-71916401D01*
X120894271Y-71901328D01*
X120898031Y-71939500D01*
%TA.AperFunction,Conductor*%
D26*
G36*
X120898031Y-71939500D02*
G01*
X120945722Y-72096716D01*
X121023169Y-72241608D01*
X121127394Y-72368606D01*
X121160000Y-72395365D01*
X121160001Y-73955497D01*
X120334378Y-74781120D01*
X120325741Y-74760269D01*
X120246752Y-74642053D01*
X120283391Y-74616587D01*
X120432014Y-74462408D01*
X120547702Y-74282197D01*
X120619408Y-74079001D01*
X120492502Y-73912000D01*
X119102000Y-73912000D01*
X119102000Y-73932000D01*
X118848000Y-73932000D01*
X118848000Y-73912000D01*
X117457498Y-73912000D01*
X117415136Y-73967746D01*
X117268493Y-73966985D01*
X117143860Y-73977587D01*
X117023689Y-74012300D01*
X116912600Y-74069791D01*
X116814861Y-74147849D01*
X116734228Y-74243476D01*
X116673801Y-74352995D01*
X116635901Y-74472199D01*
X116625000Y-74573250D01*
X116684804Y-74633054D01*
X116673801Y-74652995D01*
X116635901Y-74772199D01*
X116635879Y-74772407D01*
X116465598Y-74701874D01*
X116265639Y-74662100D01*
X116061761Y-74662100D01*
X115963300Y-74681685D01*
X115963300Y-74590625D01*
X115966976Y-74553300D01*
X115963300Y-74515975D01*
X115963300Y-74515967D01*
X115952303Y-74404314D01*
X115908846Y-74261053D01*
X115838274Y-74129024D01*
X115743301Y-74013299D01*
X115714304Y-73989502D01*
X115215801Y-73490999D01*
X117330592Y-73490999D01*
X117457498Y-73658000D01*
X118848000Y-73658000D01*
X118848000Y-72700000D01*
X119102000Y-72700000D01*
X119102000Y-73658000D01*
X120492502Y-73658000D01*
X120619408Y-73490999D01*
X120547702Y-73287803D01*
X120432014Y-73107592D01*
X120283391Y-72953413D01*
X120107545Y-72831191D01*
X119911233Y-72745624D01*
X119702000Y-72700000D01*
X119102000Y-72700000D01*
X118848000Y-72700000D01*
X118248000Y-72700000D01*
X118038767Y-72745624D01*
X117842455Y-72831191D01*
X117666609Y-72953413D01*
X117517986Y-73107592D01*
X117402298Y-73287803D01*
X117330592Y-73490999D01*
X115215801Y-73490999D01*
X114488072Y-72763271D01*
X114488072Y-72525000D01*
X114471969Y-72361500D01*
X114424278Y-72204284D01*
X114357580Y-72079502D01*
X114362153Y-72081946D01*
X114505414Y-72125403D01*
X114617067Y-72136400D01*
X114617077Y-72136400D01*
X114654400Y-72140076D01*
X114691723Y-72136400D01*
X120304578Y-72136400D01*
X120341900Y-72140076D01*
X120379222Y-72136400D01*
X120379233Y-72136400D01*
X120490886Y-72125403D01*
X120634147Y-72081946D01*
X120766176Y-72011374D01*
X120881901Y-71916401D01*
X120894271Y-71901328D01*
X120898031Y-71939500D01*
G37*
%TD.AperFunction*%
D25*
X123282000Y-73658000D02*
X123302000Y-73658000D01*
X123302000Y-73912000D01*
X123282000Y-73912000D01*
X123282000Y-73932000D01*
X123028000Y-73932000D01*
X123028000Y-73912000D01*
X123008000Y-73912000D01*
X123008000Y-73658000D01*
X123028000Y-73658000D01*
X123028000Y-73638000D01*
X123282000Y-73638000D01*
X123282000Y-73658000D01*
%TA.AperFunction,Conductor*%
D26*
G36*
X123282000Y-73658000D02*
G01*
X123302000Y-73658000D01*
X123302000Y-73912000D01*
X123282000Y-73912000D01*
X123282000Y-73932000D01*
X123028000Y-73932000D01*
X123028000Y-73912000D01*
X123008000Y-73912000D01*
X123008000Y-73658000D01*
X123028000Y-73658000D01*
X123028000Y-73638000D01*
X123282000Y-73638000D01*
X123282000Y-73658000D01*
G37*
%TD.AperFunction*%
D25*
X124435001Y-70591650D02*
X124421185Y-70574815D01*
X124324494Y-70495463D01*
X124214180Y-70436498D01*
X124094482Y-70400188D01*
X123970000Y-70387928D01*
X123855750Y-70391000D01*
X123697000Y-70549750D01*
X123697000Y-71374000D01*
X123717000Y-71374000D01*
X123717000Y-71628000D01*
X123697000Y-71628000D01*
X123697000Y-71648000D01*
X123560201Y-71648000D01*
X123505000Y-71592799D01*
X123505000Y-71124022D01*
X123508676Y-71086699D01*
X123505000Y-71049376D01*
X123505000Y-71049367D01*
X123494003Y-70937714D01*
X123450546Y-70794453D01*
X123443000Y-70780336D01*
X123443000Y-70549750D01*
X123284250Y-70391000D01*
X123170000Y-70387928D01*
X123125420Y-70392319D01*
X122894404Y-70161303D01*
X122870601Y-70132299D01*
X122754876Y-70037326D01*
X122622847Y-69966754D01*
X122479586Y-69923297D01*
X122367933Y-69912300D01*
X122367922Y-69912300D01*
X122330600Y-69908624D01*
X122293278Y-69912300D01*
X121083325Y-69912300D01*
X121046000Y-69908624D01*
X121008675Y-69912300D01*
X121008667Y-69912300D01*
X120981250Y-69915000D01*
X121081000Y-69815250D01*
X121084072Y-69626000D01*
X121071812Y-69501518D01*
X121035502Y-69381820D01*
X121032337Y-69375899D01*
X121093061Y-69401052D01*
X121640777Y-69510000D01*
X122199223Y-69510000D01*
X122746939Y-69401052D01*
X123262876Y-69187344D01*
X123727207Y-68877088D01*
X124122088Y-68482207D01*
X124432344Y-68017876D01*
X124435001Y-68011462D01*
X124435001Y-70591650D01*
%TA.AperFunction,Conductor*%
D26*
G36*
X124435001Y-70591650D02*
G01*
X124421185Y-70574815D01*
X124324494Y-70495463D01*
X124214180Y-70436498D01*
X124094482Y-70400188D01*
X123970000Y-70387928D01*
X123855750Y-70391000D01*
X123697000Y-70549750D01*
X123697000Y-71374000D01*
X123717000Y-71374000D01*
X123717000Y-71628000D01*
X123697000Y-71628000D01*
X123697000Y-71648000D01*
X123560201Y-71648000D01*
X123505000Y-71592799D01*
X123505000Y-71124022D01*
X123508676Y-71086699D01*
X123505000Y-71049376D01*
X123505000Y-71049367D01*
X123494003Y-70937714D01*
X123450546Y-70794453D01*
X123443000Y-70780336D01*
X123443000Y-70549750D01*
X123284250Y-70391000D01*
X123170000Y-70387928D01*
X123125420Y-70392319D01*
X122894404Y-70161303D01*
X122870601Y-70132299D01*
X122754876Y-70037326D01*
X122622847Y-69966754D01*
X122479586Y-69923297D01*
X122367933Y-69912300D01*
X122367922Y-69912300D01*
X122330600Y-69908624D01*
X122293278Y-69912300D01*
X121083325Y-69912300D01*
X121046000Y-69908624D01*
X121008675Y-69912300D01*
X121008667Y-69912300D01*
X120981250Y-69915000D01*
X121081000Y-69815250D01*
X121084072Y-69626000D01*
X121071812Y-69501518D01*
X121035502Y-69381820D01*
X121032337Y-69375899D01*
X121093061Y-69401052D01*
X121640777Y-69510000D01*
X122199223Y-69510000D01*
X122746939Y-69401052D01*
X123262876Y-69187344D01*
X123727207Y-68877088D01*
X124122088Y-68482207D01*
X124432344Y-68017876D01*
X124435001Y-68011462D01*
X124435001Y-70591650D01*
G37*
%TD.AperFunction*%
D25*
X116049928Y-64756000D02*
X116062188Y-64880482D01*
X116098498Y-65000180D01*
X116157463Y-65110494D01*
X116236815Y-65207185D01*
X116333506Y-65286537D01*
X116443820Y-65345502D01*
X116563518Y-65381812D01*
X116688000Y-65394072D01*
X117688000Y-65394072D01*
X117812482Y-65381812D01*
X117932180Y-65345502D01*
X118042494Y-65286537D01*
X118139185Y-65207185D01*
X118218537Y-65110494D01*
X118277502Y-65000180D01*
X118313812Y-64880482D01*
X118326072Y-64756000D01*
X118326072Y-64160000D01*
X120583536Y-64160000D01*
X120577124Y-64162656D01*
X120112793Y-64472912D01*
X119717912Y-64867793D01*
X119407656Y-65332124D01*
X119193948Y-65848061D01*
X119085000Y-66395777D01*
X119085000Y-66954223D01*
X119193948Y-67501939D01*
X119407656Y-68017876D01*
X119717912Y-68482207D01*
X120112793Y-68877088D01*
X120312333Y-69010417D01*
X120173000Y-69149750D01*
X120173000Y-69974000D01*
X120193000Y-69974000D01*
X120193000Y-70228000D01*
X120173000Y-70228000D01*
X120173000Y-70248000D01*
X119919000Y-70248000D01*
X119919000Y-70228000D01*
X119899000Y-70228000D01*
X119899000Y-69974000D01*
X119919000Y-69974000D01*
X119919000Y-69149750D01*
X119760250Y-68991000D01*
X119646000Y-68987928D01*
X119521518Y-69000188D01*
X119401820Y-69036498D01*
X119291506Y-69095463D01*
X119194815Y-69174815D01*
X119163590Y-69212863D01*
X119061608Y-69129169D01*
X118916716Y-69051722D01*
X118759500Y-69004031D01*
X118596000Y-68987928D01*
X118196000Y-68987928D01*
X118032500Y-69004031D01*
X117875284Y-69051722D01*
X117730392Y-69129169D01*
X117620500Y-69219355D01*
X117570132Y-69178019D01*
X117550546Y-69113453D01*
X117479974Y-68981424D01*
X117385001Y-68865699D01*
X117356004Y-68841902D01*
X117269900Y-68755798D01*
X117269900Y-68693661D01*
X117230126Y-68493702D01*
X117152105Y-68305344D01*
X117038837Y-68135826D01*
X116894674Y-67991663D01*
X116776072Y-67912416D01*
X116776072Y-67604072D01*
X117688000Y-67604072D01*
X117812482Y-67591812D01*
X117932180Y-67555502D01*
X118042494Y-67496537D01*
X118139185Y-67417185D01*
X118218537Y-67320494D01*
X118277502Y-67210180D01*
X118313812Y-67090482D01*
X118326072Y-66966000D01*
X118326072Y-66166000D01*
X118313812Y-66041518D01*
X118277502Y-65921820D01*
X118218537Y-65811506D01*
X118139185Y-65714815D01*
X118042494Y-65635463D01*
X117932180Y-65576498D01*
X117812482Y-65540188D01*
X117688000Y-65527928D01*
X116688000Y-65527928D01*
X116563518Y-65540188D01*
X116443820Y-65576498D01*
X116333506Y-65635463D01*
X116236815Y-65714815D01*
X116157463Y-65811506D01*
X116148151Y-65828928D01*
X116138000Y-65827928D01*
X116058338Y-65827928D01*
X116081304Y-65772483D01*
X116123000Y-65562863D01*
X116123000Y-65349137D01*
X116081304Y-65139517D01*
X115999515Y-64942060D01*
X115880775Y-64764353D01*
X115729647Y-64613225D01*
X115551940Y-64494485D01*
X115354483Y-64412696D01*
X115144863Y-64371000D01*
X114931137Y-64371000D01*
X114721517Y-64412696D01*
X114524060Y-64494485D01*
X114346353Y-64613225D01*
X114195225Y-64764353D01*
X114076485Y-64942060D01*
X114005745Y-65112843D01*
X113052901Y-64160000D01*
X116049928Y-64160000D01*
X116049928Y-64756000D01*
%TA.AperFunction,Conductor*%
D26*
G36*
X116049928Y-64756000D02*
G01*
X116062188Y-64880482D01*
X116098498Y-65000180D01*
X116157463Y-65110494D01*
X116236815Y-65207185D01*
X116333506Y-65286537D01*
X116443820Y-65345502D01*
X116563518Y-65381812D01*
X116688000Y-65394072D01*
X117688000Y-65394072D01*
X117812482Y-65381812D01*
X117932180Y-65345502D01*
X118042494Y-65286537D01*
X118139185Y-65207185D01*
X118218537Y-65110494D01*
X118277502Y-65000180D01*
X118313812Y-64880482D01*
X118326072Y-64756000D01*
X118326072Y-64160000D01*
X120583536Y-64160000D01*
X120577124Y-64162656D01*
X120112793Y-64472912D01*
X119717912Y-64867793D01*
X119407656Y-65332124D01*
X119193948Y-65848061D01*
X119085000Y-66395777D01*
X119085000Y-66954223D01*
X119193948Y-67501939D01*
X119407656Y-68017876D01*
X119717912Y-68482207D01*
X120112793Y-68877088D01*
X120312333Y-69010417D01*
X120173000Y-69149750D01*
X120173000Y-69974000D01*
X120193000Y-69974000D01*
X120193000Y-70228000D01*
X120173000Y-70228000D01*
X120173000Y-70248000D01*
X119919000Y-70248000D01*
X119919000Y-70228000D01*
X119899000Y-70228000D01*
X119899000Y-69974000D01*
X119919000Y-69974000D01*
X119919000Y-69149750D01*
X119760250Y-68991000D01*
X119646000Y-68987928D01*
X119521518Y-69000188D01*
X119401820Y-69036498D01*
X119291506Y-69095463D01*
X119194815Y-69174815D01*
X119163590Y-69212863D01*
X119061608Y-69129169D01*
X118916716Y-69051722D01*
X118759500Y-69004031D01*
X118596000Y-68987928D01*
X118196000Y-68987928D01*
X118032500Y-69004031D01*
X117875284Y-69051722D01*
X117730392Y-69129169D01*
X117620500Y-69219355D01*
X117570132Y-69178019D01*
X117550546Y-69113453D01*
X117479974Y-68981424D01*
X117385001Y-68865699D01*
X117356004Y-68841902D01*
X117269900Y-68755798D01*
X117269900Y-68693661D01*
X117230126Y-68493702D01*
X117152105Y-68305344D01*
X117038837Y-68135826D01*
X116894674Y-67991663D01*
X116776072Y-67912416D01*
X116776072Y-67604072D01*
X117688000Y-67604072D01*
X117812482Y-67591812D01*
X117932180Y-67555502D01*
X118042494Y-67496537D01*
X118139185Y-67417185D01*
X118218537Y-67320494D01*
X118277502Y-67210180D01*
X118313812Y-67090482D01*
X118326072Y-66966000D01*
X118326072Y-66166000D01*
X118313812Y-66041518D01*
X118277502Y-65921820D01*
X118218537Y-65811506D01*
X118139185Y-65714815D01*
X118042494Y-65635463D01*
X117932180Y-65576498D01*
X117812482Y-65540188D01*
X117688000Y-65527928D01*
X116688000Y-65527928D01*
X116563518Y-65540188D01*
X116443820Y-65576498D01*
X116333506Y-65635463D01*
X116236815Y-65714815D01*
X116157463Y-65811506D01*
X116148151Y-65828928D01*
X116138000Y-65827928D01*
X116058338Y-65827928D01*
X116081304Y-65772483D01*
X116123000Y-65562863D01*
X116123000Y-65349137D01*
X116081304Y-65139517D01*
X115999515Y-64942060D01*
X115880775Y-64764353D01*
X115729647Y-64613225D01*
X115551940Y-64494485D01*
X115354483Y-64412696D01*
X115144863Y-64371000D01*
X114931137Y-64371000D01*
X114721517Y-64412696D01*
X114524060Y-64494485D01*
X114346353Y-64613225D01*
X114195225Y-64764353D01*
X114076485Y-64942060D01*
X114005745Y-65112843D01*
X113052901Y-64160000D01*
X116049928Y-64160000D01*
X116049928Y-64756000D01*
G37*
%TD.AperFunction*%
D25*
X59219000Y-64314250D02*
X59377750Y-64473000D01*
X60452000Y-64473000D01*
X60452000Y-64453000D01*
X60706000Y-64453000D01*
X60706000Y-64473000D01*
X61780250Y-64473000D01*
X61939000Y-64314250D01*
X61940570Y-64160000D01*
X62578409Y-64160000D01*
X62523284Y-64176722D01*
X62378392Y-64254169D01*
X62251394Y-64358394D01*
X62147169Y-64485392D01*
X62069722Y-64630284D01*
X62032223Y-64753900D01*
X61807150Y-64753900D01*
X61780250Y-64727000D01*
X60706000Y-64727000D01*
X60706000Y-64747000D01*
X60452000Y-64747000D01*
X60452000Y-64727000D01*
X59377750Y-64727000D01*
X59350850Y-64753900D01*
X58744364Y-64753900D01*
X58814326Y-64584998D01*
X58854100Y-64385039D01*
X58854100Y-64181161D01*
X58849891Y-64160000D01*
X59217430Y-64160000D01*
X59219000Y-64314250D01*
%TA.AperFunction,Conductor*%
D26*
G36*
X59219000Y-64314250D02*
G01*
X59377750Y-64473000D01*
X60452000Y-64473000D01*
X60452000Y-64453000D01*
X60706000Y-64453000D01*
X60706000Y-64473000D01*
X61780250Y-64473000D01*
X61939000Y-64314250D01*
X61940570Y-64160000D01*
X62578409Y-64160000D01*
X62523284Y-64176722D01*
X62378392Y-64254169D01*
X62251394Y-64358394D01*
X62147169Y-64485392D01*
X62069722Y-64630284D01*
X62032223Y-64753900D01*
X61807150Y-64753900D01*
X61780250Y-64727000D01*
X60706000Y-64727000D01*
X60706000Y-64747000D01*
X60452000Y-64747000D01*
X60452000Y-64727000D01*
X59377750Y-64727000D01*
X59350850Y-64753900D01*
X58744364Y-64753900D01*
X58814326Y-64584998D01*
X58854100Y-64385039D01*
X58854100Y-64181161D01*
X58849891Y-64160000D01*
X59217430Y-64160000D01*
X59219000Y-64314250D01*
G37*
%TD.AperFunction*%
%TD*%
M02*
